<mxfile host="app.diagrams.net" modified="2022-03-12T16:42:17.785Z" agent="5.0 (Macintosh; Intel Mac OS X 10_15_7) AppleWebKit/537.36 (KHTML, like Gecko) Chrome/98.0.4758.102 Safari/537.36" etag="vfDt-IsiYVtYFElGSJSe" version="16.6.6" type="github">
  <diagram id="mviIjNxeNMBT1zJr2vZd" name="Page-1">
    <mxGraphModel dx="1178" dy="742" grid="1" gridSize="10" guides="1" tooltips="1" connect="1" arrows="1" fold="1" page="1" pageScale="1" pageWidth="850" pageHeight="1100" math="0" shadow="0">
      <root>
        <mxCell id="0" />
        <mxCell id="1" parent="0" />
        <mxCell id="8LFO8qr75mRFccLILeyE-1" value="Mint and Verification Website:&lt;br&gt;https://nft-lands-g5c8o.ondigitalocean.app/" style="rounded=1;whiteSpace=wrap;html=1;" vertex="1" parent="1">
          <mxGeometry x="90" y="100" width="260" height="140" as="geometry" />
        </mxCell>
        <mxCell id="8LFO8qr75mRFccLILeyE-2" value="&lt;font style=&quot;font-size: 25px&quot;&gt;&lt;b&gt;IPFS&lt;/b&gt;&lt;/font&gt;&lt;br&gt;" style="rounded=1;whiteSpace=wrap;html=1;" vertex="1" parent="1">
          <mxGeometry x="90" y="460" width="640" height="140" as="geometry" />
        </mxCell>
        <mxCell id="8LFO8qr75mRFccLILeyE-3" value="Internet" style="ellipse;shape=cloud;whiteSpace=wrap;html=1;fillColor=#dae8fc;strokeColor=#6c8ebf;" vertex="1" parent="1">
          <mxGeometry x="320" y="240" width="280" height="160" as="geometry" />
        </mxCell>
        <mxCell id="8LFO8qr75mRFccLILeyE-4" value="Mumbai - Polygon Network" style="sketch=0;points=[[0,0,0],[0.25,0,0],[0.5,0,0],[0.75,0,0],[1,0,0],[0,1,0],[0.25,1,0],[0.5,1,0],[0.75,1,0],[1,1,0],[0,0.25,0],[0,0.5,0],[0,0.75,0],[1,0.25,0],[1,0.5,0],[1,0.75,0]];outlineConnect=0;fontColor=#232F3E;gradientColor=#F78E04;gradientDirection=north;fillColor=#D05C17;strokeColor=#ffffff;dashed=0;verticalLabelPosition=bottom;verticalAlign=top;align=center;html=1;fontSize=12;fontStyle=0;aspect=fixed;shape=mxgraph.aws4.resourceIcon;resIcon=mxgraph.aws4.blockchain;" vertex="1" parent="1">
          <mxGeometry x="630" y="100" width="99" height="99" as="geometry" />
        </mxCell>
        <mxCell id="8LFO8qr75mRFccLILeyE-5" value="Public and Pinned&#xa;Plot NFT Data" style="shape=image;verticalLabelPosition=bottom;labelBackgroundColor=default;verticalAlign=top;aspect=fixed;imageAspect=0;image=data:image/png,iVBORw0KGgoAAAANSUhEUgAAAOwAAAB6CAYAAAC87L9KAAAMbGlDQ1BJQ0MgUHJvZmlsZQAASImVVwdYU8kWnluSkJDQAhGQEnoTRHqREkKLVKmCjZAEEkqMCUHFhsqigmsXUbChqyCKrq6ALCpiL4ti74sFFWVd1EVRVN6EBHTdV753vm/u/Dlz5j8lM/fOAKDZx5VIclAtAHLFedK4sCDmhJRUJukpQAEFqAN3QOLyZBJWbGwkgDLU/13e3QCIor/qqOD65/h/FR2+QMYDAJkEcTpfxsuFuAUAvJInkeYBQFToLWbkSRS4EGJdKQwQ4rUKnKnE1QqcrsTNgzYJcWyILwOgRuVypZkAaNyDemY+LxPyaHyC2FnMF4kB0BwFsT9PyOVDrIh9VG7uNAUuh9gW2ksghvEAr/RvODP/xp8+zM/lZg5jZV6DohYskklyuLP+z9L8b8nNkQ/5sIaNKpSGxynyhzW8lT0tQoGpEHeL06NjFLWGuE/EV9YdAJQilIcnKu1RI56MDesHGBA787nBERAbQRwqzomOVOnTM0ShHIjhakFnivI4CRDrQ7xEIAuJV9lslU6LU/lC6zOkbJZKf5YrHfSr8PVAnp3IUvG/EQo4Kn5Mo0CYkAwxBWLLfFFSNMQaEDvJsuMjVDZjC4Ts6CEbqTxOEb8lxHECcViQkh/Lz5CGxqnsS3JlQ/liW4UiTrQKH8gTJoQr64Od5HEH44e5YJcFYlbiEI9ANiFyKBe+IDhEmTv2XCBOjFfx9EnyguKUc3GKJCdWZY+bC3LCFHpziN1k+fGquXhSHlycSn48Q5IXm6CMEy/I4o6LVcaDrwSRgA2CARPIYUsH00AWELV1N3TDX8qRUMAFUpAJBMBRpRmakTw4IobPeFAA/oBIAGTD84IGRwUgH+o/D2uVT0eQMTiaPzgjGzyFOBdEgBz4Wz44SzzsLQk8gRrRP7xzYePBeHNgU4z/e/2Q9quGBTWRKo18yCNTc8iSGEIMJoYTQ4l2uCHuj/vikfAZCJsL7oV7D+Xx1Z7wlNBOeES4Tugg3J4qWij9Lsoo0AH5Q1W1SP+2Frg15HTHg3A/yA6ZcQZuCBxxN+iHhQdAz+5Qy1bFragK8zvuv2Xwzb+hsiM7k1HyCHIg2fb7mRr2Gu7DLIpaf1sfZazpw/VmD49875/9TfX5sI/43hJbgh3EzmDHsXNYM9YAmNgxrBG7iB1R4OHV9WRwdQ15ixuMJxvyiP7hj6vyqaikzLnWucv5k3IsTzAzT7Hx2NMks6SiTGEekwW/DgImR8xzGsV0cXZxAUDxrVG+vt4yBr8hCOP8V90iMwD8Zg0MDDR/1UXAd+7BI3D73/mqs+mEr4nzAJxdz5NL85U6XPEgwLeEJtxpBsAEWABbmI8L8AC+IBCEgHEgBiSAFDAFVlkI17kUzABzwAJQDErBSrAObARbwHZQDfaCA6ABNIPj4DS4AC6D6+AuXD2d4CXoAe9AP4IgJISG0BEDxBSxQhwQF8QL8UdCkEgkDklB0pBMRIzIkTnIIqQUWY1sRLYhNcjPyGHkOHIOaUduIw+RLuQN8hHFUCqqixqj1uho1AtloRFoAjoZzUSnowVoEbocLUer0D1oPXocvYBeRzvQl2gvBjB1jIGZYY6YF8bGYrBULAOTYvOwEqwMq8LqsCb4P1/FOrBu7ANOxOk4E3eEKzgcT8R5+HR8Hr4M34hX4/X4Sfwq/hDvwb8QaAQjggPBh8AhTCBkEmYQigllhJ2EQ4RTcC91Et4RiUQG0YboCfdiCjGLOJu4jLiJuI/YQmwnPib2kkgkA5IDyY8UQ+KS8kjFpA2kPaRjpCukTlKfmrqaqZqLWqhaqppYbaFamdputaNqV9SeqfWTtchWZB9yDJlPnkVeQd5BbiJfIneS+ynaFBuKHyWBkkVZQCmn1FFOUe5R3qqrq5ure6uPVxepF6qXq+9XP6v+UP0DVYdqT2VTJ1Hl1OXUXdQW6m3qWxqNZk0LpKXS8mjLaTW0E7QHtD4NuoaTBkeDrzFfo0KjXuOKxitNsqaVJktzimaBZpnmQc1Lmt1aZC1rLbYWV2ueVoXWYa2bWr3adO0x2jHaudrLtHdrn9N+rkPSsdYJ0eHrFOls1zmh85iO0S3obDqPvoi+g36K3qlL1LXR5ehm6Zbq7tVt0+3R09Fz00vSm6lXoXdEr4OBMawZHEYOYwXjAOMG4+MI4xGsEYIRS0fUjbgy4r3+SP1AfYF+if4+/ev6Hw2YBiEG2QarDBoM7hvihvaG4w1nGG42PGXYPVJ3pO9I3siSkQdG3jFCjeyN4oxmG203umjUa2xiHGYsMd5gfMK424RhEmiSZbLW5KhJlynd1N9UZLrW9JjpC6Yek8XMYZYzTzJ7zIzMws3kZtvM2sz6zW3ME80Xmu8zv29BsfCyyLBYa9Fq0WNpahllOcey1vKOFdnKy0potd7qjNV7axvrZOvF1g3Wz230bTg2BTa1NvdsabYBttNtq2yv2RHtvOyy7TbZXbZH7d3thfYV9pccUAcPB5HDJof2UYRR3qPEo6pG3XSkOrIc8x1rHR86MZwinRY6NTi9Gm05OnX0qtFnRn9xdnfOcd7hfHeMzphxYxaOaRrzxsXehedS4XLNleYa6jrftdH1tZuDm8Bts9std7p7lPti91b3zx6eHlKPOo8uT0vPNM9Kz5teul6xXsu8znoTvIO853s3e3/w8fDJ8zng86evo2+2727f52NtxgrG7hj72M/cj+u3za/Dn+mf5r/VvyPALIAbUBXwKNAikB+4M/AZy46VxdrDehXkHCQNOhT0nu3DnstuCcaCw4JLgttCdEISQzaGPAg1D80MrQ3tCXMPmx3WEk4IjwhfFX6TY8zhcWo4PeM8x80ddzKCGhEfsTHiUaR9pDSyKQqNGhe1JupetFW0OLohBsRwYtbE3I+1iZ0e++t44vjY8RXjn8aNiZsTdyaeHj81fnf8u4SghBUJdxNtE+WJrUmaSZOSapLeJwcnr07umDB6wtwJF1IMU0Qpjamk1KTUnam9E0MmrpvYOcl9UvGkG5NtJs+cfG6K4ZScKUemak7lTj2YRkhLTtud9okbw63i9qZz0ivTe3hs3nreS34gfy2/S+AnWC14luGXsTrjeaZf5prMLmGAsEzYLWKLNopeZ4Vnbcl6nx2TvSt7ICc5Z1+uWm5a7mGxjjhbfHKaybSZ09olDpJiScd0n+nrpvdII6Q7ZYhssqwxTxce6i/KbeU/yB/m++dX5PfNSJpxcKb2TPHMi7PsZy2d9awgtOCn2fhs3uzWOWZzFsx5OJc1d9s8ZF76vNb5FvOL5ncWhhVWL6AsyF7w20LnhasX/rUoeVFTkXFRYdHjH8J+qC3WKJYW31zsu3jLEnyJaEnbUtelG5Z+KeGXnC91Li0r/bSMt+z8j2N+LP9xYHnG8rYVHis2rySuFK+8sSpgVfVq7dUFqx+viVpTv5a5tmTtX+umrjtX5la2ZT1lvXx9R3lkeeMGyw0rN3zaKNx4vSKoYl+lUeXSyveb+JuubA7cXLfFeEvplo9bRVtvbQvbVl9lXVW2nbg9f/vTHUk7zvzk9VPNTsOdpTs/7xLv6qiOqz5Z41lTs9to94patFZe27Vn0p7Le4P3NtY51m3bx9hXuh/sl+9/8XPazzcORBxoPeh1sO4Xq18qD9EPldQj9bPqexqEDR2NKY3th8cdbm3ybTr0q9Ovu5rNmiuO6B1ZcZRytOjowLGCY70tkpbu45nHH7dObb17YsKJayfHn2w7FXHq7OnQ0yfOsM4cO+t3tvmcz7nD573ON1zwuFB/0f3iod/cfzvU5tFWf8nzUuNl78tN7WPbj14JuHL8avDV09c41y5cj77efiPxxq2bk2523OLfen475/brO/l3+u8W3iPcK7mvdb/sgdGDqt/tft/X4dFx5GHww4uP4h/dfcx7/PKJ7MmnzqKntKdlz0yf1Tx3ed7cFdp1+cXEF50vJS/7u4v/0P6j8pXtq1/+DPzzYs+Ens7X0tcDb5a9NXi76y+3v1p7Y3sfvMt91/++pM+gr/qD14czH5M/Puuf8Yn0qfyz3eemLxFf7g3kDgxIuFLu4FEAgw3NyADgzS4AaCkA0OEZgjJReRccFER5fx1E4D9h5X1xUDwAqIOd4hjPbgFgP2zWhZAb9oojfEIgQF1dh5tKZBmuLkouKrwJEfoGBt4aA0BqAuCzdGCgf9PAwOcdMNjbALRMV95BFUKEd4atwQp0e83kQvCdKO+n3+T4fQ8UEbiB7/t/AXTtkVWdU5CtAAAAimVYSWZNTQAqAAAACAAEARoABQAAAAEAAAA+ARsABQAAAAEAAABGASgAAwAAAAEAAgAAh2kABAAAAAEAAABOAAAAAAAAAJAAAAABAAAAkAAAAAEAA5KGAAcAAAASAAAAeKACAAQAAAABAAAA7KADAAQAAAABAAAAegAAAABBU0NJSQAAAFNjcmVlbnNob3Qd7p5eAAAACXBIWXMAABYlAAAWJQFJUiTwAAAB1mlUWHRYTUw6Y29tLmFkb2JlLnhtcAAAAAAAPHg6eG1wbWV0YSB4bWxuczp4PSJhZG9iZTpuczptZXRhLyIgeDp4bXB0az0iWE1QIENvcmUgNi4wLjAiPgogICA8cmRmOlJERiB4bWxuczpyZGY9Imh0dHA6Ly93d3cudzMub3JnLzE5OTkvMDIvMjItcmRmLXN5bnRheC1ucyMiPgogICAgICA8cmRmOkRlc2NyaXB0aW9uIHJkZjphYm91dD0iIgogICAgICAgICAgICB4bWxuczpleGlmPSJodHRwOi8vbnMuYWRvYmUuY29tL2V4aWYvMS4wLyI+CiAgICAgICAgIDxleGlmOlBpeGVsWURpbWVuc2lvbj4xMjI8L2V4aWY6UGl4ZWxZRGltZW5zaW9uPgogICAgICAgICA8ZXhpZjpQaXhlbFhEaW1lbnNpb24+MjM2PC9leGlmOlBpeGVsWERpbWVuc2lvbj4KICAgICAgICAgPGV4aWY6VXNlckNvbW1lbnQ+U2NyZWVuc2hvdDwvZXhpZjpVc2VyQ29tbWVudD4KICAgICAgPC9yZGY6RGVzY3JpcHRpb24+CiAgIDwvcmRmOlJERj4KPC94OnhtcG1ldGE+Cps+uZIAAAAcaURPVAAAAAIAAAAAAAAAPQAAACgAAAA9AAAAPQAAC21GeSAcAAALOUlEQVR4AeydeVAUdxbHv8ONXCqgRgMq4n2Q1RhwY0TDVtR4oaKUihA16sa4qdI14lGVlFn9w002qayWu1tW1JSuWkatRHeTNYZF11ovRIKICoLAgHIM5wzMcMyx3Q3dc/VczIiZ5XXV0O/3fu/3657Pr7+8nj4lOmYCTUSACLgFAQkJ1i3GiVaSCHAESLC0IRABNyJAgnWjwaJVJQIkWNoGiIAbESDButFg0aoSARIsbQNEwI0IkGDdaLBoVYkACZa2ASLgRgRIsG40WLSqRIAES9sAEXAjAiRYNxosWlUiQIKlbYAIuBEBEqwbDRatKhEgwTqxDeTVK3GupJ7rYUSwH1aPDHOiN2pKBGwTIMHaZiQaceZJHdiP4bRu9ADMjehr6CKbCLiUAAm2GzjFxMp38/XMaAR4efBFmhMBlxIgwTqI85myHbuyytHcoRFt+VnsUAwL8hXqvs1+gG+z8/GoUsb5Zk8chU0JcRgYEijEkEEE7CVAgrWXVFfc4Uc1uFTRaLHVJ1MiMK6fPx5X1eLw1Sz851GJWezrI4fiTyvnmfnJQQRsESDB2iJkUF+qaMP2rDJotQZOE5MVbEHxExzKuAlFa5tJrb548+NN+gJZRMBOAiRYO0GxYV8V1OCHcsvZlY0Z01GPn27fZU2LU5CfLy6nr7NYTxVEwBIBEqwlMib+py3t2H5bijaNlfTKtKnOuYkOZbNJa+PijDHD8cfkucZOKhEBOwiQYO2AxIYcfyzDd2UNNqOf3boCrVptNS59XjwWvzreagxVEgExAiRYMSomvhpVB9KZ7KqwcGSYD9dpNXh6I5Mvis6H9AvBid8uh7+Pt2g9OYmANQIkWGt0uupOF9fhbInxRRJizdQqJaruXherEnzr46di3cypQpkMIuAIARKsDVoNbWouu9Yzc1tTW1MDZPezLYbFjojAlykLLNZTBRGwRYAEa4PQWeZa4dPFtTaiOqtVNZWoe5wvGtuH2QU+mLoI44YMEK0nJxGwhwAJ1gol9jdr+i0palo7rETpq+QVpZCXFekdBtaWOdORHDvJwEMmEXCcAAnWCrPvSutxvMi+7Mp2U194H0pZlVmPCeOjsS/pLTM/OYiAowRIsBaIKdVa7GCODLPXDts7iZ2DHRgciINpixDRP8TebiiOCFgkQIK1gOaf0gYcLey8YN9CiIlbx53S0Zlct/hxYgLmxow2iaUiEegeARKsCLd2rQ47mN+u0hbL1wKbNmtvlqMm97aRO2nqRGx7+w0jHxWIgDMESLAi9G5Jb2Cs5nPkK6PxUBWNfNUISNtegg4SkehOl7L6KeqLHgr1owaF4a/vJKKPr4/gI4MIOEuABGtCUMO837q46PeI8i40qQFK2l/GA0bEBarhKG9/CZUd+kfCNJUUQvFMKrQ5mLoQrw5/WSiTQQRcQYAEa0LxTvlNvKLZa+IVL8q1AVwGLlINRX6xEg+lWsiUftwN6qnTJ4s3Ii8RcIIACdYEnqZ6J3SqPBOv/cVSRTiGD54Kic9QSLyZDzOHR5D9HVAkEbBCgARrAEfXmgdN1U4DjwtMr76McKOALvF6BP7GBZ1SF72VAAnWYOSdza4GXVk0a5YvgMKrA35xEYjcMxeSIDooZREWVZgRIMF2IXEmu0r8xkPiFwN49oWu/TF0istmoHlHQ3Iib6Jdq0bbAB8MP51CwhWokGGNAAm2i053s6vEfzI8QpajrCoQlZWVmBY3BVrF99DKzwFq8xveDQXLDwwrXOXoQIw8kcK7aE4ERAmQYBkszmRXj7Bt+LkwGFOmTOEA79u3D7t27WJ+C6cz/ZrfuSMmWH5kZF4qjPvv7/gizYmAGQESLIOku9mVpek5+Auc/OY2UlI6s+OyZctw5swZaGT7oWu5ZgbcmmDZ4Ka+OkRfWm/WjhxEgCXQ6wXrTHZlAXr034grdwJw6NAhlJaWYuXKldi6ZTM0NX9gTg/lsCFGky3BssGSTTEIS6OnUhiBowJHoNcL1nA76E6mlfhEMKJ9nznoNEHoStP4d+gaTwllQ8MewT4LbEVMxmbDZmQTAY4ACbZrQ3Am00r8xjLnWYcx6TaAOdBULborzG9v9gj2qvwRkh5+xjehOREQCJBgu1B0J7sKFB0wbAk2V1EG5UBvLMz8yIFeKbS3ECDBMiPtTHZ1dEOxJti8ZinuykuQ/PkHiFhGv2EdZdsb4kmwzCg/j+x67GwFZv06FEMH+xttR6aCbehoQZlKhmJVNZo1rYhNmI43jm00akMFIsAT6PWCfR7ZtaRCiY078uDJvCZ25rQwzHo9FK9N6nzR8+MlCZC1y1HXrkBNexMUjEjZyVPigSnxcZhx/D1+bGhOBMwI9HrBPo/sylIuKmtB5vU65lOLR0XNTLYNw1vx4Xi4e5TRIERFDkPUm69gQvp8eAX6GtVRgQiYEujVgmWzq5b58NM3T+p406m5plWFFlkl14eaeVSqrKoRmlo5VNWNSOxYhX6jBmNA3EiEzTAWr1MLpca9gkCvFqzhCO/PfYYsmfW3zhnG27IrrmcwR7N0Qlj/gD74fts7QpkMItAdAm4j2NIb+seNBg/yRP/hnt35vhbbLL2UD4mn615QVfsgB60Nxhn73AcpGNIv2OI6UAURsEXArQR7bI3+7pfoWB+MSfDFxER/+AZbfjiaLQBs/UXmNZJfM6+TdOXUzDzfqZF5zpPh9HbMGHyU+Kahi2wi4BABtxUs/y1Dwj0xOz0Q4+b78S6H58n/+Bkavz4Ot7PWQOxNdn37+ONfH66x1ozqiIBVAm4lWP6byArVKMvqwP2fOk+JsP71p/pjyK8c36WtYp7sv/l6Kd+1S+eyvGy0yfV7BWznX6ycj2kjI126HHs6k0qlWLJkic3Q6OhojB07FqtXr0ZUFPNoG4OpoKAAq1at4jx79+7FnDlzDGrJ7AkCbiNYMRi3vlLih08VXNXE2X5Y+mWIWJhVX9rFLLT4O97OaqddlYryEjRJi41CX4uKwJ9XLzDy9UThyZMnmDdvnkOL2rlzJ1JTU4U2+fn5SEpK4sr79+/HwoULhbqeNkpKSnDgwAFusWvXrsWECfqbL3p6XXpyeW4tWBZU9gkVLu6Vc8xS/tIX0bMcO5f5yRX9aZ17asfaig1UR4vC6Lcr+87YRZPHISq8vxCeHNfzb7EzFOyIESPMxNvW1obi4mLk5OSgrk5/sOz06dOIiYnh1v2XlGGzs7OFe5APHjyIhIQEge//s+H2gmUH528L6lD5WI3JC/yx8NPuHYXdnVWOgiaVS8a69v5dtDbVC335ennh6u4NQvlFGIaCXbp0KdhdWrFJrVZj9+7duHDhAlc9a9Ys7l5fsdgX6SPBvkj6diy78HIb7pxSoaFCA7lMAx9/CYaM98bgSd4I6OfBZdnwSC+8/2OoHb2ZhyRdfsTcOc5cS+iCyfS1HWyX78ZPxbszX9wF/fYKll1XuVyO2NhY1sSgQYOQmZnJ2Y7+USgUqK2tRWRkJDw9bZ+G02g0XHZnM3xISAhCQ0Ph6yu+1+OIYJVKJfe8LS3zorLw8HCub4nEuTMLjrJwVbxbZNgz7zXhQab+AJO1L//htXAEhDsmvEMPqvDvZ5271db6trdOx2x4lVnXoNWohSbB/n74cftaodzThiOCZddt+vTpwq7xvXv34O3tDbaPrVu3cqu+ZcsWxMfHc/b58+eF35OsuE+ePMl92F1sfoqLi8OePXs48fI+fs6K+siRIzh69CjvEubsMtasWSP8A2lsbMTixYvB/jNoaWnh4gICAhAUFIQNGzZgxYoVQtuMjAwcPnwYubm5go812H8EbFxaWhoCAwON6n7phf8BAAD//wSCH84AABInSURBVO1dB1hU17b+GUBQLNgrmtixfEYS0YSnYrtqUB9GYo8+S6JeNU+9T1/E8nmNicm9GuONXnuifqhoErtPRb1qInZjxYqCojRBehumvL325Jw5M87AgVhmuHt/33DW3mvtcv7hn7XLmjMuRpbgwGnHpAzcPJ7PR9i2tyeaBJSDt48rz0fty8eFnXkWox+5yhtNu3lYlBWX+fBwFIyu7sWZlUifHn0L2UlPLOqE9u+GAX6+FmWvKvPgwQMEBQXx7gYNGoRFixbZ7Vqv16NNmzZcX716dZw6dYrLUVFRCAkJ4fLXX3+NAQMGcHnz5s1YvHgxl6ntn3/+mcvWf+rUqYOtW7eibt26sor6GjFiBK5evSqX2RJWrlyJ7t27IyUlBZ07d7ZlgmnTpmHChAlcd/LkSUycONGmnVT49ttvY/369fD09JSKHP7q4uiEjT2jxb45mWjbzxOBMypaAHphUy5OrMxBTqZBLv/swDS4l68KuNUG3BvCxf0NaDybs3x92UYpHIpLx/o7ycqiFyIXZKTh6Y1LFm3VqlwRe6ePsih7VZmSEJb+iZcuXcqH1rVrV6xevZrLaggr3c/s2bPh5+eHpKQkLFu2DPfv3+eqjz/+GDNmzJDMeNvLly/n+YEDB2LcuHGoUaMGoqOjce7cOXz33Xdc17ZtW+zYsQNE8CtXruDGjRv46quvuG7q1Kno2LEj6tevD/pQSE9PR8+ePZGTkwP6wFmwYAHat2/P81Rv48aNuH79Oq+7Zs0adOnShcvO8MfhCUsgJt3SobavmwWeG4ekIfaq1qLso6XhaNT6iEWZRUbjDp3eFdpCI3QGkj2wJTUQKfqqyDd4QOfijnKuBrhr2Mu19BOP2GeeyNG6QhdzAch5hnyNN/Tu1fhQvgj5E/yb+FgM61VklIT19/fnxFD2m5ubi4sXL+KXX35BXFycrAoLCwN5IkpqCOvl5YWdO3eiYcOGchsJCQncO1IBkXjLli2ybujQody7+vj44PDhw3BxcZF1JMydO1f22EQyNzfT/8GlS5cwcuRIbrtixQr06NFDrhcZGYnx48fz/JIlS+SZhWTw+PFj9OrVi2enT5+OTz75RFI5/NUpCGuN4redU5D+VC8X9wuthLbB5eGa/gFgKJTLX5cQ8zgHR04myd27uGgwKfSGnH8dgpKwavsfM2YMZs2aJZurIeycOXNkIskVmdCtWzckJiaCiBkRESGrNm3ahLS0NJAHVZJOMqCpu0Twy5cvy9PXogh7584dHDx4kDdBxK1Y0XJmlpycDJo5UJo8eTKmTJnCZWf443SEjfwnI8M/smVsBy+pglZsuqxP+wHGDNtrJ9n4FQqbfoxFgdY8VX8nYBL8A6e+whFYdqWWsOQhW7RowT0wrRmVSQ1hf/zxR3n9q6xL60laVyrXxEo9yXl5eXjy5Ani4+NBXpk8/v79+2UztYSVKzCBtmiIoFKb5F1pzZ2amsrNBGGVaL1gOfp4AcImpcutSmSlAt2jQcy7Fsi61y2cupCCm3cz5WF4snX12BmRcv5VC0rC9unTB7TGtE403axatepz01LJTg1hjx49yteSUh3pSl7s2LFjNglLU1haqxa38VQSwmZkZGDdunUIDw/na1dpHNZXQVhrRF5g/siiLESG5fIWOw2tgD4LKnHZkL4V9HKklPA0H/si4i2G1HvQMjRp2dui7FVllIQtbpfY3pjUEJbWwDVr1nyuCXuEXbhwIbZt22ZhTxtHTZs25dPkmzdvcs9MBmoJSxtWtDamTSdloplDq1ateLvULyVBWCVCL1he0y8VCdE6eFXWYPxP1VC1oel4Rxc3GNCbiPyCu/xDze069ARPU81ev2qNphg2Ye8farO0lR2RsMp1KE2VQ0ND+W4vyVL65ptvuKekvFrCjh49GufPn+dN0IfT4MGD0bp1a7i6mv5fsrOz0aFDB64XhOUwvJw/C1qaNnJadvbA0HXevBNDxm4Y889xOT/zGjzcLXcZ1Y7k6q1MtPOtXKS5GhtlA9duZ+DsJdNaSSofNfUYKlY2n0NK5S/76oiE3bBhA2gXl9LatWttnq8qyaeGsPn5+fwIh9qkjazt27c/N8W/cOECRo0yHa8JwhJSLylJhPUPKY/3F1mSa+eG9zCgh+noxLr7sX+5ikfxeTi6rZO1iuf/dSYVU+Zcx7t+VbFhSTubNt9uiMHaLQ+x4ou26P6u2QMojamfx4l5+Hxmc1yNMq+16zXsgOCPNilNX7nsiIQlshJpKdkiLO32BgcHy1jZIyytf+nclVJmZib30iRLZ7ckS4nOccmT791rmuk4G2FpF81p0vGlWUbppRz0xn9+RIemxkNbOhoLY4IsXv171uY60tesXs5CR7bbVvoZq1ctJ9t07VT9OZvFn7WU9WRLdYrqp3tADePKRb4WL+V4X4fMAheMLVu25C929FKqIbCgA7mNPXv2yG2woxm5nO3IyuVKgRGD2wQEBMjF7LxWrsc8npHtDHMd28E1UvvSeKUri3KS6zIyy3oW4WSkfrVaLddTH1KdAwcOGAsLC406nc7I1sNGaRyS/ssvv5TbdAbB6Y51pE9K5fXUrs7oPjgShToj9nzfAe93q4XUjEJWdprt1GZj3rRm3Pzzb++hUkU3RB0PRN0aHljDPOaUuabz0YX/0wLhe59w+//8Ux38tMYULDB0ym/4+UACgnrUwsgPGmDY5N94WysWtcGEEY0s+lk82xe5eTpQP3+b0wJe5TXyMF+3l3VED5uVlYW+ffvKRywEFq1fpSMXylMUEm1kUaIjJ/KIdD5sMBhAASDKjSUpNFEZKinVU9rR5hPtItO5MCXa5KJzW6cIUXSGT5Wixnhq/zDu7Y6Ed5K9ICOOsVXzijw/alAD2Rsy4vKyFk0rGhlBZXtGPm5zJaKLXG/0hz7GQUF1uU3d2h5yG+Rd2XvMX9SG1M+yBa1lG+qnVxfH8rKMsLLXmTdvXlGQ2tWRh5I8E5tSynYsGkouV3pB2YAJn376KbcJDAxUFnOvx2Kc5fpS++zoyXjmzBkjO5s1kiyVszBGuT4LMZTLSb9q1SquY9NeI9usstBJ9eneqU2ldycdi/SS23Vkwak9bHZmKjTJo1DOzbTRFHnpGQJDzvBPTfrj/5Y3IncFyHkSFi6/yz0gyWx6C/KUIe+bN4Gi7mVhOPOq5JkpVSjvioybfbgs/fnp/xJkT0tl08c3Zh7VMqif+qld3Z1teBC3Tel1e1lpHI52ZVNWHtsbGxsLb29vtGvXjntaaZy0kUTrWVp/NmvWDJUqmY7zSE9emoIs3N3deRSVFLpIOgqWuHXrFo8t9vX15QEh0k4x6SmIggI1KHa5cePGz21OkY2jJacm7L3TA/BmPXM0EYF74lwqeg09i56da+Dg5o428SYyhe+Jt7uBJJE2J1ePXxnhafpsnSTSMi+M8BV+1mqeX7kpFu5uluP785ybNm1FoUBADQJOS9h71zajoj4M5T1dYWDhZ0bGiypsfUppd0Qigtk6tKhU3BENkZa+JNC+leVutLJNIq3SO0u6lHQtKrBx0YtCFA1GFjqp17J1lw7Cy0ooiWtpEHBawipv1qi9C338DGXRa5Vv3c/Cr2efymNwhOB/eTBCcGoEygRh468MQi1vc0SRI7wjYTsfsh1j8zeKmrUOQq/gvzvC0MQYnBgB5yesIYsF/g9zuLfgBgv8P82+AGBOLvjznChzVkgCgVIg4PSEfXRxCOrVsAzyLgUOL6XKRrZ+1Sq+Yvdm8+7o++GKl9KXaPTfAwGnJ2z+gyC4aUoXP/yy3+IrNzNw/rJlLLHYJX7ZqJft9p2asPfPDUej2pkO/Q5tCI9hO8Tms9gGb7KY5+HrHXrMYnCOi4BTEzbmcig7zjHA9RjzYixAwcgiAV3Y85hADlfDSEJBC1TO8hTA8NSNnq9UAHLIrh6uqN6sHjMkMjEbdi5EjxNiUS6sOsv/Xs4KTMEP7ErtatgD3zQZv/fB22fVWTlvh+X5I4lYvsC1AFqNluf/tTsb9Ts0Z3268XaDR26kCiIJBEqMgFMTlu624FgMMkOPqbrxa1kPcTkrVrYNXjcNTfuYYoblwmKEpKAwaFJMj10tyvRxwTMcS70um3RfMBJ+43rLeSEIBEqDgNMTNmv+CeQfjlZ17wnadESkmJ9/W8+vGYbvma+qLhnpbqYgbcxuVfZaFiSx7+klZOtN5K73Nutrt/q+VHUijP7tEHBqwhrS85HaO0z1m6Zn014iUYbO/HSKITvmwOfdlqraSF54FC4HYlXZktGvabfxIM/89MT/OroYNVo0UF1fGAoErBFwasLm77uLrEWmr15Z35i9/On0u7iXmyCrm/Tyw8Dvp8v5ooSHgetQIY8vWIsyk3V3cuNxNv2enO/8v4PRcUp/OS8EgUBJEXBqwj4MCUOFuOLXk0pQovMSEZl2R1mE0RFfoqavj0WZdSYz4i4K5pXswyFNl4O9yRflpsS0WIZCCKVEwGkJq4/PwrOB21XfdqYuD7m/Pwb1KNsMcvXygGcVL3h6ezGyNkTfZUU//f3usM2o+sDylwbsda7s63JmLDz8aDfalLrOGYo6bzWWsuIqECgRAk5LWCN7soPhWR4MaXlIm3cMLvHFRzsRUZ+w3VtKjQJa48Pwz0oEFhnnbb2O7OWmh74VVVnZF9lN+m0FvGpWKaqK0AkEikXAaQkr3Zn27BNk/LfpZxmkMnvXWzlPcD7DvKM8fNd81HvH9PgYe3Wsy5NCwqGJM3253VqnzFv31eWzIfCf3E9pImSBQIkRcHrCJk7eC9eL6n59jqaqu5JNz6slpJr0bI+BP6j/Wl7h5USkT9yvCmTrvqo3rYcxx79WVVcYCQTsIeDUhDWk5iH1/S327s1mufVUddTBRajVppFNW+vCxBn74RppenCXtc5W3rqvD374Cxr3fMuWqSgTCKhCwKkJm/DFUbjtjVV1o5KR9VS1Rb+O6L9qiqS2ezUW6JEQ+D3cDeqPdaz7ah7kjwGrp9rtQygEAsUh4NSEjfmP1ahYaHosTHE3Kumtp6pUPvbE31CtSV3JxOY1/tuTcN9mPlO1aWRVaKuvj09/gyo+Na0sRVYgoA4BpyXsk41nkHXyAQv+NwXux1xpwGLw3Yu8a6MhHXrdNSRqc6Ctq0GdNyrDoDegUt1qxR7r3B5r/rGtmCssiF9XNMFpIHnaM2xXOh+6NyqgU/8m8tjemzFQloUgECgJAk5LWOubnOcbA1djBetii3x2YTKis07wsmHTO2LIbH8LvdrM/E4XoElvWKz5lWc7uM2AsW9h7Fedi7UXBgKB4hAoM4Sd3yYaGl2lIu/3VRLWYNThWtpOPp6RMzshZGaHIscmlAIBNQiUHcK+cxmabHNEka2bT9fGITb7DFfNWtsX7wU3tWVWbNn8gNPQpJqnuLYq5Oqe4W7mUa6auDgQfca1tWUmygQCJUKgzBB249QbiD1S9GZOSn40Hueafhvnu5Mj4ONbrURgScY7/noDN7cV3dezglg8yjGd+c5c3QcBH5QsQEPqS1wFAkoEygxhz+6Mw6HQcsp7e05OzIsCvSjtTi798Ur0pWSEjaAnVdhPyr4+3zEQbQPF1+rsoyU0ahEoM4SlG/5rm0ds9/b5n9WQwLiTEYE8fToC+jbFzE19peJSXf/e5zpyYmvZrXs74xDy9ZnoObgVpqzoYddOKAQCJUGgTBH2t32J2DvTdmBDmvYRHmaf5dj8kemwBC57oATmtr6Lci7PB/Qn599GfO411KpbGWuvjpaqiKtA4A8jUKYIS2gcWRWLU/9gvxpnNAdU0O5wXO4leHkbMOuHvmjZqfgzVDXI6rVGfNHpPgy55t1paWPLv9ubCN0ugv3V4Chs1CNQ5ghLt07e7/xPCbh2MAvJScmo1w5o3L4GD17w9Co6uEI9dGbLqJNJuBHxDI8fJqFm43J4d0ATNHunttlASAKBF4RAmSTsC8JGNCMQcDgEBGEd7i0RAxII2EdAENY+NkIjEHA4BARhHe4tEQMSCNhHQBDWPjZCIxBwOAQEYR3uLREDEgjYR0AQ1j42QiMQcDgEBGEd7i0RAxII2EdAENY+NkIjEHA4BARhHe4tEQMSCNhHQBDWPjZCIxBwOAQEYR3uLREDEgjYR0AQ1j42QiMQcDgEBGEd7i0RAxII2EdAENY+NkIjEHA4BARhHe4tEQMSCNhH4P8BOZtxtPUf3RgAAAAASUVORK5CYII=;" vertex="1" parent="1">
          <mxGeometry x="130" y="470" width="116.06" height="60" as="geometry" />
        </mxCell>
        <mxCell id="8LFO8qr75mRFccLILeyE-7" value="Private Data on IPFS &#xa;for each NFT Holder&#xa;via Pinata Submarine" style="shape=image;verticalLabelPosition=bottom;labelBackgroundColor=default;verticalAlign=top;aspect=fixed;imageAspect=0;image=data:image/png,iVBORw0KGgoAAAANSUhEUgAAAggAAAFKCAYAAAB4hKeZAAAAAXNSR0IArs4c6QAAIABJREFUeF7svQecHWd1Nv5MuWW7qi3ZlnuRezcuFJtQQksIBtLIRwg1+YCQhACBfz4woYPBkFBiCJgkJIQeEkILGNywjbst9ybbsrpW226dmff/O21m7mpl9bLSO0bs7r1Tz8w753nPec5zAuecg1+8BbwFvAW8BbwFvAW8BUoWCDxA8M+Dt4C3gLeAt4C3gLfAdAt4gOCfCW8BbwFvAW8BbwFvgU0s4AGCfyi8BbwFvAW8BbwFvAU8QPDPgLeAt4C3gLeAt4C3wJYt4CMIW7bRZtYgbmew3Vv7Db0FvAW8BbwFvAX2Zgt4gLDdd8cDhO02nd/QW8BbwFvAW2Cvt4AHCNt5izw82E7D+c28BbwFvAW8BWaFBTxA2OQ2OcAFm2QPTCzCJxVmxXPtT9JbwFvAW8BbYAct4AFCjwE3ExcofUy6UkHgYcIOPnd+c28BbwFvAW+BvdwCHiBsDiBkgOtmQBcIGg4uBlwfEMYhEAdw8EBhL3+2/el5C3gLeAt4C+yABTxAmG48AgbNFN1b16Hz4+VwVz8Bt74F1EIEx81H5QWHofKMgxEd3M9AwS/eAt4C3gLeAt4C+6IFZi1AKHMCtp0wOMMW9JEDstUdNL5+J9y/P4TKvZOoTAag/+jLJM6QLIyRPPcg9L3hVFTOXsiRBUk5eJbCvjhA/DV5C3gLeAvsrxaYJQCBiIMkOxBM88PlPlM6m99GtJCvngHZE02Mf/IGVP7lEfQRMMhKjj8lDBAgCx2SusPU2UMY+tCzUTlnrqYcgMBjhP11HPnr9hbwFvAW2OcsMHsAQo/pDSi4UrWBhfu3w0sTOFjVwuQnb0L85QfQN0nOfnr6QKAEfUy/JVGGsdPrmHPZb6Jyxlwg0vV91mGfGyT+grwFvAW8BfZHC8wSgECzd3X8mczkQT9DB4TktIkwSLfPZvxb56W5IoGiAk+20PjC7Qi/fB/q6zLeLVc68s/pwKM4TreSofGcBRh87wWITpmHYCdyErYxELI/Prv+mr0FvAW8BbwFdqEFZgFAkPSCS2mW30Z2y2qkj44h66SI51QRHLEQ4XHDiBZW4SqhAIWtwQfOwXUDZPeNYeyyG9D3XytRGwfC0saMScJS6qB8IzI5r3Z/hvYLFmHgby9AtHQYiLb9bjFQoegEVUZM12DYmmvZ9kP6LbwFvAW8BbwFvAWe0gJ7P0AgL504dH6xCuOfvh7RdevQ14wQdoEkdpgc7MKdMIyhF56A2ouPQnTUAFw1RBBuKnZElnCZQ5A4ZFMZuj95AlOfvRGDtzdQadE2Eh3giASvWwYIkl4gVBA4hywj4OAQxEA7ztA4fw6G3/8bCE8ZRlCb+dgz3gmqmkgyoJXBbezCtVOEtQjBSAWuP5SohNdd8MPYW8BbwFvAW2A3W2DvBgg0g29maP3oUbQuuQ4Dd3cQp0WIgB12LAUEzXqC7pF9qF50BILzF6Fy1AjCeXWgxmUGQJIhaHTQXd1Actcosp8vR3b9SgxsCBE6Rgb5QrN4F2QSS6D9d2UaX9ASSuRIneF3wwyNIyuo/v4JqD7vUIRHjCAcjArNBN6D7oeARQfIRttI7h9F99pVwE2rkD4xDjQTBH0RwiPmInjWwag951CEhw8hqGwD6NjND5E/nLeAt4C3gLfAvmeBvQcglJPu9jtFDq5ehcm/+BlG7uogzEIO+YPC+0wKJJJiOafg0Kk7pHOrCBb1IV1YR3cghosDhK0U1fEugjUtuNVNVBsOYRJw1EDKGDk2wIF+Ll4wd14qZChggUQYylEGShMQgmgPAukxQ+iePQ/1MxahdvQCYP4A0B8BqQMaCdzqMTTvWo30xrWIb9uAYPkEqq0QYRJyVIL2nIQZOnMCJE9fiPpfnInqeYsQVLevUmPfe2z9FXkLeAt4C3gL7GoL7D0AoXyl5CSJh7imjbG/vQqDX1mBOFHnSDn+PC8vv7CDj7QCkiIMNOuPKA1gVQ4EBMTxBpQaoPQD4QxNGYREVGRv/9QJf049cHRBAML0hcmNlDIgfkM1QFoJMDWUojUEuIEQSANE4yn6Jhz6x0OEXd0PRTcUoNBVOBcgoOsNHJJKhslnzsXgxy5E5bQ5eu2emLCrB4bfv7eAt4C3wP5ugb0GIPSy9h2QAu0rV6Dz5qvQ/0AbIUUK8kyASRdJ2J2iAOLbi4oDJvtVeksTpSoBCFKwwJEBAgYIkWxN/wgsiKaBAAyJHOi+KQpgx7LKCnuK6Kssg9OSR96H8hjoergSg//WsEQCBDHVWIbCjeAj0gp2LNlxu54ief0xGPzA0+EGAt8LYn8ftf76vQW8BbwFdoMF9lKAAGRTCaYuvQWVTy5DbVLBgZL1OBFgWIBAg/0eKHAgp07OOZIyBAYGZExal38JEJSqDfh7IyQS2KA16G9eFGToX3JsqjeQKkvTRSC/bgCEowCUsOCSTD0ubU/rEMDoORcCQ3lNJX9P+y8vtK/xQ0MM/fOLEZ47jwGGjyHshtHhD+Et4C3gLbAfW2CvAQjTPCKnFxp/8hPUf7YWURbJ7JqjCErW49JAjQjojJ24hhSezxf6nNIMOmMPNARBPIPc/WuRAGc1bGZvuGDGB0Pm+bx+EbBA5hyXSOaAgfdBEQNDKwXgoCoKqn4Q/BFwCWexZKzgKJyG4tNOJcXE247C/P/vWUCffO5Bwn48cv2lewt4C3gL7GIL7EGAMF0KqPibwu3JNWvQeu2PMbjcIYgsYlBKIZB3jhxcAjhi+Oe5AArBS9qhTDZk8l8UqgCSeF75vnCzpkVgUQP6lqkLZffd45WLL2k9Ln1k0SbiG9gx5GfOc6DPOUvRk7iAS3rtwedLkYSuSEwnLsOaC6o46Gsvhzuo4tMMu3hg+N17C3gLeAvs7xbY8wAh94v6C/nPqQwT77kWlSseQF835uqCnAkQBHCcOlDQoGEE0T1QImIuNuTg9HOL2jMooFSEpgcYItA+p03Hp0X5i+8pImGUQiYschhADl3ep/IT5PNSmsIuk6IGfBIFUGBQQOkGIjqaFgMsogBMHJCh/+svQnTeAarZsL8/vv76vQW8BbwFvAV2lQX2PEDIr4y9IjvI9s+fROMtP8XIE9N7ImiFAq1K6YMcFEglg3RVVO6hggVx38YrVBQwLXLAOf8egFAAkh7DK3+h+Kw3vGC8BQYNDCRyzCKbaNqAogwuVXChgQIjKRJoYBIlpVC0WRQDpMChHaXofPh0DL/+NKCqZ6HnbWfi0w67aqj4/XoLeAt4C+xfFtgDAMHctbH1C5dGTtI9OoWJd1yJ/p9sQJxI2QLl6y1dkE/lY4oCiJMlh8v+V5UQ5RaKxkGxFE6/6K+gyGFGr6ofUnWDTfQ1EqDeXioPyscsERul2ZOel4IF247PjtZVTNTzyBE/QVmVEpwgJUkhRlInycnfPhDDH78QweJ6DmrKMMUDhP1rAPur9RbwFvAW2FUW2IMAgb2fpAq0B0G2uo2pf7gN0ZfvQ9+YRgNy3QOJEHDHZ+YpKlmRyxCJ+V9EB5gDIJChSEXQ72X5Zf5K90dOWLUR2HmXPK41bbIbkKcirFmUfWAlj5pqsLSCpDJ0h/TDIgt6flQ9QfwEWp9/pAQ6iLgooYVQow5OyY7NwysIP3Qeai86DEFFgJBfvAW8BbwFvAW8BXa2BfYAQOjx3cLWp5n02i4aX7odwRX3o29tmrdbFj9OhETlDdDfrHtQcBCEhlAu/Qs0mqClBoYdSlwD8dn5F9NPqiRI1Ese7LkBWsrA12C7Modu0YYycDCuAu8kgCNWowGSGQGG9o6wg2YO3apD60WLMfjBZyBcQlEEn2PY2YPC789bwFvAW8BbgPsNTVf72Y1moUNTT4J7xzD22ZtR+5+VqE9Qu2VVNuQ0gTp+LVRQ31qUPNoHVvJowka0fkkvQCIB02bboUYaelsxFJwFwxC9VINeA+VpBf2YIwS2gegl5It2gGRSo+ZMbI2A0hXl0kaVbubIAhc+FHtqDTu4/3siBt58BjBgERU6Cq0z7WJ24+30h/IW8BbwFvAW2HcssIsAgubeycGXJ+Ccy9cyv3aGbH2C9k8fQfOfbsfQXS2WU+a+CQQQqIuhLhxm11LHnPOfKyuWnD75Ros05B9rA2dOI1CZo7ZUpn2bPDMfp8yJyArC4zT8VKYvkq4CKR8GLoRjpSUCISzGIP8IgLD2sqYZzOlTGoGJjPI5cRlYQ0GPRddrJMXM5J1L4IJKKMcXpKhe8gz0v+IooH9aIyfPWNx3Rqi/Em8BbwFvgT1kgZ0AEKZ5I82zuza1ME6BCWphnHBOPUsypGNd4Mkp4O5RNG94ArU7RlGjvgTE3Dc9A5r5m8+jiACrGxYqiQVfoLQSgYNcEKkUbrAdqUKiySdbqSI79fxg5ZBBAXLyssb8JgnI6cUOxjMQ8mQRRCgEj0RGWUmP2i6aIwNKaBQypCgwChAptZ0mAqcegttNhw5Th8SI33wa6r9zFMKFtd7gwXSQ8BSZkj307PnDegt4C3gLeAvsxRbYCQChVEdI/m8yReeOdWhd9zjCe8cQrG4BrS6QgFsuZ1NdhBsTVMYSRCn5dAmJ8wRcowJMRlQJZSnx0++YoFiQEfnznFxoAELLHWlmblEEVUuUxg3i2Fk3IZ/Zl/djd+upagPU23IzKJVXUrpD2YnL7xSx0LA/px+o94ICCK1WkOAD6R0IQBHSpgACEWpSQEIggS7BGkJRv4qDIiQvWYKBV5+E6OgRoFZSm8wfPGsIsRc/if7UvAW8BbwFvAX2KgvsMECwsDiXHC6fwoa/vxHRd5ejvtohoq6ElB1Qx8ctmtMMoBJF+p1Ig+JCEUbCO+B0glYbZFxlUIoSKM+AHajpIEhwXvZl1QLqj61rI6OCUpUChfTzaENA6QGbmms0Ie+wVL5XZbIBpRaKigRey6oT9Dh8DG0fzbEA+9vAgaUhGBxJuSRHDwhIhSrlzD0iqJJBQQKtS5EWrm4IQFEaFwFJxWFycYDwlcdi6MXHIjp8GBiIRGlSeRgupLSGr3jYq0afPxlvAW8Bb4G92AI7DBBs9p89NI6Jv7sW9e88iWoz0mZIpbg2RwVUt4CjA8IHcEEopYvm1K03gvVdYOPpzN8aM5HTKxEOSTSJ5/GhOnEGFXK8wrVu5i5YqaNSE/kcS7oFBcgots8BRUlfqad3Ajt8VUQkMFPepykxZsJdYBKiniVHDYxrYNEHCS4weJCSR+0vQR9rZ0kCSMRV6AYpunNDdI+bi/D4OehbMgfB3D6EwzVgQQ04oA/R4j5gIFaAZtbxwGEvHqP+1LwFvAW8BfaIBXYOQGhlaHziZgSfugt9o5oO0G6J7Mh5tm96AJYykL4I7Pu52ZJoGYhkspUt6naKEYyYIBoItk/dh9EONCphuMLAhVjXohGWGlAHWfaPWzvLtjLG8m3LBZX0Q6tKKHEIc/BBeQXRfVYhJt2YUy1U+mkNobRFNO2SyI3aJZIAgwQ+CDAIMGIeh3PcWTp1GQMmjqpUIqTzYqSHDCA+cyGi5x6K2rmLgZHYRxX2yLDzB/UW8BbwFtj7LbDDAIFnzo91sf4V38S8mzsys6deCdzvgCIG9LeSDImRTw2TyLnx7F6+o/A6rUYphem8AgMQJkzI4ICqAygMT/uj2TnLLOctD3JtAFM5tBm6eFEVWdLfe25RSap5ei+G6beSIQ13lBTOgKUYCuEii0SIU+cuk5xP0VA/RwsMSAjNQNpOa7kjpx50BZVdlliDHistZJyJAEr/cRCG0AFHIQR0cXtp2oTslTmkNaC9pAa85jgMvPYUBPNi5VHs/Q+rP0NvAW8BbwFvgd1ngZ0CENwPV2Lij/8HQ6MVbXmsxYjkvAkIkNOKHLIKlTAKWOCoAv9P+QMGGDRnzuV9xhvgCAOlIqTO3zGpwdIK2mzJuAvs+CUk0Cu1rM5WtQ+4QdMmXl+BRkmf0JIkPQGDHunk0k7KZQ3s3EX2Mf+4JIaUiysayBByAQLq0ZBrMGfSFdKAhRVKaGSCUw4EDuhaSKJZKY4cF9HukJy20M6SUsopNJDGwgzRB8/HwB8tBbh6xC/eAt4C3gLeAt4ChQV2CkBofv5uRO+6AdUW5RWUnMdOnd10rmrIDZZ4li7pgUCJcxmDgiK1YFULOWdBUwpEtMvTDCo3UFQ4iHPPlYf5dyMfliof5JQKwDE9JVEqD+Q5uIYmtEZCyxdL3Iq8ilFn7ezwC72HUqsoBQuaMnCZRB+Ur2DcAxZL0j4N7OhVRyGPHDDxU3QSWD3aUg30pwIB6Qqp58iRiaIKgkskVdZ54tQahr7+24iOGijs5keHt4C3gLeAt4C3ALvQHVRSpDD4xCduRf2S21HpKouQ0gbcjpmqFayaX50tEQq1f4IAAKkwkOi+ggmLAOTAwFIPCjk4rSBYQXgMGjHQ0kZh6xuYMHBgUQVNOHBeQ520PQp6mKL+oJQOYG9tKxo/wPQOTHyp+Jv8Ondt1Nk/b6kZAtsPgwLTZzJgYdUQ2nvBdBGYS0Dbc0RBT4QiMyDlSSnv4NSN7lO4CpbGUJ4DESO1VJLOr9GfIPvg2Rj601MQlISp/MjwFvAW8BbwFvAW2GGAkKUZpj55K2rvuw3VTgjEyk4k5x6Lk5auxVLKyPNrixyQQ7bUAq2iZMUgl0AmroGCAE4ZKNhgImMBAoSHkBUpiTLR0OSWOUEvIXYGJTmoKMLr5ZQDqyNa/2Z9TthZW88HFlOgCIApHykAUc2CXISBIwLCHsgjC8WpCFbgdIB+b+kLrVig1s+mzFgGCeboeQe0jaozMnag/eWRAxN1ksgDcRJ4PxnQDTM0Lj4AI1e8iNtH+zJI/0LwFvAW8BbwFsjnzDsSQSCHSeHq7lceQPpX16C/oeVztHdy7PzPUgoyPWcFgZBAQ6nskSIH3LXRIgGMHCQ1IfSDPLWQ3zpy/Dx15iYLvd9r6SSvq9EGFRMQR0yOXR28wgz5jNGD1C6WWz8VcYPeSLyoIKpjt211ZXLgtnYeRWB8UigrCrFRQEZOejQ1RdZO0IgEfU/bMhrRskgCBBqRkDSEA1d5cqpBUxwMhhzCbom0yFoKAhKyKMP4M4Yx75u/AzdEHA/PRfCvBm8BbwFvAW8BscAORxDSLEXw47XY+PofYO4G6j+svP5YqhKk6kAcIDthdvhCXpTvtKLBtA10ds/gIOcclDgEmopgAmL5+/LnFiVQMFLwEhQOMJ4ooghqiZzix7syn6r4Qz/KaQ0MJljVsBR3MIdtICDfkc3opYJDqBGl9INqH1Clg1UyKJWzqHRQ5x9kmUAEixyUQAdXLHDlAgUVtPyRAAJHIQz7KD/BOSSBw/iFg5j7Hy9FMId7R/vFW8BbwFvAW8BbYOcAhIzIdr+exNo//A4WrIhyJr2LrVpB0IEFEoxzQB9ypYIqIubCR9RQSSMHAZVHTk8XMO9AKhyE5yBpCuEkGAAR724cBcEO+l0PODA+glZUlHMMkhXJAUEeRdA0g8koK04oHifjHChPoIfiQeeUVy6a7kGZ1EgbhxYoEI/OZY9FIyf+OxdTEs5Bvk8tgWTiIkcRNP1gIEEKJYS0SK2jXYbJ35qH4StehGgw9kPCW8BbwFtgixYoYqNKwS5/sMWt/QqzyQI7HEHg8PayFtb+3jex4BEwz0CLF5lvQA6JPmOdA04LKHmRQtzkDiNBA5Ri4O6IGm3I0wsaGciJjJZyUKcvwkoUkSjJGhpYEAwkmQsrmeRUgs7ArUJBwUORbig/8RK9MP5BGSjw3olfUJJX5qvP1RELgMFAgVMJkpYJ+QJL1QVW+aCRAlZY5FLJMO/LwNuz06d/09INqrZooQIuJ5VGksxJIMIkb5vYoHZoVrtov/FoDF1yAaI+DxBm08D15+ot4C3gLbCrLbATAIID7mwKQHiMNIwCZJn2WqDcAlUxmHwyOVILJRhvgCsYjHMgPQmEd6D9DtS554GEMh/BZJJVplkrJZWPoBEDAxhmyVxaWT8wvkFZaCm3uoYQTKWpl48o6YAyp8B2qSkE5UQWQEDTCzl3wcL+KpCUVycYl6Asu2zcCKtM4HWKKARzIQwk8HEEEBAYYYMSSLD0Blc/OIwPd+E+fh6Gf+84BFUjl+7qR87v31vAW2D2W2Ba2MBHEWb/LZ3hCnYIIHBZHbmf68aw4VXfxbx1kRAQecKuqIC8FDn7UsWC8As0rK9ljqJvIARGK1002eWcQ6CKiyK9qERIcoCquWB8Bz4Wl0xa18QS6dBIiwYc2MuXtJBNkrHE19P+ikpI1AiEgQWJL0h0wLbRUkI+SUrBaNqBbWW/5wRDpTLm2gVlx69VEqpjwEJRBAI07cACVCSprKkFizDY3wwISNGZzoPLHzMhMmrDp7EDUvT9xwtQO+sAgCM5fvEW8BbwFtiSBXrfmZaZ9RTnLdlt9n2/QwDBiHbp15ej/edXYqARI+OJqLRr5geGSxuphDHkBk7MzFeAYD0VpIJBgAQvJQXFcuSAIw0chdCZO4MK2SQvl9RdSDmlkP569pmXOdp0XyWQqPRSmYfMcbDqCFqNnLIdJ+cpmEJiqSqB15UVbLBIaqH0mTp7hhUWIVDHn1dVEhFRUwSc9ihFEvJqB3LydBySReTzcxIlMI4DpzMInBApUUtNU9JM0LRGCowd7jDy/ZcCRw4VJaKz7xn2Z+wtsP9ZgEufEjiebaUm+F68d6xs+iksk6dUdR0LApQd/iZ8g/ztxnXR+d59AGHffAR3CCBwXr4FjL7rSgxe8TgihAizEFlFZX+1nNEaK/Fk3do057N8LWM0cGBOnzgJOf9AKwa4AySBjpIH5pUkWmG/is5B0auAOQoGPMqkR17NOARyzlJyYU5ftQ5MxKg06MRRl0YWRwtKYMHC/9pjgQGB7icHBzmgKKoSDKRIsyYFF0ZSzHs3SDSAIgFM7mQAIv0Y+DMDDFweSeJIlo0Q1MGtop3D+GEhRv77ZXCH9nmAsG+Ob39Vs9oC9oKhAdyFcw0gnYRLxoHuOqTJOiDdCCQbgaxB+upytWVPn7/LSlHSHAHY+8pmP6VtrYwrn+kU71wXzkXlgFchiBfOauv6k9+yBbYRIPTiRHZg9zex5ve/gQUPUgWDVhZQ/x8WONIZvz1kpb8DWoGiC1yRQHoJ1u9ZowHC9sv5BEZSlDJJqUoQf15UMwi4NU6D6gVYO2kuuTQiow6W/LysqLAwmFITC70j02iwskJbNddB0MGmqQNJL9hn2oApxx0aUbDZfAlMcDOnTHWkc0llAgTW10EiBiK3LNENrmpgkCCRB6l0kOPnbaJls1yJkUDD+CFOAMKRAzMCBD8r2PIA8mt4C2ydBbY0mnrn6kz+RhMuWQs0H0E69TCy5oMI2g8j6KxAkIzDpVNwro0g6yhzWSIJRfxSoguCGUzlVedTHIal75Qs3ZMfoM9UVI5nY7Rf4oSJ7GsaH4naqV9HUD26dKyts4Jfa3ZZYBsBQu/FubbD+OdvRe3v7kCtHUnOX1s7SxohzAWHpCpBUg/WvpGbLpX1CHR7zrWXqg44faCKijxzN+KiphFyQKwAJG8jbWWQGk7IKySsskEHjkQeihFiE/U8XpeDARl8NFRE/KiEErhtc66bLN0bTSzJOATm8EtchDyaYCCBowoqjKQRBquA4KOZCFIuriQNnVj5UQWThG+ggRDdb6ifGUigF8nY/AT9X38RqmcvLOw9u55ff7beArPAAvqi4O62hfvu8eX6MnFUZpSNwTXvQjJ6A5LRWxC1lyFOVyPImoDrIAgSEVbTbeTNlTOlSvawJMK097auX7Sr0ygsvzSUrMzgQYCF9aERHdsQSXwsotO+i6BynAcIs+Dp25FT3E6AIBr/btk4xt/yM4z8egqke2DEQ6tC4MeWIgPUk4AdfgQYKGBSXMbkOIom8MOnxEUGrbTkFQ5WxqipBHpwtW2zcQMEfJRTCeV9yHMspYpSHZF3iiQ/LuoDtgHNw8skgty+vP9MMLf6ccnx86SdShc1r0EzeNuKo/o6xLSVc66NwCBD+0Hk6QSNLnApowASLnfkyACFAURsKRdK0n2wrVMFCcRLkJOSnwQg+HuHTKWb6e/Jvi7SD5yLOa9ZChfPpB25I4+W39ZbwFtg8xYohfc5B9iGS1chnbwR6aqfINt4PSrZQ4iDtryveCiXpvlKrpLvLEWQz1jytxl/l7eOlYjttD3NeIqbi3dQU/kkOhbx6d9BUDne3+B93ALbBRC4emFdF1Mf+zWqX30YlTZ7c+EYkiM2iWXjE9BPiiyoeBFiEzgq9UWwKgcrc9TIAvdf4MiAPtb6u1QpaLWCRQDKP/OKhyKPwINDIwWOUg8MBJRnUE4/8PDS0FspoadJilxeWTahaIIG9vKUgnzOS55GyKN2/BmnBg0U2Bi2Zkul1ARPOdTBGzBg0qIAfAEBFqFIpWpCSI3aCMoqHLgMUtjHvJ/UIQ0yNF68EMNfeB4wKLDHyy3v4yPeX94es8C0JILMzwkYdB9DMnoV3PofAeO3IE4fRzitD8zmTnpLiYuZttuebWw/DBDiYxCfThGEpXvMlv7Au8cCWw8QyKloD4NgymHqc7cBn1uGvg3iwClS0EMS1Nk/O2XVP2BXHUbcxEm0EbSbI4MDJQfmqQiJxQk4Lu9DeA3yufANyrwE0VQQyF2oMFrXSDEqpzA0/dCTRjCeQY6xC0SuZ1E4fY3elcmKUsJosgcCAizCIDN+DQuabLKmHHKwQGdl5MQS2OBttZWzAQLOZmiggCcgWunAzZiYYFRIKuf779FBoG0yjB8M9H31haieOU/t5iMJu2fo+aPsvxagSQWRh9egu+EXSFd9E5XG9QjS9QgohZALusxgIYsIzCTz+lQGzUOtulJe3rVtd4GqJijFEJ9BEQSfYtg2682+tbceIPBMFMCEw+Q/3ITksjsw0qhw+SJinY1b0yUuc9S8Fsslk1OmzoyqhxCRdgFJCouGQd4oiUptG0YuAAAgAElEQVQNVVnRSiFNG4FNm3dxVKINpxQKIiT7d27gpHLNLOMoYTWOB+g5keqiyB/0MHPEQZJT5/XK4Tote8zzfEYALHB1vjphGSUEslVU8dDAg1UaCJAwKWU9muoW5A5eIwq0H/b52uqZ7ZZrGyjoodJI/p5SCVr2SH8m0g5atBHIPE5EGLV8shtl6L75GAy+81yg37KZs+9B9mfsLTAbLCCVTF1kyX3oPHw5wvXfRcU9WbxvptMGtHusNZcT8pPyAridfO8kprCBkAttyRvU8Qe938mkidKT9j5MZ4wkyrECBQjf8wBhNjxwO3iOWwcQyMG0MqR3bsDUV+9C+M1HMNiKOPdFDZkk/y9ONItVIKmseMhCRtIt0BE4oFUIINADR5EHJjRqio2BhFZBTKtWkA2194I9yxx50OpExSTk+DmqYYOL0x5yftr5oOgcabyHfCTJ8OMIBKVElLnLDtUGb3lMmgqiuNwcVzAAKZUlskBR/r30SjCQUAYP1vwpTxNY+kBLFfOUgkYQcgIjgw0VbOAIhfEWpHkTH51KHEvRBtoX8S0ax/ah+rELUHvmolx0qve5sgueBqh28OHzm3sL7PMW6Innp3DJGqQbf4ru8itQaf4aISbL/GjQVEbeOey2S0REes+ZdnqpNwtHUa1aYWZSoox9e+UZg8rG9HSAUVQw8PEVFAiIoGlGiJQ4CGd8F0F1aVFSuc/fyP3zAjcDEPSppoejBST3bkTjJw8j/K/liJeNo9ZW0SPKZ1MqgaMAQkTkWbkqG1pqIa9UyIGAihhxDwUN+Wt0oOitIBUOeddFdvKmd1CkJnrBgaQbDBzoGCtxGLRawZjEJaElAgTS/Ml+ahVAOYegZKGeIWW9E3L/X3ACeFAZFyBPPxTNmUSfQMshlTdQ5ibIoUscg8wIixrN6QENWvqoEsxBIi2draJByidL3AStgshSh26cofXcAzH8kWciOKyep3+KIWHPQ/7e2j9Hi79qb4HttkCCrH0/kie/Bqz5FirdRziSMOOS43DTfxewUI5q9m5n38mGUm2wKcTv/cz+knSvvKumn03vfm3PkmL4ngAEv+zTFpgBIBi5LoDbkKDx7XuRfPUe1O9poNIBgq4CAAIEBAQiKnyRMn0OUxEbXomKzFpUQSSKaglXIO/9rJGCkiaBNXNiICCQN1dP1Bk8cxUsXaDryfEUNNCXzH+Q+5ZzFcqRgrwhlAwA6wpZHoa8z/KtNwTeI5xY1j7QDTTkJ2kAge4MEpiPIIhc+Ecqm0w/tXSRsyO0KA8hjybkIEO2ZZIoV0QoD4GjFamUOpa5CBbCoAgCCSZptIOPo+sRQKBzJJAw+ZKFmP+BZwOH1ItSDX3lCCFEz88HEvbpl4K/uB2zAMPpcuTAdeA6d6P14CdQHfsxomyDEZJ6ChN27Ki7a2tJMUQeIOwug+/R48wIEDg6vaqDiU/diPCfH8DAaMiBL44MsE+VskMXSzqAWx5YI6acNKhRAkYIsq0j70YO3jQOVHKZuj2y7+H9CyFR2PRKVDSHr+kMjlrw77SuRAWoUyQveY8H9Wc5yJCvc/BiZjdionVktJFtA3wams8rhiz3Nz1SV5JFLoMEPjVNK9jnUgEhUshsVnPiOaCQCAAfim6KaRto2SOVVvJ3qh/BokjNFEEitZtMeMxLJK1yQvsxKOhIMyrPFADRIZDwmwsw5x0XIDxhBKjZfZiODDxS2KOj1h98r7ZAMYOnCUEDburXaN/3QdQa1yAMmtt27j0pim3bdMa1d3h/IbqUYjiTIghEUvTLvmyBHoDAr31yOo83MXHpjYj/+SH0T4pCopUmihNWyWQrOcwFiqwcUZ09qxxKvSG3c6YoggW/KC0xLeXAX7GMsnINylUOHP43oCEVENb5kTkHOYgo+iaYNkLOW9BSxryUr5RisJbNT32zp4X5rCrAKg4sJWBpBytlFMOKwiGnFFTtUB28pBV0Vq+RAcn9WVpA7ws3x3JI+kO44RjZSA3dhTVgcR3xQUOIR1O4r92PyvpUIgakyEjkRZVilhSmVDcQWVExBygdwRAtcejUHTqnDyP6g6WoP/cwBIv7+N5L5QdDLP25w2+afXlc+Wvbry1g0cMm0o2/QProZahM/hIBSPGwV85g9pnJA4TZd8+2/4w3iSC4RorGFXcheP+t6FtfsPd7AAKJIpFgj6YTGDBYWSM3UhISoqQHNJ7PlQtKEjTNAyUXsiOn6gUFCLy9RiIKDoKVM2r6QKMZ7NpUaZGjAxp4sBJIxSfMdbC8Q14ayetaAs7IiTaCZZDnxN68ZFFAQg95ONc1UDZQCThwcypNN5QFjqwfgmkpcKTA1jVBJToUyyYXbOXuUITsFUciPucAhPNqwGAVQX+EoBYhuXcUybuuR/W+KeUeBCyOlHd7ZMxRAASLThBhktMemvpIoxSdeTG6589H7TUno3bBQQgGjNy0/Q+b39JbYN+2gHa35RdHB+nE1Uge/AiqU9dwL4UgIEqwvG8KFcPZZREiKXbjY1HxEYTZdeO282w3AQjJQxOYfOvPMfSzDQjJYenjTERE0Ttw2rFReimQswwt/5+XNhYdG6XkUBUTKS3BHlsABMW2pcRRiI5cDmkRBOUZ8BmUIhS52iIdU7fnCIXxHmQDBSdW8WA9HRR45DLOsm/dpDCh1RiXIwy507eSRKMNyfQ/Vw+wUkQDDTxj18hDroNQ9EooiyYxR0FLFfNaROMakACSA5pzAgR/dRr6nn9oUfmhZ549MYX2u29A9boN0uWRroydv4AE2nfOh1AQQtEEVlekUlACEMSbYrYykGYZpo6KUH33Oeh72TFAvQQSPA9hO4ec32zft0AXWfN2tO56D+rNX5JLLS65RwCpRJQqqR1qt7WZWINbNl2Zcdjze3nsTmtPy0xxiVgKa9wiIPRC1vcIvxNpuxDdytGIz/y+pBh8IHHL92QWr1ECCKKy1712FTqv/Tn6Hmmr3hCF9YVrwG6QotbW0rnU2pk5AEZKNGfPPZ+ttFH1Cji6UC6F1BJFa+6kaYSyUmIu4az8Aql8EN5BOA0c5NwFU1IsKzOWiYwq1CQXaXfQyhtKWGGGiKDVHlvFAf/kWUPR/8Bm/T3ljspPsEgClxyWSYvKRyi6OMpAzSMImUO75oDXnYDaq45GUO2d1buNKSY+dCP6/nMFYqpiUM5DHkWgaAJLQpuqooAXBg/MRdBcR1LIO2dBhqkjYlT+5mzULz4GGGA2iuJGjxJm8dj3p74rLOAIHCxD58GPoDb6nwgCkpndmnFiKTyZ4OQvk03OcVqas+f7XFluB66sfB6lc+Ff1UeQkuJZ/+mrGHbAyrNl016AkAXo/Gg5kjdehb7VWjxvPQ6Mn6iRBHqGKXKQUedGC/ObJDLxCyTxL9wD68WgkQDjDkiJoqgwEjrlNIV1dTRRJI4MqEqjchZE4EhLJFUISYiPKtBk3AZNVUgEwoSSdLjauVLVseKVPFqiCNp0D/KgYHns9Kgkajoin+2b4xeHyzXIpovATpiiAdTcyaoQlJ9ArwWVS86lknvElKiVS4b0pYeh9ucnIxikXE8JzFDzrH+8HX3/+BAqbeEYsAYCRxO08kHLIBnMaNmjpTZIFYGaOtE5cKRBSyXT0GHy8Aj1T1+I2rOXIKDDTheZmi1PvD9Pb4GdZoFNeTmu8ziS5Z9GsOqriNyoQgObZlszt6c6gekAYEt/b8/FbIlkXA4LTAcu4BRDfJYvc9wey8+2bXpTDM6h89PH0H3T1eh7QjqGGY9AnHLGpY2F9oHO5MnTEeeAQuSaImBHb5EETi1oBIFBQNGyWTo1ahqCjqdqi7K/cnVESUxJIwEUPSAenkUBRK2xWM/4C1JeabLM1BRK0hz86HMEQmfq9ru1hs6LIJVAyOkQLS/kiJw6UiYPFiWHRZtllUDm6AIJFqnwiIb8LaqXSyUrsZDbqlobZ7K5YTUVNmqfOx+1952DcH61d3KSAM3vP4j4kjsRT6pIAqcNlDVJvyc24IXbQGWOVv5IV0FUEQEWEhahKghuB5E5TP7hYsz56EUIDqht3aRoto0Gf77eAtttARosTXRXXgE88glU0sdKugUavn/KfZdDmXk/Wd2iHIEoAwZ5J8tSFjgqH2hz+53++Uzr2T57f3bj4zxA2O7nZHZtuAkHoXXTarTfchUGb5mSULQSDUUuWfob0IyeShOtJJFn4DkPQaWKyVlraSOrJtqMk3yzlUuaqBJHDaRkUY7HSEEJhwosGHgYebGocshYmbGIHhiXIQcNdGweP0puFNTDd8l6OLBYkVysfG5BQes9oUAi76tg1QoUsaAcv+YXchKi6RZYesA0EbTlslUxmNphQAbkaILmBinCYF0XrZSR9yUOe+KoCgY++iyEh/Xluu0i4Rog+fU6dP/8atTWEcigfwEC/ikRhbynA7FBjC9BqQdNdzBAoGvixhHKiaDfkwCNk+uofvEiVM46wLeHnl3j3J/tTrfA9OR7B+nk9eje9XbUOzdPc9ybO3gJCPDuzElPC1X29I/Vd+Vm0xZlMGL7KwOOclrS1rV9liML9Lt9zi9AvSZp1hT5CMJOf6L2xh1uAhA6j49j4n3XYujrq1Dt2IxcQ/rkPSz0r5UDkhboDfnnugf8HTc3EAKiNlmyFIMRH6Ufg3V2LEiJRbUB8SB0e3X2PPOnfRsx0iojOKVRVDyI2FK5FbWCAOMz6BjK+0HoWMhJhyXAnlcDGK63UgZ18DlQKJcqWiQgV0SUagUWOtLyQw6DaBdG7ptA/RKcQ0rxCvqgEiGoRAg3tBGlwOQch/4PPgvh2SMCqPJ3lQMebWP9n/0Icx9IpIKBIxc60K3kUYEKAR76Z1yFLM24yjQHJ/y75EEo+kFphuAfno7+5x9etMveG59qf07eArvVAhmy9kPo3P9+VDZ8CxHzDmRQlujL6mDLM3UbuFsK+dvFTAclNp0xB16+6Jn2OdP2MxnqqddLomMQne1TDLv1EdtDB8sBAjuSAEimOpj65j1w770FIysj0S4ozf65pJD6LbAoYsj5e3bwLJ6kv7NugvVIKACC8A2kkRCH+VUoyaSZewCBqSqa3oGSJIX0WKQLCmGkQuGRgYgRJnU85uJKnOoQFcgcpzNiMeVGqawQ4kB54GnDJFNK5Bm76RNoOELz+rxndcJCQtQj5a2ZJc/PGgVki5KAUrvq4AYjYFE/skOHER3ch/igEWQrWuh84WYMtmO0Kxmit5+B+KVLBHTpOfFt2uiw8q3/gwN/1cojDnRjhKiYSetojnAIEZGJiSrxTmBAOAhqDgYIhZb05KERgs88HQMEEExOew89uP6w3gJ7zgKFA+Xx7SbRWXEFgkcuQezWl07LFF0tRSDvgaJEutcR8/jldGUxK5E+Cyq5Xt6zRTs5LCj7F4K2ApOeOuxeSxUt3Yty7eKzAnTYLnobPQVISUnxrO8gqB2/526BP/JuscA0gBAgS1M0H92A8fdei3nfGkUNUaEtwEQ/6t5IPlbz/xZBIP/JjZoibmcojZmky6NoEEjaQJy3pRIkMiCpBR0Ilnagy+dUhJVDErDQLo1KduQySdoxiy4Zl0BKJi3tYb0dcs6BgRIds1K6aQNMAIE0djLQIMxd0z6QKIE6ZZVOljJHm62XKhk4XC8vBSEESopABJNCZJxS0MqCFOhUMlT+4iyEZy2AG6Dr0jLQIED60xVofeBXGOhUkSFD52WHou8vTwcqReUFNWNCM8C6//cLzP0+lalSlYLyGYj/EBRyywxgmNugoIDOLaEiVE1FsGqjlEbKS8dhcmkdlcufifo5B/kUw24Znv4ge6sF8rm/S+Aat6NzzztQnfwFax081SJzDnP6pIuwbXQeLSToOYRkJ6zJUxGhyKil9FOcTAEAipUEd2gjvRJUKY4bIgmPRXzO9xDUvJLi3vp87qzz2lQoyTm0my00r30c3b+9EXNvTxBzfF8VFDmCIE6ySBmo49bqBZ4VU2mkKSdaHwSLBqhDl30SgDBRJZnVW/8FE0AS7oH1Wwi5mpKlnmlQWPogL2tU4STjMrCao0Y3dN28/bReU969UYMeYlwdWqUUg4AE6QlZNFnSioU83VAoImrtAFwtQLc/4shAOFBFMJUgvm+C0wVMCFSeQbvPoXbZRQgOr+agheEFNVT6xoNwn7kb1VQG74bjYiz41G8CC4oSDF63DYxfej0GrlghACHvzSARC74GiiLkJZYSUaDVOL3RIXCnzSA5DSIgoosM4y9fgJGPPAvxIUM+xbCzRqDfz6y2gMsm0H3s7xE+dilit8G6Me+YPoAFL40nNc1CefpTRvPM9isjj21FIbrHMhjJf3chEpJaPue7CGq+WdOsfni34uRnBAg0E21smET7X+9B/Ml7MbROyxZjkzS2Hgma2zdegpU30myeQYCmF5iAqDN18jgREwVkhqzkxrwpE33OILg4FrWI5ohEzn8wgmGpmRMfi8B5JHl7AyN5CabIOHO6hHkJcm7WZto4CL2hNk2HUKTAjKmpBSMFcqMlm3UTYpeUPTokcnDqAgSHDSJYUEM2r4ZwXhXxcB+yFQ20P/pr1DdkLHPM/1EFSX+A+ucuQrC40lNG6LoOrS/fg8pXHkKkZYoT/SkGLr0I4ZlzeisOE6DxlbtRufRuRNyTQUUaenozaDdIlV0WnQXpuBWk3Dmq1PdBKjHGF3ThPnQmhl5xAuIBX8WwFWPLr7JPW0AGetZahu4db0GlcR1CJHvdFfN7iyY1uVT6jp4iSS0fpwDBRxB21Jp7+/ZFimFaqCtNEjTuWY3kPTdh4MpRVIjoRgCBuzdKBUNGKQCa/ZsmAeelRViJ0woculc4TOtxOkEcs6QgpEU0ix3lZYiiq0AiSAQemLPAZEQiOpK8s0MSZpxCqAYRQsqvm+NnDoSE73LAQcJOGimQiAUdWzgQnO1T4mSexzPCJX1XqvW3PL+IkzkkLkPqMlRcyJEAzumrxgEBhPGBBIN/eS7iI/tFkpplCvWYbYfml5Yh/uGTiLlfgjjo1nCAvs9fiGABAQR7dDK4qQytz96O+ndWyswkdUiDFO03HYv+/3MCgkrpMSNw8oPHkZHkctuqIzRLYHwC6r2gkYGcLMlFDySWRAeWhk/8csmAVtTFhovnYt57n4Ha4XMREsDzi7fAfm0BAtEtdJ/4LPDwR1HBuu2yBkckt9J5b27drQkQbMtxnvpCJIIQnfM9oHpszztyuwzgN9qrLTBDN0c5X57RjjfQ+MpdqH38ftQnFEHkAkbitDkyQACBnb9wBmS2rxwCcjOqnJjrH1h/BnX8eaqClRdlP+ycuJ000B6KkBJxb6QCd/AAsqMGUavXgB8sR3V1R/gLyoEoVzDkqQU6jgIHAQh0LRLVkIhCIfbEkIadeZHbT6MAST1ARt0NByNkC/vhlgygfvAI3J1jcD9fjgpVfHADJGH8bZzTxfB7LkC8uL6JqBDZNrlpPZLP3Ina+kRKDym1MydE/XMXIphP6lNGkgCyjR1MfeJmDP18gzReyjKuchg9fxjz3/8sBHOK0iVuBX31GjTe8gv0NyIpk9aoA5EhjagonSFNQVGCBsRBYH4EgyMH1wqQ1DKMnlZF9f1PQ/1pi1Dv7xP+Zgk87dVPuD85b4FdYQGXwnUfQeuWN6LevHKrnfxMp/JUDp5TmTzhKVIJPdmDbQEY2xlNMHDB5xIEmmKYzkEwsuRTsR52xY3w+9yVFpgGEHof1TRJ0b5mBdp/fR3mLOvmHR2590Js0svy0DDxMO/FIAqKpkVQpBe0LFGBRdFLoaSoyA5atQ9IoKfq0P3do1C58CBE8+vcmAiVEG5DgonLfo2hOyZL6Qtr3GRlk5YCKZc5ElFSJMdFZEkzenmLaYkQWMqBLNI9sIbgeUsQLxlEMKeKoELRFElPpA9PovtPy1Bb2VESoszOxw90GPqb8xByNKA8aGSgZ+u7aP3T3ahevRZRQh0XgdbCCH2ffhaCeSWAQPP51S1MfuRGjPxqAkxE1PLIyUNq6P/QeYiWjuQRB059LGtgw+t/gJH1oWgdMO9ANBtMhKkQYqIqCtFLYMoUCynRZ1JqOXFYhO7bjkPfy49F/9whrlzZsQTrrnyc/b69BXaPBZxrIVn1dbh7340KVm3jQTeFBD0AIO8Qp9oz8kqSMc7pzqJ4kuE8vYyZTB7lwN1SC3ZivAVvr7KuPKOibekYMwkzqc6NycnmVxggrRyBytnfQFg7ehsplttoJr/6HrfAUwIEnukun8DoO6/EAT+YkB4MRjjM+zBIWkE4BwYWSroFRgRU3QJKSyTkY6oB0B8hbmSIKPfNaQmNRuTEwwDdOEP6+mNRf/nREkoXGjBcI8P45bdh5Kej3AyKUwZ6buXzoNA+P+OahqDjpxUHN1xBd24Vrj+WsPpkF/HGDqKO4/ORNIocqzM3Ai4+EpWT54keQ15i5BBMpWh++yFUrl6NKAnzCMLUYTEG334OghHWoi4WHujiiNtXrUJ2+d2ojQp5sHVwFf2XPgOYU9rGAd3lDTQ+fANG7mho7wbhLHQHI6TvOBF9zztMrs8mGSsyrHn1t7HgsVCIigoQDBRYy2cTXsorLOgsSwChVXGY+D+LUH/LaRg4cgGiPLWwNUHNPf5s+xPwFthFFnBwyRp07nkvKuu+JGXDW0gTFKXI2znDzoec/JK5ClIMw/UfAze4FHHfEqBKfCR6SUoqU1CFLVoazkqwInjHizZh4jb02qTNZnbGvJL3irG1afI2iOjAFyOI5nqAsIuesL1lt5tNMdgJZhvb2PjBazHyuRUIuIxRdAS4DwPPulXxkB0nzarp7yzvsZDGjsv30v4Q2eI6OkcNo378fPSdcCDCuTU0vnwnatesQSWLlRMg2grm5NM4w8bfmIsFbz8f6Cv52a5D89v3o+9fH1dyoqY5rB9DKapB0YKk4tAZiuBOn4/6GYsQHzQI1xcjiKkqAEAnhdvQRuvOVXA3rkZ9goCCgA4SLErOnofqS49AOMSNCIoTyYDuzWuBf30Q8bikC2iS3zi+H4NvO4ObG824UOXAaIqpD12P/mUN9u6tI+oY+DABhNI2JF1wzxgaH/41hh5oya5UT6ETO7R+7wgMveEkoKaERIoYjAYYfdN/Y+TeLsJEZgckzpT3V2ByojaBoi6OtA5lRph3QKVRknrYcARQ+cz56D9vCSqU0vGxg71l3Prz2KMWyJCOX4/usr9Gfeo6eeeZs512XvQuJL6ycLHK7wIJyXN329yHS7dE3mB6V0brD+MCJMEBSEYuRO3QVyAaOQmI54Ffjkzy4tKx7VzyMIVuX54I0DvPOjvS6cV5afp2HsxvNgsssGWA0EowddnNqH/oPoRaVsiZBNIaKAEEinKF9LCXAAL93jyuD/HrT0R87ByEC2pAfxVBzXo2kPPbiNZnbkf99jFEkBAZRwJo0c6Ro0fHWPChi4ADxDmbpHFy3WpkH78dVSIqWtpC5ZilORNYi6EzP0Z21gLULjgI0eIBcabMc9BUggkNkePvOKRPNtC58jFE946hQqJocGiPhIgvPgbRyXM3KfGjdMfkl+/A4LIpFScCps4cxuCfnSKRElts4Bp4Txxav1wJfPoOVDoBWscNYPDvzgeGSy8N8uU3r0P3I7eivqKTKzCK7FGG7hnzEf/uMUCzg87jk3DLJxA/OoHgnnHEUyLSJGRDbTGdUiKhBBBYclkAArd9Zls4rsIY/+PFmPPO8xAfOMCAUJbtnAHNgsHgT9FbYGss4LI20lX/geCBdyPqrsgjjZIGMKdqnRW5l3qxDouhFLLukpeUVGcxvsqOuRBCSoNBpEPnITjk9xEvuBBBvBgIqqXZfXl89kYPnho12LGnRwanvbAsz6HnL+J6/n2wNc/MbF1nywChk6Lx2dtQfd9diIlYwFUHChB4pk8RAyEi5hEEQsDamXHsxAqG//55CA+pi2rgtMqAIAE6N65F67JbMPB4FxGLIUnaIuAqB2BqGBj4+NMRHDtUIu85uIdaGH33/2Jei4iA2vvBRJm06ROF7eMXHY7K2QciGDSxhF6fvckjTk2MVrfR+clyxHdu4HLBNHDonjIHfa88Dq7c8pjcaerQIUf/7w+i2g1YAKn7jANQf83SXHWSHHQy1kFYjxD2aRdGejeMpZj8wPWo3z2B1gkjGLrkXIBEkmyhCMW1K+E+dgeq6xIVWjLtBIe0FiAdiIBWgqTZ5cZMUQLEKaUXqOmSAarpAKGoZODGTIwRHJddZoHD5EiC6PNPR99vHI6oTmHLmV4e/uUwWwe+P+/tt4BLN6D74CcRP/EZhM7Y26VZgLCg5QNWOrRFw/Sm1Mr+XFVbyyH8PNqgYIJ6rATzkS26GPFhf4Kw/wQg7NdeCXqY/IjlcTrdwW//Nc+8pU817myL7m372yJAQCvD1KduQu1D9yAMRb9AAAKR/DaTYqBifdY5CLFxUYbBzzwH1VPniubATEsnQ3L9WjQ/dhMG1gmfgMmDynloxw7Be05D9ZmLpbLBllGH1e/6MQ5YWREArt0jrWqi0Z+h8kfHo3L+gQjqdnBrwSxVB7ww96E8OZYZdvpEE62v34O+VaJo1K45RL97LKqnze+5Fo5ojKbYeOmvMLKCsgwp8PwliH/vyELwqJOh+auViBf1o3pMYQtatXvVKnQ/fQuSk+Zj5N3nAP2laySFxR89juAzyxCPJdIVUvs1cDfGjHo2ZGjMj4CzF6B+5AJOJTRuXIHqTRtQnySmp0QGuCkUyTvn+gf8BpPOjQoQCFQkLsXYyRWMfPVFCI8YVGLi9BvnXw5722D257N7LJC1H0Z32dtR2fADhBBy8q4MrCXBCNLFr0L16L9EUDkU0m+9FxjMfAq7+MQK5qSejZ8w7J4ncPcdZYsAIRvrYvy9V2H4KytkFFiJorV1Zg7CtAgCAwRaPURjOEPl785D7YVLNgEIkrdTRm7q0PzPR3CSvLIAACAASURBVOC+ch/qo5QHLwBCNwDarz0CA797HAKSFralBYxeej3m3DApkYkSQCByY3LRQej/g+Pg1OHyOpTeayRIlk8ifXyKjx8dOYT48GFOB/REzBKHztWrkP3wUdQ6IUi6dOrwGoZefTKCuSWtAroQiiL89AngO48g7aaovuwYBC8+uAjNN1M0vvEAp0cGfv84oKaAhbgIG7qYvPQmJPUIc99xDoJ6cY2unaH97YcQfekBxE0BN0wqVB5CN8rQOnceBv70TISHUvpEJvuU9mh+5U5E//YIKhO2XQkgmEoigRsFCJxyyRw6BBB+ayEWXPZcrqjobQi1+x5OfyRvgb3PAg7Z5K1Ib3st4tbtzCLYZQtnHyK0570E1eMvQdh/oszM9rplVwORve6C95sTemqAQL5j+RQ2vu1/Mf9nE1y6aH0UpFVyKYKgpYnMIVAeH1UmEDkwfevxqP/JCb35eDZxKQRGPm9jF63/eADBdx9FfVI5N9SHIAQmX7AQw392hqQJbEkdWt95GNHXHkKFBk5eRQE0D4pRo74Gh9aVG6Sh9vEE7f9djuxXaxBOJZzOyOZWEL/wCFTPPqAEQKQHA5Ujtv/pTtRWtplf0K0C7rcPR+3cRdIHIef1OLgnO2h87lZgZQO1PzwJ4UUL8tm3m0zR/vLd6N6/Af1vOxPRUYNFvrKTYepHj6Lx6AYseOOZzNGwJWumaP7Lfah+7RHEbU3RkNaCdmpsLamh8p6zEZ85r4hqMhBySG8bRffdv0KdyI2qtUC9GQpOgqg4hhKYEI0FAjpBgsnXHYEFlzwDIHvnt8m/CPabN4O/0M1YIEW64Sdwt70JcfrY1kUOZho20zMBM0y+nYvQiY9EdPLHEc9/PhAQ+t/BWfpTZR02N7y3NOy39L1/lmatBWYECPn9Jod41Uq03/pLDD5KavzaXEnBQQ9AYFVFLVOklAADhpC1BpqvPAQDbz9TSv5Ki5Bc6GjSX4BKbbI1LRZnqvx4JaqZiC6lYYDWGcPoe8eZCA+UQWLRB9w8gamPXIuBpCpjh6oOYof06YtQfROpDJZm46lDcss6pN94ALUNEuXgro5hgOZhVfT98YmIDiQ2cOkkuw6dbz6E4MY1rCaZkoDUcQOovfJYhAfWc5jDlEee7T+C1tXL0f/q01E5hwiNtEqAbGOC1udvR3jrKNILFmDgDacy8Vg5gegsn8DGZU/iwOctBYh3pEs6maBJpZDfewwVCqWw6qLM9EmnoHvmXFTedxbCg/rl81IJJlY00fjra9B347hoIJDRiImoXSeli2NWAggEPEgmOkHjT4/GvL+9oDfdMWsfc3/i3gI7yQKug86TVyC8528RZ2tlp1ZhYFzE6UEFe6EqBWFrzyTBHCRLXof6se8Gwjk7Dg629sB+PW8BtcDmlRRpfj8lBMXKZctQ3Ugyx8qL4WIFq2IQb+pia7hEIknifINIOkGOXzQPQ//vaYgOJmKNLDyGaFarJY3m3FgJcG0X4x+9AQO3jKFCpYZBiM6RfYjfeTqiElGRt1kTYPQdP8KcMSqjEEXFdl8GvPJYVF9E7ZBLugWdDJ0fLUfwwycQpQE6dYf2UAC3qA+Vw+agdu5iVBb2ybmpgBITEK9eDXz/YdTaNJvO0CZc8NIjUL1gkfZyUKIRyRvcOYqJb96Fod89HfGJgwVAoDTCp27C4N0NNGopan91Jiqnzyu6IlJFw/oGagsGhHuhL5VstIPGp+5A7ecrGaCQUiPrmmgXyO6JI4guORvREQQQ5FqtygOPTqH19qtRu30CFIah7TKXyvtMGzYVHASqiaB+31TBkGDi1YdhIVWODPix4i3gLVBYoInWgx9E/MjfI8Z4UY5oK5geAkvJ0lJUISiaoPpiCcVaaM46IfX8DNGuHI/qeV9DUDtJw6n+PngL7F4LbNKLIQe/FPK/ewyNt/ycZ6AxRQOYgyA+zUoI8xmrKgsGQbQJQJg6cQD1D5yLyomEghUgEBluXROdNZMYWLogZ/uLc3PIHmyi+dlbUb9rnBn5rYUVBH9xIqpPO5DbOTPIoHWbAab+39UYeLCtGg0B2hS9f+3xqDz9QCY85kU83QzN29cgfXwC1fmDqCwaQDinDgxVpEMl6zyUboB2WUxuW4/s3x9EbUqklInr1zl2EPU/PkG4CHZNxFgeTbD2e8swctHRqFKjJiqnpOtZ2UHj0psw8HCLw/rNC+Zh4HWnFEJK5VlHuYhhXRvtD9yCyk1UTVHiIChRsTUChG85DVXieLBoY8CpAjeaov3tBxBcfh+qG4lxaR0cRQpa/japZSUp6udJkGL8eQux4PLfBOZujlm6ex9UfzRvgb3BAs5NoL3sL1FZ+e+IXFPbse5g2H+TC6N29TV0D3wFqid/GkEw4qMHe8PN3w/PoRcgkEM0DznlMPWxGxF94R7UJ0MmzmaMDnTSSzoISkRkxKAVBwwQuMcCgV7JX7cPriD64NNQueDAwgFTunttG+v/5XbMe9kJiA8nr67ggSIDxO6/aS3aX7wLAw910KKZ/uuOQ98LD2Wp5Txa1wU6f38HKletkfB6EKAzFACvW4raBYt7iZHkAFkpsJQqIfWwnpAgSRI7uC6AqRTY2EJ6zwa4K1coSVBm752qQ/DSI1F91mIBFhZGTBw23r0S/YvmoLqwX9TJyJk/3ETr0pvRR5LMmUNrYYzodSeievZC5nbM+Iohv72mhc67b0DlHm0PrVUMslPHDaNah/UBLzkc/Scu5Ottr5pE54aViH+5CrVVCduSVRRJ74CJT9pzga6TgkKmg8B9G6jMMcPkURGGv3MxgsNqvtZ5P3wx+EuebgF7T4yhc8trUVn/3whBL4ntXHIthBnyDqRgG86DO+59qCx5Q0nrYDuP5TfzFthOC0wDCOI7yTm2v/swWu+4CsNrQm7ASIQ8AQQaRaAUA/tjKUmkXD6DAna+lGagfDidVYjOnADB35yGym8fIZwAdabpWBfrP3YD6gsHMfyGU+D6i9k+r9QROeL2Z25FvR3C/c7hqL76WKCvxOR1GZKvP4Lsmw+hlhE4CdCmsPhrlqJ24WIFDdOso04y1zQhkl4TCDZ2ka2eQOvxMXRXjsGtb6I6kaHajhB2tXqArpD8rMuwcYHD3L88D1io3Aq+Xoesm/FxGSAZALl7HO2P34LaGKUIHJLAofPsReh7zVIEFMHoWSy/4JA91kL7Xdeh/lhTeQQilSp6K1qySX0TKgFaFdJ8BGqdAOEUECRF+2nmHRhRkaWXjceQIVQAwcRT6vQYOEzFHcRfeTZqLzxcFDT94i2w31uAQMJGJDf8AeLxnyKgGuXyknMNTNtAv5wuJtQjlDQNIOh3aXQIcMpnES14QU9Z435/C7wBdqsFNuUgpA7d69di4m3/izl3dplrwM+9NmeSRkplDoKEoPNmTQwWVC5UW0G3+4Dkdcdg4E0nIqgXzt21MrS+dA9a374P/X9+JmrPXwJQiZ90FRFDtIDmfz2C9Gv3IT51IapvOwXB3BKLj4h6V61F8vnb0N8SzgPpFbiLj0H9ZYcKB6A8QKlV8oY2kwbDdV2kq8aQPjmFzqoxYKyLOAtQq1RZcIgdsLZA5uaP3NxEdAho9t4NMqQvWYL6Cw6TCg2VRxWFRruPygm4dRSdS29D1dQNSVp5TojK289EdLI0WyKSJh+T2sqT9HOji+yOcSSfuQ21dYUGAmsZcI8FU0gUsSY2GZctakWCdmYkmWUpi6T0Z6bgQMBMud1zDhBI6Cl0GL/4QMy/9Dd6Szp36+PpD+YtsLdYgAcXgHF0fvVKVMZ/gaAnglDmHOzoOVMX1aMRnno5wrnP7BFE2tE9++29BbbFAr0AgXzLqiam3vcr1P9tOapJaabOJY4aKVCxJO6GqKJGQkrkEINEEPg76anQjRw6LzgY/e8/C+Gg6QdoSd1/P4HsE7ehMwBU33o6ahcdgqBPHSX79oBD/c2v3YfW3asx/BdPQ3RYf1F9TI562Uakn7oN9bUpayEkkUN2/iJU33IiRz5yDgI5z6kEk9++H8Et6xE2HeIUqGiMPw0dktPnITx5AZKpJtxEgmCCmjgliB6bQjiZyr50Bk+/Ng6OUXvNSYiOoLCFcBhkImF5Cy05vGYtsn+4E5V2MftPgwydpy1E3+tOgWu0kaxrIFkzBbemjWhlE8HqBvDEFOLVba40ECRWTg8oKNDUgOkZcHRBdRJYJInYI1Qr6gQciJaCAQTRis/TLBRBcNJOenJRhNrnL0SV7kku/ijXVVh1Wx43v663wGy2AD37Y+hc9wrEE1ciZCTeez0WRLCfvZymGagEpddEsacA3fpSRKd+EeGc8z3/YDY/MrP83IsUAzseoPPjx9H986vQvzxBSI6en3Rt/RlrdECCCKqLIJUDJoxk5Y0MEBRfECehfeow+i5/dmk2Ks6tc/1apB+4GdU1HTSP7kf1zaei8rSFPV0Tab10RRPrvnUn5j7rGFROG+lpFJI+NonksjtReXBKWzmHaB4co+89T0NwYFVn8woTqIvir1aj+893Y6ArCow8N6ByzANi1P5gKeIT5ko5ITlTamS0uoXkaw8gWj7F0QMuzeSNqNukQ/r8g1F7yeE9+gV5FJGm5VQJ8cPHEXzlPlSoIZI6aBJeSqsBmkcOojKVIBpL4Ca7CDopQuoqyaF/SmnIW0RaPRcgQcCCTmxY7EgiAnxuBhq0m2OQWNjT0gsCECztwOfLHA1t3ETAK3RoUYnq352P6OB6TrPY4VrsWT5o/OnvrxZQgHDtyxFP/EIAwi5ZAiT1ExGe9gWEcy7YJUfwO/UW2BoL9HIQOg5j774O1X+8F/V2LOCXogZlgKAEP6lkKACDAARq+awNmzh6IB3M2PkeFKP/i88Bjh4QJ641+537N6J9ya8xeF8D1Iq5ddoI6hR2P7pEWpRJMNr3b0B3oomhMw8qygPJza1vo/25u4TpT5oKIdCopqj+8UmoPFflmctp9LY0SZr6+QOoTKbI4gDBwQMYeM7RiE6cg6Aq3dl4E5IGuHMUyVfvkWoAbpda9FKn6+iQWNEbTkK0REsk2dESO5MiFg5Y1UD3x48i+tVq4XMwH0B6NrBTJ1tRhIDSGXnqgL7Tfu0667fyRW7XqvwDfkflyoqqokh/c8UD/S1a8FsDEFziEGqKg9Kr1AtjcoFDeMnT0Peq40RpcmueKr+Ot8A+aQGLILwc8fhmAALn6aR8e/uXUAHC5z1A2H4j+i13ggWKFAM5nSmgcfH3Uf3lBkQu4Jw7MfTzKBpLGUsYPVRhJP7OJI65mkHFkuh7as6kgkmTQykqH74A9d84qGhgRNV2a9tovv9GDFy3gdMJnRrQeeYB6P+z0xAeXOdQBR9Dc+tZs8tpip6mT40MU/98N2o/ehIxiSuxRgMwdUQV/W89E9GS/k37QHQdsvUdYLwDVGME86sI+kmNUYmarH9C5YJdtP/tfsS3jSLWML+IG2mXRAd0wxTBcw5FeMZ8pBvbCNe0gDUtdFeOo7tuCtHGBPUGuIlS3ktBsEaeChDiowIE4xIwftBZPp2PAgHrLW82MX6BAQWXyktKyhgJIIQIiFNBIQIFFNLPQVvRUhmmAgqpdJC3G11/mqWYPHcYQ5c/H+GxBWjbCc+e34W3wCyzQBFBqEz8glNx0hhlOhrIpxfbdn25DgKQ1I9HeNrlHiBsmwX92jvZAj0phmBdgvEXfhsDtzelWIGmtsQ9MMYdAQE6gQo1dpY8A/syBhHax4Bm42XQoGz+ZjVB9qaTMfCnSxGQZoIurpmh+YlbUfv+EwxKuD1zzaHz/MUYeO1JolZYqiLc5Pp5tg5M/feDKkcsvAcud6w4JM89CPWLj0Y4T5UWyzuwagb2hjlTQdYgP7mhi9YPH0Z0zRpUWvJ94ZxLXASasPdFcAMRskYbUcsh7mj4n3seWNi/CP/nqYASGKD1GJTwT9EzYCdvnAfrw8DkQks1qOCUphv4c+UXcLmmo6qJECyxTBUVtE+KDjA4yThiYPuixk+kcUVgge4wgwsiU/anaL/zJMx529lA3w5NjXby4+t35y2wOy1QAgjjv0RQTjEQSDCRJHu3bS97wAVI+pd6gLA7b60/1owW6AEIbl0Hk7/1PQzc3ERkYQMjJhLtjvUNdIodS1dHJipS1MApMZHJbDSLpxSERhACcK4+efZi9F32DGlhblQ+6qdwxX0Iv3Qfqh1rHw10BgKkrzgcfX+4tJBoJmfG/mlaqJskoa9bCfzDPYiniEio4CUM0BkOkT3/ENRffCQwKIIDRYVBwTAqqxCy4uCTLTT/5yFUblqPuE3XZwBBQ/Za7kgzfD4jrhhQ3RQiA3IaQisHaFbO3xWcAQEBSljk32UfViUhTruIGphyopEU2RCqF1FONxjw4HPhaAABAkqZSHmllDfKs0AVDbxfKpBQ/gIFfngdVsKSng9JnGHsxBjzvv4yBEcN7GD41I9Eb4HZagEDCK/QKobNcBAULJSlz/MJUUkOfdPJDu1f3q/dvqWITv9HH0GYrY/KPnLePQAhmepi6o0/Q/07T6KWCm2dSXxWncC/04cUWaCIAeXPNRwdKkDg1ILpIWj0jciOATB5dBUjX3sR3NxIezAE7IxaVz6J9H2/xmBT+iKwrgL1X1gYI3zN8ai96FDpU8K1ARK+65nHkt99YBztD9+M+ppEAICWY7owRLvPIT1nIWoXLkG4ZADBQEUIlAo28hx+K0W2oYPsvlG0r3kCtSdaiIjcp7JMUsEg/ydyx1oCamRBjTAIR0DTCRo9yKMA6vhzyWSOBhARUTQLrLSSRSa0EiH/3Fo9K3eBb1DOQSinLPSMibug0QIujeQ0jZZpKighEMBZCJa9dqyJIJFTBRNk2zBDoy9B/C/PQf2FR+ydDeX2kQHpL2NvtoAChGteUeIgWDqh/NOuYZrGAX9ctJ0vydLl7xhOOwYRkr7jEZ3uSYp789OwP5xbT5lj2k4w8aU7EH7odgyuFTcswkeaZqDnndIJwl6UZ910BtSx89/KQ2CCo0UdwgDj8zMMfum5TATUikB2uMl9Y5j6v1diZKNwHFieWIWYWodWEb/pJFFFJK0B89F6dySq54C1CTZ++DoM39dRgKCRAiVJJjHQXRAjOnou3JJBYEEdrk6qiVSrmACjHQRrW0ifmEC0poW4I36Qhz0DAYsUyIHtsEJk1EgAfyEOuAAEKm1MG2j432b8kk4QIMChfm59TTN4JXGy89fpvnEQbD12+FQhYakG0Xe3KIXsW9ILkmYo0gumpGjpBb4WJUgSUZGhGF0DgQZJIqEVZ2h9/HTMff0ZPc2k9odB4q/RW6AY9WPoXPNyVMavZCTdm3CbCRCUbbel7/UoQYik70REp3uSon/y9qwFegACseqn7liF5gdvxMj/rEeto3WKrGtQKnXkEFrAtfFSJmj6CDpzN4DAkYY8aoaJ/hTxB89HP/UNMIkF8j8bU4y97kcYfqTLVRAMQFQ2mSIWU0sqqL/tDFTOWsj9BjZdqCcDsP6yGzDnqjGEqu7IJQN0nhyREJBDP7NawOWFJpFMICGkvHsijpFVEAUZCEBgH6/XrwRlySwYGDA/as61KDeUNILl+YVXYBEIaZ4k0QiJTpBOgaYmyvwDJQzy7MJ0EJhD0FvBYH9LCkH2xWWMDG+kskGuxQSgJErAHJMSQMgjJQl9J9fUihM0Pnwq5r/xLBGz8ou3wH5nAY0gXC0AIRCyz05f6F2T9p2E8AwPEHa6cf0Ot8kCPVUM7Agmm5j62SNof/xmLLili0oaidNW6gGJIdGkN6TPyNFo+oA9HIf1tZKBZt0skaBdIImHUE2Rvv549L3lZG6OlFcidICpd12L2lVrENFGFo2gE2IOBDB58hAG3naGdnPUa7RyvzZFARya37wftf98DKGCCzknPY61QdaIBwMbxjkalVCfJ38a0p/ZEeY8ASMYFlQGJSQWYkhCBlQAQbN49vIEOggsyAuGSxs1wpBzCBQIlJUbBRwIMMlTC4wF9HiqhVBwG0ReOT9mXvqoYkvMQZAO0HylJM1M0aKu/q3ggnbf6O8g++IFGP6dE/JIzjY9aX5lb4FZbwEBCN2rRAehh6S4mWuzxMO2XTpxEE6SCMJcr4Owbbbza+9MC/REELjVcuYwuX4MU9c+Dvev92Houkn0bQwQsfCBhP8znv0HLMNsvRmIrMgzdfKw1rhJvLN0d2TSYoDWixej/wPnI+gXgSX2rV2HqSvuR/TFu1BPSX+h2C9/H4VIqkDnWQvR96oT4KpAOtpGsL6NbH0L7slJJKunEC5voL4+yVssS4llLxAQfoOCAKUXyPGUL6Ejejo0MAwgGknq0NVX57wEdvKlqgN23vqPyyINHGhpVF6VoARG5Tyxg+f9CBcgV27U+8ONl7QfhJAWCWwoUKAvOW0hP00zgSspLB1BPAQ+N2rxTCBCOQiqwVBOL9DvCTKsPz3GnMufj8rJC1lAyy/eAvufBRQgXP1yRJvTQdgao2wRNZBQ0vEIzyCpZQ8Qtsakfp1dY4FNpJbJiWVpisnxCUwtW43sf59A7cerMXhPG7VOLCWEzEkQsiJP1iMiskkon32maiQIf4FAA1U/0IohJs8ZwsAnnoHooL4CIJDS4HWr0X3ndRhoCaiQ2b84IgEeUtmAY+YiDRK48Q6iqQxBM2XFQeIJMHchr1LQ89Hd5QCAUw6WwlCAQvsvPlJLT88XKg/BkIINcnOqPBUvcw90e9M6yMFBkY7I5Y5VE8E6NOa6BuT1TeHQiI89aYUCSPAFmIyyVkzw/mkXqp9gx8vXUyxBqQeOB3GFQ5Hi4LbbzmFioUP37Usx9Cenojqn33d33DVj0e91r7dAEUGIxklq2XKDpRPPZxIzXEwp0qgvNl1Jv8h/EEA4AdEZ/4hwngcIe/1jsQ+f4KbNmuyRpTbCzRY2rlqP7j0bEP3bwxj86QYMTVYQxtrJkeb6Chi40yP3ZSiIi9TpkcCBdDWU9MP4MTXUP3o+aifPk+8o504CQo930HjDj9A3RoNOqxR0G6tLZFBCKQ0tpGDQQTyAkASOrKJCc+qCAnKxJq644PMVJGDaJgY+5LIFPAi9YNO65pyQyIBCR7MpH5bTDZZS4Fl6b+RAhQ2F62ApEuIK8KoqXGTljloVQfvgK7VohKYGehozCdWAxVtyoiJHJJT/oGWVOSdBAxNE02BgwJwFAghKdNS8yORQhqnfX4y+t56BwSMXIooj4UHYPdqHB4e/NG+BXgsUEYR4bNs5CM7RhEoH6jTT5q8bzsu6IoLgAYJ/CPegBTYLEOycut2uRBMe24DwG4+g/1srMbxGnCmnGWy2b82cdNbPX0favlk5DCTd21pQQfDmUxCfMg8YayNbMYn2w6PIHpzEwJ2jUlZoPAE6DEcejCQoIINSFVLKaKehpEnFBEJI1HPMIwYSxaD/JPpR4kBImMIwQn47ZowEqoKiVSrw/qz0UtUJWaaYPs/TAxTqV4VCjQSwpHFekUCVBiJqxB0jVTehEEkSMNITETDxpFIKg4MU1rVRKyCMkMggQ7+XignrHClpj5C1GwSw0c9unGFqcYCpFx6Ayh8txchJB6FWr20aPZg+Y3qqGdRuf9BLJzP9Zpb/3lzId4uh4N1+QVZXIwd+qvPLZ6PUWXRmLs1uP/vpNrfXiF6LdEHdS851RuNYBEHKHAOe2eiSv1Q2Q1zkvKYZoBRKKIsr5YqMRFI8HkEpglDecm+x0Ew6DzOZTSZcxb3Nr17mGdMe4931AjGgJhPO8qMop1t05DWNnOJe64k/5QDc7aNrhgNu/gVRvj4L5c80/rYIEMRxObRaLUw+sh7Ztx5C9auPYs56ERKQTINVCRhRUYGB6Sfk5EUgrQCdQ+vcdyHa0ELQFHnhKIgEbOS8htLLIu8HoTP8EvfByIZCI7Bqixy/FORKcoiWfuCxKscyIenS2NxUZyEvrSxxD/SlxoPVaALlaIKlFPKZvaUflIdQThnQOuzAafavD6uJKCmQELBQtG3mNIGmEux3ITpqrwgmLKrTL2kxUOdGq6oQrQaNWmiL6IQ0D+Y5TJ45iM7zFqN60aEYOHQ+6gN9VvTKxxXcpvffJCX2hjEx4zlkUmmjvHMxkwwe/pS6k9I16ZtiZh+196AFe7VZoMrUPe0MBRvrNT3lvdnN15Qfrve4HGNjWo6MxuL+9L647T7RGtG0AkOND5bu/q64thJAGCMlxRJA2KnPPgGEpcAZlyPaYxGErbcf3y+RYlO6VAGAJJsr7wktKjNEpXewgDtbf8RtM/amehPTti/hNfs1C+h6ii63HH3WqSD5qXx+uonw1a66im275vLaMra0ZU8R+9YpPr3LN/8e3yJAyAEydV5stzG5fB3SK+5F7UvLMdRmSUQuF2SfaxwADv1L9QGnIIx0yBoKMpNn/2wpiVJagp126PJKifz4pcoGTguwIJOichU9KioSNNJgqQhKL+RvfRVyKkUMKLIhqFHEn+QPeXBlOy17VKeva2tFQQEQNDlR0kIwZKFVA6Z+qC9E68RoUsxW1ZCnMvIIg9xhvtGpCCr1VD1Y3QUrJ0ojqFwYicslBcVYrweLMhAY4UgGcRFSoBF1MXrmAJqvOBwbTp+L0YNG0OivoRFFaFHvugwglexa4DASAAviCg4eqGB+GICehFidUs+jPBM83/5nfRu3lEHeBVfBYk3H4bFGC+vSDBOZvN6rgcMcvpYIhw/UMD8KUAsCKrLZxAUV7mr3vwQ0UUV8XrQAUGfzJ6eaWJ9kmHQBf0b3h6p3+0KH4QBYVKvi4L4KhgL6fKZr2kZz7qTVzXr0k+5BBw4TDljZTLCm3cVYRtdE3GUBDNUQoF6iI0GABdUYBw/UMBcOlSDgqufdN6OmATiB5KqLEbHU8nYCBMsnaKpuU7MKBwFnfQHR3At6rm/3P3ny7thkNFCUMQj4eRxzwOONDtZ1OthIWkf/iQAAIABJREFUFU9ZwGOOxlAtBIYDh/lRjIP7q1gYk4xKwPcuV+vdfTcwN/X0K7JnsQ2H0RR4gq6nS88i0CTpaynY4wrvEbqeSoQl/TXMo/eFm+ndp16ZwfpOGjjbuBt59zlQkd/qrsNjUy2sTeV9QU17K/qeWBhFOHxQ3n31ae+JrQYI9ph0CSQ8uA7t91yP+b+Y4uZIDBC4rFE6E4r0sjpx2pA5CDrD54qGggXPfRnYB+vn3LuBblcERz9Nx0CgKJvIeAOimaCRhnKTpYA4EtpUyvgGInBQcA80dsB7VDVIiXeJ0MFMoc5c/Mi4ATnyLEHQnC8gqExmdyqrTFUFTAY0GeZCVIn5CAxEtApCVRT5eplkqBoKpbRFzjWglYyXoF0hBfAor0BvHgEQNm1K5ENJJUTOIckcVs9xePyFB+L6Fy7CT+IulgUxJuIqukGENAhZMkJhBgcsavSAIcNw6HDKSD9+c/EgnrlwDhZXIwyFAhh7Iqq7dZDIbKaRZVjRTfGLNRP4/oqNuH2shUYQo0U53gD8kuLQZwb8/7y9CbRtWVke+u3m9Oee27d1q4OiqpC+qS5SihEVDIq9MojxJc/4XkhQxBd4SmFMeOAbavRpYpMRRY0RkCAiItJJ0TeFNKEpiqp7q723qm7fnXPuafZe642/+eb81zxrn3NuFWQPqHv2XmvNNec//27+7QRq7Ox08Nwdk/jhy3fgxu3T2NXrYlKUWduZbyKdRy1KrD6Cf+Z2ks8AHVwYVnhwUOH9R0/hQ8cWcNf8EubrLpa6HWXUcuekJ8zI/ozVFSYxxL5eDzfsnME/ObAVz94+g939Lqa0zofRzWbNxJfIm1pv5yqHqLEwrHGqqvCpk/P4wKPn8dnTizg5AJY70DUJcxM7pHoqUWNF1lfVmKhrbOlUeNq2abxg3xY8f/ccLhOc6/UUl+U09M1bkykImuZ4TlwMdCfk/dOiZHpwsRWs/QTRpKlIfoBKN8pZvIdTE9fhnmt/G/sOfjt2dLuY6XW9+Ov/GhWh7S1mKQAuVhVODyt86vQi/vboGXzmzCJODWtc7EiFXDmpdjDs1KogCOuSfZyshpjtVrhuZhIvOjCHf7x3K64Y72NLtyviwuiQFPZN5RXNE4vMb76qcaIa4uPHL+C9j5zD585cxJnalJwVEZgdUwUFt+xAVemBSBSFp84J75vBt+3ZioPjPcx2u2Yp4X5+U9fSgl3uAr9YAw+vDPGRk+fx10fO4ovnFjHf7WJFuuwov3DsFeWmrrCnW+PG7VP4wYPbccuOWex03ndJCoIJnRpLCxex+q77MPiVz2HbMTUFeNBatg6w1LGe8tVqQEXATfs9D/OT69oampkLpkho9oMK/eBqoIBP2Q1+wk/P+r3OMKNCYVkMfvb3AAaxVCTRrr95+t+6osDLKEdd1G041gbaIxJCZUR7rTEDi/2zE36KY1Cvg3w3OxAFg7kLsn0oNniKfR105sxU8FRGnYVnNSTXg1sT9DTqvE0I+c7dwFufP4v33rwD9+6cxeL0LAZ9nqF9X7heF1pJmZKTQl1huhri6okeXrBrBt+9dwueOTelWjbDRNZ3mH8jxI+NMZSsi6rGly9cxAeOncffHVvAPctDXOj2UHnarc0lnmPJpGv06yFmqyGeOTuOF+/bghfs3oJrZybUqvDNT+7MbFn1ONR4dGWIT59ewHuOX8BHTizgWFXjYrdvCnDE00ZXQcNlWrTGqxpbMcT10328aM8W/OPds7hudhJzPW3J9b/siDOoRSmo8fnTi/j7k+fxwRMLeGC5wryUFpZA40yN4W/Hv7hdIkLrGtNVhX39Dr515yReuHsON26fwcHJfqrN9o3DqoT8qiCsfEQKJUUFwVXnpBxQO9bTR3ECjxHMuewyY7qMU3Tw9d6T8EvdX8S907fgO3dP4zt3z+E526ewq6cN7e1M5Tzrm31EVcWgrrFY1/j8uSV86MQFvOfYPA4vrWKh08OqKtF6lAnrDTBLeGr8TPbtsrEOvn3HJF60bw7P2TqN/eNjGEvC9JuDk3FUwUXhE589u4APimJwfAEPrRAXS0pvszf4YbWuMVMNcPV4F9+xaxov3DuHZ22dwq6xvipI/6s+GgoA4HxV4875JXzw2Hm869gCDi0NjPclfhEDP3ggtgPDWCV8fIBnzI7j+/fP4Tt2z8rv5PibX4pUXFw8fBqD2+7A9PtPmBXBc+NFdtvp3dMMVRFgbIErA9rDwdoyJ9+/9nbQasHebIkll10d45guXy1Q0TGKbgwWcyJdBrdCrH2g75RhEx54SejNgsBB5oqvWUtChcWsEAQ+5/UKLGDBGzPRSmBqd7YeOH8x10NQGtwdoK9PrgPGFHhGiMQdyAQ0BsEH8roHtETI/qkLqKrwwI4av/2dW/D25+3Gsf07MByfyAGbER5rsjoohPJNol1P1jUuHwNeuGMSL71yF56xZULNVt9sBcEMIzXuWx7gLQ+cxLuPL+JryxUudroYMpBWtcRg7UlTj2sxZtCXkyoqPGeqhx84MIfvP7Ad+8d6epr95gbSmfVjvgI+duo83vrgGXz4wopUEscyG6W14akSj+2rfZonJfkqc5+th7h2qo8f2D2NH71iB66eGNMT0jfzIzOZr2t85vQC3n7kND58bgUPrYiiQ1G32bf7PiVcNIvcWD3Enl4Ht8yO4YcOzOEFe7ep6VdjSr6hSzMLwspHfxhj5z4C6XJm1oKsINjf5E0Br5JiHeKYxEq0JuJJapOIgnA9fq7/y/jg2HMxVVU4ONbB87dO6J7dtH0GM25QtXNgaYXYLDzXv8+ylcxFd8/FVbxV6OrEIg5JYTs/hT7WNwmLGq+HuKwHPH/7BH7i8h143o5ZNeF/Q7esmKBIo2V08KULF/EX95/G+85cxH2rwieUsjdYjvPjNbdJqXxZj+wT8KIdU/iJK3fi2VumMPFNXg8pXVw9Dyyv4i8ePIV3Hl/E3aIYSP2BxHsNLxsfWsz5o9OV8PFtnRpPn+o+NgVBxhsurOD8734BE//f1zG5IMLcNGWZQqX26Bhw6JPTZopdb/hk2QqqJMhlL2qk3xhv4O4GNoSK7gZTLvKC1Vzq4+ivrlDYEda6QIogZ0GnRLopFoGEJkggE7Pvkr6pBhkdnOUX8wmc5wPqWRoEmJgzUwzJ2HwnqBioO8JYRCqhrNYA7xyruaOetujKgeoXrLwow+nf0nVRNtNcDYxl0MZMMjp7KlQifKTykZnNz0128Ec3j+P3vv8AHjy4E9WYtMR2mJb+0chsG6e5gHJUvMQcXA/x9F6Fn3vyPrx47xxm1pzAecJd71xeCLmEyPkPG6WDxQ5w+6kL+K0vHcFnh30saIptIIhRwmLEK4znG/y2VkO8ePsYXnH9fjxzdsL93i3MZL2xRrKeDAemjx4fVPjj+07gTx88i7vRV4GxhnetO+8WPYH8QXl+ja31ALdO9/Dqpx3Ec0WJ8xesDfZ7rCLAnhN8Ozmo8af3n8Afy3oqc1npJ+plI/QaGyQcEiIOFFsgwc57McCP7J7Cv75uP66ZHEsV3R/fKsJL1YIgCsLt6Gi6kkRBiAjNn4RqAeca8U2RRRAOQbEzBeHJqiB8YOJGOwxokF+FJ3UG+BdX7sBPXrVLlSLzjm4k2C5l9Rmx5K/FGvjIqXn8xp2P4OMDMbXnqH+jkYL+21416h7nMb1K1rWKn3nCLvyzK3dhW7fzDd43m5QqqlWNdx87h9/5+jF8dmAn63RIXU+AbnadEgNUDfGUXoV/c+1uvOSy7Zgzm3gLglzKvjTvJWqpywc1PnxqAb/91aO4Y7WL87QxlWixkcLcODtZn5FLtiCkiQ2GWPjbQ+i/6vOYOjFIXRh1TowHcLeCCvikALhgVyWg8vgEXwnTG0P6op7WVBnweATWMXAdQIWAxxDkiojOUPUa6Yc+V5OBEgbAk6BmTzTEeo5/tNQPI0IN6vN9oklHp2UhgLkdvALaXRGpOqKf9HmScKInA7R0RJ+FVkDMlgGrluhIzmqIGpvg/mpRJJI7IVdyTA2aUhyDnV7EgCBtNj5+TQ+/9NI9+Nx1+1FNSLvMx6Dujgy0kvlWuGwwwM9ctQ3/7KpdODhRmt02wti4K+1MUMDx0NIq3nLkDP7kgdO4u+6bO6uB7I+dEPnkZDXAMyc6+DfX7MF37ZnFzr74hKlMPV4ebfsicRH3LK7gdw6dwP84toBT3aLxyLqwbllj2/1BevWqGt/SXcUrr92Ll+zfhh19zz76Brgd5DVyqjm0tIzf/voxvOPEIk51xlAzsHgzW0IFIioSlIet+2s/TtdDvGDLGH7u2j24edsMpgLqxCE3M4U1bJkKwlmpg0DiXmsg04wjcY/q1nq2VPnytjWIwRBd3CUKQu82fHD8pkIKAzuqVfzo3hm84prdeNL0hPrDv7Efs2KdHQ7xtiPn8Hv3ncKdA4kreAxOtnLvGhNljqNZv3ZXq3jpvhn8zDV7cO30OMaSm+wxvLcAiLBPUbz/9IGT+K/3ncH96JtlUU9cDBoY8R7S0chDBtMe80vFZH+gWsFPHdyGf/GEXbhqYsxiLTZmaZveSsG+o8sDvO3IabzpgdO4qxaIbQLD192T8HpF4c26GBrasAmh5TuOYfXlH8fs3RfTqd/KL9sh3MouO1RckKtQVtVE3BKeXcB94T1JQcj9HdQa4kpCGazYVBBynYNUkdE6L3kFRd8jT9PTb0yvirWRQn5uSmyIW8fOi64MqHXDKykq/En8niujUChqKJhyYCYDuS6mf60I6bEMjbLN7m5goKQKf40zcP7BIEVaF1zBSJ0ivamkhOMKHB+d6+A3X7QN/+WFB7Ewt8VW9nhMzUkYFVRUA/s7Q/zE3mm8/Jo9uNp9xI/31EMB9NWFZfz+oWP461PLOFH3wmkgEOM36IDVFVNvp8ZPHZzFT165S9ci5vnNqDkjqV4frvUM+oVzi/i1u47hfecHmO/Sg7lZat6kgtDgUGapurZX4V9euQ0/dcVOjWQ2VHgcQJM4JQCfOnMRv3nPo7j9/BALo9wjjwt4bVA1wpNgxmdMAP/2mt144T6zYD2OFWVkEgXhwz+kLobHnMWwwZaqgtB/Mn6+dxve36IgCB8RV9Hzt/TxC9fuxs3bxTTPCm+PT1llyNOjqwP8t3tP4vePXMARsbwqPjwGCGaDxKYE39Z6iB/YOYmfv3YvvmVGlITH+smIJSzyvqUB/uDwcfzZw/M4nkzvmxx7PRxdT2mvK+xFpbzvFU/ah6sS79vke0fcJjJAgia/triKPzh0DO88uYRjddf36PGNXT69SQWhhJAErABf/PhDmPu5T+H6u1esNbJErzuD0a6J6lLgCT+7FMz94L0Yun5C9wqJJtSlOqJLaw1ydFdEVBDY+0E2SOMXctR3clskZSQzPVMy3JpAlN8UM2xSNfUqE/yeIkn3ovddsPRC9lPwQ60rFsla4JpE5YWMsnJgWQjmQqALIo5nmQ3sr6A6P0s9sx6Dd4TUmUvTJp2npZB++uox3PaTl+GjT9kLaEDimoOKv2zE7xpIkZmSRvf6Rz0jHilPzNlZD/FP90zhNU+9DHs0OO7xfZbqWgXQr995FB++CPUhGgOzSpyjLAjMSaA7zGZt0ck0NepvydXi8xSc8cq6OzsVfnDnBF71ZDNjmyf9MTBPwgs1vjy/hP/nq4/gPecGWOwV4U0Jtm3vyD5oXVvDrWLQl7Uxq0cVS6cxg5Gkm9W4vFvhVU/cgf/9yp2YelxxFsa8PnNuGa+/82HcPl9hxd2PBHCqPeKwZ3yKZvCQZqNgcSbciMNM2xKz3LlWwwQxyT+tX+EXr9uLF+/fiulL3qLM9ywzQghoHiu3/7AHKVqao57aNEV6RJGkS0R1KghqQRgTC4LjtDIaLqLCWF3jBdNd3PaUfbhx28w3JChOVnxyUOGPDh/Hbz10Hic0coXmWgI9LyhmX5FmDGq+lwXukk+w5kUaKbHXGlvqCt+3dQyve8ZBPGnCgk4vXY80BJL/Prxa4be+/ij+8JFFnFM+ET/NkVON3FLh4m26HpcnqaZACKT1tQuqCM3JeLvqIX5s5wR+8emX44BY6dKh0ujvUj8rEs9zdhG/+tWH8eHFGksSP6G9ktr2x+SP8uQ1LpR4km2bh8bFbSZIMQKxVpn0kTMX8eZ33omX/c69uPUeURBY6hjQgGS3BkjBCbUWeKyByvsUVGjtoHV0ySiQ3g6yDv3byzgrpTv79ZQzq2rjbZzTacfdCYQ23QYurFIqY+T9LJx06XtkFgJxBWjcW7OAkqUq+kSEsbhgNstCdkXYc34jKyLKYylGQb9IowtD9pD6KJugTZZ0TIlBoA8iBEFK2pe6HtxDIfd3BKFq/PmtW/AffvxqPLx3ixnymMJDfSCcjA3BSBREOApVY/cmYC0aVmftBK8JX/67mEZfcfkc/s11+7BDq2xuRPZrMV5+kZS3T5yexxu+8ig+siwCwrVnWa+vJc45shfOL7HZQjnU9D9unc7blI60nX4Sna0G+L5tY/jFpx3EdVNjj/mkI7N/eFDh9V95GH9+7CLmk3JggU8CO8I2V+z0WB8qYU78ep8z8+TyCnsSGZExDGMahMlV1Qpe/7R9+KH92xtm+UthYPLeB1aHeM0XH8K7Tq9ixSOozYjn6pnjCGUClZo0/wIfDZ/yPPNzubiVXc/y05QNw8ubxoE3PuMAbt02HT2OXP7Gy1MSsoNM7RaE8YYFQRR4UxC0nHJDoNmBRH7Pn2YKpG2fFUKTv4fo4uv96/Gz/dfi9v6N5q50eswCVn7tYqoa4CXbx/EfnnYAT5zsa0rhY/lQqMvB761HzuLff/0Ejkghm0hPksLnHWiJl43rTkvEV8bwmKB0cAdekjCQimGI9ZJo+p/cPYFfetpBXObZUJe0LsWFGgtVjf9y30n82uGzON6VRoDOMwV6OhcNxLOjReCBEeeIn5E3lOsmvpGeGvFxdY25ahX/+sAWvPJbDmCXHKJTpcZL2y/hfR8/M483fPkoProsmVn2vHm0lNs6//WUzAQ0LxTo8G8e6DKPIS8gL9+kgtBE7buXVvELn38Q5754Fr/2e4dx0/3L1rJYGzNZMyetniVYp42dGEdAS4AXK3JLgtRPMPdWvk+tBvpcSCfmd1UaglbrJZTt2OAAC2ZSZZqx1kHmjWvd7kFg6MGF5fXME2Bzcg0wKwHEOhMjVAjia0S468xCDILFKTBTwa+ptHaFQ2ofUImgm0zjDtRRacGHSlx+v1Tz0FOGXWNXSI919HlXOD/WwW+9ZBd++/uuwoWZcRP+TiSZgIwBpdp2AS486WVlICOYrd/dHy5gdf91/BpXdAb4let244cv2w7pvXUppmxZnVgORDn4f792Ap9YrDSyn/OIRB3X0WTYDgYqkL5JUTixHLcpPrppFqwa9BlZjaQ3fddcD6958gE8Z24qpGmtw8qCziN/nhUGdug4fvO+szjV7RuthFOXzt18gdk6UCgxDUZLRuz/UrCugUFSLrz2hgdSPXdsiF99+gE8b/u01Ym4hI+sR/y8v/a1h/GHD8/jQnc8zd3eHyqXKqJY9g8DfZXmKYwTI287Y0kAqu1LydDIuKPqOV5VePHWHn7tWZfjqnERor4JCthNLNAHE/362OJJdD/2o9h98RPoSV90t4WNVnXzFauRQLWYdpQ4BbtXmP5dvevxs2O34UNjN6YAaTlsEU8NL4zu5qoBfubgFrzqun3Y1Xfr3FrdesOFymo+eWYBr/nSo/j8stQKSWLdqwjad5k5FTIeWzmXEg7x0BCvUZGlUsfpRsG1r1Ph56/ahp++eie2aZbcRgcKwwlCVIoevef4PH7xK4/g7mGuvWnvNnBoBpoiniuB5F+FYl0qqPFNiWa9JYDtUQx+NPq9sjPE667dhR8/uB0zlHcb7kq+Ybmu8bHTC3jjXY/iEwsVVu0knvhFpjF2JnZ5VNAS56t7w+EDT0k/2eFhfQsCNUtlvujg0cEQv/aVh/GmRy/ihrsu4D/97j24/uiKFZLRls6GuB0tluRmaG/1zJgAUxhoGbBjvCmrVkVRUiAdE81ULUqGLCBlN+QeDXpfjGEIQqdhbvWYA1romk2ayFU3wy14xG4qAxnQ2ZVgCGiIZ8wsCHzjZBoJXYuFICkGftyncYHKggsqCzzsoONVE3VsuZZiD1i10UzianUQ+IoyIacUKYo028UbX3oAb/rOg1gezya3SH4WL+klOC1iMlGVwpVWT9dZKTyJpCYOaFVwnNBeEzWeN9PFG566HzdunUJ/FM0Xv8v+i/b8kZMX8Po7j+Gzy1IgKImWREV8zP7NxuyULZIQywWWTpjry8w6jeM5sdHjEKtliC/4e7eN4bVP2YenTE8owWWlp2Vx6acaUszk3Y+cx//11UdwxEOyGgoaS6CuIVEOYsxNvpnQM5xcw6QbxkWdoRd/4v1k/F1M1EP8yM5x/MpT9uHqybFw4lpHlvoLz9c13nL/Kbzu7pMaYEn2ZAXAOC/HCTeXi3Kbz9bN3WOVkjXKnipR3F2KFq7cGAKDtWgyFmXu5ZfN4BeutxMcA5M3y5+FjE5UFX73i1/C9x19BZ5V3YG+KgiRZzQh72LC78n2Ms541JNMc/zZvikIZIZmdzBrVvPZDvbUq/gP1+7ES6/YiS0twme94lEynig/hy6u4HVfeAh/M29VEuP+aefK9CFUswJh3HuUi6WcsSmGPJ3xEML3Uej1OjWeNlbjDU/ZhxfsNhdKqyuvkX1oowzrDr64sIxXf+4hfHTFwkkzHgUroR6CxD0tylvEpSZmNDHT556oLX/PSnB0pNm44hK6abqDX33aAdy8ddIyNaKSOoIXMubg46cXcNtXHsEXljuavq08SWPLrAJwdo+YG4MKZYnjtEYl+exKEfmHQcp4S6eq9Tw68qNz9g2Q6ll/dPgEfv2+czhf9fADd5zAb/zBYRw8P9AQbBXgYzQvW4Ci4WqNWmMMzLpARSG6GnQSbi1IfmKNPbDTQsqM0roKHpeQUhtd+wtWgsSkjWMbsvO6nObJ8Wn2DCb1iAzc+og6dnhhQaSgEMj4qf0zN69wI+imBhYhJrtUkC0rB8o/41jyvtQWWiwEUkZHAj384ZA6qWd/zVbw94irVDtnWprjgzt6eOM/vQJv/rb9WNJ9sRVnAiIB2+oN+bx2gsBJX+lCJZ5siUVpoBJq9n2mHuL7t/XxxudciYP9bsN3mhiZbwL3Qvxu/3B+Gbf9z6P46EUJmrI95BLNdZ3fp82oOMeOVol3pDeiTCzCFYSudvu0WBLGT8i6tRKcG43kmt7n1e8EmnJtuh7gR3ZM4A3PuhL7Uj0wU5XI3A1lMt6JaPnUmXm89kuP4I7ljp7WbM5rPwZOO33ax+4S86g7F+03tz4QDWNVQQorg5eJZDGJc5Zck/y+vV7Fv75qDq++dh9meapvHLbDunz/l2rgfSfm8e+//DC+JMFH/pGqehsf05urZoVHm+OI0hV6LTP6DBcXN1ZQxX+28bcNV/BLT9iOf3HNbndxtQA7/KRPuXJ2pgbedPg4/vDue/Bf69fh5tVPYYzpjVTgWi0uilXhFDNCCjR2toOv9a7Dz/Z+GX+vCkJ8Jgq35vyf2h3g3z91L75n71ZMBXY3apUcVdjKg8sD/MevHMUfnFxGrSfT/Klqqb5nfCbRSLqc/e+MwWBKZ5tcUYxrSByjoZSGnvDFfh+ratw6VeM3brwK3zLZT6689RQeWc+9S6t445eO4s/OrKbsC7J/tQi6xUz+VVXTNjutSmjH+rUI/TfxU363mDfhBw6XNTzF0V7J0nrByEsmUeFFc138x+dejSsZi7XBuVQMw587v4hf/uJRfGA51mvIfNvOMU1+QzVZPdHphBPXwvVx2fGaqIQddM4Pq3ra6he1ErIsX3JH71tYxluPnMGfH7mAo3UfsysV/s+/O4JfeOtD2HNB8v+csfadZylfEMTyYfUFXgPBzWPJfaBFlTSiMTdXkk3RQir+8Y7RqmyIWdnNQnRDJL7nCgEfaxZTcndHPJEVlgUVDmQMStdZ6LPAklFKAGbisgWg9dDu5yCVr36618elrTL7Kvjxyt0NsWKiDZ2zFVL2At+vBZHopjBBzq6Pirqe7dDV7o5mRXhgRw9v+Mkr8d9vFQXB9mXtpzzflIxtfaymRSGI7MYrtlQDvGBrHy+/bh+eNTeJbTSNFhOR5Z0ZDrXIzu/ecwofnh9qUA4N1pmsR4tWEr62/B4psDJxZXN+LDzUFM4mfZgCW2N2OMD37ZjEy6/dg6dsmcCc4CiJNggO2YazgwqfOLWA/3zPCXx8ocKSMOQQ/NTO0D1IzhecxcQG3CUNZuszGKRk3fCqrNDI3u2qV/Bjl8/hp6/YiWtmxjHNOCDivhGJ9ks4PajxwePn8duHTuELS55C7OxEhYWi52bn2b760b9KSd9a05btI5Y6Y26JB7gSI9arA50B/unBOfzEFdtw1fQEZlkW3J+N50zBvYW6xkMXB3jzg6fxZ0cuYHXlDP5H/WrcvPrprCCseTbO9rEoCF18vXs9XtFnkKIXURsBQ+KrlD5/6liFf37VDnzv/q3YN97TwkNqLaE1l1CSSPhOB+cHFb58fgl/cu9JzQSyIL6A68Glao+6QE0+/JJPrLN/Sdtr0hItjTq6Kw+RmifrAW6agNZUuWXHNHZJwbJiPfIsZdVXzi/hv957An91YgnnO231DEkLwZKxLtrl2Zg8ySWyc2zKevhN3mmnfImvkAyUn71+H567dQpzmjKdOZn7O9TqIX1JPn1mAb979wncfkHix1xSrzmYra94juIpzd8ZZ8O1dNB5/deO1jfu3ILLt0xh21hXNTR5leQwnxlUuP/8Ev7h5Dw+eGoRX15YxXlNv+pg++IAv/zW+/HP/vZRbFs28z8LGunwriiwjoGyH/mPWwRSCqK7FuR3fU7H8dPqo1WnAAAgAElEQVQQsxe4Ck+h1Puiksv2z6qJ8qjjDM+/G215oEaECgnAFQuaNTN3cWBFfYBCP9UPz9YE22YK/EKRYPqiqeHZrZAsCJZtYLji/1L4a/VFL4TE8VVx8PvSc967QYZ3t4IKaw24NrHyyNauWhD++DsOYFEaaFE9JNEx4LA4A5ciOJmofK70aale5WM0ddoccS7zGK+GePJkB9+zexrfvnsWV2+bwnavOS9LPbVa4dDZRXzo+Hl84OQSDq1KrX7b+BQHEc9XTD1N5lGytGDeLpzOWa64K8Y33n632UeXQiRj4ghNe5NVhWdMdfCivTO4dfccrpwTRcGsaAMpGLRa4Z6zF/HR4xfw7pMX8cCq1HrvrVlLXJ9hbbRFBBj6fjX0/iIILJoR4315zKAY8aTqwZ5j9QDfOjuG79kzg5t2b8HBmXFscauguHtOrgzxtVPzWjL5709exP2VWHYsRzmZOwtBHemqVaULjK+57ni+a2d3tDzG5wi/uJuSSvf0mTF8585x3LBzC66cm8L2sW6qJ7Ba16r0PHh+CXecuoAPn17GFy6sqLDZOziFt1Wvxs2DT6EvTq+0iI0ZtFlGotLJWTWFi9DR17tSKOl1+IBmMdBh4vhcwMjikGyMXl1hV2eAm7dO4Pk7pvCsnVtwYFbwUAy6Zl2ROJ4TyxUOn1vAp04u4sOnL+KupQoX6dMONKCrGrEnzI4hvJtwL7Gtfe4Z+2I2SsZ5Bv9JOfcn9oHv2jWJF+yZwzXbprFjzJo+yRjnhhUeuLCMjx8/h/eeXMKXFwdYTNUR4wzX4o7rumtjfaKq5EGF0YVAuDfigwp6dWbO44S/vIYUh3rKBPAi4X17tuAJW6extSd9Hywk+vRqjXvOLeJjx8/jb08u4fCyVFLNQq+N/7XT94j18ueGopFxmHyjM/O+Q/Wubo3LugPs6wOzPUsrmB9WeHgAPFz3cbqSilpWVZCf3fMreMOf3osf/8AJzK168cFQOlkUhmRpVAuB66Vi0vZgDvZfYIMnY4yWAmmdIA1pkobpfRv0PlZHLIIPU/nmqG3Th66T8CZKOkZmKV7XxARCqocQ7KohDa7BuDxDgVofg/FcR03Bf+x9kGziqiCIJiqWBOJNiCdwg7j1WLBgwWxJYNdGYzDMotBAUWXSVBw8iMtdE7SUnZns4DdeehC/86IrMC/1kdZJOmzq+k1ki9dUvwpKAWGUUuxaeDpTCyWtTnDw8u4Al411Md3tYqke4oFl4MG6h1NDUQzoFrDGYGom9Ch11bdaTlclA2sXK6bMMEujeU/W/EebyXNqnUJS+lJ0gD3dCld3K+wb72onxcV6iAdXgAeqHs4MxYeYtXQqBBRmcS7rwY9zLRkUx3ssp3bLnMhQGKulg12Nfd0BrurV2CuHiE4HF6qhKjgPVn2cHUotwcgfmgJvFNzX+z1mxbTvzTq4GDJqciBWUwD1pfFTt8a2bqUpngd60IZPwskvDAbG+6o+TtXWzY91APavnsRbh/8WNw8+gbFNdnNsOeyuCxJR2KXU8iv7v4y/799oRd2ikhgV8jYXH6SniOBhR/HwMsHDPjDR6yr7OTus8NCgg2N1T/dOGmSVFqmmUtCEneG5cTgG763FtebRYOSCC+CMwmVdf8eaqu3uQi1BUtZY9my5rvDoaoUjwz4ecVllfvaN8ZDv2wydlWson2mduwc6C03RlWvjyC6LywHY3q1xVXeo/SmkOdxKVePIao0jVQ/Hq452os1xAQXeF/tf8us4x5Jf2yzWfhp7333vYYtC8Dg5Yb4qYDilFOzAZdlUdyys4N/92b34yfedwJxGz3v6oowjZkU5SPScaej45r81NwKzHXzK1B40/cNcE2Z5cJC6GTxZRoNFPCkRDGD0iVtBphxJaqYgk/yp4mKCTSY/0/LtQpQ5FstZnk18AL2fOVau7etvGuRhm0BneXANpEAdjYkQRWFoc/QKiToRtyBY4zcr3Ww9GnySHpyoiKDv6EB7k7rAThYG93AIT1uYrPF7L9mH3/rBJ+CRLXKC9b1tSfMhiFJ6lS41+9JVOKuK0VQgkwZKBA5RskwnipHBBi45bVu0g6DC0DWnkEjieJkDgJgwVp7fGEVc5l1TkdFl+AY3NO9gPaGhJhaXzcLKntIupoEVNVM99W0JSSKBRsJtZlA06SylOfp81yhi8XRXRCJzrm0pTTzjRwavcyL96LjWmU7xTgEsJXAN9rpHqlgxk8BW1wiAahqrGRFijNKjxBMOFHUzOL8IT45fZtEoeTnuxrTQmN1CPOZex6h7wwPG4JgibnA2uhariHRBld/3rp7EX1SvwU2DT2KsWjHduhm/1+S65FW8ZwQLccRWdJE6CHd3pRfDv8OHxm5IKcN03UflqQ0+pP2m8I7rywJeYUfO5vQQ8cVgE1KzA81E2hJYl4qc/CZPl+mD3IuI24wTayiGKcxYhCnDM8vDgL4h5VulrBZfU4PHBFdLOfckClr+SCnekb4kRsEVJaOZUG+Ev/tvAnmPGEvRJCn1s8hIsgwDj6cKrrGI+y5tGvRE3hL3suQVcV/jHiRZUcBMcavz3sM6nRhzSRzOZ5wYtWoCb/vFAX7mXffjVW9/BLuWpEGQ54yndEV3A6ji4RGRpqCnIEV9Rmsb+JGdJZlJrqokMC6BRQuy+8HCEIpUSGdwSbr7GAYQWgSYbkSx4mOsp/RGKaJab1S/UhRbNngnppHrIHiEj536vbaBKQEUuvYvUx9TuqSlFBjj8dRGzYiQGwYex+5cm/ELHS2ylOeo++txCAuTwH//zt144088EUe2jyekbQjKwDgIUiImvydmm/TbLNxKOou6fARzFOyZYdivMucYTERBTSIox2xoz5qXbky91Kqb68nm8LVzzFQR+XymizKmJRsguf6IJunv5ItNWNnQ5CNTZUpSHCdgbSN8rWG89nfoc0HTLYVrgyE51MXEaQq1avuNehV8tyoIyZFgv3KudOhEOEfcSfhTpJI1VPBQh4trb6y7WJ8JI2HaOVgz8jHX13M8RIwhahEKUa1LCgNgCsLw1bhp8AmM1+I4yp/1ZP96AqjEO7Ug9J+MV46JBeGGdPI0ZTjvckxh5fjc61I5amNtptwb/sc5WOCeuS1iWmV6R1D84rqislIq7OWzPBC0zXMtzcj8pNaJ8ccUQZPwJ++Q8oxi3nGP1uNLhqOuEGWbbcO+Wq6r3INoEMn80bPBivN6VFajYpMraTBoOq+A9m/uHUPMI08u+V3je1DEKcNG8Silqe57761ZBqaR5828ex89Z8SbgjC1WuG7PnMUv/qmB/HkR4ceE5BuTp0a9eWqZXdQi4NFfhBrAjP7VIC7diund2Y4Njo0et6zPhsEfeTUXlnR9IBQGzv5Nhw1VCmx0761f/ZBTRobzBrZcw6+ZEHIbCedvGleJxcUweSFi3gK0bcLDPSPmK3gJKrju2VA0hjdMqCoT4NBYTkwz4lZGXTmXhRJgh+taZRJeZUP3kZaNn1xoos3f9sOvOFlT8RDu6ZCGaDA2kPqkELJcTSliZbmKb+eQzpMqVSLQCoKEpmppXwmdw6VPVOfGl5s23GDO0M3kswLFNsUJE1CjwKqIeB9SjIMD4OZWWZPemQsiUEpmiXnj6FeVhHtERqWWq4RpSJzjhASOFAIR8Es9yg9JlOXPWXR2MGQSdN0nEOAl1lruLE2hkZv+29xXvEIQfVN0So8r8YvkhnXG95N0lQromeHRKVmzW8+V5mnnMD4kffGKAeDM5V/U6QZhU780qHaAc1tSkKyMbbPn06+/aun1MVABSHiRevfaQL+8nVS6bgOEbRSavmVEoPghZIUZoVgpkLUXFa2aEXG35ibDxTRx4zI9gQNkdS1+Cz3IYUpxgkFWiBele9PSkq5EH4PsFae4QSVLbq+tuK9hI3RRRNO6Z2O64Y7dg9pXtHHz18NOMXMHccpey7joo3hfKJZXDbtVxmRo/sWXNYZvnleCU18c/MbCx7j7zR3qwHMYuDcKs2DJdGPfCMgDWW70HI0iGkqQO+999bSJjd+sh+SozSvk6KeeOQ0/u1f3Iuf+vACJgTDPIZCnwrBb6qXqbvBAhA73Z4tRlMWwwlHyzQ7EoiCoLUU7GRilRblsrNnxmuQ6rnzmpZHShLpyHQnniida3vAoqaCBXaTRIJKOlu/HVZMr+angaMpbdEtAHKTl+U1lsk4A4cjT/YR7k6VrI6obga6erSegUXOmrJgMQjmVsjrUWsC0yaZmyoVF7W8bt7Di90O/uhFO/DrP/ZEPLxjStskxw8JSIKa4rWIDZvx2ZX+7A2ZacsNbX699cahiZJQyfdmVvFY5jHqGYER06FaqGQEXeWfL3V95TzWodBNLdP20Tnxpp7Y/E0xVaz9qdF7IiZ9tWTEErJhkLxuUmIWR21BY2vxYeN1tNGBxCC8TS0In4QEcV7ShzS5wUPCpu/qSxbD6zTN0ehofewSeDFWYdRaG77lFt+1KngbILGy1hZ3wih+sBk+sT49N2NiNoS3b1phpNvwMd7A1OAmGEqNZtPDpRtLXto2wuOi5U3iVvneUTSagyD/TlwM9skBG7Yp4l/VU4LniMfB5d6JpWXc+vmj+IV3PYpbDg0wu+qmFIWnFD/KKpgFn1tMgOqG3mtB6V8qMPpvur/yn5SxYFYFDV7UmAK2g/YTgWKsP88jCFMVY/ZecjVQVXS3BtMcySMVGo4QVD7WuBQCJFTDIQiDGupFkXiqS3qfqqquU8pj3mTJ7nPFgqd9gY1bEpK1IAQlqhLivlFrLOe+Qs1o8EJVQ2q8rp4Paxzf2sVv/Ohe/OELr8TZ6XHztxauVIJDxrcqgkWd/xYMvzQE91iQ0hIRhYDb66IY2ejv0aRrTyYlr4VBto0tz5QZGaPeEU9Mjb99HYRlg47C+sl8y9iIUbRfwju+k/vHd43i+/aM40s4fW2k7IyCwShYMSYlPVfAv1Qm3cint68392xvat5Xvq9tjM3gq96jp1mxYta4bPUU3iIWhFgHYTPyItqeN7hfPOrS7vmVY7dpkKKyBW8/H9lUhHUzqNBeQLEW/+WrbV3Ga/XUXWQqEJf02UCHJY5tZukb3TNKiSDsafqJexiDCxn3stF7FHaFrC9pnuuLRuT0SIxPWgcvG6IkWCzK+XF9Ji5pXba72mg77mnaxyJbrLG/xRwjTcXMl/X2tNN7zyE/GxsYsqkiT1ODlBy44vNg4YV+VWH27AXc+D+P4qWfPIdbDq3i4Gnph+3mKhFwlrfhBZJsTK2a6IGLCghRf9UVkDsxWqVDVzA8CyKJlKR8SCyBaQF22Of9DiYX8Nmi4MZrQt8fSaIjaenraIxt1JaUCvcZJX2hxW6VghWzXUsJ0EPHNUzMYxJor02xCCyH7AqEvkZTHw11rPSyI5grG9b7wa0vQ7v1U08aw+tfdjk+8sx9WO1bMxaawaIpWfU0K9HjDCcLkojsVCCSI8DhqwIxJAnaeBZXoDNuqUeuZszo7iGqeElePpsJ2faUQi6Z/5J/MmeqMOuBhGbb3yTFph81BnZl719p3k4mRlrDONcAh0aWjEOzwUgcf2WvspnPBuAM2d/CWIk1WVKrXCHg+S4KfzNFR9MkfbbuUguxAAl11Y9LdAqxFa5XRz5hz2SFT97rdjN/r81EyF72j1kSUfFJiq4jFv3fHMsDSvJuJZOqnZwbQbRhrcl86koud5Tzk/Gl7a/5gAMukHe4y4bjaBZD9eqmgkC/WykBQrxAHruNzTcfVBeDtHvWSoo3sERZNh873hpsPPbC4SGr4LlILQq+hxa/k2nB3pjXbAc3UwYYiGrsxXBE9k7rrfm7rTJhDkJUi6YvI+5vhmjismsKs9lMeN0wXsawwNBMozEgtnm/HzoDDmoUjeNwXKvRQqySkbkA16ow9FYBWl/D+W7mhTZXwyFyIhfwCea5iqzuk2kD5v0mvwp4R1qNeNKkK3+nz0tFox40K8VfnTMPi2LAV4sS+y9E/MoqURZlKW1vTbGlTv89hzcI12kirxAii5IosQ2HmLhwAVc8dALfetd53HJoBVeeGWBuqcbkKjC92sWWi8DWZWnB6lisFgNnfV6SWUuuao0EZ38pZdJRjBUY6euydGstilL3chgxyzGrcsEyeL6JzHho6mdeATJ5pRJLKsjdSIMfE7xNra/VkcVwCHEZ0PmqEJcqeM2MBKYrKvtmFUWvnWD+5lpjC8xf5tSjVoQanUE4CQpTk+6N3o9e5y3fATy6Ffj9796KP/wnV+LEzq2pU5oIGi0+IozAiZPMcw3fK37IxBo1r/anSE5ylWbR5p3xDpK2MUHdcjel8pnyblmDgKxkAfkda8cvZ0o4mPC1aH3PrFQMsD7y+cPThu1Q07dZjq0lPvRHoaOATw3sWgsReyJ/BOaSgiiYL/SoJatdmWpbu62hWQxXaFngmosMNd/LWBDbq8xYLGUrf3iNtMsTIRl8OX5UEtvgE9MseV3GkPHaPqWCEmNYEqP04LVRY2yE43Jd1rVHYhBEQRh+CmNVi4sh5Sz7iHSJpheEDKQ114jv1qzp5/qvxQfHbtB1xwyBqBC2z7sdx6N/WdxiIgRl70p8Xg8W6+NMfq9xOP43b5y4LMc9s2HEdobXq90m0dQaXAmHjXa8yEqrXQ8KILcnKU5UfppJKUZ35TjM4Cn4/wZIxHgdwUmZiRSqipyEiv/GcGl/UdzLJp9du8dy3eg05mjlN1N56Ez87eFUuoPML5v7TOOxU50JTrkmZME+3bLhepJZWcLY/HlsO7+A3WdWsOvcKmaXhqoY7F4Y4oqzQ1xzfIjrH66w/0JH8z8lkN/qHngKpGhWsReDxyCQ8aVSybRAqNFBB0kpkaY1mCVBwe9qbQl0VRb0GJS3KG93k3GXbFMHj5E8LfvlCmMKJFPdnXEJqfiRoJ6f7dyVkKwBHkSZWjiLcjBgC9VmQSVVJvQY71YJFk3yE4HES652gUe2dfCXN07iTd+zH4eu2oN6TIogWAMYompkxKIoEBeM0eay28K05Lq8Wgg+fwx2sQ64nfCN2Hla05CVZDjpYFDXilOWMmTIK6cU6b8W50RhQ0Yvc1D8qOVeO1FzXJk776dglvu5VsXbZH3KqXs8ecj7WVcu4g8bN1Hf1fW59YnzivPk/BkhbQLdLCkM+CqFaKY7UwCjf1nWq0Y3Vw4Ie75b5kp0YIqoPJ9FfN4t7qONabA23VQESGarxAObl8M8nYzsOxU+f1xLaMvfwi8Ix8i46MakGDE4WZq1vi9Zj2zmgjtpHj5feQNxgFTLUzPbBJPZSXlrZlJzvlHwhhBim4fjUxYtlub41uFrcPPgk+i3xSCUCgL5EUHOYGQdNPpA857kOgivxe2a5mg4zQ/hslbBtrOpuIYHXobansuBi2kaLi7N+kKXcrYyGQ3HbplOr0ZtVvzL02CNrvM4hG3GksxPm/Rq72iszccxeSOWHVN3OQKVU8uu8FL+jme0ELbVzRCFSDqLyLhSTMpgYuNyneRvmU/ZNVO+efdanqJKunvFeaf821d6MrnZhIkpHUN0GmXm1RhcGMFTxlb2EFsxQ7ccCp7aYaOLYT1Ufikf2Z+SXxN2xJtMr8ab7fCfcU2fFwUhLz0DLSIjzVMyEatqb5NSLcSXL4qCBMiNDVYxHKyiP1xFNay0Wl53OMTM4jIuO7GMpz+0qO2hn3ffAFecdeTwdEdFZal/H1pCq8nXTAUepOgxCS78eYrXoBSlN1cYGOAX3BQJ/dVl4mkUlKv67lzxNhmXGX8QKUuxwKFGjhfsMKYc+Llaj5SUYm4x0OvBoKUuBsNBejnYxVFNn8yqpFVhmCNVU5Omyqr1aU1/rR9hwnKlD5yfqHHngR7e/5QpvP85u/DgFbtQT04rMlhKGyNxo8ksn4a5z9ng7EpjMrNl5kUCccePacpiDg8na5onZT94+o7R7CqYPfee+0AwR+GU0veYN+zzyfMtWZQRJWuUl2ZfgYPoVha4YzhXFmqVJjYi3Ekp1nHb20wHpqMEGtYsYzOuVgPO3NRI9qEMJrAtMkUzY1JxcqXC8SHCoiF4/V3RrZBYnJs1M8vOu0pPoLEzWhsMBsLYhVFms6pZabjPhnH2ydHuVA7yPkdrS37WTaSCv66+CRNcsoKshsvqovCWQSm/nBRtcDEXRrHn7j+nksJ9yQWFM/dLzNiZd95XU05EoVQLwlAqKYqCsBJSIzRgqEkIG32LmxbulfoT4mKQLAYJUqSiFWnE1pFqoGYBSkFGhZCKZHA9yNqp/MprM+5l2CnbcngmxT3cK45Jo+MskDL0m6dSz0fQwUVJM5oybMk9Fu03e28W/OY9NVokzZFzsmaKYauJfBWCHjtnuNhUjEmvajnzuaiiXRTnzTNsWgQJE9JP03pobjR7h+FjhqhBhy5cwUcR5jpnn6fhKN1/PnfFEYMVXYXkJTpvOaC7JVIqgEpRtjh3+bvBQ3xGNm/nh6n+jb2HFkjlR/1336vcyphiDFqxkWRwZifawuWEYUQlU5EFCdO0qGN7XghJFq5Kg/pdxD9eYXx1FeML8zjw6Hn846/N48f/YQnPfLjC9MDLK3smhG62cnn6Kx0NGadAzsh/k8XAUSKqnGqVcNs090uNDB4UyJ3WJbni05YPFfw7VABsIwKrjZpm4hUeOKjAsQ2oxSzgCoGlo5i6p3oEmy+psmCuBgO3k4daEeyEJQeY5V6NMzM1Ts52cGqyg7OTHSyN2VgrXeDYlg7uOtDHVy+fwX2XbcO5ndvRG5/EsCsZClkvNqTLxjT97jWX0knZLQg0aZcCKJIDt0CQV6wDFHIcM4GdJ494unNJQxByrMzK/eThIOUJQP5VQVEUDAo8pnFEYuJNjNzmmuJJNc6VFhOJkxAGJSXJSwWBjCkydMJTfwtwl1N6MPgk4jYfoykrIgiS4hiESgN185OpfUi2XOS0Pz4u+0DDE5UgVY78JBQqdxsNu+VFq3cHtscsDluH5dQK4xNBoNThvlAl1djauTD4cswE/yCMsuKR+ZPibnHClXU05+3bHRo+kaErHDzxSuCgUeZhvvQ7W8GufK9YECRIUUsti4LwTfhIkKKkOb5KKynekOCdBbL7/gMMlXWE/H+GfqnADXtGYcEzS8LFgFfpPBOeK2lbxo+WIYN7SFsOB8kIIu6l/VanluJmQM3OymydyySbrD9qXRSrc3aZU2bwrBUFeFIKPUC+LTMrwkXmKEpRiUuKL5oRloVopAV5LsE90om7ept5cBkqdkAz8aPpj8LD3PhtPNo4n/wmGCeylmtv8ERa6py2mTnBe9IaC9rruzUihsdxXZ2eKgiX/qFPU10OQUZmRApKhGKvmS8ksLFeXcL02bO44a5TeNWHLuDWw0NMLwP1mKcWetCiRV16G2m1GDCjIR/K9X0CWXFHpGU4dBXp/ZwiDM65FPUxZWDs39ACghTS4w2bbEXG3VP7aSVAnh7MKmFVD6URk3tbXdIxJsAOGuaLtGZg2UQtWKnILpgu3RdNG7EtVfv4UP6n5qNHtnTwxcu7+OQVPXz2inEc2dnH/GQfw54gUwdVt4PF/hiWp6ZQT8+gmpxCt9MLfd7zbuU0HC+OUkTVXgqG8KSZgpWKeAPrwviY0K51GqUfdT2/KnFE7sn97g0/4bXOpePaUmGQp4tl1KxVKel2lYDbKpZdCvwey71i1Wis57EM0vLMRrBcA8dNvrc9/qT5sOyVMGpRNi4VW9rT1fL4tAhscrrpNglSfEslCsKn0a+XL/XxTd2vCkLPFASJQZDPZjJpjG8AA2m+VwCMPEVwtC2tmTQpeE5+ntyKwTKz3gIEBxkwV94ngtPc0eZ754fzanMLxDFkLnLg4bouNXai8b5Nrkee2QyergcTHm5K21Kk10ul3cc7p00hod+kCkLUggiUMhCpHDTqBMRF+Y0bJ39n5SHeYcjeGw4wdv4cbv3KCfzcB8/i2+4ZQBPu9EEDK7V8RQqRvVQTVfuXugYmWK1WgisKngbJZ9kdjFkSSSRy5+JxLqhjycXgmrX+Q6GWtG1XgigJw3ULNHQ9QMP5g6sgEa+rKklhcG3f1WAGxqki4S4JuXRiGrjjqh7ee/0EPnHtDB7aPY2l6SlUElPQ61lpXDVxiXLVQ6W/WbEpPWGPyHemDyocJow5bZKgktYeAp/iWG04I+PzHsMZU5DIaCJuRpO6PMftatOQI76W6ynxXe4lkXKt5TObISoqzXpqI4H5v5FfRzgkfHQ4RIFbpn9F2orrj7EW68F7s2uK98U56Am9WE/5vrZ1xlMO9zseLEbNmVkaasVcRwFqgwuFKks6rxeIt1m4yJhJQVgtFIRyU0tAXML3bEF4HW73XgwlnRifHi2QS7otcb6NJkolLD5T/k1e0UYXkZ5LGtV1hAOCBrI6LxYW2Uabbe/IGTx2dRRNtcktzi/OrRyDsFCLWsA9eTbiZVwraTLu1Xp8w5fdyHXhGJnn2hvI+9L1gseWfKSNP8b58X7OP8KzQY9jf3OvGjVohqHvRIVh0vToJ/H6057+4nI7p8glrujb5UVY7JuJ3FSTWu6thth29jxe+A+P4pf+9gyuPVajpzviDFZtOl74iNOR4H/WLpD5ecgBUYTIxtigVP7VFYo1qJTygPIWUOmgcceYjIE3gcWFemZ+9CY56KO9xnfGW4en7AIqHCljwT0MijiuU5hyYK4aMek9sL2Ddz5tAm9/7hbcc8U2LGyZwWBsAp2ehOiZ4iSMPJqyaaa2vaWPK8RINDR620R5I1OoZD6W3ppriifvjv+W7Td83uMZ1IViGEB8EetB0qmcYeQTjz1vBGI2RJm/xFd4v0+L79Ahs9/ZIoSj9cPup9GSf6sVi0zJzXc6d5+TrYvPhVW57iqvoQ/UpuCuHw3etUAoRW2lshibkOcfiV2GUGtKCoCxZ2UMUfAY+UyfuTRFkr8NPh5kGWIOzIwn1X0AACAASURBVP9v8Q5WGY3dJO03miuJBYIn9ANnAZGxWvEopAgK/cY0ODqlyOzkyVVpFkQXZF1jhXq/1vowKWA+YAuOjcGEVPvoY88MMRdUy0Ikx0Gp6ZWeRFa3dJgqbjkOybzWRqXbyqn8yPqYzq176f5iuWfv4ATePHw1bhELgvRiUBwgQrWJg1I9Ku7hs8GHJKfpu/rfgp/v36YKgnOeRBPqJknuyoyvrGCY8ctwkfyda7H9JiZ475P0lhCqHehMYe7fM121iWXDTaEF+uMF5uY6KtyljqMeZZbU6iygyr3KcyZMEoVqeqbhiFXdjBzJ9tdw3XgbuVSMISAe5h0ibRt9Js7IoM7AN8izY7lO0h8xgHTJPVEaddkSXV/Z2pAxnRyJsDR3DPfXZixF88XdHwOyGexrFqh4cElH4BSDYpjEQ63HdfTelQsl8Qa5KflP1VdvoInVoEwYmZVAfBjiZy4/ZfUoiZlf9RO/jK/pLtUQu46fxr96z0P4mY9dxI6Lku5IbmzvUDbrER9qtFdvg8UQmAfBrQlOGexToDSnwYuOgn69NJk0k03aiLz5W3q+MHwqrVMxkAZMCpLAzpgFINfIzIR4Kosg1fYMg1waOYk3dzU8MtfFf/nWSbztlp146LKdGExNod+RGuVdhb8KcvUNiqCyQKFY5U/TmnxvjWk0EWxMmHlhztV8YB8n7jD3PGqbEUrRRyb3yoenjtLESSipIuB4ZL5wq+TId/C3iGuj3i9jco7a4kMEkiobZqVRZhEqRfLvWBlR98hPO0F+e0CUXdP5OY1EUcC5RwZk+2PuFX2PY4dlNJgp3Qg9Z4jEecn+iFFbxhElkPdzj9rgwvWocubz5NwY3CT0HX/TwFX3y3PMksblu6ydOME5y3N8j/OadE+Ed9y30qJV3hfNs1wP/41xHopjPi/uucyv9DnHveQc5V9G4sue2f54Gmio/79vcBJ/Xr0at6yOyGLYmH1seIcqCL1vwS/0JM3xxsRBSjM16YZtnAlT4hdxkx0jhFcLfJTNpMC3bInjxMixCFvKgzYaiYsRnJB3W1CrHwgLucBDgs7d79cgyECLXIf8roqf3xdxOMkqf48couQAJXhIx0+k5bjPxJPo5pR7yedUIQxr4dwinTd5nR8wnDblPsI4Wj2taq/RL4MLyd8ID97PvU6HyBBvwbWQBhkfZPELBi/CsI3XJrpncGSQ7xyDvLYz/je51LICJQiVCAQNNtNUiEv3B9qEKgyzZE3MWcIOOisreNqhR/Cb/+0R3HD/AON+HMmnTDuz2KFMwqndFyXWBCFeBjNqrIB1lbTA16aGm74a5zdR6AGLBLr+GupGEAaU9TQ4tNUkZRojDwP2bDiXpWg4Vx40DMEL0rBjnkbGmHtCGZnWMwCOb+ngj2+exJ88fy8eOLgLgwlRt5gnLAE7FIBr/fs5kCzDw4oU2XcKCKYaUvCQIVAAKRMNBB/LdPqWJaEXlQm5JsQu/wrxRoLnjDh/eQffG8dUoqaQCzja9lzJAOQ5CnMSB/PA2bsgEi/XGYV7SQtkdDEAk0wrzonP8b0RhnFekTmXqnacM69FGFmRUlf2fF+jUqdCoa5VoYjz4HxLxYJ4QRhZBkHGFbkuSg1D9Mj0yJSiokSGRTiXa2OMQVQKiG9tzC3Ckzjc6lPnidGVIq6J8C+VI6M64ycJ7/033WsvSrV/9QTeXEkWw6cuvdRyRKJ1/hbL2d1iQei9FreP32RBvkHgkmaUJwd6VEXBlc0IzyRMaQ1xXOH+6nW3YpkSbW+gEGvwCp83hRyV3nI5nCPHW1POP+wP5xGFZUlDxK2SN3BfdR6O46N4Quu+hj2mUhBxJcZVRNjKeiP84hpKmk90FHCLyg6VlDLdk3NNtBVqJowqf8/38iAoe0oFi/vA90XeGvGGcDYLJdAZdwuCmaQtz55ErEAPprc0AWpBLUiuDCH4rHPaR745MhAVCDWw48J5vOIdD+D/uP0cdkgDbA/j1sBCyUmWTpCqnLB2gZ/c/Gs6rHP+yQ0RzvCF0tBQGNYlXlPfrLJjjih36ZosjB0msdKwTSuCNcUzImTKotmqjbFrfQQLWqyld4L+7SpjF5jvA3/zjAn8+j/Zg3uu3oPliUmrEhb2p2S8owiWsCdDlD0Wt4MhhjMGf5hIkhA+ENN676OLg1Gz8q8IApaVMXWx+WkzsUUBna5vIsCxxK8SFmZ0sup5NCsrHlJIrPO33Edf/EYw55iy3lSFjhaEkFrFOZje6s2tCkuOjOWxsul0oL9xcX4s5r5yjbF5UyvcQzwKaZV0L0NzjXG/sgl77T5S4K9HTqVZl2l22QScxyXDahuvVOASUwt2u3LMUumUceXUuV4+AuEisDiwegJvkTTHoWQxXFovBj3feaG39eBToYe7+9ergvCBsRtTupwqMOFBSWkTBYG/cd94H4V0iadRsU/ow5TAQF8l/bfxFO5Bw8oT5hllScSnddmt01+kTambQ+uZKid0KSWLqPH5UVYWKvS0isR58e+29SpPcOVwI1xUthJ4SNsaS5nKd1JuEj+5h7we5XDEYa2JEFKquecT4m5wd+MoWLcdgErc6My4giAEwjKv1KD0xBGEBV9kPrn2zSiZcwl05sFyIcnMOhjguz/7MN7w5qO49tjQ8lcJNSGqnqcZa0On0ODJOaeWsHTOpXJatWCxJLCdYSaFmMVIa0FhbGi4BnIdg1wlJrVbpqtA2zTnxyzeICdBaneylN7WUcsATVadgY3rK1PAai6vCLAa+PKBHn79JbvwzlsuQzU5qUUxZHgrc9TUZOWtAmMWsooMgARKJGZ0uOzxmKalunnYHyoJgntGN4SAO9YJEKKV/1MZkHGj0OHzcVz6jpnrHa/J38RBPss1MIdZvsdcYIGH5Rjn02AbYxNmQ/jxemQaJdOlEItMgM9Z+lkQ1mEPSMySoyw5/mIdo8JAN9soAub+sBCVWOCkPkT8kFlSaLcpR4zY1/eGvOk4DoufRQWDDLdtzFHCh89wD3gfcYMCOeJlXJGsQy1YLWtt28f1lDSumzRSWk9GzYE4RsYreCLrkTUcWDmBPx++BjcNxcVAW9tG4u7SrktA8dd71+NV/dfhQ/2bdM9ZU0PoiTw0Bo0SzipI9OzRQb9jZnd5tlnMbO18SkVKrVtB2BGP5UlVdgMelXxCnhX6Ig9S2eKvpNtAvqZiewUfUZZeyBeqYlwzD6GURXxfVF7LVbbxxVE7w73nIUzeE+smtOFi5A3Ey1JBKustGG5aocCITYJzHC8qNXQbRUWC9/Ff0jJ5WOSP6dDmdT1K+uFeCZz1HeN/fajWU8smkCgChS+VAduQLwa48TlhTvRHy/PipyIgBnUHT73vNH7lzw7je75yEWO6G1mkWPBhZe4D59ZVqLSoxytNg3ETu0NQyjevVWVs3DUlXel28CI2Kn4lfkFiALydtKQYStxDymhoYIorBCrg7dmuqsG2DZrKo90WqeRIdURTflQpEBfEakcpx2rDAwt94G03zeANP3wF7j+wHWMdC12jGVCQQU2AHsInRXi4ueuxJXkuWSCc2Ck85NWS6lTuK02d8hxN65wH3xWRcTRuGJPj3sd5movLtj4SNIvmlIWLSpxs4pT3hg9rjWZBZQLB7Efc5JhCuFK4Kwm5FuGqAjWYZTcrCtqe0+BN93+OGkfhkwoINauaRuFe7gf3ToXLCCWBShMZUlTKNloXGSr3p2SM8jxTQEs4rze2wcRomM8JrxCGSqYtzxPn2wRE23oinvL9osTRPCu/RdoSYSufnasn8OeD/xs3SqnlTaY5NuK9NwKkcgsrtfyq3r/Dx8af2/oE4z8iLMs9kAdlvynMSzxtg4HgiShWQvuRNujXXkOrhbKgcPP90X9RqcsmVt+NY6jL0XmdrCXyjDackjmV+CO8gbyknLO8i8oDD7t6WAvxQ3KPXBvFr+R6eQgRWAqvWU/xyu4fE0aCQ4KLq5W5+ohTme9m9w7fKTCIMnOUkhvnR75p/C0fKkbtAfdD1h9pRd3C0++ySorU+M0EZo+wKIoe5MPJh2ZyBvuwxKV8Nw1JCqV46VxPK+DJxxhjatao71Xyr4F9Z+bxynfeh5/+wFnMrMiddqxOQUUscKTzk7xzMc9rNFWzWZPHIlj1CUuDTMI+Yqevk9GddGEwaltZQuKS+czESl3JGWPeAXc10D3gAZSMO1DgkIV7rryXT0h6iXdn1Cmaaokj27p4/Y/swV/dejnOz0zpJTMfWyEqK0yT94uIyFOGQzFV00q+qHDq5ThCJHY6cA9PKFZje+RWD7o2mGGgQVxWuCQiqoxFjTUqLdzztBYhmlrWwUZO4gcOloDiREGfaMnw0u8OD6qGhseWEstTS9Sc9RQ+Svh73IsoCjmYz907HfPxyXvIfHTbgjWBWCP3lRYLy3z1yo45Ljdtf9w7PZl7+W1mNFBZ4KlbghjLWArOJfqxjXGYEiYMRISt0nhwIXFvoqCPpyquR+YkRaNYbS+ePDl/onMz7sWj3b1YUbQ8qL7s+1HOS+fjCrECyhU4g49H7DsD46kzCgZhsGSgZuTLleic5BT3IpP11yiP2aUWhP9b2z3313VMREbjf5dak3xvaGEWZi4HibulDsKYZDGYBYFtZcg7E7+OvDvwgUg/iesEBVT2T2iSZuZoETI4GFyUNpxnC74QB+KBUhU1F9ykeSkBLM8KbpGNWuEhZiYYj4mWAVoiqORFa7MYWSkHuDbZEApZgjKug+MlV0WYUwwUNquLB+pG10WIy9C4KT8MaGEh30tT6HOgp8rSoGim038oY5xEgUIjBy4KrDhn8qQUe5LkpPFGWnspo0UGKw0G+T1KwY+8j3tjcnltXFpn6p2Hao3eVX+FpcG5+HVdlpHado8mV/gbVJB69SdiusTOq+adGJ8BM0a1czO1MpYTtQByy9IAP/GhB/Cav3wUB85qS8gcaEi3ga6aCkEgQrcY6NScI9h7fPdUihrI1PxvUja5AZg2R+XHRs4Nj3LQI7uBOUcXiwLzd8UNQi6TiD8oKDKklq/zN1v+lRdMcquCZzgwIOaOJ4zjNf/8Knz+Sbsx6NvCrOSmMXXZEyt7yhQ/7p6RvqWl2VNaXsKtA1qwJAg2rpflc5mi42C1lEMqJeg0XBhqYne9iEjJoBs19ji+sLY/wb+i4+Q4gBy7Yiu0st6GS5LCQ1N+Nn4KMRoTYrqcBNJ6/U59Rsz68guFhKGHCAmraybjs4gLSzdboSdLl+I2JqJSRhh745lQCg6ixBAdhRhOo/+yDKtWaqNtyRmR7KPBP5+OmZZq9GN9ClJGXEg55H7JPORvumwopAUutt48PhUoZhGYgijKnrXIUW+eL1xrdIUAZSttnJk/95T4klMGDbMsvTlXL7XZGK4S9yw62L+F9iLmpgpprmkNdjKVU2q2HMi3XLMus1+DC9cc40jklYQBeYYJkDwXIvhuyWIYeLMmqaToQi+tYRRXdiHLw9ca3cAhYZUnu7i7dz1+fux1+PDYTbnwVspCyXpFdIXR1qX7Hyp0UvlSQei0kOHvnSy9yqAFpNqyhLZEGFpMFDBMhYpsz8grLK2wq7RMpVWusxQyS5vTjaFKhPZOMblA953RW07jNdrP6KFczOFL1OQ8rcqipdfKbyml0Pkd8VL5YErrzzw0i/i8gTIS4cu5l/tmMLI58oCU5EyiZ5cllD+O9poFqHPNTamYcq1y1fkqD8mZ7vM15QeBltK+holSycsxVs0MNtthBsflawqzmXeaBSFpqMn0biVr2f42ml/0hY44zGrQjVrH9y0wiX5fdg8Ui3pqADWscNNdx/HLb7kft35tBb2UHM9NC9Qnpn8/gStfCQLfVdeETJrTH09oWjTPSks7ppulQrMfhBJC9F+/yt05eL+8OByVlOnYccSEA1PzFLA+N89I0HtCniUzLTQmISGOFUG42OvgTd8xh//8I0/EkV2zGHS7jTLC8soIc2UEIQODy0hCXk5PtaGjmMbS8kPDlEgAsdqcmNPENM1nRLtnVzYxzUZ3gWUq5CYskWfGMaPwjd0kBdfKGAoFTSglK9+p4JAAuCUkahKE7omnXsUyzHn9FuwlZke5Hp8jf4r/cj1abrkIXuE1pnmx8FPB54qGZ12PLUjsMIlOLRjljayiOJW/tS22iHMPosodF+0EHM2fcWQKDNIx95VMl3gle5qyPQIAgt5g+N4CpIhHig/K3A2+pHkKdSUTx6+oWCRyK/Yujt2EWJ5IbNvdtndxPwgrEyyucAfGL/MXISBK9S5XEG4cfBJjEoPAxY+aCAG00fWwuaLuaJBi/3X42JjVQZBPmwlchWhs1x16bci6aN2y+/zg5tHttCDEJcS9LIUhv8u4giNKo85v4nNsFKVuTz9qx5ghgaeMZXlYzdN35ANs7Kb4aobiBAf5g/jNeQk9iOXC8MlO2cqjCj5Z8kVrAmYbVMIythFPdF9YnRRvPNhX7tHWBL7fEYdZnl2VoGRR8PeGGAfyyLieNhoj/ylRMPOn3NyMfIjziRYoWpNk/dECqNsrCkLJvCJOs567FZixW0chamQcxrpykxNjaLmlML/HsrSCTNvOzuN/e+8D+FfvPYP9827y8EIthgi2fIkD0CA/L6qk5qteR7Vcq89gvioWRRFff9138zk7ExK7k48hsxJRIOxj0RTJSqBZB2Y4SkVfBClVw8oA9jsSoohTn54OhVNV2fxTvYRcx1ytB3UH9+/q4LUv24/333Q5lidNBJdBfYSzXCuDcNoYaUQm5vdGYVwiIivQpWp1HvkvY6dAlgw23WMx1zFQkVG2JeMpg9iIUzTJsa58nC8VgihYyFfV1OfzIMGy42GYXuPPqIi0ERkJg+bI+HB0I0QmUP4d1xMVrBLOFMQxTifSjHU4bGMTLLaSYyXaGHsUgiyhW8LFGGv7e9r2o9xTez4rkpHZk0mTqXP/YyChrrcIWIvw5NzK9bWVTaYbKypD8jfnHHmYtfWW0ugmXKK1Kcp1+XvP6gn89+FrIArCeL3qCjltUaMw7dJ+1ywGtSDcpnUQoqK3BuYh/kWVgODeoqIs0exiTcuC1F1kQeGPPD++Q83qiZfX2qGwDW/4PPEk3tOGj2ppYOpecI1FJbd8TpRupvgJTMqZRItom9LDvYzjRnyjS4Nzb6e2tXKsnKfCLDQUGwWLGHhK2WkHb1tb7q6YsZB4G11g3B+lPwaGO6za3EicjxVpsrEjHLjn6r6beudhjxLIVgQTi/ZJi2c+sf9WpoTFWALK1kicHCuGDMr1ZGZlrvzqKp7wwAn8y787gh/4/BL2nnVfGE3YwX0gwFyc6OCROeDo1i5Oz3axOGlm2PEhMLtQY99ijYPnauxYACaSj9/7KfS8a1gwnYolQttcMvnBsUQZPbm9u1k0PVEsGW76lYJHw56Y4rjF0qTKTh498ZgoBbufyRUDLYvMOAkFuqm+5ydr/MXNM/hPP3wV7rtsByoJtgwFQ6LPOzIFbn4kBoM5ES9bAeReRkVzfyhk24Qw/ZW8l0w+7ilNe7kjWO5WlmICtM2pRe2WAiPinPrX3FhDfIzzsm6U2WITBQDxSu7P5ufm3+J+oB2Fa7MttvnR9xrqdmWT5wieT5xXJcVx2hh3dgXJo1b3sjg9+SmbOMKxIvMu94DToLKj6FrQqimyhutlFHVkhmzWFlkv+/LRFGruwuwKSUInZKzQVRThzvsiM23sZaPLZo7jMGbFdrQ2f6E5a/drMy15FXGfJlp1hToNmBsnGwkjfkSaSUxU/6BzBtjrCsINriCMQIPi51L9XP+ppCD0b8NHx2/yipN5V4i1dPOUgoyKgld314NJdDmpNdkfymqlpTvTgpIUW99XcxvneiaUEQZ7G4y1arg64mqKJXAervEEbtGI2Uu8n+uJgdSJ9freRVdBlFd0sXFfiRtyj8ZXFfFChGXCTzVLe4ycC0+5J8ZNNeRiEMqct+Ao+Ujsa5lA5Ygmw6vFzPdHlaYQgEx4lHCJikBDgfN9MLdkMxMkO1QNBpwr11b+xl3tTPyVKQjlJ+ssdkUHcFNmU0ulb9D9R2EwfXlRXzuz5MCGPFBJBYJok8sXcd2hY/iRT57Ei7+0hKtPSSdIi0eQbIJBv8K5qS6+sr+Hz1zdx937x3H/jjGc2DKBhUnbkrFhjbmLAxw8u4InnljBsx8caIvpg2eBcU057NrpXesrGHi0wRKDRogx6qyXPgbeXEmum6RXO5ZoYcu9Ds7MAIe3A4d3drWz4tK4KRSzF2tcdqHGk04McfkZYMvFGmNJOTBUqyv3Qfmwyz3g00/s4ze/fy8+9uzLsDQpWcAG2LZ9icTDfYwIokThxEmCIWNNSMiQCn9BG9MZxeZK3JDvUWloE2qmRJqlhOsy85YxqYwn7mNznzSDZdmJsk3wlAQccTuuy2CUS5aSyZlA8gAuMlIvW7GRQCBcSTMqBFvyqPM8bKXcV647wnrU37FpC5+n0N2shYPrKRml/B6L7XAOxDUeAiiE2vhHue/Znpd5SsTXOIasJwUXuglXS2QH5hb3vu39TbjZ3Xl/DGLZf7uWtriHcW+kUNJ/q7IFoRUf0pErri5wviJVtRzDFARp1vRafCT0YmBwWlxXW1+VkkfI+DyNJmFTVOaLa80YaW+KPJvfSWNxP5Tuk3XWVsW5MN5M8dLpoVx3G+6X84pjljyqxKWS1vOMMs9po61yjcSZcjx+L+dBBa1tfhGWkUeuRz9t43Mfyee1Mq53TpX7NcZpVKdYj0cagZ1pKjKOKghxcpvpkkVXA5mFppGwVGWhTLQS0AY/qp94aQm7Hz2OZ9x7Gs89tITrH62wdbnG4liNe3d28aUrJnDXZVP4+t4ZXNw6i87YJPr9cbUe8KTdqSpUq8voXryIy0+cx42H5/HjX1jG8+6tMLcova5rVJU0NPJyx24NaPRi8OJKqiAUbFw046PbO7j9mh5uf9IY7t09jhNbxnF+agzDMSl/DEwtD7BzcQX7z67gKQ+v4Lu+tornHB1ibh6q9IhlIWtoNZa7Nb5yeR+//4JtePctl+Hctq2peZWArdyfiCjrgVUD7xj4knoNNJ+41K5im313Oa9Rz7HkMDu7bQYXZezyOcJJEJyd48hcN8JHxijIbpt7RcyqzQ50G42x3vVRzHG9Dm3rdckb9a62xlG8V1Yl75O1jeoAGWG/mU6Cjwcmo56le3PU9fXmtfbaKFUyj841M8CPB6J8R419qxKkKArCp62S4ihhr25LqXrmFd4U3M7qlUcJ4bMDnb/BI301SLF/HX6+dxs+PG7dHC/lU+6d0Nt6nT5VEIwQ2vJewlIb+rhrYKP56JjButNU7ezptv1d+1z7mzbLG+TpqARsNO/NXh9Fx+s9X9JkXmtUs9aOsNFatZmUWtU2O3u7bz36SS7FsXccqoUBMp9d3iH+UGk6Q4ESy9HmlhVNMwXNSDFWgdM1U7H57LWso5uXtWa1mlns9+h/0tzQwQp68/PYcfYCtiysYnxYaaDe4tQYTs1NYWV2BtX4ONAdsxr3HkkaGaEI6boaoh6sYOb8eTz9vjP4sX+4gJd8aRX7LlTocpGk46jijfhb4hxOzgCfuLqHv3r6ND73hBkc2TWD1ekZdPpj2va307HWQsN6iGo4QL2yim0XFnHw+Dye/uAC/tF9y7ju2BDbL1SYXIG2Zj43Ddx1oI+/fuYsPvOUPTi7ZyeG/Z7yIDXxyhorb4LiaS2WJpQjys3sn5NnVNCleAw30YZgFCFcVpEToSHgYEMQ3Q9tfmLmRzvf5/hnjWxW64/9Kh9JbyWeCg4x3p8NjthQxrwp3jjJNyyWEDU84cf+YgdA1nqX33TOGvhp96oa526JiAcpUFVvsJ4MMY6+PB1INL/AwYjO6ikoUwuwIPNRpukw1vz0ELjFomMrkEBOG4PlTrk++bfMZ6cvUeCZWtyGCl8WjBpqNCj9EAyWSWQMyI6KFuVt5dJzLozhhij38lkJqYXRHcFTCvdA1ieBqRbjYx+aRqOFSsaWgMTJBovmHCJxcS+aO65WIsWv3LQroYS/kzwl/86UQBtf+Znvo6yJBcFYSEtoSyPfAwLQecEgZsbTyOFj9+AU/mT4Wtw4uGNEJcVRzD7adOIqNCDJmanZf8R/fXfvOry694v4eP/Za+hA4NFIq/W5m5WAbtuOtn2OwlGaZilOi5UuVBJVXh/q+DetTzl7SN5r+MO9IwXl1D4KPa6QjbtYrtv2w8aU90YaZfwNrRB0jSneBbphiWmSg53Ec0pmtDzJK0wZXpvKbHMz3GMvG4G94IjyC+d45Kl6Sg+FqpjFQSqgUM3u3Jw+GfmLvFf32a3rqc5BaK4W1VnGJ5k8sWeFryQFI5VXz8XuWGYgxyp4tpwfeixPzNW2WF478S6bQWfiLw9pvyOr1762eJAyKo+4VI2Qvj9v/GP5456X6RzTh05pYtp2OGhyLAhDxtNW/IFMv1tXGIqArYfoV86ouz1tY4yumP67Vq0v+Yssu0EFkism7HrXHw7RX1zAlUdO4cc/dRov+8xFHDxngkc30HeFbKrBwvyLKAcPbu/iHc8cx18+dyvuuWI7Ls7OAGPj6Hd6RniODaqcsKuZzK8aAqsrmJlf0GDM3WeXcNnpFWxdrLHSB45t7eOBvTM4sWcrVrdsAfrsYEAyMgQoGRqLpvAuS7vxdB+HC/NpTT56s6Ci7npcL/dGf3P/tazFooltgazfrmP6uIrExKeSD+pp3xp2eUynMglhagS/1lrw5/l4bCyjBUZCz3q5h0Wb6GcnQxFYWdqeCzAKeYeJlKpVf7S/03zVxiyiAsHrUUFXfKZf32mChB6VKMJG1sX3cV1kxPy30VuAgtHFnPn+I5uxdfOXEmbyDhHiAi+6Hbi/iRn6RKTNulwTppKEQyj5rEpOwCPCPL2b6Xe0scW+Ac4nIioQJlRotI5KgSu0qFN05QAAIABJREFUTjLdl8pIEwJrq4jq3su6BU8BTK7W2HZxiN0XBtg6v4qty0NMrAwwvlqhP6zQUy2gOarpxeWbDEMnqwX88+rtuLJ6EMKbqAyahdHikbKlMXMSux4/8b78NwMlT/T24C8734v7ele5MHHBYITnA5Xi2LLOBr0OVsbEzdnDwsQYzk73cXJLH2ene7g43sVyB9phk3Qtg8UCYnGW5C1aB8BxgDUBYq0E7mmj+2rA2YhzTLfmoY6rp5Ktcoa74pYNKgjEc+5ajpWwg0uWA64gp1oOptg0eHqQGyr8O5Lgm92j5Gnx8EysiDzX3G2uoBT8q6RRPs9+EYxBiKd/Ho7k3li/JGKkyt0Qw1cWsoq8RXkyO3EW8oPdWUv6THCcfsfhmhYCW6Z9kq8xToKjFF32Csxf85VNMDgmEYDNoUo0bwK/uekyuAgVOZGVHwJJrnCBiTmyw1VVobu8jANHj+PlHziOl92xhB3iblCFYi3RqqXQgwjl72MzHfzR86bw5n+0C/dfvhuYkNLHHfS73aQ8ybwsUtyL4PjJjrUBlOlVA4ytrqBaXQWGA2NI/T5Wx6fQG5N0CyunLB8KZCJbajQTtGJaCUplgc+TmHmdK6VQswIbWQGI98X3l+4BjiP/xgYjVDrVrOZBPmn/PcJXo45DZPJGeMQxy/vKqo6Ek5zYl9YJK5TrVE5i0xuOz8538X1RWVmLgWtXoIWLXBEzJmysRE97LvwZ0Dlq/Vx3294qrinh2pjMTOHcSBPsaR+btaSTmL+YTDfudzmnNpjIPaS5NhpsW1csEywQYSAoYUXlmvDjnHi4EHyjlZP7LzQ3UwF754e45tgyrn3oAi4/No9dZ5aw9dwKtp0bYMviEBOrtcYhjQ2AbiUxQB6AnGqlNJUGxXGPKBOPwUxnvllmOdnKyUO4YqaJG4SoTLTvc1MhGaKPxc40BsO+bnCeowfDeI2YZgBZVhBWx6CxUfOTXZzd0sPZreM4s30CR/fM4e6DM7hn/xQemethvt9RKw/L/MoscsVKo10BiwhXTeULJ3nBS7XmuULPw2ObKpSSwsLBJQq1NtwmRGS82C8jWttSgya2YGbTunTIqNXVq3RSdCCN+9BWKZI4Hd8X5xlpgXgpYxIuQosU8Dz4kN+R9nhwKxWPGEuk8rGlB43WqPAGVcoCnJ/GjCiukbYeCY5mwCmvlZ1aI1w6k395qLGfqqHRdOxXmFtPZhpROeqyGzF4Bd66vq6mBaPt3jYrR2OjgzBumw9DCbqry3jq3Y/i5e8/ju//n0vYsqQGiSarDOuXzMbj2zp48w2T+NNv34MHrtiNwfhkqlzHTMnyndQCre6ARQLKsNHsxTazmbkao1/PL72OwXIz2zDinrWnqfUG0/k5ZkaftsYE+AmsTYiOfkup349+e8TT5v6b+XSjlfB6vG+jZ9r8qHw3cTWOQcuU7O/asXNqXDotO5Ebjm8eFhFrtaWv+3cfCyLIPLW2SVNebTDUaC7AdSuTS43KMp2Tnul6orKRirK58pFOlMl14tlBNTC7UmP//CqefHQRzzp0Htc+cA77j1/EntMD7DxfYaK2lGL5qILkNuiOhBCw6qou3JepmUVAZ2gByZpSLUpEQnbuTYk9ZNNcBeMOzG6rQdE8Pq85y2ZWrk+r2dhPZyIc/JXdrhwuGmFJGrjd9dMEHYChb5zFAlTmpz473cHxHWM4vmschw9uxRev3YYvH5zG0W1jODvRw8U1IRP24lF8l+5PmTPlw2hk2ZjCCDkVdo2DldO1uz2b0Lp0TI+0ealPt/GMcmVWd8BxLoSfXOq7yvs1DiRU22KWBNPRI/zWk81R+VpvTp2ZtzcVhFE3sxKbpp05odOHIXCgiSSZS9cY7mzkxyLYNnqmBMR6rJUbqXUSFhfx1LsexU9/5CS++84V7LoQcqDdLSjvXu0Bh/d08Y5nT+IvbtmFB6/cg2piyl0ZGWJGo25gJkGHQJ3SjEp4pKCoNNTGhFTWEWgTxOtt/MZv2BiVS7iLFYI9HKK1qBwpPhfn0bbPly4m7W0brc/KgzfvG5UC2Jz/+qQV18CypwoLT50qYaE40zKXjebfdr2dTjYaqTkjWq3oVWjD2dGYsXa3Ij+gDOY7Ro2t92lp68xg5RmaVMXFNlHV2LMwxLWPLOJZ957Hc79+Hk84Mo89Z8RlV6kFb9TKUxGbS1KCNqaH9jvklEeFay2Vlp4Hq+bZTs3rWiCCGygJTy3NzW82JscQ/D8/0cXprX08tG8an792Kz73pDl89eAsjsz1sOyF6My6Vc7Hfot0nAsoXyqc1tLTqH2LhdFKhfFS32q8N1Yh3PwIDRoPRZHWotOl0d5mZ8BRKQP4vZS9PNg/HjTvzLxdshjov3HN1GfK6oqlvmw+WQtg03NQYH5EG9a2b5tc8htFf3Yqqxszc8ns3S/twShZBDh3dVTlO/MGlm8nGgtIrbZ+f2EB19x3Aj94xym88E4JHKwwpaW+JKWyxtnZDj53eQ/vfsYM3vfMHTh2YBeGE9JMs6tBZ2py89cwHsPmV76b5LSeXtd8LgfRrWUYtje2Doaj2XtL0dzGbGxuqcRmwkxnIp78ZfueRIbfZe8rn7Xa4HnlnBX997xWxhRHEorNoBKTSx0Im+JE/Y0eX8B7ia8eERGOhG1w2ixc4n05Ka4ZZ5DviXCRXyMNZQZgVEL/H3cjXo/Mog1jMtwyno3CLAu2M/dGE/4R+plRr2W+bfjShEvJ3DIc1uKL7kZDYWKlA4mxsUZknI1ZEizGSYLH5PedSzVuuG8e/+jLJ3DLV8/iquMr6joYH3jcUarp7eYUSRgQjN2ktpNP+k5R6TQYTCteZr6Vqauv3ourtbzT6qeE2vdRY9kodWOUFHmsmrQfgOYnuji6Yxz/cN0sPvn03fjMNXM4MjeGi1I4q1BacmFgwwGLS2II36gJbkZYRqz28r+OK3Klsa3e90V21uIjeD0qHJki9DBb9FthMKo8IWsSXpX5VF4HFf2MsxGnyR9zV8YmBNbyyub1UXCJ1JzfJ89acyfCPcDJqdtcPbnHSFMWNfkeXfFtcYDK52fffq8mr+RQpvYNjhXe5OUDIWS3yWWfOBnxWjG1dtTMbCnYR6GW+bGtrr6ZCjPDz0K0Sg13YhQpRZY8Zf5jbyzjeKS++eVFTB0/jZvvOYtnPbiIJ54YYmoVOD7bwd37+vjc1bO48+odWNm6HYMxy5iwwjd5dEOuKCgyZzBEtGtmio6M2iZCxUpgSnjwt8wum6IvjxuRMCKvkm8B1ixQkgnM4wRyYxUjmTgvm3FGxjgnu8/+H/mhzM/qFRjhyTXDM1Y5z/CyNTPCoQ0TMr6UV02AkCDacSPvlK1B8FdWmH2CeeY0/psgs301Jtjc01EKXP49x8JkPyZ3tUmokf6yUkbIRmWzPHGNhos83cQlVngwaNh7svA3bMl0VCou8iY+IfAbS9Nql7xxHQYT4hR3I9nbEq6JgmCuNutIQbjIOrasVnj2o8v43s8cw/O+cBzXP7KKyaHlCef264WkJDrIv7G5hL7RV+hNsNKsZEzeq2YlWgGcmXuKovh/1bXoBdPSSVvwZShd9CSTMexzm98mNTGh8tEm6cNvyczlwBcCSw7+NmHj75d30wyTCMjv157qnvHR7+C+nX184uk78L5b9uPjV0/j7FjXS9Xb/QxUFlxpKsDtuGjBzR7PMEJLK3lZpHH6/XNlXOMTmg1Rs8tnE4+Je21dZynwib7kSaMsN6TCzGOMCvIhjXwtH6gy3VH9sBXpgdKDPU25YeO0Jg1l+4y9PfIHzluCkElVzGqQ8QUm8kzmOdwXk6Oj+HWTrzo8Z1RBaJZXVdMLI9cZvexBKvIYtQ4OKL+lc6v7W20eNhljLDY1DXZh4xYGVrAjmVexMkBmqwEFE08T9j5HAQ8C4/u105cfHAR6igxh5SoUQlUtnWVdoRquonNxAXPnFrD73JIGLy1M9nF6bhIrc1vQHZ9Cp9dPfjahS6atqfLBxkikZY+IteCUbIfSk7bPn9BJXRCdAYsJ1UpfWtqSpRWlQPIESwnSUuLz1EaBK60ZZtkxIrIgUdsNbRbtXXcsEdPMjhrYQmuE/kzm2UQbJQE1iUeoZp+1rS3bNKyFrleP1PcbIXB/zfxuwVU6Qy13a2uyxtZZmJCEmG4l85fHaHlgsK2MZBXaTCwprjTSGs16REVAro+JYuY4ammefr7QQKAsSC3y2q4RBppx4+Dgb1R1YktxMXvbp8YyrR9OZ9qm3F0Nsj8m1/y/qZhUFrPKqoPcYBCTpbGZq0fBGUrsaj8ET5fVmhc670KR9TlGeiU2kI5zVoNZEamS6n2URw4TveY4H5VKWavsm1rhHHbp4KGZD9I3xDJQJqsOrj6zghd86RS++47jePbhBcytSGlkHzwVJsp+X2M/PhmiakN+MjMj2IipBDP/TO3xBjPFLYIr7aMFiWkamAYXle+LG9RUFNKVJhk5IWV8SljqZlGj68xbG0hQ6AdJUQ2vzp4Ie0eYYfoi40uF2q8dmMBHnr0Hf/fsXfjSviksatlTEzZ6IGKqqfNq4UfszijjKr9OsCdsmqnSxBflSTT5K74YXnFJ5LGWwm08TOZgKfKcFQ8xAe+bYM+ZGC6HKDqJ08x00Ox3wjkECMp9VjLdFmb9UKzYntIWD4Jh7poqHoS53u9jaqE2t8Qn0RH2167Z+6wsclYVGLum/Eerv1pM2ACVltZOsQrcMw3Et9gWwyHjZeSw9v5Mzcr1pt9mhZKaJz97JEZ9psmX8oJMp/G7LSriPjebSEUGmu6JDUda3qF+Ws/XjUgdzaGaHuLR4fE9cbiChhpIWIkgqAaQdEhhsJL2IumUmlKpG5SbVEU/FNfAueh26nrWLkQFXyiZHG+Jc2ZXP7nOveG9cQ0qQD3Xl41u+FbCOEapmsDMAlzupRAu3xNnzzXG5+N1jkE/sdkJGMRozER8yuxiSPjpCcwXFteargfLhFyPsON8tfxuUmnsD51ntjC7WM4zlmdTBoUjVNzTEi6EuTwjgos0k4ITfR3lWZrrY0lZzoB7wO55UjcjMhE7A9iHpYvjvkd6jHhBuEfFylFEx9JAMk2RMkW9qT57DE5QuolDKc3NGWdcJxlU3AOymcxKm7RAfhD7HogiueqLkfFlrjuWa9x43zx+6BOP4Hl3nsX+swOMecl068fCQL61HqXE+nxiybSvm5vXrmMEZqX3OYAVJ5Ow8N8JXFHACHAZM/PaLOgLFkDm3PjXiSqGEfBvPa0rMDIiRN1c9TtHpkb8XmJKeQe4zrS+tOZsq1STn+X7Kgc/OdvFZ6+Zw1/fsgcffOp2nNBKtfYgaZ34FXGSf5cssPxu4JOCXaxoa7yCGzKK5kmftj+WEaQt5z1FNZrO44E2xdYUfEffE4V62M4GXygOzuS5a/hPWChpuUkzmWdF2dgmn+KhK6IZocRXcXxpliU9MzQrzRUtqzdk7+R4kS/ENTbkzKwrCLrh6mTJ6XrrVZ9jNGWaXIwSLohi1Fc9jSVzS2De1K6K66xplE9izWeUV4hm65GegnQb3RvnpiZxJxpr9JNTx0hLLTJ/k6vNPKjBR/xpwoJCa721qnAK8KbPNqWwjYArJxqFbJz8qJTDuE9ROVPmHrIV2vayBE58PiKoEXo7PihuBqWqDeDcH+YXy16KS8CIT4rXmgCOMJBvcc4b4eNGG0184zij4LaZKmxRiXs8cJFnWTTFrEjeCliaJHesUNh6418K3pd7QHiV8Gh7XzZ9GoYIs997cYgXf+EUXvbBo3jq0SWMs7GZc1E9hqjwLOq5NzaqxLi1u0iB23UHtHRWXRMQqFadFqVfMpLFy5E0dVM+dIqXwiy8AqyZpnKN3DiPUX+noz8Zdsm4oyRfD4lzNGXqaigp3qu9Lh7a0cfbbt2Hd9xy4P9n702gNcuu8rD9D++9mofu6ql6klpCQkhoQJIlsCRkhUhAJAgkxhgcIIu1WCGLtbKcxDaYeAXHAQO2IdgCYrCJkSGGeABLNkggCQQSEgg0dyNZ3S00dKu7q7qqu+Y3/X/WHr5zvnPuufe/r6oatJZ50Kr3/v/ec/bZZ09nnz3I/cdmRXdcAxn1ClbInlU8xPRW080QLdbf1X8P0fgqmMwYiUMYy27I4S2VL2S1QQknhbyHVO5VsLRkdB9e9HOulVDjlssb1PonpV+ygTBGcNULQM5lIpAkhLPrcNWir/f3bMnCImNeNWuPjCGeHyletRLHmDWhMdLTKYusz3ptjOM+0cVW3l5kTKHs4zhRexWuN677lHUyHNP1QfeGj/dJxxmz1hb+W+/BQDDmZsOg6kmRlFjAycLuqcZVoilKXWL6qEuhtuilpvU+mLPr0AvCuHDI55VVatTTtlB+2mfBiQUHasy9aqwaxlC99rFdiS1Fnv7kjnzzex+Tb3jPI3LP45tWktxN9oh1QQVN/zjSo8CN4SGIk3B2VHs6oA1Vu3rMaxCj45qUAEW1vBTrYKEPfH9Jc68gnAJv5qqPNvML/ZevPGLM6FFjS7WURz8Oalo2xzPZ094yxlN07FjYwglLRV+z1YAJI8jAr4+yIvL4/pm85aU3yC++6qR86Pb9Vr7ZrsXC47SKf69GSY+hpTHPgEz6YBw7RmtrQb+r1jdk4PSRzBi4kjd+oITAXmQZwzlRA2EIiPo7/ntowcUk1KxmCNC+8YYEY59Q0nfq+uIYf7jueNwlxb05P9uCA6V40d4T7TpXMYvJqEYTH/2cc13HjMM4HdqvVbhvGVOrCKumByhYxccQ7PX+rFJ09bpwQksu9aZQr7y+hcDvGiRjjLdV+GB6TL8T445heBNmYbDUaqfGaaIhMsRqGHkMpmdWzEN8xPqinr/Fswz7GPoFHDrW+u5SvvTRK/LXfvcRee0HTslt53ZTzZAUogS9TEQT8cfJTVfrt/Q3fgnA/dAMRZxNpg4fIRjRNyfFt6R6BeHKNTwywqnrpBk4TKehyLW+Ag6giIuxIcBDiImw2gxlSwcLgqxOr51YSNqE+uADcAv+C3z4Z1TGfDqRs/tm8jvPOSI//5rb5X13HZRLa87neoJO9/FBTH3yBIYv6GqVcizQ2Xg4xzDlL4d0RkuHqVXl9/2VzKjqLtR8UsutsfO21tw6oLfkYs1zfJDo06EtHTHGITA58sv3JwMhBzWUiK43khUb+kmDyfjvIUU8VtCCgMcIJihdwNJ6Z5XAGmNEsHJTXEAi6OdWbUzTJyP4yp/tlrDuU+pDDTRaOOtTtHh2r0pvrALr2xfsQYuW+tY8hhbGMg+PxSXC+4xFKONV8A7ByDTDtAdcsncN87CnagyjjsFR3zNFSeMVpwwWMGPh6qOZmjaTcC2zBcMVv5TJYil/4eEr8t//1kPy2g+flWOXPdMERXpaiqBesxYi0jTFa/9hVRoScOkBYhx46q25y14O3bkbx3F7qNeModoJuXbBqjXlJnOrnuz/HrVBzDSA4USPq7JQo+D9Tz8kP/u6O+Rdzzgs59cQ7lyuaNUuMN20eIT5B6F6qw4eV7/yIZxwwF/5XB+NJ1qPX1bhokPH8QF0B+bRj7MMiT1CXSKypFqFrVrGRj2v67M8x2T/L9+/tOBU+lEAmD34JfyOx9GgwsoKR9lHBcSaoQSBAVicjFNgF4ImotcDxmwJJm7khFM6sxjgUrj7DISxxFPPpe9FqfWEl9rlmopHRSS6loK2tJxwIRZChQ4Zbn1n8uGKWC14gUMoPN4b/c6a9NAJAN9jf9yIYZt8LFa6z9lY1tgrjwkDp2UcAme62j6FzAoKeBmCFxUc6zF9P7z6Wss9Djza9QPl3V8NNlyJ+R4y3zCdasS+4gkVMo0JI4PE3otyzDpOa71slPOeMrysTJkuoIaYd4fw4mO6OLlaWsG+aCMwlITFqDwm9lj56/mnN+W73/ZZ+ZoPnZXDW17ToPVjBoBV/OuEhEbKob+VTuWoGEOD5ej6CGptzFXe+QOecbzTLWqUjYEiyDDN22dE0Fr4GiTWktZoRpeP4SXj+SfHVJTP+47gUFe/kwIFKYAQeNXice+755D81OvulHfcc0guzT0Aea+G9pCCRZl27u4KGGu6BA/20SvLHtAh+HUIZrzHSlnnYNnE+mpIT+1FtqBxnhtskZAcsoxlne10yDpeB/iP8dXyLvThBTbA5NAv3+9XVvGf1YdPij1nIthnKY0nckA7TuS4k0qSMoRv3BciShQ8gU5Tfr3oSAcspugRjk4BP5ba4RLViLtWvPoVlLUygymsJO6ig1VgCozhgRwuEE3pRXCHtY2OdsKMF09z8efs+8BZUg7RXctPF8MKGacirF3hR4UsbDjaGaOSGDdZKU5VrBSr7IQi6C3atnoth7KFa30aBI6QBpROS7E2V3IRzBl40zFwL50Yiz4bUvwQGLrHMHZYgIFWVBYCdjAB5vIuh3ra8/taVqiZFvwtRPTav0HfZtyyFR1GBAsL/cjoK5S7C86SR/QzXWtmzKgjEXQFuC1eIqKMbbyGAec49ef8FEtzxUAeyZ2zHvRj4MuFYpTMDb7CergVcLoeiPX5dbc3hskdBCn9FC3ESdGBHnhfnA/jpB2NZoAXXdOXnLoi3/muz8vrP3BGjl3SGivQgLCmfYLiSqAhcf171va1WOxQeOjBGN9iCyJ9sbMPflfPqhxK2UFpKfni6SSJGHQo9KzXIyZAyzxb/AEkE1RbwGq0wiYpj9pjXRkOa48Hc0Xgx/6pz5zZmFAcXVqfyruffVh+5jW3y7vuPig7KGFNYKgPCGWfWS5EFmwyqUH3luUF2RJ8Yo3O4kmU1GJ5DKyYvA2+aCl96I0+jLGsclrLvAsewWctjzmPmw5wiY7zfnjGQBzC48opyZZIY7QIoWSIoPOij8Fzc+aFwljqgwx/H144HkbfRcYUwJ4c+KV8xcDpD3igm5rhk+YGM5kBWNi6gu/GAun+adBxi6Hq99PGF9zkghFpGXWAFN5BLXdmW8BUyxWk1agAxnod9lytj+fBM5YPHEYFB3zp+AgcwfzlnF1Bks2TLmO3xkpwRp0EgyOuC4F3wMzv94lLzFrTAKctMtQwOHh9ptxjoZ7Tj1I8qEeQA5raeMnvQ5g09KDNgKZHdU0ON6cdCq8TQe2VKRWRDSb4c2t8FQxfEQ3Td4sGE4NVV9L4HKmBNS2Wf2dlxvsCIwANdgr2oJi9euy0P+HZSns1AARop+Zlxk0fLWRKdsrx1fjviB1R4+CLzm7Lt7/n8/JN7zstN1yJ+gbxMutonMqXmjZAJ+WiLkAQBwXkZ1FjY7oSSWPZR6FYevCQno1DicNUqhk+mfMwGebAQcBg5lom1c7MfF1gY6MiUaRnFraLxUdEKUHqAeDju5GRcn8hICsRxPhKtSzoGdu7Al7PodcKjO947lH5qdfcIR+6dUM2K6cOeAO0B68Z4jsxBdOiGwtxNRuYYbnsZdbwhj/Q0j01UnNq7zDXpSWQsOzwOGqWpGiUmiL8b3TW7Wu0VvN1Lf1ZXnc1Q6lfh+QQ8zGvng0ExmOSXwd/aUwvhq5CywIwV9cbRnvrW6h5v7tHA6Mx43hu8jBczsaO1qGUzTHztZ/B/KWwQMGba5szV8/CGlbBWUKx6umn+vsvLGie6tV2hFHPVcGfNhxXN18/X13deG4eOB07XaBc782Xd+Xb/+CUfOe7HpGT59Q4YHd4NpvZWVkqTxehtZvcFXb7u/FrUFhchOPUnZ0TXfqG58HkDtd1SSe7MOK1vgqupOi5YbgclvY66y6S5fwY1+2E8kqB4eT56xMyr6lcm8j5jan825ccl59+9e3yiWPzqlLseGz/WTyZ6fLqZh/qhHh1I36hvBV8Os5AaAPNdd3geEMDjLFKDVG7Q0lutVOQoUnVwqrrDq9M17W5hsYqx/W/WlZb/Vxt0ZYwXX9hq/MjAK+PnPrwMnb9eyXTbM/7b639V5jUfa95+U/lzyp68dmvHYbriUsv8rKw1LHWTyuFCjXo27jeywr5dO+44Wj6a8FUK28bp5Z9u0v5uk+ck+/5zYfkeZ+/LDNtS1jb3EAGI9tQxOcl68keDKutDqtjbMtWXcmWhY8pObjddQk44QeyeniRKsi7x2PkclI2dZR39vRCHT66wxVx9LGOgN8Mo+rkXJAyHzeBDlzPohpo1WygyGQpcAJjLvmdSoGIPVhMrZz0o4dn8jNfeav84ktulIcPoGbnU8nl3bH7+FEDxq1q6FX9dAmlNU+fvL2qKa/qpRac/bK4O0WudssVeyYHf8krKQ7/5EeyUeBvZLch/upTD1kol7yenUd9gHBEJt6Ns0EFNnK74dAshaS+gzuWIXdMfZfIfFfjqdwCkAmYKhXsHYHfPAuq0LMwqHHDrinMlkmEUwxL9aE55laGl374/RHEkN4cwgtLk5pmyl4DbYWIPSjpC/uaKaiGN2Oe6RO/cxpTppX8ZEbK8BWRP9e6kuvf6JaxmoWvYUFLfid0jMdLS2no2300Xu9bfj/TCtaP1u81vVwNnWQJsJQ1zVh4ZFP+p7c/JF/5yXOyXxstqTSx2ui5L4FBFDo0BX3YQJVAZCPAyIMgNKVOdYUtNLxx98M5iPp6bWegBbMfxTOG9T3zndM7gMEMvsiR5Bv3yMu0NStsXmmJSBHvwTrI8Pr0/k7iLZs7Soir8QFDADUUQKw1Wdnf8WHEVrEk79AzAm/sC7/TtOq1s6l85PZ98sbXnJQ3P+uobKb+EKxuVojBEV87XWY65R4FHiyYr7H6hmPe9lXAIM6G8RAoLdnQbyCwVC6oxrEe9zZ74acatnx9kJmglAljjuse9+NUmAl/cuiXHhwBmz+SrU2oZ98qPa2bvUnEVguh2r3o43XbKo2gkYFH2nAy53mUffByJ+XLN3McXLzx6CxQs5bjx4mYJViGCHgBo+fbtaw8xuAkq0wYbfVbPn/22LRH7ev7PgbHEWK2AAAgAElEQVQGfyaTE8iyNhDGjFVGL9SGX5/yHDNyFy8ZzkojXM1wve/UBgkbO/4Smz2tfYJhxZ67mievD8htWr0+Y/t1wNPPbct3vedR+ZY/PC1Hr7hY8jXzrXX/jFS6IBU4clnrmUM2XkEm/jlwnC5GU58QnR2KMkuvjgFatFxw7BdzsT6v4kg9noYNm4iHoElMkpIHpC9ls4jNKNkuIQ3HBHB+FycwNELRpzdNmgf+vKhWPnLVJjtodyIX10Xe+pyj8mNfdYfce8NGxBHk5nS5b1V/2mC947Ueqc0DNm7zcRWelmEjG3OVTcXGyYAuXC1aZfl/vbinPU6pX/emO5x8Mg/CpDNdBAMBUZRZVGVA3Cpzt7a6arzhTtS/jtr0ejJXNygUzFAqFhqfzK2GNqLNOQbBSVqjSpFGB6C586M3tfGtQlqb1qFWonE4cqlkfaaOcdC3OYVG36yzIjhtJdvCjhuNm9DZsVakdDEjdEWtFhTpbrI+p2tDaWhueeu4yH4NpNX4vF5KV39bD/hZqCGjI5eQhhGVU5KAlxTwF6cPpMpw2qvj2rFuTbGiNjlWxLSiEFtPC/0/qgVRwu9wtKxUO6NZZC26Qk48ZY7Qhz3A3SynEZZGWZmyx7UBlBG0djlojkU4ou+twVjQt6YsWq+NqjjTGFpRG10Nai0qo8VlUjqRze70jHF68RKNcgy/gTjv3JYxo3jRrxR+Og843aJdbKyH6RGnGhj7nC5pCibGRKCxXX3EXODVOgsj48XhO7CzkNd/4gn5/l//rNzxxE5OZ0zubz/hW00DnNUjXdiwpHQ/jQ6LcYr1RULBZw+CjoFTrk1uaApPEpp16AMWao/3lz63ycwc/GevRylhG8EQzLZ/jqnKJEqRw2n++kVYFQxDqDulNZSA1lLTChdlkznZRPQgOtOZR6Pop+3gUH0I4DY9RwGIxfiUBmxtsANHZmzZ/uSKjfr9mYMzeeNrbpM3vehGeXxjXjlhnActxTiMua68dZx7k8pSUJYyzCkDPDKzzfLN0M9cHmSPYSvbDXSpwb769kYmELokzZkArk8clThU4LPcJM91USA8dFCmBqRhZl3kcJocQx+hkKsgF8S0QZ55inI+UGBuX0+WXj4XGjF6VgTSqJFGWctdlmGqzyZH/5V7ENCO0wRA1UwIwtCqTRFPmNEQDZR0DCohXlT4ZIGRBHksEG0qMwozgbCVVtfi9+/C2kb3RqAnvAQYM4f7OfqQztapQhprZ1igNIEXNNSxVMgQPmhMlY2BUDZ1wyra+NzBLsQaUnsW3mSjhRczaAJvKdIXDayoKqMprmgWlXCYgMskUSjTRe5DwX3XXZ6WSplpxfc991CAwjAvsRqUE80m8EZNaVzCSzr1tYz9SNuEbMMelLQS7EpaHdBy5DC/y1PZa/Aq2R/RwY8aPXlHTv9KYwW8bXhDgOHkSnSUaS3Svdj1HQth92RKscNpmIDNW5iFFsSEP5YfRhaJ0XvkuuN0jXFSrn4YO0Vn4oTkyFoiYW0eelqre9jzcdl4leQEP6v3wc85fUX+199+WL72j5+UNe8HvuLHBV36SVcQkJL5+oA9CP589S5wTp6GVbOv/p7gaD3cLYpAa0lCK5bYYgQ8zhJxGKruqle/61scnpax+Cn4Tq8vJ/KRkxvyg6+7U9515yHZnfkhDz8hMs2oMblMskWnZ5615nuVvDZdsvD28Uw2lnGGK6CYzDviJk2R62KkF/O5W0kK/W0Ys/pESi8PfefyKHQhMqNQdjoZED6K/xnyI7KqsBMYQ3kVqdVaCtx2oRMrknkOTQmTr20aB+FOVoxLFp1HDRCdI1NSKSvS5+haGuuaHP5/PQaBkV2TUlpQ2Rm1MJ4xQYvX8X59n8njorKcKb64hsSYyKPF2Fz7G4zAMNcpTjXLZUXuC0d8E64pnQB4g9v3aMWcjUuE+prTlZSPm8bX7I1FdNmLBfeJCNbxhkvtZlftXS1K+vbF3qv2k8dPaVtZZya4C/wNyKmaFtJ+F6osXw8zXoxJqgqUhWKPPxCHihOD0XJ8x3D2wQz5hrxlnsOYi9anOFf6RAyHzgPGZiYq4GzsaQ1XHx3xtTnqLqQUtAFa0fdUqOWqeO49S6ecAIBPVX08YvsQgtG6PwbBMa0wH+vzlr3TIDx9TmMNvv0jZ+R7fvcRueOJrchbjxNZGrQZilecjnKJY6Z40lbxcfcT+Gn6uIwBb+1M/R5zef4u+zaBQaNuuDCq3/uYKEPv4+nfcFnUki/GN8WOk7MjFNdVcaBsT2bDtbGVX+jOma+48lOX1yfycy89IT/98lvkoUNrqZ08nmCvJhS9razhbDF+JohbvAUM98qbSElM8wP7Ay0ArDlToASwsWxpUQkjdkgP1s/BMEc9L5Ur4CGOs2/JM6auGld9eAmi8Hg8ApSrNia5eOQXHlB6Sm4RFiKJ8SNolxem33G1PGalFgUaUaBRTsyXa3z4F6rw8OPNWYg0o+86qtMZUlu7EK/ALaNjprmhPHR+bdoScGBeI9YgUmxaXzU3nQYK2sYiHGE+Xg9vZDJ0yBDCs3qi2jGL0Mevf2q86N55toa7XPkUWL9rrmBSrMldZmPkp2GsgTHYfaY496JO/gLGZLgMLwELrwHWseKKfxjv+nlNK/oZxtd3dRxfd/68b61mlEG7kvGAvccaEw3QnvThC3MVa6uM2hYPMC3Wezsm9iPhgPaxpofWvOkzIubk6gw+MPpUI2Ja4rSPf2oa1r87+6onuuymMH599hOb8nfe+bC89j89aW2b//P96TPtrxEjQ96Kaxw6uj+tHEVlw323bMjf/arb5bfuOiybUUAJfG0D6PVydYXQkW2VvGaeMekT9ip4uXWNALrmA9Vc5Ueoj+y+L5fF8oDljPFDyHu8kQ8pzgOsO1ze+rWHue9zNaymDGM9wnKPocMQ9brtoDkuhMKGYz3FugOyVdfpHoTgdhNSYaDWG2DBtiGYDcC+Y1BsXPI4huKplSaUBbJ84CUwwAcEB4ggCVRSeOl0FQKUFYMiThGIAEWLjI41dNZTsUCCtTr5Yqmp4mutoCOiti79XKNPx3dBnPOZmXBrwWtFRsg4YgWeTt3AC7KnQpmjtz32lxVuInhsbw1oQaVxnRsGVXGuqquuEFPoEImRyU1Y01ttcKa9o+qYdqe2Qsns6L4HvoBH4IiNDlta8K9+nrxWODGjMAoi6htikumkw9AJblQTxNWSWMtipkXEPTBPMF+AgVmAGE7ZyBviIfA4BGyVXQjju6Y724M4wyZBRDRvvEWHTCMDnAz1qmmxlG+79wn56+96WG4/t5PAtWsBxBKsVD/0ACtDrqiVPmchRe/BfVrMVcYPYIhr0rcjbYChx65p/lhfyy8whObBOePL5jPEtE/um8q//LIT8mNffpOcXZ8n4zGVJe7ZGih0NuChe0CPfC6EsuZTeCErWGcFj0N3YA3p3VCufJCxVt5hFDDOAEvSiQZ4pncYLwWeK9e2GSnpwIPYiXijOLDlWDn2ZhiOAj7MA9yYDMPYNCTkRKHL43CAAwLoxQyEY+pBCG+A4a+Q9P09zVmAM4F7RywH0wwmCybyAiH63G742FECGXflThh5603p1sBABtpjZTMRm9MWEoFNVG3RlFIEMblypXnI6WefQtBwmDSB0vEoNALsUkmYyrWVGJU6yBkscX9lsQwh2BcRhNWqk95XihdIL2I+sBG4UsCdtN825jpgKcLbd1Pnn2pQUhgL1iSFAt7w+TCcwTVp35bGEBZGGvfYdl0UypNdXIi1SXIkGXMlgbphEfTWqCGg6ETgTY03LvGVFbTf59l6g7GQPpV0X2ykryPPnWuyR2c4fBdKsjQa8jo42tznyBqs5cHqsgWNVcU4tGgl7QqVtM0CP/dAcGMalqYKo+pUUPFIerQOKwjB+awnt+V7f+dhecMnzsncJFWOpXA2yKrMfyNVUCkUC72Mz/Be7IShuaASdLpMFRNLlZnn7iaMuYOepR1m8Wc5cRaz4vrDyiDTZtHy/Bo1QWrRRTLRokwujAtvv2EK1wZmoIIZOguNWrAU1RIykXGd6bDEd0xeQFWkvFntRMYtjqum6mLHfFXq1fz9Ow7I//nq2+S9tx0I49tjlTzY19eQAwpLk4Vp3Hk4f69XfNgVw40pSs9OK/Y+5GwqH06yQpGPuZn3MQvkMsvUcu0xF9aBoNmApeb1lpwyD7ypHNeZFpNBMqPEiP/V0s+pqJUlDnjwNEgPeraQxKz/GoW64CSwQ/3xf3n/sq6atarhBi+CGZH20KjIBX5lccAQIOGiRsOQa7yFKGxgViCuaItrD6qljWhXJWl9BoEnTlFlFL1CbDmhiOCNgJQ+YduCr/4MygN1GHT8dE8bDxd1tMcMGgSTFWyOUuXXmUiSAWTvlnuDYLzUM6Oxdzou9h9z1HucmIEVTGM9e1kvxtzTHgSXMK1gzqzMSVxGLXIILqeNpQkfGEwwNFvb40LKFV8JJyyKLi/0bXNN3y16MoHRoN8xpKOQcOZHH72ywEwV9MgIV3qy7JsQ9k28qFJYirz+wQvy937zs3L7pfAepPLAHtCaArNakpg+89S/iViRw8pwcCkaUCj/UiaEReFTfQDW+67UG+4hFmpsJ4TE1YZRnGKW1l9ttZkSCEGwoki2A9lPjvv/+r3FrkwmsxwwVJMQhD2n1MCSJTR49kEgsWl1UjxTDQOMmc7cEFz+LzxGWNbp/TN548tvkZ950Y2yFUZi2poB2YKt7tNDZo5Uhy+UhI9tGaTtkkZ9tpY8GMNHvu7qsEp/M58VcgWoi8yF1FMBvGV0vLRMDgT59snb0XCu4PkWXiY3/sIDS4syrRo9FMq+gqBWELaWWIgtNE7hSKvA96y8xy6qT+DUbns8p4JKlX9L4LkxHTUbKDpW38FGpLSZSoGbF6QSgjhpgkDYWGk9q3PDKOiDs0VwY3HFp9n6HWagvvGwnsIAJJgBGxtiLbyASW3fabJENyEc6pAtGDLA3V4MiL41+ekrPCGVUNLsCv1ReunS+1J2di7JZHfLU5UQNxPP6gFY9RTG0HE0Lcg7o/poesdqOsp4YirztQMW7sc5CPpcbTwO8d5YWlj1HNMuC2IYxwb/wCDsLRkSsHjutku78j984DH57vef9tiD6rSXM0VyFH09vaXfxR7avto4UUvAHg4lSL0VWris9GeahvU/6EbfNy+XbWu3ZwOUWZoH2R1EazA+algKfRuucF9CnqfAS15hWq3+gmf8w5xNAlmHNMgh/c42Gdtc9e/AC3dApW1xXC68iq3S/5ufdUR+6FW3yYOHPYbePczOIg0HcYfimjLAjPby8Al69kqt439qb+H4N7NhAK9I/e5KoyMOMIDBMjsqGaXrUT7EAQmp++zhxLzslS8+4+7MbLw05gMXAZbJsTd5syY2QEsB5nnUmRGyQ9RP2dnR5q4+/+Hnaxeqfw+3Ctg6ky+70PyEVKK+JnT+tnX4wPfo0oi0RwRf1ALbp/S15JTPLnu14GAhg7hjwy+uXQp3ZV579mG4+CLna0JAconjbpfuxVcRdsZ298lk1ae6bP6J4ZL8dlmuu2VrKUlJZueVD+2Pz56f9T1A45qyPBDTUD6ntUYPeE0Z65WFn1hHCaDUIwB4Cfwvd2Xz7Kdk5/xD2Xwgj5gbXMobfjTyuAqt2eDwWcS/eaLQ+XAmB296pkwP3Gw9NNsmib9b0D8dakETcEeWmOyepnOkP7itw0rVbmTayG+0KctOcdFRIT/hygleFIMv3LwvPH1F/t5vf16+4qGLRlO+Uh+FoQLlefe5EktZsfs7iRLwBeyDAKiPDjNdxRUBMa19V/0NPLOC5wN5YV0m/UxjFy9W+9TSxvxIwJL4rKGxzSaJO4uUscDblsbAlQghyHCcP3cjLLBL79kneQOyfMB64QEi+FRePHB0Xf6PV5+UX7/7kCu60BEWGV9sUL7O5I9Nhsb1EzuMaqpcKE0p3we/gb4cnFxaDCXtGI1OieWs+S1/0sbXjbbHSjlV03CmbMzLBMA8hpF49lz7w3emzbNZFri8aM3A79ayI2V9TVAWsLzucxoQmdz4pvuXdfQnNgVTK2FoVypFUgQsJEGm++2tklWZdg0EVkxcuyMbCPn+xYiGxkmqUjMcgCgtMFO5XZhunVf0xNdFGYjSvrejHTZ/as/79yCp6v0Qan6q8i2ZKUE2XEC+juraYqp3u7lAiBlXqRMk3xlOcwe2JKhCcUz8DtAI0Gg1bkD5XrKqSwBy7CM0J3791i5fAv8eCLFYOixdAQliCkFtNOD3kZ6a5xXE+McPViVeFH9spGUW9b3wTnRI7vK9SaOmFrh62nLBALNK6RSwOLNmQ4ZkfwFfl8kXsnX+c7Lz5KdlsQwKDyldMl646sNK933NTA3a1Ffn+47L/PgzZW3tcK4YGOtgEZHwEkYOmw2gKt0biLVk3CecOC8We6D4RBDmFOlNbKaX6FhlIPj8LvCT8Rs8onfE6iex75ciG0uRr3nwnPzv735U7jpH5zsmEb1+T/fyOLE4JnX9/ptjHvhnQwnOg16Doz5l8HLzobujBH2NUDdh0ANQAyRa7DqhtaW5c6x/GQRR2DTQ/ikqH22L+cSdU0wTNGjbHIMV01fKPKSGw0DXEuB8g1DXiUIr1I+jQlVeTShLm5fKNJsejYJOl+YT+Ucvv1n++fOOy5NrKmcBCWPA8QPe5HhT0Jk+MZtonEamXR/J33KeB6eQIRJ4z7TTPnr5GFhp5jjfeucGPwy70T8hWYy3al0AkyfLtYrHgoeUT7O+YgOhPCribdfPeVTFS9sEcV3oxh08c2F0BM1BXuUg4ZC3UXBwcuObHjBPnU46l2Vyz3iDiwySTqKLMGZt1jZhNDi4/ryf/VxIT0ypmoK2KliLtFAT8supzTmPEsweJOWVoLbj3OWwJjWZlE591oBLHSc9hd/d+rV4dyIzNKo1BeUSfRswW8ZFd7uVWPy0gy7f3U1WXCixW1VAW6P/qCsuE7fDBgUBWAC7nowV976m0gDBTs1kYcJU90+L1+Aki+/1c51fd0VXorfBDlO9f/63wmKGIdFCu/lJ+/1CMMUYOAk4U4AefE1+tnZh6NX68riKZ6c/L16N0zr2XvcWdQMRqezsoThx+oViLVkV+HIasJSoyVJ2Lp+SzScelOliM63f6aQs9Z9wH16VWmCkE9pkLvPDJ2V26C5bqZtkWQHCpe8nFa+0aPUMwvDyypVML2FyRWSrC7gyz8mfr/CINVgFSfCcC0LM57SRcWyBYol/lC6mUQCHRVOmGf1U51VaOby9K9/zwdPynR8+I8c2Iwo3FEoqbIT0mgDVBDKEVGL3zPnob+86uuRJe7y+ZsAjVTVAmw4GAGc2sd+8cW3gU7TbRGP+olqcMXtc5QaB4MoEoKUKhkycwEtoVr/nL0/8Xi3SFS6kWy43nXGTlUBjzTB+q9ooBkro8nxVEuZj68ol4j4MTr1fn/o1ww++7Ba5/4g2YI96B3pgSpLXPZWQsSqPlF+dm132uKvdV6fq0A1gKEAHEjLfng3DVXlIdQd0Fy1Hdk2OxAGj0LDOQ6A2pUPUaNCOBZAP+oyuaCf0lRVRizd5C62YYPIK+UQadFmmeWa95PLf59cKryqjFU6VD+h67K2rHS/Ga/qspVM6ThQXbopnoyl5PaNqo8n+IA+cpxXb+p6Ob83BbnzTg0u43mvVpxP3fWf07li0//EqVLqILKT9trU1KhOto7JWqeV5AcoDuxgUSwjgDWn93sfMfe9h7Vx9Cs8moZ1eZrj8Q31GofQUYN/uLLxrI6VcvY/gz/BcqgDzmJi8xoXDYv0xqmpj14oX4ETHQYEgKA79rKQVrBkq2ukF+NRnfYXqls+EnHHl73V/XDxCfvsTUIKgw+yWzO8DT60x8ZTjThnMlNPOOdk6+59ksnu5n7zIWkgZOTZFIXGSx2cxPyBrR58h87WjiTtKWilhGTiSZupLFeS6a8vXDPydR0+HDyBdx9h+9FzN9N2zthHjewSv362XtuQH3/2YfO2D52VjwfmXUAF5lJqTkrKl2IPOnNUleFaTSbel/ajlEeJTnARBTWjLnIVrPWcyQui9vOv5/SHpV8dUBPHFVM6/5a75V0bJMFqq+YkonL/SyTE7ohMOXMNGs6gc3+HryC7/5HUgUQMDjRtepL0LV7ENP1nKx27YkO979W3yB7cciMrOfpr10sklhqDwinVH63SYvlDfGRuZ2/CeKkynND/44scVuC9E8ZDlM+9wCVPWHWUqLCRY/rdfTMD4t8NRZHLw07WGMJlWeM86vcPsdR7XzZBSbuonkLv+u+OC5bD+XR62sP6lTE68SUstw4WSLeKM6CiPEQRpgYcInCCacqLNLMJBLBA6rMoK5BTWPrknKqHgvRHrTe0aG1hPuQF0CwMXGz1QuxFBcq7EuoE1aWNoLKvT3tkiTALlA/4vRRWbDMUbVUlP91LCuZpL2mbcliIW43YCiWKSJAhKfRZuqS7BQ6kzXvzaqXyWT0MspOoR7TSQmBaiKQuOWkBmdLNTnua3dWRjwF3grh/cORRKIGgO95t0Jkse2OVyU7af+IRMds8zpSTMGYNGSWu18PO+ReomjCC7goGxOJHlxnFZP/w0Wcq+bhnrZCwjtS3oBoZI1fuipnH7m/YStKIGvCnsgmex+3mUvJXlpiY6wgQxRz68t40T3dsvefyK/P33PCov+/zltBe5kMeQwUaorh4rDBkGFWuv64W3GCxwRait0ddhAOPaLOxwPiqfG7GkLmd1PynWyE2oqj1Ob2ay94940wATFlvQCNWvYDCCcRCHxGmESdRzjAzTRIhxfefR/TP5/lfeanEI25oOSEZLG1BIl9LMTgZVuiJxWdimXr5K6D6VJUFGJqsF7jlhz5LxCP7yj2qkZ89Sr4epoX9YX5Y87Yco84CGEB/So4C19k5l2RSGH+8/6VkLeCU5Obnh573UstXEDiHKij7FF4RFmWIK7O4dxicrpRBoGDOEUuqGTl1X04anHFayXKpa4GrhbMeJWCPHrY417n1ZSeOOiGSL7mFH/1EWgz7qLpW8NVxD39zV5HIy92c4oMz9S38zyWA0rvGd6xpEkxsLhfAcXjSCQdR06XIMpiG84M5LwfYGHuX9mgXQmcspXIIR1JhOJqa4QkFXUdeQLWAML91bYpHH52/yLro7sa/CWYoOZ0+T4dpHMxc8sk6iWU99ZQLvlYJWQheGgMbP6BfpxFLJ8oiqLnLUgzamsitbF+6X5fYZE0T1WnBVYucKigg2gyf2wxP6HLIUFjOZyXT/SZlu3CoywW19hotd5sClK3ffFR8/RGsYOnUqlD/ic2MvPYCTxGnUJ6n3Rx/Bs8ALYDc+KE62Ht9hKI69wikQ9Pu1nz4v3//+U/Lss5rn0fIq0p6UARUBr46er++y5uPDQY6FKHfYcUU6pfN1Fp45FighrXra3K5AABFctj9IfFfumJJHigiKYpYkTdmooWEhYfmg0D5f5pUxHfCn+L22aQrbwv6oQuECnkRh5raOv0yX5OfPbUzlx190Qv7Fs4/J+XWNa4qaKhQN6rFGce1A+9WS29BXztbdJ3wt0VMFB7Z4TP9RGaJbg54hfIPPHINxskbryg4rYQ69WUkgnMrrYOmyj4nP4oo5KuiGR97KBFTRXPo09ETeO/IOdXposE4tDSoO01Oc+LWF/4sibZObf/5Bjs0rMGCIpAhQNgN0QZ4epXcfeWAdQJ/zk2H3goEnMMEUd4Km5GIzS1d0jgzndy2CHqlnFCDWx/1+N1OOZQTWcPwbcmKxQG+/Z6BX3uzpCx6f8UzivHtMr2awK4jgbIyhm10zfw0YovH5Oa7kSLGbbUE2sNJVrun2WrsDgnALkRc04Hd8Tqv2HPaOjB43KF3NhPgY3B8XJAtZbn5Ollce8UweG9cdf0a6ERugRGTBPoFAN5xRk8OJzO/v3YtttD7dL7MDd8lsdsQokBUv7jtX7RsLlvrZ7jWYL5fxiBOO8zl5ygYwYynRUy0bmx9KVScjjo5h0fz37/rjM/LXP3hGbrmkt8Hxw1czHcruKs9kVsCYJqWVDi0Yujo8Z0Hq5gn2H3fMGd7yONxSTmP2pKbp0jBgE6k7Q/6EjJVYQP10thkCAynInvGXFQRkc/lJ2Jq1hyL2x9EcJ6x02OAoiK5730VQhu7y2lR+8dnH5B++4EY5tW8W8VFZt5Tk5m8j3iCqNK+UpcBNXR9h5YtkMOSDHMwjfxtxBSo7yggf/571ncqh7K5vz97yLKjsxmEzyTgqeAR9VMvBVevjK4ZVz9bfmz6+6ee9m2PxwxGpYN7C2hueChYOCBGkwp+nz8DMVaCRYz4HJYGp0z0hgpzI/TMEldsivlQI9wRfx+UVlinSfcCg9H5inL1gvQ7MItiLXOYYsw6+4qlSwBC8Bhw518JlD5wFXmiMwkji8Rp3FSvvQ3voC+tjGPAoB6Glz2zzuiK6xh3TW01HQzit8ausv7tzWtauPBQhQvkmpRayKW8Ypxo6JTG9ZbE5lcXacZlsnJSFVk9AK1kbOF/5MUwJ9kH+pDdwPYUsgDqYj2lnLB2jQukKGgPnKp983wdPy3fd+4QFK9pVT2UQZCXk/MkGaals417eaDDGIenFLvCmyxB8zL4V2AQNa8A+ikNQciuT4uPv7Nm4vuH1pWFj4+2fIB6kgNp+x+k7b0Nea9fgCIMgndrxVngiGzhxxHZuAhOu01pTy2gfk0+Z6SRcLzCtB3ET4bUKODZnE3nr3Yflf/sLN8nnD8zjmmuMqdX1ENhbI+VbS67463nuVjBnV1x1iaNzBTESLtt/O1znwwpklCN8BF5Ij4xl20KOVN5zm5bnJvkyOfEv/Iph7E/N3EZ33KudrhBaY7beHzv3tTyXBbOP0lwHImwbe1S/fy2wfCG927euP6t9+kLCjcqkIPoAACAASURBVLlldy/I2tanZbKM9LwwophEWgyUYw7yLaULAHdJmkdisi6767eKTI9bIaXskY4roT8FZDxVdB2q3vov/OAfnpZvRXMmUlKuVP0Duy4zb2K6kMmrp7vXxLtxms0ROS5cw75K9gGugfJc+WjiexAHBmoZD28esmlwR6Fv8rm+vA1xjsnzsSXk1JK+C+KBp6g+9eaUztLjgbVDguFkDwMUMj5fp5CPpNroRL+ckUPVCdkYwKulgZDv9KBcPMPCdZytITIZFrOpvOfW/fI3Xn6z/MmhteS+fqrJ+6mibYb7WuRk/e6fBrwwBsYq/cnN/88DVgdhL1H+tduYyyT33TcDqXuZZ4iAcGczwt5y5gyMDMKHVGNOdxo7wTVSO58S6hPDNQ496vUUSBpUq/9wsSG7D9tDYaZRk17Hh1qMuup6Y8z0k+WWzLc/JZPl5pjHkyIoYvX5yipaIVudc81Sme6XxfxOWU420vhjOjuOBuYpehC0AbqoeQzXefu3d+RHP/C4fOP95yxt0wQUAkb1Pj+Vp/bvzHltD0xlufS8d0vKtd/DwYv3Kn+v33vT6bBO2YvjcN/hIBcbEiuLrH1kTMUuPLDOLk5hhIQJ4so81qWzozkQjMAcgZKzBSKWRMc0/FGzLrKKUpEpGARWByQEmLVtWITRkSwdr7WSqvGFN8DwMnQyTZq9JpaoHwLFn/DtqsxwrVWjTbhSoJd9nGuT6HMfuGm//C8vu0k+cXQjUvHi+z8l+foUsUHqLXE145vBSXKV5f4qPXo1813NO2Yg7PVFuEh0cRwol4IGV96W73XG9vMgQvx7fUb981H+HAOOAU9qWsja7qdltrwUaMnsks+i7SBYxiP6GEAe5lGmspgdl83JTVG94s8G+3UC1/WC4tjlbfnhDz4uX/fpCynIkpVgN+AwMINCWSsBgbq/hrMcH916j3HdnUsGjVk9/TnF3SEBa3vMMjKe12Vme5gcoKC+dbNYH6OF60iOEOK92mEY3zk/xuf+yIl98jdefEI+cuP+lTv65w+0MbDX+IPrgcdkIOzl1KrPwhOg22+Fd8INqJ+DjMfe917LQsbcIWH8qxEhYz0VVzP2tay7790kLiu37FMy14g5rpfH6HrAv9c98ueXsrZ8TNbkiQhQLFVaKt/dqB9Qi2XwBYyP5LqVuVyZ3CRL8YDF6/Wzl/WO3ae+9KkaZsiTWy9uyQ9++Ix87WfUQOhet2QjK3zd7q/26HR4AAKRSKct3Pxxkk/fJTc3Y58KCJGHgXwNAT5F6gfy8jN9SraUnFke9e+ivVGPj0N4pddTgCCvk++MA08+W5zsa6VOlmzDDKjCdtngwpgwhXKcBc+Xf+c15ysIHfHeG/fJ33rRjfJHN+3NQNgLDV8vvrmWccbA6/vfLrLV4iNQ3vXwiO51bdlAqBqEIKITxoCnpEWpYCLGckJvalOnXGGsoQXiO55vCFmO4zaSxyASip9ZoIU8HgvGDwwfFAlSmNmljFRGpPHV54Qx9nwyaihvfcy69D3kuyMVPI8VxltPvYa0b5Fr35oPDIDvvFgWChT5TBxAqemXVh2RU1Fxjx9uz6E9jxE7PimOlWzRAX+GEqo1Phgvfcasurbns3Oyf3k6Sv/kw6IJ29QmO1OP67gowdtJOyqf0x3R9e/KIbmyPGG1EcbA1TpN+FiRrpyKl7VFAgsyy7GmctQtvsM6nfUjRr0KcuQxXUct5eT5bfmhj52Rr/6s9mDwz4pmB0VWgX/vSiyeDVnDMbhlBFGl0OrqQmkxxHVF5F3CttMYM6v97tcdVvY7aN3fiGsFNl4A8ioGL1wKiGzEOtRQQrdHvo/hwbNRUnonYGXEmgB/etUBs6cK+ynWEhcHuS1jXmcnVwE4TMGVhRXilVqMsX0v77thn/ytFx6X95/Yn5wtSSRUtT1YxigEyUsdQPuhlPuexI6EHKrlwVjjN2PYIVgtl3J9E5C2lf6qgiCLoMg6QDfVuYm96Qm+zzte0iun4zt5uk5Mgdsm6yN1Mb7TmcqDLwzoLuFObvq5+1Pb8gREqgmeyU9TNyyNLqIvXejW1mZbGA19WitPfpYNC5AqYGyNibvb2oprBN43eyjYHJzugzoBBTc5TnAasmh/IlwgvpWfuxc89KUWjsFwJ18/ZBB354MYbvWSYAHIznPNG7brpR4gqrRveyoxN52wW/vRGjK1F6Yva3jrjmllDQll1inVWAfNjqGmzIizyRU5MntMJpOdaCce6iHqS3A3RFW0XhA610bge3rg0/fIa1fY/03msrk4Kpd3j4uWVAafMQ6G9srpZSw/Kh/rvX6t0jNt17nbTX4LemDhBcVudSMmIreqgXDvGfnqz10MpZTnLAS3FVPQy3gvW+6Ri6g5EH1SsH0oTGLPFCVd3bxgJ0xNrIrYUG4tek0lOhMqdcRoFQaNVrSMrgjbEBVSrXYGdWCBsdkV/ynKMoA0oY5shyR8plFoJHaHbx+KWuNkfNijis9IHGWBClwipxdyz16vYYwxyZYpaYYqJakH4fg++d7n3yC/f5PG2jh+kCavf9l1dW/NFBgwUNymuoO3hzRClRFTxKSgxXOmbJMdVYYQ4ASfOl17DSA3Wnn+0JeUzbJKXrO+6Xs2B7PmPUPRN485cZqzitsBT9qtnrLwPFeqeRAb6DI1tMAtP/fAMl0LWLU1z8d0oZbzaXVCtuTq5hzgC2Y623CHOqxW/x11pC3a1TIgcqMQzidncW4CN0wSFHSA4IWRgRx33H/5vSpXHcxV9axPPAQ8lRXVsSyvHoiGDIpNLz0FQYCcJgnDiY48qL5m8AaD4hRWFM0AHtKm5+IjwAvTY03QjAcU/0AqVe6mkMvnuNBxdtVAJi0vDJxDwDt8TviGdyq6hBhrZ9fsPna5SEV5kB6qSsmEXJzG4uSg+6D75KVX3SORxZGfxCMeKuoYZCMFtMAEDzpxHZPpz4YG4ZtcJ2MvLG3DRaqrgHVtybH10zKbIFAR535fZ7K7DQk5Azzfwzqm0JES46fTcgiuHdmQS9s3yOZifypcpjNYnYJG4TAUHzPeoC6C2I+kqtK7vt6ktwLJOHRnuPBmDvnj71pnfOA/4T7o4eSFbfmh+56Qr37oAjn3Y5urokmloeF/OTbzQcXJI/c0KBOh4aAoT0JdA6YUxd1zU/k9Z/2XFQAQqsdFhPL+87j1oaWlDFrPpPmiB0NCYsQ85AMWc0yGi2Voa508J/MwaBNwds0Df9rGZJkXXgjiCvv63mP75Hu/9Lj8wYnsIYPOKFNSowppFE7KVJBPuYptbQhmBbmskdpCpsuFzIxTtGrBQmbLpcwnuzKdaPcEDXDdtc9QudV6PUymsrOcyfZyTXYm67JcbsjuRLsrRB+CRjpg0kMIVtUg2/DIqPhUGaY4QfG8zBfRQyI20OQoquKGYmfegd4CbgwPVEWX8ZJoiW7pwK9WjyX2CHwDjwKkmOt2tAoJeWvzTWRy8z+/vzDBQCSmPDL1dfcyeBasWzMDENk5bYYwNIUUqQUqxNHZ0F07WTAhHx/Fk5ig7UQcQt6HysVpTKwMuHdNb5Bh7EV0QsCA5htczMjCKb8+7WNe2L2Go4gUBvwcWFkyZkxKuK+2IdMDyc2mcIkoaYhjXk4pcvMMyZqEd7MlycgP62uD5UpUwEHNARy75LPwd2u1MPbiUOZ76scaI3irYucMCMMmyScDxCfigxT2IHlCyoV3PMq8vzaPNj6ZbsmRjTOyNr1i1OlTlY13DE32WWLtIpW23B/QuH+a6EimsrU8IE9cOSaynMfn/izTWBa+OD04c3NRmYCyUK3YHa8EWKrWmh58eRBD2Y9UKJSaMKusATXATl7Ykh/++BPy2ocvhYejSVD5w8aYyZ2PqnKxSQxzeQUBm6La7BFTu8ccFWpILe5lKF4DC8Za23ZMn9ACpcZsQ23j0kREuEkmx9fFIZfES116IS8R6y+nWAVdhoYXrb9P5N6j6/K9zzsif3jDutbEtW6I06XWGd2VyXJHZpMdmU+2Zc1+35aZ7Mia7Mh0sivrs11Zm4rMp7syny1kY7qUtemurM12ZX26I+vzXdmI3zdmO/bM+mRb9k03ZX26JftmW7I+3ZT9E513x/ZXzYnN5bqc3zkg53cOyxNbB+Xxywfk9KUDcuryATmze1yeXJ6QnYl2XoUUyRiCUcBbpd96g7OQZ2HYtzaQ+Qjyj0mvZgMmnZq8dCz23tj3IUMN+yQzYWx3xicZnLIS9bNb/9kDcVVU2Al+8oquWDaftnCNRxLbWPpM3Ln4ZXR2TZCStQVQ+JUD7RoZbjM+M9oph060zbvwKv7AO0Tms4Yp5Op0DEPEFFogpDzxqOdArU11P/naSESkUzZOurqO5P5ZerdITwX0TpX1D8YyXIb1Zb0tzGMQ8KJR0IBxk4jFvDHTAk6eU8+Kalmrje0NS3xPVdHqvLOFEvRC5o0xgP8SD5WUjEhzTy/TvXTcMd4xnz6j38BLUcBJFcOmC++9qClmGUdEDx1N4CMxZKBdzFX/7bCUcfveOTDGir03ilYX6mxXjm6ck33zC51rNXhxzDgNo8g8IoivoODduriKjm9Gqe2184/u6LntI3Jp86AsJt45zvgnOiO28GdQwyNWsnFCs76PCm/1WrXznc0ecMPYQCwAaLPe1x27Ashqyoyd4B87AMhCTl7akb//8SfldZ+/SB6EpjlL2qjDOp09znuex2LFiNi9HnSk9bZjTzBSznvuQAwjK8khjiWIg0sYrDlwsVEkBtKdc8Xby8+fkis5q+K0ejpg6XzeMRfBicl/aLwbBQvSyK7MHdm6nl1ZzrbtlL6c7MpiokeyHVlOdmQx2xaZbMtyviXL6ZYs5puynO3Kcrojs/lCJmu7MrF/F/bv5w9O5C13rcmpY3NRJb5vbSEb84Wsz5eyPt+RjemO7J9vy8Z0S/bPNmVjtin75juyLpuyJpdlPrkis8mWrC037bOZfbZlXoOJbFm3RpUdmRp3ZTLR2iXOQG7Y4wor3/1410iXX7uyT87LTfK4PE0+c/FO+eMzN8t9jx2Vjz95i3x28Sy5PD3hnWSDt1WuqPzUq1fn3viJ7kbqr+Bn9VvlNaQIQ7bCewu9aPIZsqgTL1DKKI4l4IP2rhpUC+iwqekjS61eRjdflXfFdXrocrI0TE6ogaBTmqKGCRPC3pRPMsY96ARufLieOfDLBkKtciJyLBcCh+1LVyxlWWZva5xb/yaXjwodKpmr4yjCkV8NWFtpjy5k6dSHkq3kIsb7qNVtecoVs2Yl70qLf9L1DIvC+lSlLDbRyPh6ZB8JMLpB1RWkqRY8qarcnwA4i7ECr7W8qUsr2x5EwJldI6WyxW484Mf2PGJQvGV0/uH75GSdDkTq5nVUHiM/UzcLRIO+Usv6cOXx+lghILAuKeYGbTJjW4BR1VfUeGOyK4c2LsrRjfNxqs7mSGUyFaIWY/MzpHo63gu8vL1clzMXj8juzkZq9Qq+Y3izSnAPFQy1FmUxJblQMWZ1w6rCS8GvLU9JzRM9+6x0dvuFLfn7nzwnr3vkkq+3QBhDxbO6qZTgi+OQG2B9tBEGdk3shVmSqcO9WSFsKeAuXUEVyO3OCzjYD5OVcL5yixnCuZWNZ3/PJDZBHJX37TH0I/RnbI9c04XyDlkGZTLVogi76T9V6Pq3Km1RJT/dNqU+0X/n2/aZfb62IxP9fL4rk9mOLKHcZzsyXdtVLWMGsqwtZTLfkYk2NpkvZKm/T3dE5vrftv870/98DjUUbI5p/D1byPZsKYvprkyX+p8uZcfXprEn8eMnfFXuEZPiUjElHScSCo+sqvVp9CbMtFHKzdzXcVWGEJzuKnmnsjM5KBeXx+ThnbvlvrN3yccev00+cu5Z8uCVe+TJnSOyKQdluZylwh5tiV5evwJ+lg3QacaN6G9EVzWFvow7fNcPkPNOn2ECtXm6w+NOYdaDqMc0N5q7+WfvX6amOemu2BUxR2M6yQZ/p0AID4zIgT05q6Bo5BSxDBC+WJwFvEW0tyEuBcX09FlvlJgssh8CabUBUigQiuRMxk8DQX0R/IiZwF1zSvEs3Dy5ZjdblYi5MB6P/hGJMVjZVh6XWua5aMn183FCsaC3eBc49u3J+IQBksZExGBj79n4MoKulAV8JDoHx5Iw4SKdJ8RhYVQgAwK48FgDcqAXXT7BDbQWB6q0ttXFF3SU9rCPA5jBKiXHilwFzIGNy3LiwAW7y+ycOpHJQN4NmzJ5ETjzIQcSFYZDvGu4nEzkwtZ+OXvhoOwu19xlSSd84JINMVtKy6CloCUO+q15LfEC6CHm5CjpIX6peUxhUQFkVwwPnO8YCOCLEgc4hvWZATiltY2EDIOPzqo381mesaxXCWyGwIzHMjrCy2cHCzQr1zl2/ZSuHkM9cdvvqvj084i8m/q7U1Pi+pmfqs2Fp5/NVAnvyFL/VmVsSnfLT+9z/8+UbyjiyXxLJvGZvpc+NwW9kImOH8rex1dFrcGbqrj9e59bT/x6+nZFbc+qYldDw4wR/KtrUmxGtxyTXXo1EMYK4pJw/YZANK82FYfG2A8YsoZulJiOO/8iQCiZArGXVpEp93hAMygHIkpVx1Vu7LwXiOJgTLb6QBFBK1VxvNxsyq8A1btwcXmDfH7zNvnkuTvk/WdfIO8/82y5/8JJuTQ5YVcW6d6/8pX5AkJOpZgA131sslQ2abKlE5/TOKzjUtYCeW9dX2cdkVYbco5lucZDpFiFStkkD4INSEqiFYUPl0QruhzjtiKt/eTggh8NmdyZmoMB9ZE6a4ENFC/d6QokKby6Jj0HiMVa6lRDKDoYJuwlSGl+BAsrxhQh2jBqoCT5ZFaPx4raT+MeM4ENBu4G02ToebTeBivVGRRwXycjilJoEOuhDDSPSmspNYaNtdo6YUOGlA/vf+t+vqMQIuiK3e4WNEjEyu9g/DqtB3QLo6teg//trMd2QpF6VOAlXPrEyDrHgfVNOXHkokxnmslQnxBz2hjf9/bchpQY5YcS/aoHbSanzx+QS1f2uYu4ofyZltWIKFOXyr+LjIFqT1t0bwGQlYYFjkthA+rLVyEm+INPb7u4JT/y4AV57SNeaKoMeyYxF9LR/rHruTB13dLKbvNkpcD7EboMQbHmTvfzlI5jFx2qoC2OxZWcKnD9b1cVqqirXE/beq0VCnq2KxM7javSdFe5KV51l+vnetrGZ+uh0Ne2RdZUye+IbGy6kp/qZ6HM55sysf/0lL5lCtwUsc5tCtyNh8VE792XrsgNF1tOv4Z8vcKztl5RGvaKyER72+o4upZ09PJskLSB4YEIBez4RQA0EcOEolhCscsS45IBZUp3Zid9NyT0FG277op6uSPLqZYO19/daJpoZcyGl2s5mcnExlGAMCZ+R1oFxnA8JE5ON0BqaISqte6oerWgPR/cmMPcwIf3vfD1uAGh73hLJqfRedwt4t+8dtUbu8t1ubA4Lp/ZvEt+7/Evl7d95jly78UvkguTmyK7oet5hpyCzAY/4lqv5s9aztmhoBVMEjDXhdhYp2Bs5nNfqBsorDdqp0DyIGAB/l5eIAatjYLhAECKhMRpOd1vZqmTFGJEjevctZHAsqxPmdt7seAaCcU9S3Wvn7ad8kYtmj5yWRmxxnp6bx9eD2R+9OFF4xFAcoCbN2IIf/UmAQdDBhwMIfZoVHqg+LM/ZS6YhHLdQRM8QK1UGLZsLOW2rsBXYsIYv7Nf1cmP8WRWLu51Y/PSlQwxT50aiLmZ3txY7Z4x8a6KSk4L3be2LTcfvSxra1dM8Lled0GTBa6LF3aF52wStvkzJlNAaxrPSw2ri/PKzpo8cmaf7O6uuzBr8FKLVmpcp+yjEH+hc5PAAQwYyzNVsrgM1iJHoeMtidkUPe0SG1c7eobRQkk//CcX5Ksei0qUmpnHEaZYma154adoU4T+t51yJ9uyUGU703twPe3Cha2KWpWRKnM9PauyXch0DiUeLnI7kavSX8h0fUdEXeeqzO1z/duVu57E9XQuM1XwrsTt75jD7rSnW+m0bd4CVeRGe/Cn6b8e9WPGh/34Z/l+XL9TZQcJAUozM89Oyk6a+Bx0GsZAirZimor7dvM3QdHDmgIcTNU6Fn70OcCCz7mbiD6nY/A7+jcowNe21AyAANVDNMjQ836l9J+OqePVfMFmPNakz9TwAj+pT6oZBf6D/cB8+pk+B4ODv7cqLfQuSzn87gaHG0NK4NuxknVZyGH51PYz5a0Pv0ze9rkXyCc2nyOXlodld8lt3JGC6Ku1TIeGsocHAbyFmDrPJsxeiFpv6VfM43xwZPk6pHOcx11eg0pMb+kVQ/1iDSgLJh6In2uhFQutxXBr/Nb7TDpMNl2xXr7dggukkYLKGkGABVwcZEbDYxx8hHfsvFOkNrL9HkZXvvRMd/4wPDrWXWx68loQDOweBjvU8KzaD/ZWFMqeRJ3hP9aUTvPpGqiceXCP6zHICAA+gUfeA74uqdeT9rPKaICHCfsBY6UPHy0aZVhwmbM225Fbjm/KwY0rUNVw/DeHdtr1qgj+E6MGIfs/oHDcfcZb4aLVBK0nL23IqSc2zKPAKZ0lD+XsCQ8w9EAkn5Ui0qN+Rw7gVdg8DczTj/3Ere5ju4VVt3j8q3hQnM7CVa7vzCYLmWvwk3qh7F+PRl+bblsUuf578+Zl+c7Tl+QFFy74/XTcf9sdtil0VcLxe9yDu6L3//QZPa3bnfZ81+/I1SCwO3Q/hev7prjtczUE4kRuxkTczcep2Y059HtAeiLC1EDTERtgBiCdkk3hOa6zDyk/mw1T7CubmDr2iubFnCOeaAbRPikh2b1htq21coURAsc1B+Kmmp+VUi6DdZ1q+DNI3tpgAK6AIx02oqZ64qsSo6jXxBZAPAFjw74r83Eym2C9aszAGKA966tCWuBVDU7nzWzAwCjjfa2t2CQBw5jSZ/15DSa+vDwu928+S97x0Ivk7Y+9RD5+8RlycXm0KvqFS3ZIFV9PS58lGRRdXj3TIV+ntuRtIYjoup7nSAcSergei3WcGQh4Nl0dNYDu0G6PeKyf6zciWOUPie8qrqn56Pixhme6+m9xXVKnm/RtJPACyPuIpI+ArhbSWhEPeRJWGYA1vax6fgjma3m3Hrc24sbiqjZI/T3fIc2nvvX4lhw9eLkcjoyfWlyzQ51fGjKmTKkTMnYXc3n07Lqcu6QnKBfA/hPGhKaFyWVZ02jvyabMl7uW/2254aG4TZFPF7I2VaW+lDX9XP+e7cj6bNtTxVSpW6rYlmzM9D9NE9Oo8k1LE9Oo8lkofntG35no92EMzDQtbWH37Hr6n2s0u+zKuuzKzVtbcmB329zvGsPhLn1dp57G9Rd188d9vJ2gVemqUeAnQL/SIR43l7X5yE2ZuBs5sK9xAEWIK8WoUDCc7axdQfg9tVVLtNQwVwxxtU11HRE0ZyZnmVZmm0KpOC1hCXd2R3nqdQJ1Rixg9LkyMCAMVXJxH2/PDx+Z3I1uAFSsgBN2I3jPEBDhynY9gGsJnw8wZ3f9xD05irGF7gkSbZ2HEIBnhyhbRuDZrrI8u8DBA5792iB9ZnseScaR7mwGV2SA4dW8D5lHisBuW1eY5za+xhRF5yszTMgwQAwF5IAFi+p26LwOq655slC+1LT9Nbmwe1Tuu/A8+dXPvULe9vBL5NHF7eZZKS849V02+LoSqk8e1p9zc67WO9jxPgpZ6UlmA6ElSEHrRMO4vYlKWCGuAgIAxN2oPI0vOpcRHyVR16hj3xH61Rhjhb5nD3lASCYZt8a4Ap5+x5W82FVWz4U1pmfyjVa42jLLYtO4M6LLttx1ra+CGDKfhjp7YZyhDoD94+cgUaRbKuFbcauenyHCNfw28FoTKf9dfwc8Qf6zXCtwGfJubvUR3K09LCZXU0zNbLye6WIhNx53LwJSYfux5HO1Al0ZirRG6Laqcid47+KVdfnc6TXZ3Z7L2vKC7Jcn5MjsrNy0dlFO7L8ktx48bwGUN+47L0fXLsqh+WXZmF2RtdmWrKmCn27KxkRzwbdlQ7ZN+a9FERlzhFow2kJkoff16j1YyGThit70tuV66l14jrr3WgoqtP1dxoUL9hCAdiL0HAyUbM0nX7+eMcGv9w56dRPjmtKApDEh7K5gvbN2d3i/SWlwpvedKjiNOL1bKACMRzClyG9skAfnRavHMEr8vTw+n0Lh1Y4YAL0f19x/U0T5HZaDpcs9YDEPTwpVzXf5Bl/MN8XYpOyt+k1WeDkWIH9m6b6TucgCnoqML9TLcFwqyn0v6x9XwOXnMCjy2hyHjqccHup7pTEMHtBoYwWenP8ybaSxJnPDoxtyGNfpCFd+CFC0MZRmCA8Yx2GZ+XWWxkosp+6DmGqVUfc+6V5ZyGysr7MuUeXv1zNenVQN1HU5P7lF3v74X5KfvfeVcu/l58rW5GBTAFkMWsgwpmjWuyZLiMH6lH6uuJi7F1sYiOm2rG9gauscqWJi2NusK21Nt/3TTy5NUTIAJgd8QB4MLUNTecd0V0lV8wgNkSrcQUwam6oo8rP4nf0CRRvTNGJ+Aka8U2E0jzKCXCXGM3gJrio1sbmzXTZJJ4/SUM9qy2zqztjBkLEBXPGwo0ywuM69XWlwwEIucEJ4UQMAxk26WK7Ww7gvv8J6coEf3KehMmH3XrE7Au+KiQzEYaHAR8QajMN9YvnAUDtIKFAQyireSXn8HDnvp1YLZI0TvRoFRw/tyJ03uys9ziBx4inVFV/ZYV1xOd+/gyQdckth90HMF5uy79Ln5NblZ+SeQ4/J046ckrsPfl5u2nhEjq9dlPXJpuWC68XC1Gqgx1WB9RBQbwLS5DxYzE7sFiwwT8WQDDdaw8DN6UCOC1wTFEQQyRQz/FStmG0cLYCDupH5Rb8a81oJ/uP5+TgFurdAT5/6DZKGVWR7xLwfMjSIQZ+M4DOrvREnTlAiPgAAIABJREFUyXTHHZtmxktQGnWH9KA090LYmHaCxDUPK6iuEeKKx3xKCU85jsTLV3tWjhfkQWo3n/I9NAzrUzyomavz617p4K5o3LERAX6Vosuejoj7iO/tPbwfVxrOsTk83BUwPAKOK79AivmT0NdCNe6Sd1yxVwA8B/rAlUFwWbjB/FaVDBKbW40s/f+4/4/06RS7Ylc4ofhtAIfd6cdxY9STvHcBsMGnxoNiUfEbayRazCXGsUgvO45xvVaC0qji0enKr1kjBbUSSMBlakVuy/cEQjUKPnzhhfILD/wX8s5TL5Uzuzfb5/mnlLK1zFW8Oz9nPcbaxIPc6erBUNan7/J6W89kqZ6hM+Pl1p/xXgzGpyOkcT41u+UT5BEuFOpFntw4/FmIhSg5bHaJMWY2UOqTe+sk3zYWSiXBSPAxwpUI0cR900esmx/B/MnFHkqt3mCft7v+1liJ3aLXgQWIJNeqi1KvVVESAHsz6wC+oXkg9HMd7q6F2UJLccpOOGyRFxNaw7vZYJO+fa0/r9eclXV7nrxf7b0o8GbyFmlXxJzLpRzYtyvPvGMq0ylKLsddYs04ae+qCmdBDyWD5jnq/dMdP7g8Iy8++CF59ZF3yz3rn5Cj83Myn2xaLrmepFHZ0aUITu1KI3yHmk/H40gdChynQqRt9AmfWpFibiAmSmw7kFXJNDMPQ7C5FwGFo5KxzK46E+AtXmfuy+O5IvQxI2ab5h9y8zL+mL6T9mxQcJz0iwwCGFnAqb6WI2hstBSbxLgxSysss3w6zwGg+qIr9WyeIuBO5wAukebMyiPWk05ltVeAcclwN8ZA7EBVeKyks5oW+Vumlcr7kuilwot9Xu9PrCH189A9RwwIxuW9Y4VJ49teeGpmVoruLSt/+s7xSZIbXavP7nObz5B///Bfkl9+8BXy2e2nye7Eg46hH4wr9nCQZV2B92rdM47Pu0/BwAVsk1t/5sFlquSXkn5h1eNk6hXd+AdsnUWIf8KBOjAfQgSm1+2+xpw7jnS9T9N3rbJUIMsaRtgW6d2Uz++lQ3IXL1a+ZkmFHV7CEdZ+RMB7+hMLtMysCFnCSFDQOAW6lZ0tb16ffmqkhdTFWG3p+M4KKhNHdN7SO0XOxSU4UZBJHVloyOFzpRod5s428ZAILc4uUcEwFWZJrtls3iHSvjQ+kTGgMCv+Ia5L16iSjNNAxilOTalKpH0d3Q3Dzajr945sJXOw0ZXuCm1fU89Bp7HEYP4Uzn85TdKvHlz4OvtkL4Uzt3/v+5nqdtjpyzcPN/7wCK1Nd+SLnz6Xdc1RH0g5ajFnnVbJzyT1TZkMc9mWGyYPyWuP/7a8+vC75MT00zIX9RRUjHi1kuApea974r7qafrcj3sesBadtWDX06KeTmsFsHqidMpc/Wi2FJPrbsVLe17/kIq4VvVxHfe1tewUP/KFTNtjNrn9jNZIOL+8WX7r8VfKT37stXLf5efKcqIlp9H/BkaketAQi4HPuKFbyCWrUpoFIOI7LIw0dELZCA7GSIavE45C8jRJWh3r5D/1SoqqtD28R08LCPPpnhjM7RHGrU8XBR/CEwNxrU+Zgk+CFCUqMxGUSstFsol6COioBBqfuiAPx5SOrf95LGt0GQRsDlakTPp4qjehBAqFUJgVruZ41Yjd9RTFbIGimh/qaOtLaNCBch5ckdEtfy4kFThGilhM6pscBprBHcqNeceAVIWb2/WoErec2kJVw33oDZKMIGNMxG0jfz6VBg4agkiAbe2eLrjcHRgj0tgsv8vyRbAxqZ9btS4qSZv3AfBDSCePfWo+5CmDoFB0k/RObkn1U/0Oh9spK1X9TPTgdI7/xa2rnbfT1oIhAYvSLUyQXXnW3TM5cjDuHCPuodiaqq4BDIlOphBlyeAVd5kuZN/kktwzv0/ecMNb5cv2v082Fmdz1c6kYOAlwIYFFMz5fC9shXwAacXXcXfrdlSczAyB+J3vxSpCNNRECVsyvMNrnLmpUIwDiiDBglMbnd6wHnsm3Q01pDIXog/Fj3Hd6idJGUccC7CjH415MJwpceBEadZs3JN7h0n0qygGraWvoVtPODEmpmk6ZFq4idrwGJdhLfAFT09rn+Oz2kBJyjlZzJnb3McdIt27a9J9Q/b62PJAA/V20HowV9RYSPEI6QRGhgjwbmIFBZdiL5McxrwRGwHaBQi2b2z4dY3DREegY3izivgUkHFInF4+ivlQ8tnGiDToyUQ2l0fld8/+RfmJj71BPnTphbIQNRJy/wYcTAG+8pCxIdGJHRK5xo9eh1i8EFcGhS4vGw8aSkOeRtKm7zWJDkT42EWI6pjb/m/vxQDxXpBW7NcAO6fCJ1Ak/KwHx5XEyluEDlIlSVEONi0aAII2uNxuOoHVjlUoFxTUqGiX7WLoh4a0YWniYNRw0RN9tnaNHz8RZ3OkIF2NETCNhdjX7NvwfeqeI6Eu4EwrZFAYIXSTk+RZUrJOD+4orGRoe00lxtJd+xCxDCC3D28gahPjIGR4IQKDnqZZ5honqkOXss7cuCtu39qZEQPfQ7KWFnLXyaXcdsIzhRnmPvj7ltxKLdbSs4cnp+RlB94rrzn8Dnna/BOysbhY1lRNGxsU0+vJQDoeky8EXJ9LWRmW+veGa75YA1z2pqDh1k2ng+zatu8zfbfHaGDHlgWC5e8xnwZTYuzgqpZ7tsBLC5ZwwZeApYZbSSDycaHvKoClbGvDw/Dzk4ouryfdccgrVaWtpWlMIHoMhf+QvK3xkvYOb9c0glbbhfQIS5meTeP6YTJxEPYuDV8LA/obtBFwp/i2Ysv7hEkFd4smaxgYF/AqGryRwZA3nBmmS8OJBoJO09OBBwueBH+RVI9MiStyVH7/iRfJP/n418vvP/kC2ZFDUWAK460WoEnf2S/wUaM2C/tyy9+NOhoxcF51hTOkfNlGqreGgQBWrsHj+96a9svgtC5nGHqIfijhKG0Hz1dGkUdsQkuGVPEDjjAe3TdmFXwFLV5VYGJLGuTPunfqrFTz7xweZzDXZZhHZHkMQ+L4KUP3WruxapQV6yXxxE8mgkYmSs9zndHzMTS+IlM6XGKdw1oRF1E+3wc9H/rzM4i0zqpfPTY3HVvIM5+2z7rC4T6YZ0mZMUmQtBU5rhysMIl5WTbl9un98l8efau8eN975fjyUetoV9bqZ+iIzpIwXE3EXtzJkZfhhnAjP2NTYI6gD5JA5dGght1M0e4sY9zN46z5EcC2Hhk5+Bg4uwTdpOPYkOTdsu1Jir4u2ZWvOYvhx15JDD3X+11jJ8fOV+NgBH100ZZptvld37XNShhZOa3mnWF8YyzmpRJaD65Urt4v911+vvzIR79R3nPmJbIjByMPqDgmXiX9dl8bjtkLF0IzBmIpk9t/6v7l7nQi2oMD4GXW9RMl95336TnWgK0SH8G6Glq6G7xSbo5oN8jt+Bc2Vqc8cABal39UtKvLPpWUTPe1ufzIkDqw/uFB5/idy4rUKWk4WeMUqe+4XC1MGvuMQ2AMO0FrdSkPHUNxUN525hRQJDLZGFxS2cb02mw1q+pzimfcOXkwo+9lfU7RCl5u8E9lniLJPczJXUsZFuwjkxtwgnt+rbjnGRGlUNW5IcZSGg1lJ3jMcN4tNNdS/HgTF21o5WN4Iy5fNYeUIY+A4axLuViR2MA5YFcc4rm0bqKNVE6GejMYzS68wdHGvh15wXMOylwL8wz8sAHQul7A1YNe7cyXF+VL1t4v//WxX5V7ph+QdataFydDmwPu7/bJM5dtRSleANYncIxD6ZIOnIBjAr7TcVoKCtyL93DZ55HeOfeJK/qxC585AycuXS/y0PE7w8UXQlz0J1HlHgRqzbFYI4L88uVlHpSlhcvAkAjVvC6pyh9wNtZae3CQtpn3V71JuaYdj8aw6n75XKvjKFwiuOcyOjwWinUqy4X2a8hj5r0HXehctVTDWkFTY/YD0knfBR5Z+oHmsU8tegNMgBe4S5fCrqcsk0ff57kYny6NvAspeC5FlEWsETIosLZ6LqZTllL4PEpIJzgUsnX50KWXyg/80V+RD5x/kUzFAxdZDzGH8qgdHYCKFZF5BUyq3NIfXVbaHZKHXkm2qzV5hyd3/vQDSyhjxAwY6hvNhJJqxCmXlKWJcWrKlIyMKj+90wCKSjAbqHGcS/NTc4lUx5puv3DitliIOCWbC56aMoEcuN61KjerRQ0XV6zZ1kHrQ5lkJ41ohhTd8FKgGveZoHnRbyEpVFKcKd6YGlY14wACFoUL+4SgCl4j9sb+NaVKruKq/XCdCcEEV6w99gNsg/XCGPGvI7CUHGs1oWPMZIDGKd9wT5ZrUmcUUwDY1HDQ8vcbmqu8nMjWZCGbYU1YrAe3Lq1oCGzg1ycRn4Dy2qm3hwsjNpItbgPrC2/GdLojX/bcg3JgP0eP70E3pUe1C+m2nJg+LC9df5e8+tDb5ebJpzU5asRgbcbuf5Gf3+u7faOOHMesZSj3EUvrfWTkfFc9RT3+n/Z8fYDXZi8/d60wDr3fZwBdIz0Ur+8V/hyf5roi/c8edr3mhVVjrIJxzPc8B9awlO3JIXn34y+XH/nIN8gnLj1PdqOcNPSviXLE5FHpeytuVKt2kpluMHYb9LEXWd83HQQZTDov6+iJmIEAm1f7DEBg49yG5dfCG5+b4lQ36dStPAa8tk30WRgOPB4bA2jqpErQnm24PpKipBuMdM5sdKsCXOlOWe1Jc+1GBgEpOjYQWNFhfHxfK1lsCuOvploYDLB9h1itJtvaOOM11QqZ18Bw1/O5MdG9i+feBfU8GIOD71YVBOpbZ4fIg+iTQo86Gwd2J3L3lX1y9/Z+ObY7t+ZSl6YLeWy+JQ9sXJZT69uyHW1vLbOjsooL3Bli/Yn0OVnuBZ3D8Ev1OvSlXXn+c/bLDcfCoIgX+rIawOx1Ke0NuSDPnN8rr9z3dnnB2u/JgcnZCOsFh8T9bpHKlrDftPwznms39B4NBFPqYWTGoMgiyXO0FCpOeozZ8pox+5aYCyqfmkkkPfkx9RYhpWRqM3Xh+biTTyfk5K/sVSR+goSPjqWbvsKRPR5ImuMrQMVY8yqFQXuIhkjpzpr3vr7uSRtBh76aimvPCObquZawr/u+M8lemf0cc4LvsHf8bLX//ViPeBP3apYlnvklgsVqKHBkNyox9s25ihfq/cXfJhxJo7XwhDWXvFIut0UPDqv1W5Gj8punXiX/8EOvl09vPduLVtEPotBYVrMMhh4a0ktYSdLpZEzg4IlePiYeaX43EHqq0KWXRlSpQ48DQ1ko3j66yAUuEPDX3VwI1jEV8ni+em62xvoaDPXSLyOq0buh2Eh4DvgkG8rIsgv4JNqYsHBJV+/1NdyoXdf1sLwnLUW1ap9WfT+Et+JEDwOM23UP0BSqoKmD4Iatubzi0lF5zqVDcmR7Kmvh/dOA8CvTpTy2sSPvPnhW7j1wUXairkmhMmBtgykCllbviyROybvA7aT9+4U86551ufPkRkqRpMxRctrVwtvljdr++5dn5cXr75ZXH/h1uWPycVmXC711+n2UwpSphHaxWvsjv8NGxhgqr8VDyZcsYJxeuaM8vxvv2T+5eZVD0DJZ+egAOElMmULO8Qo4CXVrZ2LluVSydxz04jelSYi7QL/vd4gxJ2r9Y/0sMiFus0Ls7lEX1y1vH+PCx2BHciheO7SpwZNrxbR2kvpddtdpQZ+qWOurDRjTiOAq11lirIuDnFZe71ltLGUvCJ9sfXwed8C4Krai1heNvQ2QOjASLWU8AoZ6vyu+M4Ouxr5+wFcMY/gsH5N1hsuTI/JvPvcG+YmPfrWcXtyREqyhN4b0loHT0E2FN7qStfk6usMRiQtS8S+NQehTojXaOqjp6cjHRNAm5uoUN6QsVijmoe3oMxxWKVYeMyF6hJE0hjRWPbNqvlb0O0TWqrH3+v2QgdD6ro9N94JvhvGGram86twN8pILh2TfNqIWSiGiMQ6P7d+R3zhyWu49eEl2ujJw9LJX0ntUk7vztpk8+xkHZZryOVHrvpHuHpk0avTM5YrcMvmUvGLfb8pLNt4pR5cPyyxSVcGq7P1onYlaqqqhmlPRJK7K2IeIoXW3vusXx9HbwBRShhSpgKvWw+IZu9wV2S5cx4h0P+nTsxEcxPD3ryXrgr6zaS8Mca3i1RbJLOKguSqAroYDTmSEFtf48FE1k8bvw/tgBG1YwajARRrLYFBjSBOR/SePg3v4btxLfrZ9/dEdK56LNWP+PtoCHL3ypFpv67kxdJuNsiw0VvEC8Ahe6tgLPXvhc+nK/aI64TmQcWpxh7zxvv9W/r9Pv0YuyJHEqkWXxtGSbG8P9slyu15XAyEtttEOuWZanppPvUMgtexC2N8tN/Peljfu6VXCf8wofYQ4xJxMSEPPDdjOg6D1WZCtl4aE4dXOv9d5hmDIim5i6dcvPXdIvurJ43J0a1bUVqjxuDsT+eTBK/Ifjp6SR/bnvu5j9nTMM4wbvcK48fhEXvCcI7K2Vp5/WmP5uwvZt3xSvnj+R/Ll678hz5p9QA4sz+THSXHxGDxv82yD90jwZoXgOfpZEHHOfglp395bxkP0I7Bxoh6Ex/iUUd9N/mpE+g8J8xp/ZZ2BMTsVLbh7otpzJcVQhBXea3w3hX/UQTBnPmoiVG7Zmj4L3ABvAwYClEnLWGzB1IeZsXKpD+91xktNg515Ax9D8AB+XkcBJ+GlppXasGBDYhx1VIbUQCZKjWeDccDA7KMVY5ugR1wXZJ2QTYaFzOXeCy+QH/3IN8i7z75cdotg0LGru7rnBo1kNhAS4A3KSqlgjZLMXOpgDFH2LUPHQenfJOj4Ko7mXqVoeC10mElTp4p9K6xvVvCosZK8fbFYhjkpuQoRLRjGbmdTqNL4PPZYvAztgR0AgfeBEtzGFFEO2mvIhxs96inUc3i1y8ykvThZTuTAjsg3nbpFvvjiPplZvRovBILCSbVCOr+xkLcffVzee+wCBatmz+y10GWxpxORI4em8qLnHZGDB7giRV4Ze4Onyx25QR6Sl6y9U1689k65RR6QteXlInXca8cHXsZU2nNple9igXuWmIFclI3O/LQHTCRhzQQxQLUM1xBxj7RGM3YHYOZA1zq1tArW6iq0Mkg24SgFX/e59YEPILwauRYQBVxBuYnB8rtjDjGJTmx/4xqimaKWeQ3puBwQ3OFNhIokYzOc8/VamIORveSnFErs6O5XFY/cTx210i5oBbEH3dcT7gBvA7/N/WfeqR8oLCKdwbFv1zk2fuxGgQcaJK0lIbecoVjrRDblkLzjsVfJD/zhN8oji6dFfwyijxWs26fnstLzQHfbrR6a6dDFnT+ZPQhjFda1PmdkjewFQ8Ne7OJrnb39vqLNC0ZkWCojf3BiLxtcrmMv7+vgrTHGrtaTojyj4Bq87L3TIWV1DDytZ3OGSd8IWcGqjrzpyly+49GTcuMmeqjnVeWULse37pveq73/2Dn51RNnZFHXBR8DdC3jGyFa5guYLGXfvom8+HlH5cbjHtTGxqbBE3plvtyUO+Re+cr1N8tzZ++SAwv3GlgTGBMyZXCep2P180Iu7csJUM7wHmTnOPKASa/86caHprfVqXckePoK9+wZbwxXfjk31xlYXwg/d+FmSbgKJzlp1TnItVQZ6AVce2OdjIf67+5yo5ETfVG+35rLZVsZYd+GC82x3NgD5+q/tVvfEnYtZQ8/7g0JWukhGdCE042+GW2KYaMY/ZVaR+llOuWGWiWdMJ15DUBPE6xpkHHpOOvisk8Sp0ZSTbpEVUWPLenwEOOuiRfuK9JOO/UxcRXgzcDyPF0t7Q2gomlYg1Z6aRhxIWQonJdb5Kf/+Gvln33y9XJZjlAxvT0Y9gxDJVHG6BiXHr6rkzt/EpUU3VQrrdic1YzeZYXyMQM8C2knEv/M7Nso68snAczAlRALOqc6ATBMeZ/ZqFOeQniIq4kcDGiC2MVxBI4V5qDBCSPQYfV3ATPfQGJNTjR0Asg2vJXjNcTG+vVf65tQcUHGby4HC3lilQzjBbNXqRJkEh90qOHS0Wxopzmp2RPKdZLoDcjKAkpsDDPGuuOXK2Ncu7SI4WFkw+AmguURyCyT6WIid1yay7c/dlIObXUzDlJMAwMlIh85ekn+9YlTcmXubr08JmgUHg8HsMQJdnYpCxWSlXBJ+yoLWZsv5IVfclxuP7kRFObjwQM2lV05JI/LcybvlZfN3iZ3TT5qgYhF/UvDCzZ7ZKe0gpayQbVnPf4F9UKso1hOBHF1lnj91tzNyqiJ9gsESUwnT/FByjgmZHZr9XX116cUQ9dvq59SMK/v4C57PrX9Avk7f/CN8t6zL5Fd2UiBzy7ucgHBsrBg6NuQs5bpZ94RFHwrIYV4c73nms31t9d7sU6k+vodb8ylljFEK6gsRTXGiS0p4NBiLUVYK5g0Pjwu+JfKiLbsJETjuzSmuv4UOAh64kQfNnYKeR/3JTV8dla1U5dDyjSK32tjJc1ryt1f9I3J5WI5zoLX0mcT5jFDpfA6Kce/jsTn9TKuvd6Dn2yLjIiE/85BIhBAJW8Z7yCkrh3Q4RfOWPHtiz4T9GS5N0szEO66uCbf9uitcnArTNJ6MxvE9bFjl+Vfn3hMLmvNEVS1jbOAi/8S4+pxaTdxzcB1p9WU3qV8ybOOyLOeroGK/KzWNtiUW+V+efHsN+W503fJ8eVDMl9up/v7TFlMFbX5Ve+kmYsxEUe6s1LDGGM4kdP2kunZMN2G4KpS/zrd9WoJ3+JGnpt/B/fVOKpTzWqur9/T7xExTimEibvrrIEWzGPgGlpb6SXqSpW+te4FX1hnS8IyjYR7K+SoW/H1HvfRRktaMYwtegBz1KmggBP72bfWenzgsu89FgrVum3Kmn7qteIZwAf81HjtiLn4oAVXnyapx4Q3xOsj/LuHvlr+0UffII9saVZDKO+i1mYJQ6GfTMTmXj+GiWr7WE8Wiq6Sy5O73vhgehXKAx4Pd1l78o0JUytw4yP4Ccs/S5GWRYqfH9FR3Kg4fYdghvNYR0I1vZQORJdWfXn2Ltz9WsDdupHeVO1f7d62ypCpmRMTA60nxuWGSzZOvIcKhu4MzLjxQjzemKp+F1cQbt25wgby0egpPRMw+hWZG0U5dSWf+rE2TzjzH1TIsjv/8OaUKMlpXcA7OjoqXLhmgTsKzzCpY218zWZrsG5k6tQu1L5X4wx4GI/Ye+BB16DGzJ0X1+Wvff4WObid3ebFvRkV9sDnHzt6SX7lptNyYd1pwuCO1stoneseou6llosCf8/x52yJv3k9+tw9dx+QFz33qMznvvfaFGZtuSlfJO+TL5++We5Zvk825NJ16r7YMv36hNTePnf1UAvOvY3x50//WWNgD/tXBCz1HVGu13pqg+t6jftUj7MHfD4loEzkM5v3yA998JvkbY99hTV1MvkEr3S4mlGl1i+bsrxFcSX27puZG4dEN3lDPoZ1wHrIf3cdM7njn3g3R/5ha6S2Te1VCmDW31V4Qqia6KUjeG251KKusGR6kD0mH9/Hdf97X9Gaa9nLIVIv7N+BtEweY2V9bALWDIMoHIWPGedFzQEy4vg+G3s2Bpd7wRPvP8fXsXJlwwJjI2ARRJ4+t/LKIndcXJdve/gWOaD1Qokg83mHTz5uaN179LIZCBfXnaTZSCvvPPaywtazS7n9ljX58pfcIuvryng7clQekecu3ykvnvya3Ly833or4CbPmBcbUDNPEZS4ougLj2FIjQs2jooEuPYZTlzcLtubuabHoo12XqXe8WrXQRUzmkansLfyv3twmBwZHACI03vfO3UdfNrbwUAenPD4pJqFezZ+MC+f5vM7ucJccYFa7Vn2ZrSvJ/poqvIgpPWw5APM1fzJQ4f0UT+gpLoIRgOoddE6hZcw+X56PArSI/MTNS79aNh5rqZfwGAD1WPQ/EVA3sBzQ+MUc8fa/TLbZX+LD5rsy7RJsKTxa2+TH5F9hcE/Q1GXhRGG/c8qeFj6+NybclB+7aGvkL/7wW+Wxxe3usvf4on8AAZs81irau205nXx4yX2m9+3DIQx4rNsKlQKa8i8VlRlE4geD/cYOPBMbXjsxXYtFHd1/TEGhlVz9X1vMOMkXE1Uv7NqjjFwjn3mz3IuC6lbLN1AeOjmZCCgeB07EWvL9t7jV+Tf3nRKLm+Ujtyx6x77nOLn2GGRV7/idjl24LLcsbxXXrh8q3yx/I4c3j2VvAbXemc7/n3GCkRHi+FLPi2VQ1fBLCcLmXDL6FEI6ptjxMtDneFGvN5+BPEMQx3PVsHMlMbHpz6gVo03djHusVXFkK8ChkovrxrX4dJ99Su4rkHCI+zNEHqqcUHjT7SXBOBnXA/Td3/cSTagW6tI711H+lyFW1XYD20/XX7gD75e3nHqlR6L0NbhBvKYg/Yq6ijlgf6lpZb/cdeD0B4omAR3yOa69c/S+SB6MbQisV0ZluTHYYQahQ5rpvV+5yBRZ9WMzMRqra2spFYF7XVeqIVxP9rrDWXDKYXeGaHnwBNDEwIRQ6Z5UD49Y/KiXwixsd57AKtSRjvRlGlZA8KOLIk85wjhWKVRpuA+W6f3x1AD4b/73E1ycMtLxgwxgH03ETED4ebTcmXdXW5oNZ6yDNLptusFs5ljax1nlFPZ2OL967vyX73ykLzi+LvlBYtfl9sXH5UNOZ+DfC3IJ7IIAgCbvkpjTPUEEm+wFMgBQwChwC7GtVoF+RIvUWjMj3eTmmmlUmoOO8GHHHiGt0jHxLNEYKhbsLJ+QRBLBx9UV8DXECdrYqQCf4A5LbA0GXOd+WovjH2Sz9Hf7kkvrdfC7yX4aT0JlL501UGPCJouEd1AIBiNI7I6QOZ1EPHWhrMtj5jAxUmsn2mUxsM7fXvJnyd6q9aW6igQ/+TMGl+P64V2J0V+n98LYg8neL72Lg6JtD6bPmiFWTnCuli4AAAgAElEQVTVJ6gEdc2jwFVhJu6BXpKYjPX24cXADLmhc25ND8pvPPJK+dvv+8vy5PLmTtoj8zXLh1pcFc4bR0aOawik6T8gL+eHeOquf/zAstUWue0CzwN7KhtJXPID12luvP/1XGHTNkICG1K5UFq12ItVJV7PnR9r98mYNtCrrgBa3696p1xReU4fGq/+rneeaIKEArg+35DCzt+tMo4zP7TdUXtbe//eKkR6xXDnhXX51s+ekINoSVYxsf5p0JMev+/4pvy7W0+ZgXC9fnxdmbaA0xumj8j//Bc/JK+/6Vfk6OIRu2Tz/gEN8cwKETtSuNmiI18A7WlTOk41HhipcGGWRohdDZCQSX/bEvw7CP8kVGKu7udUXGmFYuvDt8+nKWADx5+k6CPqpaG0XEH4LIjO9g/iFNzAe22weFphROo08NQRrNTwhr9LlWIHFFvHsCL4HCfuCWjSS0xWPIfmayFzU2RYhStnecJ1yyCtDNVeI2hACVoVx6DTXDCvXYyrZWSsNCKrzSgMkmTcJYKwA5NFECVj3K8dmOx4/6PTTy5i1OCLAoTCCPS1Z/4pja0iTbdI51otlep1PrZ8tvzN3/16+d3HXy67k7WkJ1fJ2648r/WAHio8dq/W10V2xN0/cf8SLZT539ZSkscADXHoHobvMooJUH/f6Ja8DnXwXATuJaT33YmEEuxTqKCIphUN5oLVFBIHBsQQ0lcpcOfLHH9h6j/WywYKxuFmR87U5b2Yb3AQXqw5C6aywAsKoWBOHmuYkIho4tdWmWw+gZeeAqhLkzgQa86YAbPrpf47LnwP/Omz6jG54+KGfOtn3IPQ2ssWfd53w6b8ym2n5cqa39OleftspIF7xAyzv8xr0ODDr7n9ffI3X/QWuX3t/hDIbOrmW21bFxQ/hQv3mm3sbcgiKFn82cwvPQ1FvEliohSWk/YG6Uz+NmCGpwLyp0eZJ8+Vq+nC+GTjwzc1rRppvHnPirNYY5UVdgwcb1GMn9ZveUVEHQGzz5hhzv4DKJnIrw/YOQPVo605biP7Piu3aIFVj4fi8LHyHJRDhfNqbOUNz0+X3indLR0CykNH5s7cgNvRkK9bbPWE7s7Op2NlnPLT1oXf04UO0ZLPWo9THiXLY2GxqTFW5iCfUJW/GZr2e969Dl6If7CwApZ67R1YYYgiRbAxCuGks5LakA3fL1NMyQfMR12psD05KP/qU6+TH/3wG+T88oak1It1x2ttmduVX63n8Jn9m5hsIpO7fsJ7MYz5idj7Tvrf8LvdNiJJ4UCERB/rjipoSdFeyRqEmRRrLYSywDISQxmCqnpj31rytL6hTPDMECvA60VV671sJJSw14PAMEkqulsgDphueBS8myMyK1oAsrECgcgW6tg11wYTDE7MCX2tHoTbL2zIt3zmRktzdCHmi6rVIsN73w1X5FdvOyNXIkixFt4tL0mdJRzsRGq9xIjCfM+BB+X7Xvxm+cqb3idz2YwIYn2zjn5ucVYwYJw+6xXl+RNWQkCy0GVjjCV8/XlLYTBMOXjQ3L0kCUoBzePg9/rSJ1NBplYEDQPGnObqWiSqYzZW6KvlNEfORaK5Clrv4/lV0g3KL3CTlst8B3iS9KxopBb0PGfjO1s7gg/rKPS891yZpqSNUgJ16aakn0w9NbcyzkpJ1qZFx1GtwLOV0ZD3vtm9PFXChquynv3mWjQJEsYf06Hjt5y75pEWbWAMwAzeLi566cU8Ju/KeL3qBqifscr90L8+fOEl8rff9w1y7/nnDMSN4BCzitbr77v4yHJyIpOn/V/qQfCXWGkmNqCkBDIU0yytd2yZdK1kaA5c8+dDUZccbY9USevsGCfDMdvMcKzykHpqXlknwN/PhM0et+zt9e+7J/6aKUohoc/zGk1JxzhWt6ABC28tw5VPuO2rVMMf4kWIamsPItaUVEB0QmRYeN21gk8iiegJOMyu+haBRnR2uI81E+bkhTX5q59WAyEEEhXl8gArdxIynd574xV5821n5coaHIjwXGSDELhq4bLHoxoeW1egU9mS73jGf5Tvef5vyPHJo/murl5W4vMe82lIerhF1DiH9TD/kF1Qy+VaV/XptVpJpqpdlVyMdeaAyqD7en21HmouRbMl6roB8SBJ3oSZVUKgb62JaAr3TssZEFRGabE8Z2v+Pnzzegk3KV+9gw82TgZIoYXXveIFaKhCAWxPrZNkRYvFGqlqJMHSDMKrcTMGJ33vrNC+BnFtLyYB1bAZqiXCeAvNSIKmYs1VNmkLfqZLsHoi8zLLSD9+fHGz/IMP/Tfyb/7kVRasyDK1+7vzn+oyZBaWpFXqM7+uQ9FuXwzwZinyaiD0iJ34OBRg0RQ1h/Wt6tw4PHb+Np0uOxZieTUxdryOvG7HwVztcL3vXW3nwkS7PfeefZtcfE5XHGMXtpeOl86Tee/HzuFvNeVvGsLoaDr1mILlRE5enMtf/dQJNxDs5ZqreEw/lX/8hivyltvPyqX1HiVTAYxc4P51lFJjKgu5e/3j8mOv/hV5/pGPyFQLIPWuLCQY/Osr9T1hKFlhxIIsSEYJWn1IrfvABQvU8vCZi3oVQhflY7vY6Syl0mV7oQuXdnhD0yt7SkJ3jmaoy59PMAVcjKO+tXeUDJUuZT1g983jaCoTdM/BtSOYSPkbHkDvgRSDkQv6JEnhv8SiXSFSdHOBV7oOqOkowbMiyru5xwgiHaDTFjGMpRdbFPVgSVX+9PMVewJcAkGGx2TNRkBuZSA2CbdM2y8eqdeRAoVhNDWMiSHDpkPjvvfby33yy59+jfzYh79Ozu7cGGmuw2p7LymP0XWDKIHC9p/+Ew8urRDRIK7YJM13FKXIzitv362FddK5nfKJfT/xTA0NHgiZ12NQw/Lx3PrufAxXsbe56jHtfymFV9G0O0PzU2xWDfEIc7m9EwZC3v78m+ekl4vnK8KVOigAwQVJVvjZlVvIUrhvGwMPpQGzKcB44/yQPKTPmPcGBsJMvuWBE3JAKykSoaX7bCJJyIKP33hF/v3JM7LpRvbgD2hFZSpTdN71csd1b/fLk/I/Pu/X5Due/dtyUE4HMQ5YnoXL3u9PWw1z/BQZNG8AVCfpFLw+sCFNIhtpFcP4GhJe1fhjaW3VPqRGQh3chHFDVVZNUZqHAcaXvdSTgXC1EOb33OnmV3BP/Q80Pdd0aNwVWizEbifmx5nIcZHjmwI/hfu0Dy+r8EXfo0HbnvCyavwVGLZ1U00BmtuzVRq3/LxuKjvf4cNVNQ2Y5moLIYwYV2LRY6Uo837tlLOQmXzgiefJ9/3eN8v9l59JtSlKI6HUb1n/FU9VJMW70tHb+uzTfvzB5K0Gort15rLYRGlaq98chlIuWArLA90XqhtW4jOrDEinLy/5gqqInvLYdy3glevKE2nZ0qcl5iMaPYIhPYbY77dT9caOeQjl5V+wmVQfSvR7VDP0m10v28xvqYWPW19UO0w1/+PRpLhS+mgolsKw8usI/cFeWQxBpJkyQej3tXjr4tWD+nQMrxgY+6gDTXN1SlaZuCFkvDD6vMZltmdg8tnOxP9k0yB6d8Q9uAUpXpjJNz14oxzcjKI9HOwV21uLnPtuvCxvufMJ2YwsBg4EVbxT+E2usGjw+MrQB0PXr94Cx5NPNpUdef7Re+UffOVb5OnrHw3KcYHVajdWmheZxobFBTBWF+zpczHnQkjte9ZrF05XNwLWgbc54lsba2mhnpqf9JkvhLZtgJmb+lwdFujkkxdr9LKw/3McOG5wRdMtYDQw9zXq3L2u6uq8xS6pdJ38vvFi1ZjLZKNl4DgtdH2OzlWsz8sYorGGHPMZ02qrLsRekcxxM0Pw9PNI3pcsRR7bvl2+7/f+irzz9EtlImtJP0KPujyGszVnKGQ9qmnfOfPQq+Nmkwup4laQKQCw/brnx3Op5TEEg03mEsupBHBEQMK9gYmgvIbQtVArbaHEEdGjhpuxG54hB1yZGPMGJyUa9/GAu153X2nnPvzoDEYWqRwyZ+67gtGcfC06A6XVN3cHlgZenEFyWegx+zb0DPdnGAvX3ufM5oIHxLkAMP3rdVus4ZXFCGizpotz+cv3e5BiP96zT0IFzh+f2JT/cOfZZCD0w5hNqF3Zit1b80AhM+w84MeiyZWNlks5MHlSvvtL3y7f9cX/UdaX59PQmYWzUeoC339GU3D5egl67TreO/Kv6Y3eXPiG0VyLU+1AqLu02NmQ5dZtsnv+Nrl4/pBcubAmu1eWMl2byPrBXTl4+IKsHT0t042HZDq/IFMr/gHl4uDvVVRf06Krl/ealucAY/fVTT6R5WJDdq6clJ3zt8il84dl8+JMdrcmMp1PZOPAjhw4clHWDp+W2f6HZDq7IJOpm7W+9tzyzv6GIGdXWF8QzfVERKJqPoboh/0uf39SL7qnstjdJ4vN22T7/C1y+dwRuXxxJsstkclcZO3wUg4dPC9rR07JdN/DRgcTLdY1dFq87mu72gGHGPj/Z+89wO06jjPB/4YX8BJyzpEIzBkkRTCJFClKliVL9FiyHMbrsbRre+y1d2ck2wpjOWj8eT99Y8/aO7M7u7bHYWxlURRzTmIQA0gCIEBkkACBh4eX071nv+6q6q7u0+fe+0BK8n47zxbx3r3ndKiurvq7UjdvM3egiGTHCObiL16+CX+563bUSl3Kf5WXMCRf4z5pfeTwSodsOuU3kvmltcaCwG3lNndCyMVK1i69lH6U3CCZHJcd1gMo2uRhUMuMxauLdNfmwLywykfCNxPmqZEUz4HgLZEjb2Og29JCk2WjmdJ3cSRuyyqnOVe+gyc0DeT3xgLcZ36EZ0dPK7lZzAGE1+dZF0OYNCiD9pSTlk0MwnfWnMEEZzGkx+N3jvltZPokRiePoq3SiUqlFx3lHlRKnSiXqvbUIwWt1nfvx+ev/Ba2z33Su5KcTOBfnHlEEza1q7Qw0eljbCK2QJnNc6kIYjuFSCAl5VPiw+CjmEfzqWzhKU7mKWl/SgrFXWVtmB6fjYG35uHtvWtxdOciHNvdjYHDszB2pge1yS7Up8ooVQ1IGEdnzzB6l45i2YYxLD+3H4vPOYi5K95Ee88QSuVxldEQ0YUiVhsHuDilpmGGfi9uIKaDztjQa63WWStqcXvUDQ36cObNhTjx+locMzTYMwv9R2Zh9Ew36hOzkNWqFgiU2ybQ2TeMviUjWLZxHMvOPYXFmw5g3qrjaO86A1gaxIo44iOGEl6Ha8letNnjZ4p4M2I5zesu7D2nlZBlbaiP9+H0sUU48foavPnyYhzd04HTx7oxNmD4oBOYrgCVOsrtE+joHcbsZYYPDA1OYsmmA5iz4jjaewZQKhkwLz9yUo/2lxtXfiyNxV0rtNS8pyR3DNLcnhVzB4+x5SGpNeFhTWEWHnjzYvzGo5/AeGkeW4v9jGKtEB6QtT6isTQDJNJyac2fUiVFIU/8b1rVzVyzFIGQWEE3VjK+30bPaYXlJtpgyHrd4nEWAYSYLvE8WqVQEUCIeenHBQtS6i3IvlAnu2ZrkqKZXlHJb65kJSwfruCje+ahxwAEFkBm31l7gvgTbdoj+aJM36/Nn8C31xgXA1GvGS+ZdkdrJzAyuQ91mIDDNlRKHaiUu9BW6UN7uRdtBiyggkvnvYLfv/Jr2NS1h1uOuMZ21qxHzRX6WQV2cml7ua0fndsbcVqx5hQrVP7t1ByKxEl6p2VT83F8z2q89uBa7H1iLU4fWIDx03OAqVlspVGcwC4ckql1lCqTaJs9gL5lA1h5yQFsvXEfVl14GNWuY/Y0ST8p2jWjg3xfJB305ylpGK9dLDV1bEQF9en5OLl3BXbetwb7n1yPU/vnY2JgHrLJWW79CpN2qxNo7xvA7BWnsPyiwzj35j1Ycd4RVLvfAjK+H8OxBQt8PpzpkA1/WOL9wLT27vsYIIY7lJSMqjoZuUzTTlfpq4L65HyceH0FXr1/LQ48bWiwABP9c4GpTj69JqRaOUNWNv0aPjiNuSv7LR+ce8teLN18DNVZJnNoigscJWLV7DJ5Kd44VkqvaQogxDwT8l7KSp2XOtJuY3QQjjMP3OsoY9/YZnz8zp/D29nKnG2ySD80k8kpeBhQRQBCqwrtvz/XGgXiS5GMxTS+mKi1lv7/91S1Dpvm+NE9c9E9oVhf/WoY37qy7PWMtC13zZ/Ed9YOYMzVQYhpFyo6Y3mYqL+N0el9mCxPObMc2Q3KKKMdZfShozIbVy86gi9ceS+2dL2Kss1fN22pTW+Frwmii6PwRUDEdQNkbFoZSVyPBN5F275Jrq4XWFRUiBSEjLPYVXPWHGabV+3X2zA5tA7Pf3sDnv7bbRg+vBaY6CHzuiulHvYWQxiaIrmeytUxtM1/E9tufQk7fv4gupa8glJ5rIUbMn1UlAcUKZBjvp0JXTQtU+0ZsNqB8f71eO6b6/H9fzgXo0fXoD7VzYWWaD21xTyKoyPVVuGcdsNn1Ql0LDiGrbe+hPf83H70LNnJFhW6nIhSEe1uIOjUMAsq4tlgKWI+baRyQiChiu3zGCoYP7UJz31jA575x60YPbYW2WQXUDJBfCWgxtFA3EXqAE6fGT7IUKqOoX3+cZz7/h/gmk/sQ++y3UwDWQOtBmkeAm6IJrIX/IRD5e7pR08IENW8kYxkVxRMqeKYDxvttHhthP70rxnvKazBL9/9UbwwdC6QtVle+WHrFGtBKD5npCfkgr8snxQwUoNI10b96Sspz1ZwzXQ+sag+237/+3vvDgUIIFTxU7vnWgsC7RAKMpRATBurIF9wUOVrCyZx59pBjLWY5miE6wROYqR+APVsksKiVFaT8HYpq2BJ2zBuXnEI71k5gK1zBrCsox99lTFUzWnGnure6Y/C8qI1HCPTdd+uxPA77WpG7zfYTWp8Rgke37UVj/7Vudh973koTyxAllHIqxV9Uv5Z+arNd3ZO9Qx1M2dTIUt0j/nVyFfzWWUYC859Bdf/8itYe8XLaO86WVwvITm3s5UIMyGUibPowvHXzsNjf3Uu9j5wLuqjCywwsLPyNakKG9WjDOFkHVl1GEsueAU3/sourLjkBbR39XO55pmMsdmzjc6bzd6lhatN9uHtvefikf+8DXsf2or62Hwb3S9rLcHVrjW+dNTSSG8ijkez1sO68ZNnyDrPYNlFuywfrLj4BVQ7TxMfFBzOzypuJJhmzDdqj7ZCjoDvC15Isma6n6HSEnzxyffhG4fM5U2dDS9vanF4hY/Jgda5GOInG5FCAIJbUxWDIPNtNTUocN0lhqvpp/mnGSs7fK9cjSrr7KzoF/ffvJHwlJHjBVXPNUVvu6nqJdTptiaUDVw0G4UfbmS0yiksfvid0qCIT1iHNyeJfSK/epo2BiAsH2rDR3bN9kGKGsbqoj0qGufVhZO4c90ZVUlR34EeFxk2gTwZJkqnMIaDMMGK5pRLBxdRxn46Rsy3ZVOYXR7Dmt4z2DZ/GBfNH8D58/qxsnsYfdVxtGWjnN1wNnBBaKJp04zLU+SOuUJz1tmMS69sqq0SsunZ2Pv4hXj0v1yEt17cDEyaE7Pvy1oPeN1tWQabBsbX8zJv06HN87d9ntuw4KgygZ5VB3Hlx5/HRR96Hm1db7G1Jg4ILmLBFH3l2UZ0jr9Lt1ObmId9T1yAR/+vi3F85wZkEz2kGGkiuZAky43ynQ04VBtU4k/Mq/oQWppA98oDuOqTz+P89z+Hjr43zyYcNiKQ5hcnvdUzWobFv2t+KmF6bB52P3IBHv0/L8Wp3euAaUMDWXtqO0il02UnzHP2dEhsYDmED/L2IyqQgnp5An0rD2D7z/0A59/6PDp6jctBW+2a7Zlm38f83gpvpCRxo72mgXAChCQthRnGS3Pwf+96D/70hdsxXe72cQTRRaWxhcruLEfXFkU047UAIFQokSC864NZkNaOenH8axbMLiWjZPle9rb4xWxkOJ8A+X0xjWiRI7LC7ouIvmov2Vr9rZhWpD3qm35En+g2wnTEPAFT/RVfmOSNllafF8RPmfft3mdwZWlfpkqOGlw5WrOTSubdKg1aYQfpQ9PUxR01aEBbe+R3DglIvtUQDDonXIZqvYRlBiC8Ngc9E63dxWDWd9eiCdy1fihZKMnXGqc1kVoZkwYglA6jXDIxCEDNHmRDoSC6TvaASTKtYtqCgiXtI9gyux9XLz2FS5cMYemsEfRgCNVswtMgyOVnq5sK6BVdSPSJjppFeKGwKFYISp2LwdZWiJYlvMkmvdKWgSMhqcpxZFNzsPfxi3H3Vy7G4P5zkE13uotsLF/ZcgambKiYaMkaYveiBQqcamxM5QIIGCv4/UpliVGeRsf8Y7jiZ5/AlT/9AqoGJGBaAU6z4bQJSE0p2IhCI/Nv7GJgIrl5axChB+bpUpucjV0PXor7//xyDB/aANRNIY4YkIbEF3VpsYPcgmvvISF3jAcVcueCjLmGWYuP4qpfeBqX/dTTKLed8LUhZMz233ixzfu8jgHAVm4iwyOipBvaxPJKsz7Vi90PXo4H/2I7Bt5YB9TafGl0UXgCAk12hhWOpBeEqoEpu15HuWyyvgz70e91LvplLkbrWHQMV37iaVz6sSfR3n2iNaCU4uWGAlLtpQRfEXCJ+U3tX/mupQJ2sabg9XJrVcJUaRa+d+Qy/PZjH8UE+iyry1KLhVHoafSJfGdkWqMf7ZaS5bcuPsOb6/79XpOJBJtRk5MfJJxrNt0LqHJBF5chYSVbjJ5SG4xOwboPQ9jpEl3Mw9LCnpYNE9dMkIogGEagOqfd/G6VviVQfvZ2km5cZKwzbdraBHwZkH3TlZg0hUcqfH01XRNM48oLm6xsyhYb/s5QN4sQp6wbOabDZNidbJQ/leoleppAPMoFlul7wWkW1LbB39mrsM0cSmYN/KayCo0FkWUILteccvsQAOd8AOMG5AuIzLjkOml714Hdu5QmY1LN6nxJDSXJ0ID8pibaJwt0KFRrwYbNcZa15n/53gxKKfRtmedMDMKHX51DMQicDROwZwLY71o0aQHCeFuNfNgRT9s1cJUgaY0nqqcxVTmKEgMESXE1aseMyJYs5fHppdZqvIQpVOvjWFQdwtVLTuCGNQPYNmcYC9sH0I1BVIwLQja6Q8Q+zSi3Xq76ohZQqbxwQ3y78Co5XP8ui8DSQvhZmFYUv912ilg5gcaKV/Y7aX1ktR4ceO4ifPNLl2Ps0PlMLVlHipV2Bh4l//SlbbL3bWBazV9QRuBAsgmE78yeraPWcQw3//ojuPhDz6DS+XY0fzUXWyaYOJRopDaVU6AOxfjNbGkaI3u3cA5oWRFe68TBZy7DXX9yNc68sdlIScZk/oIvf8mdpOXmv3MwxMZqkN2dYRQHLdja7HRYLtVR7juMW3/rSWy75SmU2427gYWRHXtCKFla6A0hYCrekzqPP6oIKKqc158sPqbrThx+4TJ864tXY+jgJqBubh0M19IxgpHnXIvGzs9mEUuwMYtcK4dEMLI1wVlbaV0Mv3QsOICb//VT2Hrzoyi3DXvxIHtCgpPEgmP3lewjVYjLfa4kjKUVPxvsBxkXAVvLFa5aaUE8i8TpWBmn9ieZ0/w9y/K9YwaymlAv5lhSwfdPX4JfvvsOjGKed99xQXDjjXOyOVLLRm9JNpguShecGlixa/1ZWm8AAs3SIXgqqKAVr+4tr5Bt3eqYKVl1hJgjTh+KEIkY2jhU3aJpDUAEWDuFQUqeHgm1jyB0Xb1PO6voqkt6J77uUo/KoyuRGEV08W85C4C+Gct9Te2kSjLLOBqNR3hen8ZF+YqlJLV2YRZ1TPeE5o4eeUclpNW6kY7Jz1+3b+ZmXAw/aQGC2tA5Z6OshVnLOnYtnMTdG4cwXk2U62WzNjG7KJwM09UzmGo/ZiOjOdDB36IpsjO6jTLGJo5HSjVU6tOYVRrHuq4BXLxgABcsGMSmvlNY3TWI7soE2jBpr4ZuAur9aa9ZGLZyU4UAyiHP3E2h9ByPQLef6ysRmCVKNqvg7b1bcc9XduDI9y8EpttDxxHvUVM+2yJp52Qg4EBD4Dr/ge5mO2VKnoggLmfoWfEG3vvrD2PDNc+i3DYSMzT/nUCRgaJx5ffC92M6CGBzdOPxZ20YOLQF3/nj63D02W3AtM9QYEjM65jYX+6OA5ZdihZ0crHwIz8vfi6z1pT9+MBnH8a67c+HCjIQYJFvvxk/FVCSxLlKsXGnxHac3LsN3/rStXj71XNRMvUu+KYUkoOBH4EHE82Ln3N6xLXN+1RZY2hFLSqxFqXeVXtx+2cfxcoLfoBSNcEHZz1f5h239o12rOIzvR8b9V20bxvSv4RXxy7AJ79zBwZqi/QxNPmWLj9QJL+byXULEFKtp/wYdmtb4W5q5kv0OF2PKcwQR4dq34dts+AgJKG9djDKPZeDEInTZA7sK59LDB0CqOMQl/eTseFfmS1JoAkGid3f5CZotKreEtCa/983VnTBUXK+qVN2rOSZGGJ5seBLyUiHs3gIhipSoavYWZKee8A/BWuu3RjEG7QgBBDa8aGdfeieNGd4kfcqoCRH9My6GO7ZOIyxtjxAcOORlbVm3TpqbWcw3fEWSuVpu8ZxfI21RER5w8ZqoytUBrzBqWGmEmM5q6G3OooVswaxsWcIF81/G5csOI2V3UOYVRq1bgi5REvHZXgXZKxYGkn+xjzY+rcJpZp7OUN9cjHu//Ob8dI3L0VtbB5bxAl0q7O2c7PTJjGywldZFV+luyVW9G5QPdm3FsjUygRWXPYibv3thzB7+SscyV80yxyki7RmA+qI+SuCdMYKMj26HPd+5Tq88t3LgYk53Iiave5W9I0yTXirEoMiRvj24KJp4ISiPyLavVKaxvLLnsP7fvMBzFu9W6WBtkKHVtY5bkfekX9LGDu9Avf+h+uw654rgek+PmRSFVJ3cGdg5Y5YvJC2FYshlNspAGH8OVc0tXNmyyc9Zv7MJsgAACAASURBVPhtHIvOfwEf+t0HMHvF6yhZl1PRuEUbNIfnre8XJ5wi8BMfJOMD5gzorwTlnolz8Yt3fhRvTS3L3U+T0gs0OtHb/JfaZ3qevhulgzZ8uXklRW1Opd8F2VHnUmJYnxLE8GyepBjW8CcV1NtCoG/L60alJH8YjJBiP49rRaQTTaj/mc9rBszTMkV+vA/KejSihVXQHLi+fLCCn3iljywIqkInx2kGFmDZGLsWT1qAYG5zbOWnZsy47YNAl/HjTgZWHfIDswWVjefmbyrR3fgnsHqxS6Zq/KalccwrDeK8Oafw3pXHcenCAcxrG0AHRlCpS0lt6x/Ld1CEQgML21nyuzbl21S0hL/RyUGj5Dtx+Jlr8dUvXo3p0+vU9Wpm3HFuusQeCTXZUqlO8gScvcuN/lTAgE+N3jTKhb7bT+OqX3gYV3/8YaB6KqTZWZ8cVTMNrDNZ1o3X7rsK3/3yDmSja4Kzvucc0xYF5olrK8y9iZWImDPJHUgxTPSMLhZmBLlxA5qfyqxTuPJnH8UVP30vqp2DkbUoYqOzObWmWJ0BS1afhZ33XIUH/uwmTJ5eQWNkq7jdy8ribtx9dk+5eDAvMz04dlFurle7l4x3xbbHNU8cXSjDAe1DuPxn78M1n3wUlQ5zRwpRzFlxms272fetCJOZ7MNGz9rvrD862eu+iS34H777ERwZX2WzhGbyE1PX7HLppailkgYI2vtUJGrCU61G91Kl0GeIG+igsEhkEjHfhOqitZOTXn4CAUZoa7//TIj2w3g28vQ502tIU80AcWWrIoAg7zRSBM2fmRlgyY9F5kdxCf7HHgYaEFSelWfM3yFjEgsbF8nywSp+4uXewlLL7tRpT/3ks91tAMKmEQcQ9Mj17fJO15XqqHcMotRz0sUgJIffUpBR65xUxRTK9VEs7xjElYtO4crFp7Cuux+L2wfQVxlHOZsm/32yyWg93g1FKGLCHemK5kLCa2JwBb76udtw7NmLgayTH2a1aGV4Mx5MCz919vabXH3oU1xlfDV0LduNj/3h/Viw7vkw9fFdoQsrGjK5+Z+shKETa/HtP74Jbz6z3QpqCSVsygWsXAkANQJinqzxbXuOf80vpRrmrn8NP/l7D2DeuufscU181mn2CSpxNR1u/gHiP0PeoeNr8b0/vRWHnroQqM8KL4qKgI2AeHIjiKRgPnDskuMAdSqnFrTLWD4xn8/f+Cpu/V++hyVbdjama4o+7wZAaJmSTaRvQ77NsH9yM/7VXT+JAyNrULdxc8UdB7Gh0WP5aAlpKAT5AUDQjCe41X2mBiKsnRNgnM4kFdSlDbuQzg2h9lkQsV+kFIPtoISRMKowPAdEcYoMhbY0+sl/yy0mgExqDHZ3FnQQrlpeXErASEwXTYP4LfmukfDV7p6iMetDhmxbPY1WwIc835jCutWQtjSHcMX9WEyg5MrBNtxuAIKNQQi9sepw6dowomPP4kncf84Ixqup9vOWHKPIslnDKPWdBMqTJHzY3OnHpqvgm0/1qPMCjbAEK8vgeihxVTAIsrOqo5JNoR3jWNcziK2z+7Ft9in776quM+gpG8vC1AztYK3uo9TayRroeUU8knVi90Pb8Z0v34DS6Cp38ZadFfvfnOxIWT1YGFOragyJ4fh6KwWxAvZUOYSL77gbO37+KVQ6TDT72fw0mndMzxLqtXa89sB2PPjnt2BiYHmuQ7dDtRgQIShz1mQNfG2Rr99JvBiC8LhMXEbbILb/wn3YfsdjKFX6G6P0YLSp/R/LAi1v/O9ZvYrXH78G3/uTWzA1sFQF/8rV0gWyQesRu1d8m859655R33HcgUsPtV952V/pPI0rP/kQLv3ovajagMXWZVNjjgkWSu3/NF1C+RDqgbPhTO/aJa17cPIcfOp7H8Le4bV83ZK4DxrrIo87Us/FesPzfGn9H3OpZbWZYxNpXNMg8NNGQiB+V6cdxXc2xEEUHowUE1YEeO5dMUOL35wrt+UKc1jrpU61ShNWZ00Ujauo1kPq3RRzxM/pdBPL/vG9DSnTM89Hj1GPK+dTj8y1RUzb6txy6x2NJwAJohyaBG2U65m1IHzgRbIgiGlMb3q7bSP5dmz2FF5ZNolpLrjjLRak5MOrf8xA6xiaO4j+lScw0TatCiXFtg7Nj40VsHCTnPrM04LWKXiL2qI6ACTkDFAxsQhl1NBTHsOS9kGs7+rH+5YdxHULD6KNUyap5LQ+Q8V5FTMXQWSDiyLX81EEzlw7MbwQ9/7Zzdhz73UoZdUceCO1z2tmicFRxExCOtV4AOKUgviZJYbBFBjiq4s9IAyCE3iyNcxeswsf/vy3MHfFHrYinC1dGgAjpXDGhxbi4f/jfXj1e1fZk7Nlaw4P8Le4cmIB08ClUnMGlqWMvCfB8jqxhat2iTXGjUz15eJqylOYu/EF3PH7D2HW/J0NVGMrdInloeZ3+t3uo9oC3PXvfwK7778UqHURQDCEELOidMVbieQJ8ZmlF29geyGazNs+4je1ibyncAyR1xnFtToHow+9rmMSyy96AR/8zP2YNW8Xu2Ykgj2qQ5EDSXrdc6jOQTT6JaaHTLgR78x8X/o3NHjNCCB89wPYO7LWZjVYPmoiT2M9UqSLUvo5CRCaTadQKbhaCdQC7Y08wmk24FYVbHQEpeUriJAvmlNRXy2PoQGxms2zGZ3j7017EjRX+C4DpRzT8C6cqUIvAofNmHKmc9PPG3/l8jMV3P5CL7qm8sawosjbWhmYqmQ29ZMTYUiUiFtcDl1Wz5iiKxkOrB7Ac5e+iZFZJovBm3zlhktbMlvFs7jbQs/ijJKCFppH6BY2EjQmgPGWea/iM+c/i576QANyNjsFNlqJZtaG8F1jGTmxbxvu+pP3YWDveZxS5cFFciTcRfidpHopOaEAhChPsezbr8p1lOoS/aTGVaqj2t2PG37169i64zmUKnKp0dlyIEdZBeBcm4Uz9B/ejG9/6SM4/cZ6qhYpfCVKX9ddiaxfuVFp64G8z+BXqwatmuRuEt9WBnScxAd/92tYd/nzACZU4PQ74Y80DU1e/PjARvw//9NPYfzEer7xNDK8chiJPmfLHOJWkyO0FRL93s8FNMfB1aijre8oPvz5+7D03EcKglaLaPHu0+hsua/ZewcnN+HTd30Ae4bX0BWYP4QfLZMcQCBdHqUVFnTeSKxE/J5s4ce1HGersGNf+w9hTYIz29m2rzFsK200XYcm+qPIN9pK38UAxxQqKlmA8P4XOAbBHWqUJI4aIOXKec5ifnTmXM6OYC+mqKXpUh0H1p/GM1e9hTNd+qa4sPFGdNLnhyK7VzM6e4eTV5jVbBo3zNuNz577OPpqpxPkihcnFsXvaBWCl92BL2vH7kevxEP/8XZMDCxSiS3xqUrVKHEvs/azw+QFbUqYuJgGvSclt+kPcxvkMM77iUdxzSfuofK7tv1GjRftFHknRVt+J6ti/7NX4q4vfwBTwybVjLQ5H4hDEzQ7gf0J2DEy01etWc7NIEsgsV3O4MRMIrQxbZSRlcdw4UfuxLU/+zTK7SfCuhguYE/TReYYnlBb4RoTpPrGk9vxnT++BZhc6gemSS5LrIepHIKyRnSLb/7FINogqVTylo2sMoyrf/4uXPqRx1AqDyagWcwTrQDkFB+1CjRaaV/2A5uGHO8Sp8c/BiB86rvvty6GmrH+WRMcjydmr+jlVreb3h2lDX9ELoaZ/KROUfqU5U3CaU9Qq0BkJmP6/+KzMfu8m3SZCRgqYmNZ5x8lbU2fphjUisE23PaDbnYxpEbASt+mjPMV28GRk3REAGIimVIr13Fwwxk8d81xDBqAIKY6ScPi1Ly4hgSFlKoiWhx746wzbqNSUS0zLO3uiKNjXJVHH3eNSjaN6+fuwme2PI7euimEo3SKap81lCKQ2t52mOFpnTVstDGV6HA0CudnFHFtqhfPfON6PPv3N6M20RM6IiLpE7h/rLtPpagq4OaTGbSaULZ2WkSeJokqDYXsV+UprLnyBdz46X9C11yOQ7Dz0OhEXtTgRMYk9VliF4aAAu7R1tbpwbNfuxlP/s21wPRcRX5O+/ZucVbkDGqC2Av+yi0p9WtJGL+vHAbawhTiH2Pan8ayC5/G7b91DzpnH1Tj0jnjvu5EHAHk8riFk4iwZFXTGsKyRR8e/k/vxwt3XoXStOGDCJDlgoTkLhHVaz7gIFhXTyHPCz6I3XzrtaGrNVmexJqrHsLtv/EEKh0H85kAugHN5zmuUgvhDhtaBilNbH/NA2TFtH4t7LO8UWRvBqBJmtKlSlW/Rl5NbMKnGSCIi+Hdls+BC/5sAIKTVcqnLArpx6FUGhHo3VS67/ZCxEr83RzrP7d1mAntTAyCBQjPd6F7vOJyXazSsYLFl+U17VojNwfBmoJJQTkxVwue9ymfRkxT02bDbRrECztOYrCbSi07+RgVRxIhQN71sPxzGD4WCg+zxmUVuCjtkJjg2AjlWpDvTfDi9XNfw7/d9Di5GFx1OBZIgdCOjw5naU1IpV+pCO/JkQV49K9vwat3XwPUTFGg+IcFZStmxPhVDsd2hQB1STh3Qud56e8sOTIs3PIKbv61r2Pe8jeik1dR4ZXU8FWEvzZxexSDWn0u7vvKR7D7kYtRqnUnb0/MgXMdah7oEgVMREk5MCRWCeMwi6PVEz71Uh19K/fgJz/zVfQt3RspJVF4oqAKzpK5CHoBCBq1mCDNBfjHz30UJ16+0NxQ4qvZKuuQ8DehdKkYG/Gp0CVQ3AxMOQaDEBPXz3BLyfU2hC9kKctT6F31Eu74wr3onPNqungfA1UfNC88ZYRIAa8UZRakPncBFRrkFkg/l83hpFix5cu2a4IUt+BTd96KvSMmtZZiEFq1UzSWb+kxljb+0b6C0LfGIt2eltwlLOln3w0/ftEomplLZqKQ/jk9e7aKvRV6tPLMj4sWemw2zXGggtueI4CQ/2klUbP5tpku13D4nCG8eEM/hnqmOI9bnUwUmAjHQOZAucJY8vhLpvxwicppi8HQvGf/1tbyQIV5Za5z5Q1AuG72a/hfNz7GMQgsZGMsEIekuRONOo24wVMbnjJK0dgP+YRpfjeoRv2YvTwxuBgP/OUH8cZTF9vyuuEpKcFdRbhFBZk5TZZ7XX8QKxlNM6oz0Ld6D973a3di0TqT5qYtB8piIPNxUXL8gRzdrf4Ui4tYicKB1bKF+MbnfwZv7tzCNFBIjS1OOctwbm5RqqFTrBr10djo1bAAlW9fABmpiVmLD+P23/o7LF7/ur/p0Z3U9VyDlc1Zzjz9ooFbhV7G1MhS/O1n7sDQYXPtsJSz5tFqWjYQ3g4zxM+0IqTcM9HD5Rra5uzHv/jSt9C35GVlZFAncscDrapWUfRSrpzjIgJwoAFQfg1Dy6RDgE2imDRfcVAKMhya3IhfufNW7DNpjk0rshRL81YtzKVNf7SXK2M3Vw06GCdfdlPY2Us/SX3KybRQ8tBGYLOUPvvIydDZuNhaZs9duRNeOH7dpye18my5IKSMa+0bReSf9Cc8Na8iEvFYUvPUairmffnb7amGhMp3rgGYnGl9SRa9HmyCZ2GT2pPyWXxZlMjaZvSORI4Tbno7FJOPRi2WScNnywaquPWZrjDNkSP4AwXHp3lt1bTWfyZupOaclDRtGBfDkS3D2HnjaQz16BgEv1LUV7ypE0JAWm4SUWzFUkF2io4iNi6GHbN34bfWP4zezAQp8hh015qBRN65ZY8fVNQPsFMEpPQGjL4aGViG+/7sJ3H4xW0o1zsTetBnabjerGxmrgwyMCJu0Jsjge1yute5g0w7dXQv3Ytbf/VuLN5kgvQ0dlGNRZgjZxkOXBKKcxQps+nF+Iff/ThO7jsHJb5zwM8kMXDHP5K/4lhQBRX4vor0owsFZWERm/UNMO2cexS3/sbfYvmWPXSJVWq+cqIPFKVai8bC2gKCscHl+LvP3IGx41vZ1daMAlFEiAPeaX7JXQ6WExyUKWMI6Iv9GBlXR1vPMXzsi1/F3JUvpcVNo62cEtCyr9IKJe9Db7Dt3IBS4iPeywUC9eDkBnzqO+/DPhuk6C0IMSRuiLPU4V4O+kWyubThD6jUcsmklNinKO1EZi7mU18WlJoqyhYQpeUL2XjBr0GXs9qJb1IAAl9gQUVR+OjlhC+NKxWJb78JgizjexrSnEHzMic/Qoa0/1RiHftPXbU3m2nmFa57p4DClpU53zdOPwz/lsML09/cKsinVD3nOBVF5u32e2QPSqWuaPrl3RqGbkoFR+3JN/lx0GY3Uf+O6WgBSUQGOc+eanHaqv2GAcL7vt+FnnEuvMV3KfiArxBUOpDlDoGSPsiX0jieFf4toVap4+jWEbx68wBbEPKLGIv8RhsvAHwF/NDMjSTfVzCNHb2v4X9e+7DPYmgBfIhJlmIkZBu3gjz54ZzZVKRZhpEzKy1AOPLSFpSMBaGoWQ0yUnTg74nPJI2VH4wBiryv+tLq1O7ULEPPsn245dMMEOJxxa6THEDy8o65QyEM5bIyXxqA8HufwMk3NqGU0aVE/se7n8wQmlI9Yq5UsCqZ1+UE6fVxqu2Oecdw86/9PVZu2Q1gKqwBn8Iuwd6Oa02kXjC0qGD0zEr8/e98FBMntibC6BILHjeVxlGe9PFyqCZTgdGOZUp1VLqO4WOf+yrmrn5Z55lydVI9R0vUxG2eSue4DZ2idoNJFLkkAlZRKCG5r8UqoSef2RiET915swUIJlfLAQPWUyn5whI4ucG0HI/1k12GjX/IAMEpaHODX87CSMqzoFaCG5QK1hIrXqNNYvox35v7XLQSJEVjrvokIrqLvYrrpTiDhrSZp3nJBrOR5TSlsLzSsm2YGvzqWGo+M8Ohz1IQkOmv3C4yfsqNjkRJgWPH0UTMiu7yL58u6sBZndIeaUThtVQxo+g5acuDBUOFxdVIZNG8/fg1U/l3Q7r4wD6iVcw78l48TitY6yUsNRaE78+yFgQ6J8Q/HvD5NkxUrxRf4X6pdycsBbyYb02p5Te3jWD3rUMY7qETl+V9lsdaBBS5S2VUbj7KhG+rNypGjFO15F0b4Mv+SDlnGgvCe3pfxW+ufhjd9dMtaBtpjdchp6RTx6MGfByQmwSpOTk++J8+gAM/OB/lWoe7ct3ebqqs80Jy+29COThrAF8pq1Lfw3vrFc810imm/55lr+PmT30Piza82KSSnt/nCaYq9gHzXOq1Rfj67/8Mjr++Gai3cyCsj0Lx7nYWy4K70p3Rp2pyco27nzqXF9bDjs86fFNq5/yjFiAs27jb3tNwdj+aT1K/lzAxtAz/7Qs/jeFjBiDQYKieAYFSG7ng5BKNImiJ2S7gvoSi0IAppAtLO8Fu7t062nqP4GO/9zXMXvZS5GLg3lj+N5Thdj3eyX5poiOCQMVGq5Rv59DkenzqO7di7/AqjkEI93DqwJU/EArT+b61DgiCFDf+oWQx5LegPtx7A5niTjs2vhVR3Jm8AFo5kvqiWtz0tupLOpGUIF4ch4zUs1Z5OP8uPUFhNKwM1FXIMR9oMprvuGSHba9ugl14WvklCS+fISDDvCfv2Ma9spYtQSPkmTjFJT3ElMhJdHYIGGBD7djTOYMBv7TUnqhDWZ1wHiysFC96OqYYNOIFBgj5EtIKXIhiZEKmLprSfcoFSJoKImbLDBBueboTPRPGjuLX3RWHUQtqAxNVceKQsh44OWDFUzYuhjfPHcOe20cw0hMGKcZUaaSggmfFh3120tkBvXI2hWt6XsO/Xv0guoM6CDqQSo9Kc3jMS75UU+ifj7WO3xnh8ElJTYwsxGP/9TbsfeJyex8DYVxlTeM97PaHgtIJ+Z+gkN8bnqO9KFeSh5WObMA65q7ehRt/+dtYsNIE6CVu8yxcD91q0e+SzJohq8/DXV+5A4deOM8GarrLqfSlhdpwo5Sh3pMhPfQ3ek2jXWqtc4J1Q0uqebJ3yX7c+mv/gHkr90UgaSaJ2lo+xfxAY6tNLMBX/+AO9O8/D8iq7rgUzMlNKQrh5c89h4arGshMLiyW5528dCOQUsOsBXvwkc/eiZ55r4RXO1tWjQR3uHEbH/wCiKOjjFKFkuJ9FSrx3N5ytiYzr1gy6/UwMQgb8Olv34w9FiBwmqPwW2zttYQLuc59FGEE0iveb2AP0daC8KV9doeLIotPogpj2Nd9OqM0KXHd8qT5XDOkqHBaZurH3Abpg81tn3z9svf3ajJ6AkshGX8i91OzN8U1lUTUVijwQ5VCPUuf8qRvOK0sdDU6GbtssLC8mNAwFoJCm5jmfjzhxtAo2IAcM/lcWSG5ez3gjJgCfrt6/3gKsIR0oTsQ8h76kH55yezpFwsgetbwxvKBKm5+0gCERHGcqMmWlTdbMgS8TlfqOH7+BPZ+YAyjPabUsmyLEA633n6swuINqvkiITRUR6VsGtf0voJfXX4/urMhxQLcR4EFKmnX1uYrHVHv2EC7I9Qg7K9+nNPjs/H9b9+EV+6+DvXpLp4MAQTGCk7EpFddf6rlQYpjUupU38DBos+Or4ZlW3fi+l/4GnrmH0sL+pRcsIPmL9w8RYOlTO6mq1488d9ux8v3XYFSrTcqpq3HHKd1xgPQ6x/v60Z8ohWGp6dRjnPX7MRtv/pNdM875E3qAbxW9C+kh0I3bv0jJV6fjbv/9w/h4LOXAZlks+hdIr+zrNVyOchoCJ/j3e8ipUi+aDkUrn8oF824p7Bw4zP4wK8/iLZuAxTzRdYC0Z5n0gZuMzUWMdumxGicsZLqQy+vFqlBrJM+FTGfZnUcmiKAsHd4pa2DYP5PfnyadWhNFjr5FRKdneI7zRh1lDbZGARBLqap2Jyrv4sDrGjxyHzNit8PNxIWNDyb9iXFXe1YNAOQkiUXR8xwMaVlXGI/kFaLn8uvlQl21OZ/06ffuPSdAUX1gNUohj6ki1skTsrzZG4UcS9z1OBClKZpsQj5U982t5xXzNzuZlR1eIOlno+MKHS1iC1FNicBt9RmlxmGVeU0vTjUsGBLyFhi9O0/J96gGS0/3Y6bn+pAl81iiFV3KCS9+CKTvrhp9Hs0KOJtsQnVyhmOXzCJ/R8asy6GVuID9GZsFt+hCaFdDY1khnxnLQjdO/Hp5Q+gu3amlVd+6M9ktQ689ug1ePof34+p8dmsoelCNrtCUjXVyjMJmyX0wM4qe6pzqZ+Wh0UG6CA+4WJ9xZaJIlflqR2n11GqTGL99qdx9R3fQntXo6qT7wKJ6h3Y9eR78Njf3Ixscl5eoXD8kiWB7Y7+687RlkYc52OBm7+5RrJi/Geyu0TW1FCiyCS23HiwmJWnsPqyR3Djzz2MaoeApAIF+Q7JkGVdePneG/DU164FpuapHeW4l1MT9W7zYdTyVIBRLL/wQZXFT5AFZ2SxO2AKr3g+oWJREzjnunuw444ngerxdzjLf56vkwXhJuwdWenuYhDZTf9qfarn0Fiv03vyrucbsiBYM6F8GOaYE8hmVjflaVkQ0FiEVf1ArDjXGQnK3hicNV0Mhvhp/cTMjV8GGcmVplbtsTJ0N8VZoUMK3G4/B1IU+3HpZ1eCxXGkNgvZiAcLWSwgYDY1RkrbsqmTb9SW7YDGKM+ZwEYSdqR0DQnttaZKQIb3NKo5Mv0ssGIgYsv/Wn8i2xHt3GhhxXIiWQYEx5gleFxW8TFdDcBylwbx7yqNWN4k9wr/5QJRrUT3AESzGc1Nevc0s+7HjGOL2czulaLb8UxTEZgaLNA6mnmWsjKWni7j5ic60D1BAIFIIihe1bJVgyMXaBQtrnIQ9GnYtGdcDCcvmsKhD09hpFe5GAoyCr1A87/FvaXFikLq+jAWSEhWJcwiZUxje/fL+JUl96OnzgBBrAYugt+DWWISjW+58ZTFIDVIPS59klFxOMacfPS1i/DwX9+GkZMro/54PyqAbVk8qj3kd4CPCzF7RLsJncDj06a+wcILQWNeNXyRodoxhIs+cDfOv/EJW1UR9UgYBnQRZtdE4Ad0dSftgw6qPlXw9oHzcM9ffAij/eaiJgawtoloPdyiaMEt68S8L+9JkLSVqTJgbo/jU2warbpOm9QpHy4qw7jiY9/EeTueRamiLE68l0Ve55c+Ik7ge1fFspxYNZ9VcfLwNnzrTz+E2qhc88zrabe63+++v0Q/CZM4sat/VscXGVmYD1I0VyMzDdr6cf3PfRfrL3sCpdKEmmrA3EqHyrornpCzUbyUrdCFZbpHjXr9+HdpX0bnNkQkGCSIjxbOzeXw5EZ86ts32BgEk+ZoNQRPw+ghwyMWjmsZofSI79bmjfGfYe0Y1nIkcw1AsEpM+ZC13LIBgmxts4PhU54MWdMxHREZUiRgExUZEchKQeF8CjGK07Ud7e9gHQvuIZA+I3lMmElSr1RQjcxTWDU+/fksB2+GFJWpxyPm+oCeAkd47tqj3Ehu5/iJP/ACN8SApMfD6MOUnIzFpPnbghAGgmbD6oAjopcsgq9+59C+7VixHgMoN04b0EZ/SRCogDI5L1bqwLLTVdz4RDsDhIgyynor+SZmDwx3ZTg1t46aADkW0NSbsL1vywQpjm2tYeTmDBPmLgYmkHe46a3J2z4CTmL7sVwenKCVD40ZySyH0TX23GNTY31SKgFAom1bNoYF5VM2SPGD855DR30k4voUp8SfRUom6Xso4ir1eeA/KGP41Co8+Ne34MTuS92YLGWdQPOL42SUGloQqKnG5NbRrRWNX0sPrzhlZ5JlomP2UdzwC9/Ask3G72yC8+Jd4Z/3Q4kltaZf2GtsJhgZWIlH/ub9OPaq8cG3RffG5jSLH4+TpeFpWkdm0SjiNuhTt3/l/MAO26xUQ3vvIbz/V+/E/OU77RXQ4RupuWoaxbzT7LsypieX4M6vfARv79+MUtbOZ3vZY37tJN84yQtieQqGR9JFhX2GabJWJ8iuU5l35qKzJftw67+6B7OXvBjVQLyy4wAAIABJREFUdoiUr5tuoL0anL7j51rZf2f7TLxWVhu55Tw0sR6f/tYNeH1oFWcAkbxVjgZltfKHeMs/kkSghibWcCp5LSDfP1DaYACCFfoq+kBlIwTR56xQ46m74Lkiv6gSnvpdnyUQtigKWL6Xi3PMU6nP9PKn2hRFrS/gcdswkZNOZmoCJaIQdXSofBcCqVCoaJqYkw7dcKevN/VzlmcJmKQzSMzTWnHL3/HC++BQGo+cpWZEF7kZUyxBCnjFGRBB1GyClk7URMF7FlBF7QtFzG3Ny0634cbH2gggRMguCILj78w/+5dN4ekLaxitUgS3F3O6SoQXwYY6vUtLWHJeFeV2f+o0YkfCHiVqhpQ3K3EOOCXLU6i2/KqGgMQiekIR3ujs5A7d5Di7fgor297COX0D2NT5JlZVDmF2NmzCwtymDxWIBK2loJ8S8rHlwVFHEzalFO0quZBey3O1Hjx31/V46Z7rUKr3RLE8rMYEmOaCwgoyZuxQwxS0ANvK0BLFLbLSNJZteRo3fPJBdPQcFq9Sa9I56KQZfPZN1qa68dL9O/DiPTegPtnrVXdEck1dn+mlh6b7VL83wCeEw/jAZAWKAZ2TWHvJ49jxM4+g4twL8do6P5D8Ukyj6GARSWeab30WXrr/Rjx357XIpmfnCo8EEMMdPpl7+UunsPSGdp3x+DXvBgdAxxSsPCew4cqnsP0j96Ct8yS3wh3xvgv3ZrzeQi8PPnLzjttpSKfWWLD5UzqWBTg0uQ7/4zeNBYFiELT8F5mnD2uiv0X3Cc3130TiUN+5SxY3/j6nOSrMVsjCTYoTyXti3hC3gHyuzR9ykvBJbLRA9r8t9hMX7xFTfyOi59gi6quZH7ph26YEcMmUBtaI078hLCgmU3UWV4Wf8oJqJkWKpDfJLg/78IGhlrXYOkB0D6ONmzMuWSicKSvxAq0tX/5rBVmk6RkkELP6eVfrGZYMtOG9BiCMGYAg5VfV+1yPwvFWCXh9xRQev6yG4TYCCPq0mp5PHfOWlLFmWwfKbRyDkHwwXs/8PII9o6smuqkJYJOof1OktoYuDGMpjuCcWcexufc0VrUdQ2/9JKqWJvKyjlHRYyHMH2rFhK/Ro7TAVWbHrAOuyGCpGNa41qL2sir6j23Fd//iJkyeOYddUd6s7AKO9TkmFTnMQslHFTPReDrGamVS2+yfJBQIipn/d+EIGUpt/bj6ju9gwyUvoFQedSAsb08r4mi/Kz2kjDW0igWy9Crj+Btb8cjfvQ/DJzYWNKzmI5Jb+NhOSln3VHduF8TLLG04Pe/3THvXW9jxifuxYutTbEHJ5xvRIDW/cIOxD8jNJpJDccBgVsKpI1vx0F/dhsETa219BFcBO6ZIShwK2QM65POtHWn0kihayLQ6+97E9g/fh9UXPIlSWSwoaTnshufmVATU9D0WXrJqd3Mg3Rm8tSI7W3smBnllHJxcj09/Ywf2jaywkXEpnSeHFrIJNJfTqbG4bLFNv7/X3R7qPtS8wwxp5m4vnhE+k45Vjr8dmOISTa/wPWJVa7p2+yivoCSAKaVYZDy2kAibbHUGBPXHC6/2KuVsiyeLGFLG6ZfDhctYpqe+BGHp7AslxHTpXSvUQo4WFhTFHNBDrDfShwrHCc++npG1Qg/Ym/eEPrBbVcMC183HKVCJe+BgTadMvNqxbhAW6N63pTxtER9LXAWNy5vR68YUpkCJWSKhB3OyfdrEcZhKijc+UkX3eHSlqbNuiRCkzg29962YxBOX1zFSrTn627WjYxZ5bJknhLfmLa1i3fmdKLeZd7wYVWQI4Z5UXg0gTSAmvPxxgFfaraMdY+grD2NptR+rq0exrv0ElneextzsFNqzsUJHQCCfY2GpwFW42QsEX04iOGldILdEsRDNa9Oz8fz3bsQrj16BbGoOv6OBimZCLc11PzEk9e4qapDaoFZjQcn0LE1g6eYf4Lp/YawHBwpWpDVR7BV2pBiTr5cwPTEXz961A7sefw+yWndEAz/yEMA1okuszDx9XE0RARaOHibuaQKrz38eV334PnT0HElPNscvSZXAH8bgqIh+GabG5+GFe6/Ha49djdpUT/SgXjPNA3F7BfTmYViuCEIhYjRl5PI0Vp73DLZ/6D50zTla6KJpzgktEaqBlSrab8H9Kc17L37Ct3tgYgN++RvX4fDIMtRd3CDfRcNsJ/pM5L6TZfyFxPTZ762a9CcaJwNFZ27+d2RBSP3ErJLbpgkfd1E7smX09w5AcMM6xbLRUoX+SjbbWz5SI+TTRy0qJBSzrWXdolgIVqLig5exa4Il23MCzn+rxWdII1GjPgfAFfOJTPaF66SfcxYpt8PUTYIMzFiUGmVN9GElHrsIeB6p1NN4fYgmqfQaf1qSdwhr8LMJApoT4tLTVdzwSBU9Ez7PuvEWy7B35RSevMK4GHwevOtLnWI9n9Uxb1kb1l8wC9V2U02TetBA2cYN8LzM164UtX2WTeYh57kyzzLfajaG2ejH8rYBrOk8jnWVI1haOYme8gg6slETjqviOtQs3c5mlBqYYiPB6lwYIh8VxOGxuoHZSSplHQThpQR4zPkVjJxej4f+/r14+4DxQXeEh29ddoFBot2dieJwrjeJx1BM4it6cvCtNa2zhRFA15xDuOojD2LFOc8BJVMqO69kc59pOjEfhn6SlMJK0bqKgbfOwQP/9QYMvXUOsowvLSpT4KQoNjcki/B8xgJzD0/fB91GnriAGWXuzKW2n655h3HFB+/Hqm3PU2CeixmhHnI/bipq/ZX7y18KpvwCtImkW7XWbTh5ZBMe+6ebcObNLcjqFDhKfObvz3BKyGp6uZzEaSf6xWVP8YhtdyGgJLYlAUcHFpMNUke1+yje89F7sXKzsSKN8ziVxHUuL00NRZtGmNBZfaJCF7ltor+PG4znofamY74CNWz7t5LHru2+sQ34pa/egOMTi1TUgB9MSm+6ltWXecqm2ygRQGAlxf6eVlKyghQUVrJF7zVU9srX3+zyJyemEopTgrW1kLdsndLgjTVN8oa2+JVw/o1m2KSzgq99PYL0A82+T9Hjh0WLYNvp2I2UaTmaTsqNZ25zXHK6Ddc/bCwIVG/clAJ36+8sqOGm2rdqCk9cUcNYtWatU05PJfiFgnMyzF/Rho0XdKPawQCBd4M16kfAS+SVTr5zotM+S9ku5v4ao/Rn1U5hefktbJx1Eps7j2I5DqMLQyjbLB0TOSxCNyGsE979KGKPBKuzVInkVQTWqLRA/hBxlVC276jTvbO+mfGaiHEW5lkHDr5yJZ769rWYHFrhTYu6pHZcTU90R4yw9fYRXMv/urAmHhcpIKDUNoQtVz+GC65/BG3tptKkNKoUlJ6bkEXLbvldI1fWbaQPRTTSvIPlsi6uThzaeTUe//pVmBpbxsnPUiqdtJglLf/HB9cp91dDXcEDVOvopmn1xhg2X/0QLr7pMbR1GL97I2GnfOvxfBM8kAwLiHS6PVrUu7D3ue146lvvQX16MQEjVvaSkWABtsoCCHEuB+ym1sougWaOmB4GIAxg647HcNENT6DSdkp7Kv1GYFDZmD4yOX4tRcrUHtLPiZlPALdMlBASu+9YKgXrHrtW1FrpvQlg98hmfPKfrsdgbX6w3r4GQrqSUE6LtBg/Udryxb2SDcd7n0+TKVTlButL/BBgpNmK4d7n4tPixicz+7C64MhF+0e+22A9GDWKznGnkYCAzhgXAgO3IUT6KBegUwiqLK59LCG1nDZIWDMDRqHl0CfPeC56wYLI7viUFTOq6BQBP5Evk+Woat64fWh16B9a2IB+SvIFpzzFA67diCwR/3pjd4GskvYludTRxZ6uiHMMQFjaX8V1D5kYBKNtvf/ZTiLCY1adZYABCE9dmWG0bdrGO0gfvBiBfBC+nb+iHedc3GsBQvjjJ2/atm4WJ+2F3+UwRUGGbZhCL4awqHQcq6vHsbr9OJZX38Ls7BTaMElXUgtf6JNeQKtocrmdHSxtfsiaR+N3WXk7EaIUT2E38XCUYJscXYCXH70au5+6wprcbSw1K9JYDwehEtyGkiJuUam7UPiIi4HIb05SE1i66QVcduujmD3/gIraL5hFSpYlaJMGYAyYtDua18uMtTY1Fy89sAO7n74U0xPz3YkkpYOlS60bgmHkxhnTQVnoqiNYvO5FXPUTj6F7zkFbRbDpT0rByaT1Rm6EM6JJEA0W4fn7rsbeZy9FbWKeBZLiMPbuEeqcFFleiaV1b8h8nm6kbE1K6/LNL2L7Bx9FR/ehtMWkGVHijqM90ewgFjQfqwz5ktt0TnRnJioidD4WwzRVyyp49tQWfOqb12E0m803xyr3QFTaPTf1AG2zjuIhiGzKlYff/AVjQVCkd8wfBRyQjgla9fTQ6UhhWzpCkhjED9umeTnzpow0YSJlcxWzGA1DH4fV5vUKx62KOgnEuyDeqnLk0bcfekVvkXFq7di94VCcCLhGgsmlnBQhAlZCnNtPdjW95NI4rYKnpV8iopMsHK+W/5Arj8ZcnRPtZC20Ra6U3z83t7zYiwsJpeG9EqWWJiYGIcOS/ip2PGhcDLqSYnpDWe7LgP2rDUCoY6TNCEsqfW1nzzSQtEKSVPTFwpXt2HzZbHIxKNwnNSHc6SdYeOrPjKw9G0FfeQgLy/1YXTmKldVjWFjpxxycQWc2yltGuRCaCawf+/ehUA6HE32XVTByZjlefuRKvPHCBahPG+UQr1HIKHoHuraDeD1WIFnJ1kEJWzNEH8WC1Xtw6Xsfx/zlr6NkXAvuWP1OiNdo3koGuMBbkYVlDA+ssDTY/+LFqLuI/pDbi1qPqaW3uPldlzqywtvE0lSHsWT9q7j0lifQt/ANosGP5UdGW7YXOL340FU48PL5DBZJ7uSlQmM6pySclmBODVXGsHjDTlxy4xOYu+R1W0WxqYXgXaNRM8SZn/VZd63INYVOfG//Nnz23qsxVTLZM06QueZ9kL3mrJirHBXZ0+gthoHBxljAtnxxXxajJPqbG8n5DZsJEBmrhmLh7YfC9llmBLlcsOO0WWDz1AWcNLjQRXhIMeutJNYArURjNpODqHnG1zWneTMUYboS0VnZ8AlQ/0W+MJm3VzMueNKZ1+ihMHBX0ZrFISliuVVRgyp6362NbctkTujxSx/5dB39nq+g6JlHzOp6Pq7qm7CjowkLAAawFMhovvTt+TUKQQfN35fXFn8iFaWiIMUl/WVc+4ABCHQXQys/+1ZP4entGac5BuremzhtqpQZrRlTDYvXdGDL5XPQ1kYZGTYzQ9HYcbuzi5ZQzcbRm53Goko/1rQdxbrKQSzECXRjFO2YsNYEvz2bCZNWZvbP9Bk7tQrGh5fh5ce2Y+/z56E2ZUyf5GpxICtS4HmK5GGDlF7Xu7ZUGsbitXtw6S2PY/aCvSiVf4SK0Q06P/rM3nC4Ai8+cjn2v3QBYICSBNflxBq970zx4sbwIl6f12i/K5t8qTyGRetewsU3PI15i/cALmL/x8sjhgYjp1fhxUcvxYGXLkFWn+Ms0uHFR14vBNZnrmjrXKP2NKwD15XLpjyORatfwiXvfQZzl+zhuANf6I8o8cOpIvkjp7JjtwzjpT78l+fPx3/8/mWolWep8G/RZfpyOA0QqBqwtRKwfrNynUtgS5aQnxvRzuqWzV+gy5qsWLRxJSSO6WTPCXmBL1lVtUvgw2ICpoCF/kxM4fKZ6d9fw0zthshMItHpG59HTTTN9ydnUVJjGsBI2xpQSAmjEImFvv1YsOUFnaBaSfGkrAkzV3/CdczskIMeOy2s/Fh/kPXHp9Sm75/WUdw7cTkm/b6q2+aKAIVz9rQnngjXgkS4K6Bkv06Mzw4nv35GCEiJDgEtJmNk6akq3vNAFb3usiYvLDQEI1FAJ5U3jAVhe93GIOTjLVgw2yFIpbEalqztxLlXzLMWBBcxXQ9vYbSAKZtCH05jEU5gRfUtrK0exvLyYfRmQzA3L9II4jXRlSJ/5KLlR9Ahr0RWwcToYrz2/Uuw94XzMTm6jOIV1AlSaEMcRPziXTZuByuXsyhS850xJw9i+fqdOP/a59G38HWUQLdv/uh+zFwFWMo6q/WuVzA5sQyvPHkR3njxPEyMLEGWcQZOME76w8sopkf0md5n5O2sodI2iCXrX8KFO15E3/x9BJBSYvVHR5SwJwsWV+LlJ87HwZ0XYmp8oaWBo5a7DZe5gQ8K1IivxEPP+7ojpgEbM1Suo9rWj2XrXsXFNz6Prtn7KTj1R8oHRcQtkskFz8fr1sI6DmEhfu/ui3Hvwa2oo8Om01ubqzMuF+svsjB7/U6HIbE8+2w+uxL60sMtn6csBhpflDyXK0whCynczGDCXfWkFBkvslb38UqyCuOXvOIRPSljChVSyA3e+qGFMz1DMSP5z8NR0sYPRTsrCyfyxWcW1M2LTFqNV9hbZfhWyzD6ytHAXeQkcR3K5iO/ahXtqZFS6hJ34L0s4dw5qdwKc/UNl43WwWqSC6urvjGVqaiQ0v3ehxymsrFudib/GPAJjSoZsLi/DdfeV6YgxUgA5CjNH+xbPYlnrs5smqMIHc07np8EPmZYsq4TF1y1ANV2H0tjsbIpllUHJsfqGD49iTlTR/DBlS9ia+dezMZptGVTbClI1SjQQEp2VyOJEO4SP+b0msa7LLemvPdCwsVtpYCe3gUq998BvtBKF4wzK2NyfD6O7N2EvS+eh4G3VqI21WctDMH6OT5hYWY3KdMoDkgr1VCujKJ37ltYveUVrDnvNXT1vWnT2nzfRbQLGDrM2nADijWLtKX/lfWT9hTYto/xs3ZeRIOjr5+DvS+fi/5jq1CfNqbgisKO+aJdjkDBSYDTr0t1lCvD6J33FlZvfRXrz3sFHb0nUIK+fVR8n1H6iCNBaq291A82f+6d+Fun7qMvREuZKovzcXjXFux7eSv6LR8YGjBYikksvOoQfV7RmkwFlEfQt+BNrN32GtadtxMdXcdV7EkovfMHlKL5p+aWkq5676b2ke5fCcI0YVv8NGzHQIET08vwy/+4HfuGTJllQ0//jBzz6Hxm+CGS6U5bhVpXLH0SL6cDsO1nmz+3NwvSiaSMpW0nvYFEKXufO9fJZ83uKhdyMFzu5C8VCvmOADF9U7SkDxYT2UGe6XQhH7905jdS9iGsJlMVnXJjRuFTCt+FYO0OcpGKuBkYOGm3Qy5bg5V9IPssG3j6hW4cvgHPRbvyiHNImM8Z3LAvN+1rC9AredDEYRvu3oR8sA2rSxMcyMyk00wtgrfuJclD1hHZ1Gf+TE8meqsyc3PRpwbZI3nXiPmGAEIV77mnlAAIcTKsn/++NVN49mrjYjAWhIj29jG9/kTUZes7ceHVi1A1mXoWL5UxPZXhzKkxHD8yjP4TkxgZnMQFffvxO9d9H+t73qTTjVYOTiHLWHjBnPKT+epN3+h3LSTzApNaiz9vJgQTCxKIqqTkjqwi8bi08iRQVK/NwvDAYhx9fTMO7lqPMycXIaubSnsk0IpSZp1cs80Yt9kwOvvexor1h7B6y2uYu+gQKtWRRBnhZvK2iH6eB4tbaCTsYxDBrWRlS4OhgSU48vpmHNq1HkP9i2y1wYxr58crL4XT6IjG+8QoxcoQurr6sWLDQaza+irmLjqMSpu5Z0HXAEnxUTOaaJmRWnetEFNKVNNOP+vHYm77HOxfhqN7N+PAa2sxcmYh6lOzUYIpTU3PsXRTR1M9LvPttI23mNVzCivXH8SKra9izsLDaDP3bbhyy5oH43E1o0OreygCDY3Ik7Oqx+CF5ZADw0XrJ2Ojvk3VxNdOr8Yv/tO1GM4W+onxGc98QHKXdKi/h4feD7McSIbqIG6tyymbkPSpBQgkO4sFSKq8rvhq4y2kyRFXJYz7oKAb3Te5LyhinCdgfdx+kil/ezM2yLG43Ceh2tXP6OC6oJSwekgTNDhrmTbN5hYXjbhsCugbp4um5qKVu9BM1iwGaa20l+ojropo2nFFdqMYh3TMSng/vbHJ2FN4ANoEwAk7a5TrN6sh37JTFVxtLAhjFKOifyyPOX8a84Z1MUzi+9eUMNYeRnSnxkv0yyxAuPjaxahWKxYIHHvjDA7uHcTwmTpQNymWZrPUcf6CQ/jcTc9hc+9BvhyGR+QikjVzcA64HSf9HsdyNOXZZDRsg7ec2Y2JNZPAPUnPcs1HEjDOHW40eB6HUZITo0txdO8mHNi1Emf6Z2N6cjayeq+9v8DVCbBbxYgrA+pGUGkfRE/vAFasNyfm3eiZcwTlirmLohYFJkv+ZUIANyVuiw/k6MLvCbBPiUzl2zJpkGPDy3BkzyYc2L0cg6fnoDY1B1m9B6W6ub/A/1AmWB2l8jAqbWfQ3Uc0WLttN7r6jtrP7UlahuAOMq3NhdJ6Ez9Fc3QdKV5urSsZIWUz1DswPrIUR/aeg/27VmCofy7xQWZo0EbPWjpK3YWaDUQtV8+ge84AVq1/Eys370Hv3CMolUYpW6PRmOPvGvBuUVHlGU2z8MbdmbXS7OkpzMI3d5+DLzxwJWqVXqfwQ/3k920QR6gAgtbB+qBfpP9LWz5PQYr6J6UUA6uBuquhaGK6jRhgWJ7IXQ2b2Sp7RhuImcNvBlUnOnqvGWGDTciBU1YVKQHsxkcDyzWZP317RCa1rYvKQ2vFq/GqbjPVfsv7M7qgKmiriZKJQUHR+App7CI3Q5oJc/oTQkI0qbEFOD7LUMnKWHyqjKvvKaHHVFJ0KaeJk7mgBQMQ1k7imWvKGGWAkNoA/rRGQmn+4jYsWdWNU2+N4OTbk5geN8qqwleYs/zKMsxvP43ffM9LuH3DS6hmbOLmGiZymZyKJQtI5s5o7iASnaQ5GMudGZx1QgBGfJCXmzp5Xzh7js/YIKErpwll4fMSOVxWybXlf4NzIQ/MNcnynBJruC5BELFO8QUmcA2moPRkH4ZOL8LpEwsweLoP42NdmJqqsuWqhmq1jo7OcfTOHsKcBf2YveA4OmadBjDhy7caq0IukycypFg6ir4RxSaVUr29S+Je3K2pQu84o8qSMAIifO1wHMLkdkAuqNvwfjump/owdMrTYGx8FqYnmQam2I+lwZilwdyF/eibb2gwgHppHGUzd51rJhZRZcdzW0TWxqtpSxCXdsgHLufo4NRbknscS8Tg0p5CNT4QWmi6REEQodGMa2ZYF0sbJif7MHx6CU6fmIehgTkYH+3E1HQVWZ0CsivVGjpmTaC3bxBzFhIftHcOAIYGtlAQr6+gHVmL2DjoAEf60CvaTmqlyOMCVOzuDGRnaLWkfa7KADfgE+Y+b/CTmmfMp6KLwtTefGmAodocfPnhC/Ht18/FFOhyLDEc593sMm+WwA0K7hXpNgEMpa2f2xvBA+5XFKVSAjGQcOBPnTAbKWwnHxsYSJ2CdiciqW2r/o06IWMIX/4TzcYGYwTyVQln5RpwrKRPhPw74RZ+InYnqLbl0iWdyynM6L6zG1iMbDoUyU/KKQoNWHJuDBUYqOgRWHAaLIahi7MQeCSWVGwBaNLrEqJK+su4GPTtYnqjqXcDy5O2ENmy1iUsOVXBVXcDPTYGgSki0keBAuFBs6pvrJnEM9eWbR0EIp0qwhLMjDa3FYn2ugGy+Oh8e3e5EltCKtkE3rtuDz57007MKb2lMklECFIHcreIUFeMqTIWD5rkpG/GqCrsOU2ghZtX1wJwHE/y9cAp/vR8ry73CaJtAk7zgSoseGkEIa/a3RPJXRKYooICKnJvhtOMkjA824Z6rQ21mlGOpBjKZQMSTLDZFJ+SjQagK6Bp93JGTxCj4JWej57SzkxFXwtiZB6SNcWpp3xlu0s0cgwV71EvvVI2C01/olGUFmxnUWFQ1IbaVBX1WjvqXHyqWp5GpW0CpbLhXWMBIxpImi3JXlkv04OpOeH5O1wSelZ4xKcni2Lzu4aXWIQ+Ra7z1wQQpGyhTjmVsYQ8GvjBaQeG5e5ty4YXyoDlAeIFB0QqU6hWplAuT6Fu4k/s7A0wUMF1tlW55YW4zsZtOzBDgXfC5qKgSWRwFUYny2nPBkrcycLwmhJ/Ilf1zVg+2+9kvt606eQhEdf8j2/psbqdMn3ssHi8ZNin6pCUAcdNlMo4MLgE//Z7l+PV06uZXr7+tJal9vcCo09O5mr9pw/eSlZagBDITv4jZWaX58TQFRiIWwUJqedmak5NDfiH/FnsLom7C1wfuQugdNG80BTf0rBTZuwGLzYba6M+i1w4SXCYWMuivvWJtPGcjSWpjCUny7jqHqBnrOpCSyybqGJa0g5F8Wa2DsKzOyoOIOg+tcWKDoxlZGyyTY3NR/iKoMgwp3oSf3DbS9i+dA+qJu+aPUlh6J4XWE6m271MJ2BSeFzH0W5kr4YpeoOFh/PTyrVbOrLGHfscPDW3gNKtocxfujaHQwqkuOKfEPMZ/3/Z0tmmRvHzZpzumu5E8TNJzTUZJea9Mhu0tedD1k8dfsjTyT5PscC4QFgbH+MgtkvTcgdIUZlqAb0a9XenWNO9OyGH0ssqB9GIyn8sOkaOF/4CNuMWNbzDEeRs5HHNiMC368AKiAW2xObQnPygDa0ICpBbj6wvzAcmy4fdfXZttdWG09REzYlG0fRhfeE89tQLqyw3b06rFl60LjEzFjNPAWLMp8zHBBy8JiL+NqAlLEuhoyWszhNys2KmnqW0HoNMF6DN1mRHP2qtbICWfYaEAQEhIpyvvEBUid0ImvKsnh2P03rxHa28Z+kTGiFRjiqmKnuUc49Y4OIZh/cQHWzlHiPqk/ZYwDPCER6HWkKafV0vteG+Nzbhyw9fhBMT86h/O9i040jm+G4kerYEEFpRYo1u9ku5GwLh7YgT4eDIGqBBiwYrAVBJKZC8hda+7txTwQk2NEK3MvccWAiQv5wm5BRHgkVXrEopX6/8HL5VwjI9qmZuHSssFFJMIUMJB9U9+JNoa9QoAgnKiDpeAAAgAElEQVSpz6X2gJuvVd4lLD1ZwZV31e1lTSWbdsi5uR6M8xqyCCqVcGDNFJ7bUcFIu0mB8whbzzugq0LQ1sKj+M3Qxl5HXffpeJVsElcvew2fu+11LKwec+eh1sEP9d7QpVRgDmz0jswpF2vhFGicttl4HVPzCZROkztCkmZLfVIr6F7ng1ieY3SRhzRhA9qF6WghrgaiOH/MSpsatzwS22ksryTGF5y++Pv0PEP3kX4vJ87VwcgpK3fVOBt01GD0+834oXgNwsmlVAy9a3eAo16zNfCt5rkndqfK3hSMQYo9v6ZO3ifWJOU+zM05cfA8m73XaLe0SueYBrEstH97LnW/mV+Gal34y2cuwt+9tBXjWWduOCm5r+WpTa1P6NLcuqiWReaXtiVcDK5xHrGO8yDQ2PiaXz0D96ziG4mfUvE8+Ukr11/uuYQEa9Sm/s6h56issx0AU0WAMVmtlKIRq09CWlgGZwQqIib0x6lDg6Kr9h26ZlURS99uPjYnSZeYkoEPMSxtTn2HgCh2MzqB68x83j+mpYejcYGE1TFzNG4htjfxCd2NuXDRqQq231lHj7nuOeB2ftcdz/xeOrB2Cs/vqGK4Q9Lg6Dt3auFTHy1VWq3H9La9KSQ1q3Qa/+b6F3HbpjcwC6MR9NST9y/Rb+wzZJeAF71R4Sy1fnRySWVtKPpFDjR6XawS2oXlRqHEragl/5aniqlkSLeYxq3khHkkwIsAU/g5IT13KuN5e/XqxxY7CWn9aBTe/qJHKd+FEJj6TwnimMHC99wecKdJ2ey+91T6r+5PeNuvDI2enmEqiKmcqzUKhdxe4RkTcJK5iGGfZZW3TzlO8kuYH6WAJ28P8ancfvzaveAZVL43nxheMT/EL+E+0K4H4cL4pB+/o1dWH6qpZZIdenzhCoZHGs8rUgyNnvZug0ZHIInLiJ+hUYX3shTxTWjZKNof1B7T0e0HYN/wSvy7e8/H88dXIzPpjWylcLGyTCDbrtVrnIFmax1IVoxfN0tDNQh5T7hao7XStt8rvs0xbFJvkxh3p0WGU7Rq9bSwTbcfbr7iZ/R4hCHVIs7AbdEMjbsx2DZ1rrFmXWZaZzZOM4ufjyjIsHZzyoSeo4G2CTtlGz+lN2oBXRrRyH3HgpqZzW5M93t+dbxo1vNXY3FjTx3V6LlKvYSFp9osQLB1EPRYgjGz0jWn/HKGA+um8cJ1VYxwDIIOaBZgq9VI+qzYmONMtP0lSw7gsze8jPWz37LR97rWRsDzOXN+gSCKfJgU/xAL/lhh0j7J+3056yeQQkZQ+Ah4L4z92vpZR2rcHQb82OPaIlZUF2Tp+L3DGCloz4mkJNGl2Bd9GSl7xY/0bSyE83+Hx1SaTzgXkSMpuoQUMn8ZZUgZVkr+iQme90luv1vhrKt2+nGmrrUP6OcghdRSSdGvKCFcqCgXbrGtMBDdssZSUdRzVwCrYnHPg2TPuYsbkR5jGmdWhublI+kG4T+mbQty3LwhQNbvc+7dFX/T66fspMoa5uWaPgB7msT80nC9FEdrKKN5RfOBnbnaQ/LdNKr43hvb8Ef3b8OZaXO1uie+lm+h3mgEQeKtpnVY/j0CCO40JoETesMnFJleNO1os33rNsINl5ICZkjW36WDAMU8XCR0AqaJL0hIcK82r7hopFi5e7NjYxWR+DZQ2FH/OfrEzibjyBYnmhpD6r2WBkZBb87ErmkZb7bU33bJUhIg4oOYB5opiJbGTrSpGAvCySquuLOG7nHya9ofPqYIG4vgoY2VYf+GafzguirGjIuh6Y8IKBulGM5ZZ4bE62Cu2K2O4Jcu3YNPXPASOstjzsRANSHJ4tEy6JRALK5F4WME/PnMXYbmorY9eLB9SjAZheo2mHleKNMyFkj8BvOQ0xeRxwcualNm2Cz10TpdzIpS3AaNMVQqLgq/aLZyq6j7vmiOniZOPDppm37HfmrrfYQl1vXhOW80T8sN2vrF9I/fSrlTtFJtxvaBCtByJ3pR7FaBr92mbxfzV+O15aDPFL85E5/HDUKXVvklfC7m8wJg7iwRnInjXM2N1sQDGHpdA4g09fNzaLwPFUTCEJbgi9/dhPv3b0Kt3BERiPUtx0YUrn2hfgqt4zouRtoqnfe7UklR8lAFgSqkIrdEWW1uOFoCp/Sphn5P+58lPIumLmZF+xfTSjaJNtkU+8eUgUpfF81mXMvUzPxuFsaUbqLV1U/su0kF6DkDb6QoOL6YW6N5WRHG5SsdgYt8ygEWJCZzfjUbfMN6kX1TFMDkfaixSEn55GQM+tBOlbNIqPvvPcPGNMgLJC9iHDu4s6wOGKLWRWWZdgQha+QcCkcq8GFcDItPVXD5d+roHpU0xzz7e+M70e/A+mm8fF3CxRCbwN0JTrepzKgqJsWnQnlXjIkgWTf7GH7zxj24bMlBtJubGnMnotaFfjOhPvPvtUCUtdWA2HEnUyYlUGX13Arys6Ydb4ae+djeyRuinGJrSLCrAweSx7Hx/FNKwzueKMPi7McaKoUiBXX27ad2Q2sWMb2eqf71WGM+Mn+3MhetNIVfhJ80UYvbahUY0AxSvC2fC28H0CiauOb/Vha9iEaN1jPu37eRnmuG6awdjx9dj9/97jYMTi+w84yvmte7VBxvLlDZkiCMxZKPnAunMJ6IAfC5v/M6y+34wiJP+DDAgZgkTOPxfo9c1I8oIwcEJKJfRxkLuKBTQmiq0qeOUJDZv4KPdF1qPo0rhB6ebrxvKRWsocFDoEYCQMLs6SpDslK0Y/KpdKmNG/Yp6+hPhrIRQwXq89+diFdSLA5E8eNWdHEMwWCNgU8RWNKBoa2cCGNAoY03FAFMtEmdhOQzY0FYfLKKy79VR5eNQZBAQfZQu+ALFdZWMhaEGnZenwcIReuXm7PfPblCJPSVEkSlEaxe/AI+cfFRvHfVJPrKY75gN4PTdyb+UwItFqiNhF7cu362FSE/k9G/2+01U1zy/UzmH3CBujCtkUJQxtVgnzXyqMxU2cyEzvGzQvdUXln4rJU3WpcmQzFnouBaH/fMlH2q3aJ1nsn6N2pD99kKQGh97v7JZgAl7Nc8/fbEQnzp7k149MhG1GGKSvlndGtFes2qxwgAhHEXpEC9jI4tgSWUDEBgNZc7VeZNX/FppIhQGrURVxKQ0cgyZW1IoT1NOAEVOnlFI1Qej+0sCZ4arCyNzZ844gQZUf5hRDjNK+XfpfbsjWTWLGfmJsuq6VjMkH5x5V0HC+IzsWo7pFcIEsKAG295am2j+bnKSUKxv3ETlfWtlzR3Sr+j5z0jayEq1Rh8VQaTErT4bQMQaugeM7c5GuHGjOzqWuiAKxqHcTG8fGObzWJw3lMHoIkuHlCbi8A47TDEnU12P63FdGUUb5Z3YVH3YXz8nCn8ywvrWFIdyt3qkRPpeUB/NtLmnb3T6jYutAg27r65QsjzG/GIFlYkvJxQTJyE3hkRzv7twqHE05K/3wF+StMlHnuens3X4OznX/hmap7v0rrF85lps7nnW90DrYnGhsRMjbUo00uE1FTWjnv3rsYf3X8uBmvzWHfGsl30quyVUJAVWfO9FUhK/nPqpq1TwimYokrP/53XLYCw8dJx9VI57bmSyCKqQ3oYc35ywVRlM/ElxhkRVmgHGQuiDCk3NlQl4pygG/ycyYUjN7Uy9KqUTMNknqfWdJaC758UlMt/ZzuGzQUueI/elVMx30HA4/LjNjnh9GNNNa60LA1EAmNcBL+42rkBMu9I/q/48Uy+LQMQawo13zMQ8fU1pNcAPOSzCbybJx/Up1JBZY2s59XMKFHPgfsm9w4VLTCk864XrszGNPBFhSin2tQlMLOyQYon23HpNycpi8GSIENWYaBVU1Hcytd8YOMUXrmxHcM2SJGyLUwFNptd7m4uI161Of7M9xYKOnorLsp9xsFbpQxj1QG83fY6psuj6C2N4r3LJ/DrV5axtXsAHabgD7uJaMNbiEw8IBzNgifnq2aa8cM0GJELSqgFHwm9dS3/CELKrGwT3E7ShG7ZKrW2PGDuKx43fRu+55Sb9JlQID6VTYgt9BJrtjo18V4L4iYMvRjLx2TSUkpHvhfFVLIgdDn1dt/bzBfiO7+nte9Wak+ocSeOAp7m+hTIMFaFfOm52R5FQcW+exWV5uIFlHUwsNxJAo1jKj8Ghs2RRY/9mxEfUBgIAzleb8fTUT07UUKOpkoaeTbwqWSeF6M080i30NlPbQRHO56TCtv3IbyhDVfHzQRWV6V/SbzynnVWVs+TgQVUsgrUWPz3vN3UnsuFNektbp8r4ejoIvzJg5vxyME19mIm0SJ2v5hTl9Jj9LuRckYH6VgdvSOM251vb7QWbxEsulKFPO9XqHTeZ/fZ0KcwkYVObDbWIAQlIarXO7DwdzlF687TD4cilKqn+QuWKHqBBH+i2EGTsTREbE4K5yY7w29CuElpjjqewC+KnxeLLl6Tsj11a6SoJia5KW5xZbwCUsRKU0yMmA4aFLS0nByPkucL2Ty6FSXdkibNkF5Sa75UK1sXwyXfmET3eFuYmxkMMlyvAxunsfOmdqqD4IYT9uFf1+8W0LuAIAbIjLSdRH/HG5gum1v1MrRnk9jcO4JfPK+OW1ePY1HbGCrKshTGfcR8JhsygQQaLoqJ2YgDqrxQ833qK9rj9ZG/Qxo44ZoCJbHZ0gk4v4PTQXos2AoBih5Dft3CU2TjdfWWwHh+FOdSHF+g1FegfPyaad7X7eT7FHeqnPT8PqVRhYgpVhzh92ke1YrIt5lmGp0wS09oRctRVQFh9PhSPJriVx9LZXtwiJQPB0kftBqHHpMC03a1+VDkZ5eChI0+S9FFjzdF46Lvi8Ysfeg9riGN6UMsufwsTc6B0KmsE19/dRP+8okN6J+ck7AeFAmFoj0R7vl8FlriPdaxFiA0UwxhtLh6OrUjosaKaiakPpf610UDaliMaQa1GZrNN/V9uJV5K+p0pUKJIwGTJBBSbFU0nnyfaQZwQX85oBeOMzmvFitgNqNZK7UxNB/lLody9RpKqNQzLDQA4evGgiC3v3nKSfVBqc0ugu7gxhpeuZksCIU8yxOJ78hIbWunWlRQowFUWamGofa30D/rEFA25hBJW6thedsYbls1jn95IbBh1gCq9ekgKNTPwruwCO8phC8nFxlrAfHdPrH7MH/idsfPKBmaDkfRLuNiNbpMrfjpAjzOe96uQeGeo7ZTIMG3H6chmnekop6curw7T3N+MTSQZEd6IrVn4+pzDtIo/pP1oEBhfoJzy63S41TmyKYQQNJgySKdFZdnov7YdGisgS6Fk0/TCgS6PmkRKR02kj0paxhZQzRNdGKop5skANKQ9dExH7wuEMNXcwgVEf0lq8WrIeNmnheLhPRn3bJ8/nO1I0wVT55UI+Apa5MqvJTaQgxXyRXM/81XLKA52M95HUn+hFwY8mexStXt5+EXQbg3htfgi3euxc63V6Jmr3XW/TVV14WiuplMjF+01nFrQdAR5pYe+UJIorwtH0ctFXXs8l+FgQvaNQzuDB0FQufdBQd+OVMYmUziIQ3SwoYVMNNMqmGlljAef9Cv7UukBNcdjy7EMtH0LaVOqbXJ9dkARBXRV0dP5BiI500bM4W+PX1CmhQjXavn6nAAodeUWpa8lwJAaj0sZcBYEF55b4ezIJAMUjnnDcbY6twMPYzV4EznUYzMOo5auW7LqJr/mcgHs45d9Ulc0DuA376mA9vnncGsbNwlVIWKIx2QIMJK5h0720JahpwZ8rPOvIhFmhf+YbZ7zL16XWcunCLdmDIzFQo0+aJIPMYc12h04SxEDepSVH4Yuh1xUAoIVRn0/EKx8A6UhmC4aNC+r1jCaC5g903J1NygmBz9E9O4mC55XhEVLkooJQ+1JSNsW/MX/R5atFrjF4KG4Y+HmGZPFVuMG1mG47nEjFY0uhTH63UXV1pgPUqMPy8ReUSKMWKRNpQtwlfuX4FvvrYB06UuZdkvlpkxL0i/Xk+39q6Wl/J76YLP7M1c+pmAAzbnaCBgBXcwschxZluUYts8RHfayBe90NtKT1AWLc2ozKoi9EUxFygoN1xB2fyexrTSt+7XflYEVKLb2J1at1HCUiu9WObFzGfH4vriWAklesyv8TqkBKff6Pm+Y9ET06WZYJXn41OIFkyOfnKa5VvjbLSCnAiaqQJeJ3Mon3+6iou/Oo7ekarDz24zaYLYwEhSzAe31LHzpgomqlI5X/hQBGzxTIP1d3xL+ix+a6oyjsGeIxju6LffV9jRqulRyqaxpn0IH99aw4dWj2PlrNFcUaVwY+vUYbVi0eK5P9WASUiGHNDcpRaLFbfKgRIvNtXnd2rrnr+U6I53YKim86sQMpNTp7ShIuVdwHjxxpCZ2zaKJJDb8aGJPuASUQTMETyeIoNrHnRIH60p2PTsPMCIQUA+qIVaiMchPutkEEwu4Do1ihi6+GdCoxZV/PMWwSJBkWovsYju9eL+3SPBWvtIFf+m1lRN1qMwcrLRGL00H6t347u7VuE/PLQeg/V57IowJ0MSeC7Gh5GJ3rHme3c7KTeZK10ekdXqHduw2IDYJ6SQjwUIRYrd+bcS6xUwkyaMBgmyI2KnnXa2pZ7hQQcBEG7QuftU80WBeLxOEQpBpTodjzGP8BTI0WOI5ueUOgsUt52bzb2BgswBFDdGRubSV3AKDhBbJDFDkObOjxG40tGlqrXikUancKGFCKEcTeNTuwIQxPVaA0tEEjB7tIoLvjGB+W+VUVaNWqElNSJUidrJah0HrqjilcvrVMtFxXc5AWf3qdrkRRs6xc+KIlPtYzjTdwhTbSOomWtqE3KjVgKqWYZ5lTHsWDyGT26r4bw5w5iFCQpsdTyaT/cVcR1EEzZIr83RMZinBhuKJ/gQQHtcFJkAcF5NtzZ+gu5ODBdf4a+d9UI+sow4eoZpVB7Y8IzFD+vATkqwen++O/Xm3GQBVFOKPCXI4vrp8oxk1Ui2lXwu6yVj00gt7irxjA51TBxBqTVO5w2Wi75JAT+fiqx2odPA+Tn7y37i4PKZARLv2uCbKwN+MYOXODI9LtYcvMaaB4hN8i4Tt2XVnGI65AJiiVpBuGhj0OyFjIxD9qEXB83oE8e2SFaO5lm9Hjy+Ugm1rA3PHVuBrzy4Grv6lyMrcYn5ZLAXtRFDepEDTj8lqkgmBXt0P4+W4aULTAxCrKRVKd3YnJVSBC0ploAuVLQon0ZZrJe8EPTFTBxBmIi2vQagxPmRYqIXIj8ej+OzUMAWETu4xq0AAKVOWyk6JoGDXYQWFF0jcopwctfg+nNC7rUG9HHja6Zsm9E48uq1T5dxzpN1rHm+jvYpA5LM6nnWzUwkr7VL0uL0z6th73s7cGRVrTltGgE5/i7YfNHYJzsGMTj3CGrmiuKmPxnaUceattP4pfPruG3lKOaW6A6HJHZSu1PzQ9HpU0dTF7K+ArLCOnHfRdOwUMZl6qSfyvEoP6bHLIJfjzE/hjwgSJ4lovmkRuVwjwTku4dCBeRo7OvEkfBtUD063HrUQrxWljMjg6rIzlhF5KS9sHUwsVA6pMYXr0P8TJHYK1LMjcRMuHaNT8gO74k4TdCleBsxfVuo5q2WmH7VeymXKeLvaHF3Gqh3PCiRZhJ1gpyQYJ2UY2gNKKQiKA3N86d5poyjY0vxv923Eo8eXAWT4kjjpwnYvcMBGY4LlPxO0k7JrJyFKiWLCw5FpYs+sy8z14lqYtphRWCJIvIlMIm+DhMqeDIqyEQ/b+cb6DRvGqZ1CU8d1B99E1czDFIljaKosImK43bivgrLDjNlddKAVGAUBRwnFASkUgxI19wyymeTuqRW2liiSKhJoEucchkKD557DFxtv/473YZeuyBDIWKKeM6apnb59aldrUHe/6n8kBxMJSZ/WVcRofSv56E4mEqLWvPdordK2PDQFBYcLaFSM+mOeR4xhJ3orOHQRWXsu6yCsVmU8qkZmgLqvKlOLqjy/VP6IjFcOB+JDfFxNhnGuwYwOvdNZBUTdeD3gnnbGgPVxhbfqml6QfkMPrJuCj+9YRyrOofRhun8DVzFkrLgm0gt8NSTefAzRvKyQfIaecZNzfiFZioj8X3Uh3OJWeUvJ//UzZapwRUPOCxMwwJfw1eNOkSGJTI/Ih3mJzRDWjk9pZeJ2cLLUXXizJWhJiZ2OqcFAEaai4esj5wyC/edf8iJMWtBk6uRi24aFUb2a5fiiKb1HiLg58btzno+eLPRfHIFhxSN7HeUyxz9yCIoUkUgwrx5Zmoe/vNTq/HVF5ZhPOtzbbgAWWf5pjBekjlK1yhGKtKZItMbuQH1dyKnSxf+G+NiULxpU4Aot9jOJZ60vgVRkaMlnm5lH6rNnBQRyd0wY6kavNDq2O1zFiyHl54HJ6VWNpdpxFYQ8pvMmMXjwHI3yGYbMbVBU7warHO8MRmG2UnSrqJCQo1/bMoYhXvnfgiFEz81+6HUM7WhShnaJ8tYur+EFc9NYs6bJbTVK0QjVuYmcHO0q4bj55Rx5OIqBuZmqJc5a0TzJjdbdGoO1t/LJT8l+cz8W84wNvttTM7pR61UI1YQkzD3qdsLatxlGXowhssXjOOODWO4csEYesvjKGc1ZwnR7zbnS010VSaYlRKxl2zv1Cmv8clPdEAzHmi2tj/670O66P7DraTnH9KiGe3990LlBha4AgLk+1CHrOQ7jdcrbi8vNoQuIZf556T9VucU0zluP7L2Ouiun5OJFvFnjDhmxk2RB63g5Znsg+bPpjpJiXCzMwen5+Aff7ACf/30MgzXdUGkhEx1uo8tVkpeBt6UZjI7Ia+spFZyTmSlBQjOjKcLYVAZBDqLKYWY9hH5ahZBOVoRsdKxAR1idhAEVy+hVKZcUztIbVbh4Csn2N0EIjNhnU8HcmeECGpdQMUcIk1ftniTSp/id5MElnugxKfNytPNUdLR7NgzlIyzXO09awYXO0g070BoMQ1SqIXacKWW+BFiUrlYsghFe/+yV762/oI6LRskqGke+nXV5ZV6n1paqrkp3yF9ygKGeSiHVdRa58bueIVaaZ8uYd7JMhbsnkLP4WnMGjTWBGM1qGNkfgmDGztwYm0JQ911SoUyCrsQCHl0G2xY5g1n9o81IpWDpEJi5QwTi/7f3r7t6bbsqmvuvb/LOX1Ln+4kTUMSQlJAQJCEUEkEYimWVOmLYFG++aaCchEFqfLv8MUnffJBpaiiCooHQbS0JARMIKgkpHOBSgidpJO+nD6X/r69tzXHGL8xfmOuOdda+5wTPuic79t7rXkZ9zlu80vl+snXyl6qFqQN0wR1XP3RCu5d2Zd3Xt4uP/bOO+Xvv+uN8k3bV61fhiZbAn466Br1jN3MSYZQPjpqT4mygphgbWYtc/P3lAGP3e4vxlLDm2vG27HG784ZN7zaERSS9c6WfO/E1IWl7nFsaEyVaeC7r04Caq27e6RwT1GuMYbroYYEpjQzR5vZCFmn1pdofQkuBvPZcMSUZsaGVJLSik/alo7Uo8E5ugw4v354svzqJ95W/t3vvL18/d4trQQTWaTDukfHk7JtchtC+wS1fVAAA9Jx8Bi1+gjhC7mnyKgPd9fZnYub9/7rF45Vcbqglsm1W54cJAV61oEJioUkoioKeGdjgxH3sMx8ViKGkTZBRRPLVNmqy95EmZcBguVUwKWOWg2ywiVsHRJl4xCAqnRxYnVFWk/M4j1RZa8XB8FtXBGhCgYuJdmG3USJFpWp4gBdv+rpuBpBB1Ub9Xd91Qwbm68Or6F1uJEQxlEXlvUEtAuhAhYQRTkJB4Rod4InmjXiqfgUQlDDpq7rcNiUra3vsIdhwXADto09TCkL7sxgimoXnCCi/4O8beNDgor3QOATXhWFvzJEVcI3r87Krdcuyo3XDmW7P5brm5vyypsO5dXLK6uRrvtErTLn76q0UDyGKFBU1j2YsQU8b0upzapy9+xwIe631+X+275U9jfvpFBCKwA5v4Zd0rJ/88w8drxdfuStt8tPvW9bvm37ovRLQz8Exa7entf3fNAJw4XWiQ3EWnugjXcln2PTZtXkQo5FLgn4JTUBjjYzE+vrhrh63i0Iltb9vQIuPhdIAi7jdt/mPeTA9UQXtoMt7Xv5ez3UNN5LxwEkAGTxvOG0OBvmmRB1BxbwHo6tCiORtbQxNqmG6+aETKIZPD9tEBXfuNpgK6HdywgeGKb1kC7Y6/XrN6SV8rvLv/nN58qX772l1I69csCpB7atKljVBy084o4fUcfyde6HoRo0fljeqg7k/Zuuo4gBDn+bKnu+75c+LT5IVbjKdPU/Ky33XLgqTNEfQNbjc2RoRMxWPfH6jrpm3VPhVk+UZ2l3J1Oc0pRElbgtzk5YcO0rylX126rbZAG23aVdamSUcv6njo9uh6qMVEHb/4mAjhi1Gya+B76/gW5bRLGFu+trG2dDvGlQRWTcPKmqVxEop1VZmp2K4VaHR0c1jRtJyLmGu9/d+6ZHDqZldDnUeVHaS9OVyo59OS4LPJAvoQaIKl/vxmVyFIYRLFotb1QYHiZX9QaBCu9RSWQLE4OGzkknMjB9/VQVv5i0kaNqU4CWYdYAxlDaKPGtBoTKW3XJC10RjvXi4UO5vrhXrr71q+VwUXsbBLPx2pz/grRsheAw8NihnB+vynfeeKX8w/fsy4ff8mq5JZc+kcAfnBCyCFgU+SsfmFgMdEJiOnfJ6CvVX9Yqgf5ypnFeDo+QWBveQCecs3KvS4/FSW98ShzN9egNBBydguZYo815KqYw6avgNWvuas4lQBInrnn0FANBn40wGo9vhxIB01yeQ7smhkMeb3n187Sn5u+23Dk8Uf7rC28r//a3ny1/cee5cii7znEXuVrqoZTDl9yiDEkIna1GRJXNnhPoejQOdppTwK3zKffCDqsCKZNZanNsyua9v1Q7KQ5Ipt/HRUXBI4fy32sAACAASURBVOrAF648XkOyf0gyhAw6hYxGiB1als57/SdYdEzGtoWNyHaZyOaeQChneRQWtnZGpoSHJVmehc/ybP0nZuEkrwzwPDOhiyhL/AgDYllBPQzNwHi4euJ2Ke94uex3971EsxfSaMWtOtpiBaxKN2Vfvvns9fKjz79efuLd1+UdZy+XXU1g9OdbfPQEUcw4v89TlXiLI14LK4xWsLYnlSUqatfFpl2L27n99xSdPp+h34PSKXQ/WgP2OVIWS3DpKagWNuw7HY03N0/LmS3MWhwD/rGn5fAP4GAcOlsJ06NJpq08f+R8Bfc3PsqG2NgV38NxfD81NhQ2MWcLi9aQHPNENXdvX7+p/Nr/ea78+//1XHnp3pvLseyWrDvaS994OYVqT5W5ZiAwMnMv7SW2FsajRkSoa09ehjWDrHrmYUR8f4LJqcUJuUO0j3T6Ewbr0Zwv74RxZiKiq8BvDyWYGXVyXoePdRrlnrIEfTZt3V0AGsebPWWePpW+cSjXb325bJ+/XQ7bmoGARcR4XBnBs2yOentkrBmVNzpKTV+5LNfluy++Un7yvZvyvie/Vi4P9yz/pO1dOl1/Un7yR7iDp4oxavwDV+Q6F9oaKbgHhR3e68wtX0H4Qein3OlFITldlQl298o1YQbPbVjYp11wY8khVNAIqLaGzMPCZ/Q+FBUn/c7AEjSQ8ifsVLgiaZgoOtGCJxPbUTO6cDIO8XZfoZ0God4YvX2vnYuzg1iEjMZk/K6Yw8tGMl3Vv27vnym//LHnyn/46HPla/drIyRL8gPomO26dvzy/Kdogzk8QH5u3vuv8l0MrW2ZBrH1oXGNhww63f4AninY2y3o33VMS2dIv+dN6Kjuhj+N0jpPW3U9za0PZc0GmASpPKzmW36/hweGUWwmCHEZLgT7Aa3Vj6HHgN8+mDMeZ+kmacq1umeB1Gn9iXZ6rcBt/qkq4DlWsFatWnjnK2XzzG2JF4aNZkmMFlYZdyajmqsecCVX4lC+5eyV8g/efbf87be+Vt58didd+tQ7boypCeeq4Bvt2tllBSQSEbQyTKaGxjIDYmZx87remLomU4hxxsGla7CVNDTc9lrIq7NwHCWwjUq+ZM2tgZkUrga2lmt8xvCpa5WQWFcRnHCoTFMEhvKJdzpefRKpQNM1LCuidmdz3LOCs2YJafZ9avKzRk5FuGgqDUL2D5DSnkmIU1xHwKB0Mbcph+OufPnuM+U/f/y58iv/+5ny2tUtDYx7B9S88pHZN93fADIt+nBgeoAQ4Ob7GwNhhCkFpy6oK1+IodqKhKnKXStYHjyqOXeCfDiCZcIKSHxjTqzrSH4ZmmT2UA004/EUmKTSPZqcFVUI63zhjuuIwaJPWcfafeO5tWOPhOv+7KrsvvPVcny8NjrKtNkTN+BTNp5GhhTzdFU/t7avlw+/5U75sbffLt/x2OtyW6TmJkx3Ad5EfozXMCPR14yZMBPGBkJweP3N5kKilCwenoke9Ke80cKFOCblN6jbRyPtOIQhbpp6vLPH0sHBMMHvTI1EAciDdRcnKlRApzSW/0qK1xRrXHY1r0yI80JyzoEwhZUYWoG9yNUCOizJGAmDRJ3JrnGFFrkdXSNJ1seyfgqTeXkXsA+9YTFzZi4kvTsltLDUefl/9exmbe2FCclzCP5os3ppnrFGYbphTx/RUU0atBy1oP7gEc7LAmneP9wsf/ziM+U//v6z5X+88OZy//AkectaKTIv0ZbkV5QjZji2cugUubl53y++IBBY09VQcdMTheMpR+OyEdEzKOKuuzz2ckmfJfXNWEtaDUCVGz15OeOi7q1XQRPNWABThlmb2T6CjefgG6zb0k8XdwtGGa+pr1r6eOspd56T6YUz9Nv9tHDyccEinf1hnlR62fRj6IeFpoKan4O6i0RbLhWbe1evB67kdLhxv1x+951yuNTLl9ofVklrVRapLkuS1OTOOv5FuSrvunm7/MTbXxNj4anj7Ui4Qha9RkiVfxNrdk6BswfD/KWsXz46dRxFLmRyjNOjtRDK1k0jDiHNXSj1SXUORx6OJlLFN6GMx0p7KKmotUngMTok5voKCPbTZKHPzVaiu2FpzQZy/Qc1TZqKu603GwIGph85WTntj1DH6k/5Nzx5PbIATUmirhk0o91GrVIHuqCF1up2Rrf4vnGUQgHJ1z2ViFtPDQfWsEf3gP+N5G2nP2Y06DEv9g+11oNLOkgR7nQ2XiNlJZdNuXd8U/ntP3mm/KffvVU+9dKbyxuHy5zY3NEXXS6x50QvdPTvWrnb6qiUR2j3MbQl22Ig9Ppat6VZQ8aiL6JmeVn4zo2X6/L1yX7vbQiIIPHeu61Ca9c5P3Ze6YMkZ/be6RkHa2D+oLiaW0Nv3tYoScp26V6ANcSykOj6IHDuTasygE5iKwzcPg0dy/HWvXLzPXfLfneV5bDHs0GHUqBo1R9aHosS0DkF5acjyVY+6uUrZVOe3dwuf/Px++VDz56Vt926Kk+fv1ouN6+V3eYN6YVRq0xQgouLXax+dTqdnAxR5Dyn4KIuJrwG7VnEfEliRCiM3fU+Kf1iBTiaN5yrcVGQGSmeU6Gz9GSCLsDmmd1noxIFfiazaN3QaVE+C1qq5ae5WZoUJ3uaA8GF10FK0RGT1qu1OFreanP5oNDUShu55JE6yaIqK1mLhm8Z0mA/WX/9kp3bpPgmz3a+640nnxk+Et91FH+7LoELau8MWm7ltLBXvDtWKf8mM0CoP5VnQYcO91THB9qztYjli/JXr9tqfIk1pHAupYu//HtPlF/52K1y++oZqVRQjForAIIH66ORfGhl9Fr56BxLMqo3Fs+bDn3wIKyU6Y/ssbUbHAn9FXJ+dq1WOrrwTBg6azfuyB4cvpbGWbMulzOPrJJkaVUP9j3jmOHCrYjX7iUE+JocBj6ikfHYvNoyz9wuq1A+++a75ca775faCyEn1fH5TH+fZkO3za4SS07d7X422ZbNvbNy/cK23Hj1ujz3+N3yLc9el7c/cyxvfXpfnn38jfL0zavy+PlVuXF2XS7Prsv5dl9222PtQC75PNJ/pRoS22PZWjlUVRRbiaPrZyrH69pr2auubVNvkRNBCoXFPhJ270Jx2hiuFGyPcAOzW9+3z8dlNkB8EdNiDp7OQx6Gg1b3yDDoGZHqs7FJ/RfPydisALGHxkOTbAx7XkI5KN3uU1M4esxPiCMu20y9I717TgAXKC+bB2EgZyh4e/n8y93Ko+dI6rEMWCUDhfDoCpTGBwrR98VDUzF3lmsZSZlcWt8x0Zy7pRpDVf4kHCfW4n4hMB7pAacPBjrcHjBurAdOwq0aCJpLoL8dyll55f4T5WN/9kz51Y8/UX7/z54tV8fHV6X79lAOmKl3MCpX1kjj+g7f1igrHCjN7uERvryag+Cu4IHs7dLrmlXSM+MxWJiD8+FG0lp0rVVvhNME7GNF0FsqN1rqxeHaGadnnvkdtd/OndXa9U1HHs21DjPrk16SdEnL4jFY5DzIvtpVtxRwImlNHs9NtEwPQI7S0zmfmeiHEo1Cj+3LjXe9UXbvuDtroURhbCvxMRIbE0rvqI/WHhY4hlqd8mFbrr5wWe59/qLsrndG9VWpX5fL7VW5eXZdbpxflxsXx3Lj7Fguzks53x3L2XZfLnbHcr49lrPdwf47lvPdoVzsDuXy7FAud/tyWZ85r8+WcnZ2KBfyeSkX5/XZOmaRZ87q97tjqT1cdrtSdtvaUKv+W9eixob0vpC/6+9mbIgIrcK0Gh71c/1ddu4hAoWNqw1BRSgBYX9HzwLN9wyErCMXyEvxptn6IBo+seb5VebqO623Kk+0jldpo/l1ym+NLzoXCNFbjzIvKvZpOWgTmE65Wudf4ubM/aqL2lsR14yxXhKNoh1Ls4QkqXOB0KrHoJR7h8fLp7/yZPm1P3yy/O7nbpUv336yXB/Pna57YztorNdJe5dP+06fgpY1a1DoeIddA6Xi4f2/+II3jRspEmV2CLMm1LkCqj0FIDxf42ncmMzAie/kfnDrjodOhSFK7LfhRRm5QXHdAe+vxvKQaKTrGBNYvBfxL8kA7hA/SEehFY+McipUGNXELB1MGyPp7yaq0kTe0IdkFwsMbe5jLm6mDFsr4FC/ysVzSiLJtetSGZ0tG8u/cyJvjYf6N/YOCEMxL8kOhiUnJrWFSvo3uolpH9D2B/jiPedxgl6qcmJ6qM/tz/blye+6LpvnXqcg+2AHHQnkNDSUThS4J+Gze/1GefkPtmVz9zxV77C57DA23OshELk4CkXvGipRbZyI7Dty2VdvQeV39TyoQq8GwG6rhkX1Tpzv6n+Hcr45lPPddbk8P5abZwcxUi6roXK+LzfOD+XyvJQbF9tyeX4oN89LuXmxlWceO9+oEVMNjfrfWSnntYOlGCGl7KpDtmb5b/flbFNbgdf/9hZ/rW7nawm/bMu+1B4SaGsmFGwk6gKve7BcojwwDjHNmlcGsnDcyW+F8Ewx7jXPf+OeEeWNm35XwGOUq/WNW+G6kR/OQIg5Kqldby7KX9x+c/mNP7gsv/6Jp8uXb98qV+XcG/mBHiVkCB3aOYB4hAUJmA18oUtCftWKJxB71l2Q0j25yxCa5HLxMdxCNpqDQKU/YA1XJDIbVJUl7TDTsc4wqz/sK+t3aK4nyj1N/gAwtjO1GA1Tpd0q3DAWkMXLSh9KN2wjfX96xkNyS4+8OGlD+wJqHKlVhGvtV6zGe2JxomHjJ1HBz1Dr2Xmh2DTunQ9b6i3VxCYO8/FJRfZiLiy9ToINFLYyYPYopHqrYUf6WpjUsTjiDdznsawkFYaRDS6dHsF4UHTUmREe6HYtOl/eAXAaZwOdTJjy5lV56nv2ZXPrfrQYaAgG743+HYmvUGrW7dM6m26vL8or/3db9i9eSKpa+9MaO/K9nTQ9tG00Jfs12hAPi9xJkn9a3LmxajIAVJGb0iDeHgatJ5bbgqpxIkreYudiAGyqgbAXz8b59rqcbdX4qF4P8YTUf6vBcX4oF+eHcn5eyuVZNT424t24cbYRA6QaJ5dnm3J+Vr0m5umQf6v3ZCMelJ2EXPb6/bbOXf9Wo6O2Fa9+GQ3JVGNor96PeukXmWTisnUvgUk4yE0/KTNEp1y0rL5gkETH2AmndWOQVDa6QnFP12F8kO1/lZbYm3sw+jJoLBGSSrI/Tl1ky5mQSXNrWYb28hM8L56usnRX7l2fly/dflP56OefLL/xsRvlha/dKm8cb8Y1SEwKHp3SD4WXGz5dWgvrPujX6P66dGjvw8nPxPZ1JS0kQnpH5Pf/AjopmnCxOBqjoNWGmY74MhVVG9MkiGb7jXadqF12s6ZXdSd8esLXrVBW2d8gGIBoncQp69ra4RJMW77xv/FMS79zmtF5uZd53vAP7n2QIDLKedaQErBHbtvJa3VMioNC4fNBtsfHS1p/xPv+XmQoe6ImlD18JS09N3+nxO8GT0qBTUhf9h4PsvJMxITmL1zBYsjePn1VnvrefSmPXWlMv1HYoEpk4welInkq2iwHdvS33L/CgHHYlXtfOCu3P7kp2/15dtUyAyQDvaWfDq2keFogS1tqU+7dGj2QYA/T2WgO/CdewF7LZNuELIGbIhGdU9wVOR3Sg6UaG/CWWBv1s+rl2BxE8VdDoP6725ZytqneDjMYzGuBv3c7NUTOz0q52NZ/1cCon+3ESKlGSw3ZHOQ7eaaGaOQ7C+HI+xrCqePVsSWsI++p0VLXIuu2ez5kC9aGXjw1QoQVBvqf8mWFg3p+FEtQC/V3JEmGy4Rd+Y1uinDNhDeNeMwAjAS8Dt0MYvxBiq1U7knpZtwkSziMM3qXiXJizXQFYyuu0DY+2Jf7D49la8XC/nhRXr++UT7z5Zvl9z7/RPnoZx8rn3zxyXJ1uFGOdnOeU3qre7IIanQYySaSB5PVWPlpyE2qH2lxSwqRb8ptK046NqExsPHz9/9CrWLoEUSjXGmDmpE91hRtUoVuSI8vLtwtX1dZghJJWOM7Fq0ftbOSzp3WLR/pPMKANs7U3dwQX0/x9oDdgohBsPA8fy2r62XZCgjCTW6iImb1dWa8aNmeWX74Kj2if6jwCRgluFd81kFkMKg2GDCBu1gMNHre2STmMk8m6Y7K5MXx9ccAON0GPknBEO6xRngIcrJguyCDCBkEvZ6F9cxw/k3X5cnv3ZfNhd5+uVRxgpkWQOAgZZRVOrh+5ay88oel7F87C7pO2Vw6cg8u4hI0F6HgxI4KQep5tsa1RLxax9dADJLK8xXgWcl3Y27MNyQyunDpo0cvSENjorR0UnCYh/aqH1VvCZIsaTH2qiRpmgLWBHVdZPVwqOejehgqzpFroeEX8UAgFCNXmdSQiBoQ6qnQZ+C1qPkdN87VsLhRcz121SOiuSA3LvS76jmpHpELC9VcntW8kGO53G0kD6QaJhKCOdc1SOhHLour61Uywbprw60jwjKbfTI2YJB4ME6eNdi4VwT+E26sxQ0cgsKVrtA4ijSTyxtIoPBGtyJ/hTnhUl2N2Va1TQ0GbgAFT6qil4sTe++F+X84bsvV5vHy0p0b5ROfPy///VPVKHiivHTncfEiHDe1VTLXyE45X0DrYWSSp60lN7HsOnoZaGq8/krC3VrdyN9M3ug258cZiIzVTdn8wL+MMkdX5KZKICyhXOr6ZQ9ybbKCuWcmcIzZrvaxG+zC1V3nkqYTppA0FwHKSReLmI1MSbG4XdM1VdcVK8m3IU6hXtfEoYMkwyYlfGZJGQNZehWtbwoBTxZFRYylaekQ2QNiQRhqL8GJPVbzTAtUORBeG927jgxBB0MJ+JLPjQ+wfoQ42McA95KM1rcaPSekJpxFqSZu3myvPk6WituUshSdxPIgLMfBTrG6XC08UtzjhsswcuJmRgUO4KJ/qbjCT8qhoU6CMK68rNEMqfA2KD0eNody853H8tR7DmWz2+tFVcb0mFz8AA9bWgPm35+VVz5Zyp0/rVdbG6Vu9bZKxxGMbbuwq82nCHbPHQbYENOwBQtIzV2RHAXk/hg8RV1QAx3gJQzPmDEOD8bPsCManAfNAoMYQ1+I0IvKCpEP8mGbp6PvS/8IeSRCjcQ6XZ4XeLjnxGLsnosD2jMlabetIkNcYRC8p+LLIKwEEnNWuqthC/neJKc9K+YPvCziNVGDqCZ71hs+JQwixoZ6Raqn5FzyOqpRUQ2OY3msGh0XR/nsJv69ob/fuCzl8qKIEVLDMufbapBsykUNzdTE0zNLPkW+iRka1eio4Rgxjo77spGwzEFj3zUUY94NDR3VVettpJqrUMs+IcsqzliaB/U4r1mTLMNkMDUhMBvlkMtx66uSl2mcRiyH7Rkx2KiMQhmoZgrUzoe1wdFrVzfLF166KL/zqV35n5+6Wb7w6lPlenPDLldiiZN5KJYMUyzrJqXtfIFU1klhLrW9ddCMCeEA5aHR/FbcYaED8DpytrL21jG0vNo0VZVz1UBgJsq/T62rybPdmNh4xPYbdn+sf2tplSeYYhDKqCXvIK+3roSSnjV3wma6JcmyDu67PhqwdxYLAltexgjHo8+7Zz+dZoZc4qsVNNVZ9CkZ2Ysn/BOXcDzbl6e+q5Qn3lWN9J6PYRnKS09gSfVmzTde3JWX/uC6lHs4nZi8nHgu+huJ6oB03F5YwnSsMf219FXnQUpUf5pWhIX5Fs+rZ5INzyWoDb6XyeaRnB4xg2/JK3Sa7NIcKM595qNBb/8YH2fxOOkrz8ER614xsdgQkgFO7F8LT6AqQFW0JpzW5E8xNGrIo6o7C6+IV8OqXCTvY2vejBqCqZ9XA0M8GaWc1yqXMwvPyHvVe1KTTg9la6GVGqqR3BKpotFE1Gqc1H93O80DqbkidX4NxSAPpLber2ut18Abv5HXALksMMZC+GgVkMI8dIBLLDMew5+qhb77/bbcuT4rL92+KF957bJ88eWL8tkvn5U//uJl+bOvXZbXr2oIoXryxHSeE3MTgpwmRK6TzfpeX9YGX66T3TiMtQaWGuB6ivX8tMZwIQNhtv9n2ngW1u0mYIksOhxtTI7RAq3WkVDwvEa0mEVWnx/U1aD0LUbzvHKYCE3gum321BGgxuVBkHNsT4LQr1AeCUCda1HRkU6eGhm23i4NxYeYQ8iWrtym1QZcnLbzFde8iwpn9QYFg+ZdjpQau+2njME0l+HSZzgNWyk+ZgpUfGls505s3vPr8uwP7MrN5803gSqT3h6XDOYOz3vvlYrz++flSx+5V65f2vn14Fhklx4MnPKd88uCtbZS7wbMma5HeOVBx8oZ37jgVFck3ZbXGb8Zju9taGeV0AohPGCm9x5UzxcL+TT0rO1LybAUj8+QoTwTOxGHl813LksOBTBFBuS2PigU7AqvpQGMmv1EoTL7JmKsJcZDSLF+Z8myNnXwMgpyzeNRe2ogDIMQjPxbyla8HZr7UfNDPEFUDAINhWj5bTUKzECw/A/J4/CQij5XDZAb1ftRQzKSrFqkJLeGXWooBr/XMt+azFr/rgaLNhBTMO4P23L3qpTb93bllde35Wuv78qLL+/KV26flxdf25Wv3T4vX797UV6+c17e2J/b9crbsqmNy8DrY9IecpXSHTwGKudGh8Isd+EXnOct94C6rlzDo0tCwMKUP/AvZjwI7IG0OT0Zi0rx6leeAe29/jOzKFOM7uVeWuzDfz8suZkRCqpdJl5Yy6VQgGi+RYfJT93rYJ6ZVI8HAkq1yqs7Ez8PDBfXWslYz1bho6DTB9pl/6Uh/fXo3GAk7uQb+/L8X78oZ2/a+/6YbNTZOP1JZ2q6VIbBImdmi31v9uflpU/cL69+ugqUekf8aT9/Gfz1UHNY34NIysyJm6ftdvz0KWWF/OzS3sKQ6/O7y4P26zk+MEKSubWEKP0srWkWZmwdPCrgLo3TlafTHLNRzrXyEkIW5hGQ205rHomGMOqP9NNQi1jCIGLUSOKnBmhq3kj1ZFRjpFpj1VNwfVXKYbstx8OuXB9rgO2s7I9nZV/O5G/9UQW+29ZQwxRxszJEl5N/HgEO0pyt4KE5R2s7iYYa/G3e//OfllbLa3+WJuOYCdpKujKay9Bcu4CVzy2tc2mYoeI0Q2coDJYG/kv+voXDaF9z++Ul98Y7hX6cFkgB90CyFn9zz639bum53Zuuyzv+1mNle1kFkf7wQcJ/b70H6fgWGbrRE0N9e6Kkjrty50ulfOkjd0u5dza8G+VRwGWOBNeOv4aMH3ash31/zRof5pmWZ5Lss9yQttpFaOfUw8NgkY9qnIeBwZp316xzrfxZms9sBg01ELOK3rPbE+XzBZXX4nJp3tH3S7JlJDsf1fwPS29iIPDmegvWxSpUgciAsXUWoPhoazTxmAwwHmtJ4S69l9bFayHjJz+jO0hVXwSIdrw5AsB3o32uIi4kN3WMUIkRDSh6BJfsdpq/jIv3OncFLYhtSi+hLlucMl7XGhdzuGZYzwkVZrB2vb018rgiTMxdV3MOHvuWY3nbhx8vR7+DYcbttOSRkomydKp/7V/flT///bvl7hc1GbH30+5pLgQ14uOWz3o4STAmo77yind7S/dP9Cl8jhb4jRGvrVEsrQCcw+1IxizRQ9BZVGHN8TTwMi/8p2N53YChf0lpngKfpfXO0Ru+6/Hl0uFgieeXeL2Vqe06Wc5BR83tNaroTGY13TyX9NCI3lp5i3FmadsSzhMvEO57Y+q4KkPmZFwPZ2v00EQnf+Dnc4hBQggUBLOIVDrRdDdtHQ2lIY/FspHOFc4balPkQUhFlGw2dr9mL+kZZ6bOGK6+KGOkPl/d7chgXprQXZGUBS8nQdurK/AUo5oJWDX714QbrVoQV5k1+2lVRes+XWRAx+fYyKAAsEdUqttbG3FM3cBkDnh8T0MtunackFNzHwLFGCr2TXCxK9OesFwSoIJTihc70+Bz09X1ZKHwpkZTdsq7Lvvy7Peclefed6MctuFBGNHLqSHKuofdcVe+/ql9efHjd0t5Y0e8htGCR5Cpxm56TbcIs7wb30ZPARMu8s80gyoa41Alk+QxiSA4NRs3+1mQFIU0Lwp0DQ1gh/Ngbh1D/5eN6Alt2P6XFFpWALr+ygsjI4KNAZEpdlJFGkTm35Y6DK9efma81qHZlt5mad+P0faWh4MD4k4/A28G9IDDy+FnTBOIGRzHT+UElTXAovxmOM8yrj/uNAF0AGs77HrORneOGW3AdNihyX1TTTd0VBgqvHK5x4tDyIacrOOLrJ51iUCnt7gD78QqA9aWZ/bBn39B7mIYWrsmSDgxqGchszWz9mTTm3etVTyn0NeOMZpfbYx5HxQYVJTLknXRfN9aze1cLfPP7+d0RjxxubOPZ7xH8pXsgbLDe3ucO2GtxcHY47U+bDa3wX3Zl7f9jRvl6XeeS7lj+unLoMlw05MA+dhqSd6r5+WF3/p62b9spWAD2ltjEPEza/mAleIp74yUFuNuDa33PG+nyoaeoYz1LZ3oT+UH0LYWxeVr4+dw1JORaz092XBZt+IlmGDMNbyGGU+jj4Eyb/TNaMzT5GArZONvzfEJv10PLi2NnLbPdfgYPXUKjzyMzlq7ykSnH/jnGmLouaRbYbN2AiemxgJqDYeRIdFDVjt3a7ljD3NM0dvn3J56pzLAhOdbA5clo4nHZcE2Egy951uB2BOQa3A6t9Y1MKwEJd4ZytdYgtGci65HN6eMrWseu4fn9ns4uy7v+XvPlPOna4KUnXLc7KdgQfeEm0/QeDqJzftn5U9/5+Xy2mdqd0C9ylfW6yItTn0tXbRCe44meu+2gmnEY0ufj1yhQ5xTGGZkHPO7I/z3aGCJdud4hOE5WvtaPl4qZkn70xjiYvOtVt22MnBOngJWMkZncUsyN1f5NKHmDq8vjTeSn62xeCoeNFFxuZHZ0vxreGOJXtbS4txaRjy9Btenwq7H5xsYCEsCnL8PBEflIAAAIABJREFUFyaEFwde+XREb8G1ucAI6lpKlT0pZNsDzFrPJ9zm3b0q59hXU6F8Cnz8WR8GHZOm4yoh9spZVE3oj71Hr6PhzdDRwajBEINDdc/Ofxi/xOhduPDz9/2gPW7Ty50Q+1hwZgaYDNzyLleZMPg91mdQHsBm+9S+/JUff2spl1eCjWnTplMoI+Nzc9iVlz55v/zpR14tu+sza5ZlrbM0BtAMzq7Acb8AgQeUDvNTZ6nMT4vZ/6uJ4mH5yGgCbb993rlx9Z35kx/R2sq9zI7XjDEpXUvfz8NkzXIUq0kIEPH2ZBZ6/gettGKhNVTUO7KSptcs2rVoI858joellcFakccDPkobV/P7kJq9zew5gXymEm8C3L5sS7p0OV9yJTJaODa07uqEn1te3+YDP/fp1OU2Sm7lOjfLRyBKQCzKrV6mp57BEJ/pKJmQa8xd4idprQOioWfwnjPwcK/1C4xf58ZeIO7te19Xj9EyG+l4Ns6kFIbelzVF18m4wrbFeduToUcTwAf2MLH3LF+gpwUolyBtLxr1yltW74vaYeu9HIpqlp6YXsgiEYHTUXTyUXOzlOOAcdLHh0KfJZlVA6yVbqO9CM2bstnsy+Nv35X3/J03l/2uGggt9Sqs0cY1d/Nsb8vMVlp9595XS/nsf/tauf9VAwV5JjI/AKcEF6oTmyr2VsIjusvjdODasJ3zpsFUjQnKLJq0MA7FrqkvYagE29d5teGMnkptHX5EbfhHjtZ2b4h81UPclF6sV6FsGLlGYQwNkd9LEZ4wFJSoBBeNx5UQ7FFvPYwPMR/Tuz1LS9H1NbhzPDfvpsMMX6DCW5jK0UUDSvCQQ2ldO4BBOAFn5kvjksaAW1BOaXzwJGQGxqcW2vKRfe4kpL/gf0NeEFxonilsYh81WVlb4S/o61m4NESC9co7wG+7tsxTMTtonmAiiDL9YOtUHowsQJdKBq9qJKHzsD6n77sH6AM/9ycdkxFpRASgJlltdNrIn7cKGaSiAisbDAxZdbWGOB4JBUbWCHMNIP0VYtq4iNOJqU8GgEesJxQVTi+tUOB5pqOqCA2igBDOxGrfiwLXHvDMdI3qSd/OnUJD2AITkfoW4weLjbkj4BL4h1hhg2YKP6cCr5QRkR6S1lm8vRQMsGT8RnPwWGsrrBgf/F00CAc0DmVfnv/+x8o7PvSUJCgKqx0P5XBCWfBQnNzflC/83u3y5T+6W8p+R4ZrNgCzd4z3WkdGOmiP9vEsGWhm+ARuW76icTwpjYULaAG4bfkAu8X3o+6KsY/wELV8wrTC8/YgGuOpnaF00FeGeJaVIOZmemC6H2GRjGKnWJiRrexj78YcvnqJwRVK6K/YZjwFvQTv8X7ynrJc5XLdkEGwwVraY6mzRhZA2TC9ifwy5RRQnZPdoVQnHhTxGME70tJL0ACM0ZB3rXyx0GHKjWjlxgwNpK9GuGV51dOLUfysT/I47ZhZ3iqE6jPWbN+6aGYZPtVD4NKwbIkGoGGqByFEuT4Q/6sLCyXIKIUCnxoT+ak2C54BHwIuFlvfZiZgIRhCT7dLl7h03LGcFcusEHvCb0wwcwhuAcirniIgUmPaMTOrZZ8evsvvhCHRfh5kz9gLApsSV1aRQVhZ4bAyAiTnBVvkITNTox6Z9xw0oIleYeUHUWNdPXi0cJ8SdtBgj9HbfGmlJTAaXGr1sptv/9Fny7PfcSk93llA+Qo4hEFy2auBwGjqTBLuqr3OX/ncVXnht18qV7dhlLGAa0/8DDvGV59WlKqZGuboDZDKxkZ0HoXCy/TQN8ACD/3QUKuAoQxHSk/nDP/aWj4KuEypH8YYhDRotaWp+nlrcFIVVkMtWab0lEndS79Nd0jIWK1+xqHHHq5DbunqWzyzUlqrdHo7WUdzme6yRMdf4YUKWd4aG/HmVJH3ZSWvGTSWO2b2MDIJ4SYvMvRaTzcoXvLpfE5OkWDoL4Q+xbMtvhiXIcE91JzTMGk8SK2+HJzqqDz/5gM/9xntMyVuPGp7bPsNj5dO0CpdtBmWhVKrXr0i0p5GGRbanJpQZYeth4yEOvCN9tVmokI1hYzfxMsmWa/uho6rbGVNRzhdgqHkN7po0SMRCaEhAGsJjl7ao0IDxAbFwMk20Wshyk08QmHrQSlZbiMbMFR5pBfW5Eu7bO7W5cilU3QZDa7ulJ1M9L2dL+jKb6wdF/Xov7l/hPfxdhrEOs2M83cUZlm5KInns6YZDUYUgn9ZL1qU4l+jSdCaXUgJOvWQQFovbVpAZ73bq3dGGhYpwuXGuMt9+b4fe77cfL62W+0nOabdNM/wdwncd3blj379i+X2F9X9p7Sk/+LH8zUm8DJedYMjKwEdw9SFvet7AqXa1bRGUma4QMWQ4U/tYQ0qfmGT0KGtoV7eo3iNC53AETiFBg/opUqxP2M82wb4is3/WoKKTHSdQ+HEY/DtftIQB7e64qoC6jcPTzFO3AqfuC4nrrfVebjrn9AqUorMo2eCMfgTRypO3hNZYeuWckjl4+lPUA14DeWlYkw3F2YxDnNPFxvH8lEy3yHqF/dFoB1w3B9BsrG9JNDkfPusylDFPPORn2/t1llEfMN7iGh2mEomOQzXyh819IGSZODfj7NGE4obyB29tAuUDdkp88r/mwnWyH2hHsENh2DVKNBW3WSYbWpLdNyGGYqbe5mwbnMO93b0SgReaQH5Q2yRvfLBP9kDDDmi41V+CJ6JwYK/TErSnQ+tHBfd+8Gf/SzQNux1IMNPMlWz+OPv20TCIDUo+4hxdFkEcyHiSELPnyeJHUZDhLt9PRA8zsXrmp3oa0Zo1BQGRohcqUuM4NaovJL3h6xhhwM1cmoTm9rMZMBe3aUmpt1oYg2fb9iMTF4SOPI+u+pNwU7yKGAEmIAk4wMJqm2i6uEAVx/eyafCueqJaW99g23T8ErHCGpKsBJ6Z3jEGKAZMUJIuWjsjc5v9p0aJMdyeetY/uqPP1/Ob5nQoTYAETrXZ+ts1tU1kzSxieD6elc+95Gvli989HbZHXGVs72CXgXGb71M6tZQAZ0fxMgnqUJjtDyG/YnKgiaH0PTLbuwuECyN9ldzVHj/6ltR1LAi8sODKBTckTBt8BLGNBk3DY1DgfEJMskZ0o7gTeUBWxgBAS5upgf3k1L4iMu98LrP6Z6jbKzgORgZShPBR/n3fHVMylg3RZdzNMyMbi1PMZaUDnE7bsDGETwRtbHVkAPte2uqERg2rWcJcgv00srqOLDohRxxW6Gtyegy4EopTcYMLD9YnmadFXDIYS0mDOXzwIPKVDZk2qNMX15HMrOKpUhsZBwzL09uiFXBn2Raby4Zn/og1PFRet+rgAAUUnKyG3zTdLHNB3/2M7CxVSUmq1YpsaM/ErF5j3KWzxNy7H/Qq0roCrQOk/VG5PFagI4AnAl8UG7kx4iu2W+wo4ZPUGXGzB2eXgkhfgxC1tGc+gCNSmJGGmt0Kl63sCbJLCk10DUMpRhxHt9zwqxfuhTjTSGsAqJPv1l4TN+tQuTWt52V7/67z5fdE2ZE0Gm09YLIDsMCJLWqv8oMh235+ufulj/+jRfL/k5VX3QJzCD9Lt6GvAgm00uJoATXYU15vDEMHU6ajoTTDysL/X00xxTP0ycDxt6QanI7pb21wCyo/HEnIhksYyhM6bUnZyDQ10Nz4UnwfzpkMD8o4SSDswPoiSzrOQBpKWvkqszMnhUjYr6caEIrE6D1FxLr7XSMnODd+JTWErw7lQnt3noyfw4rPSmzDl5jmTeSsct01NufvhWHMT4UHaaJrCFhfLopjEBj2INJlgYXwVOmyz74M7WKYaz0bKnuQveVm59ID8x0c94C4c4B7EGV6Og97GrZbgkk9cbqj18DM9HBKubKCPfTEZ0ORzAYEel0H0EwywR42hPY6xpctM/gAMvu3rm9Qiou4+e0PajIzdFKjDDeF2J1pnTLoXzzex8v3/4jbynbSx6NbgtMprWdElOlAynzUsobrxzL//vNF8vXP31fq1t6UWNyE/XgMqT1yujmxTnpPYKVnN9nmqY9PJ9NMxf4XKcS0ZpFNXJknQCfMw9CkvFTS3S+RC+gtTHFmSC2SRk3S3NPdHHHoBL54pVlsYq1PLVe3pFRQwt7GFqrw5DZaKOGLuqtDfQyPkr0vN0dupDLsbKBPkcXa3C1Xt+sl2dr5g0Ky/LmFNwM5fSHfvaFZK+2CoL/diFrM6e+7AOB3JtYXm+7aXXeZzXIBNFTjw4Mv00yp6Aw8kbmENaFXIzh2mmt3bXQGsAEPFbaS04V9na2PbiHyykyQaLMMwsKzNfCpV2HMynW0VEQLR54T11BNGzfOiNkKCzjRlWrJFKAoS+SewKkxZH+TcmzvZsWN4fyrg8/Xd75Q89AZ/ni4zTd7t5Uvrl7I8dDy6O+9PGXyyd/66VyeGMrseSIhfeNmRHTtkqGcQ2DvQfDuWMAG/mIefPzDNceTYeihCakK9tJ9Pd4WseectJIGYBPe3H87KbPhbATODVeGz7stHtv+QQpbHMywuHUoa8WFyNZ53BlNzWr0gU3oMCwPSU2ix7RUytDums2udHKq5FyGsFL328T2vXplvYcFw1d9dYHA2q0lyW6bnVVV94NdF9Lv6N3mbYEV4xfsBOF292rQ/Tb1RcuL/twlaGbgwUbJPX3TTUQALyc5NIXT6N4Wnq6VXojSUefz51c5mt3p4OvfX7tcyuWP3nkQcdu33vQcR5kzae887Drevh9spl1ysrj2dEe6ufb80351vc/Wd76HY9NkleFiWa0bdfqf2NTPvFf/rzce0nYziWfh+dmeIF5brTTh8VHV3CvbIl7CvS/Eeucmz/HfOdMpFN2MX42ycfeoWdkPD+iGx4fzS76o6z14qzB8ZpnXKk/BGxOmUeMkYfAz9q51sLxUeNy7fr4uY2EGDh+bKEDeQj5oJBnw2SbsI3k0UlCY3b78OlmjcBbuzEfqzHB8P6ioCWd05tTYWKJLLLPeYJyw2shhHPK/vhZ30+kBXfByfufiynO4gUn3k4CZl5TxMo5bsoLm2NC0OIcs7abfBBjowcTGZcuNdpeHMvmzMjZaGpqlsQ5oediVGNhU8p+W/b3OQN62VBhGIxwyPjs4a9LL4shxflQwwj+S3Tc7mGIg2aCHn6TzBrc3rpGwPZOay3tjeirB9uW50drb+m89/d4LPO59Lx9g0SRZZlrl/M0snvuvRH+IJfm5F9PFi/Rz5KumBtzRHuraARwXnEmGekNnmcZF33+m4PrGtgtyV2mQcfdX/uZF6R5l5SAWKZ8ZGWrOpRSEVOOqh4tYUxKSKaOnRBamjWO09aotAcbx41U9fkWGC0iR4ouukLpG7r2eBsGDLwlABoSs3TvXIWg+4MLrP6OdXo3R4emIdYLbcJthjEhfACLOv8SXOpeUYKiYZ1QRTBYEO6hoJ6um276Ax5GsPU1maLkdWlZG0oSAz71GZ/b9x2GlOJA4eL4BUDJYm+Fbav4/HuKt3JbJw26TN2pLdFPaK1Zi6NSykm5rarSvBc4UZWtdp6MiggPvcGY7JZIjmCoK2j3X6fATamtIGR8ulGv1O//2zu1gK7iBlabg9YNek2JYMg/svJDMBjzHnoycQmwesONGa2kOkoIcW28Z2cZA/dvkFR5ZC1zE7/2Y9AMF9CKAXqSKQ4aYFqRdzrJdWlPJKTcODbp0brQlSeyXEkHMutEWZ9QPlQZvK2JrZDHlPioJXzGA51ruVuaUrK3gsD2AGj76IcJUOOZZR3zOYHBymLz5XeMO7wHsYbvpCKDSkG53Nq7UxA9aSjB5C3hCfKpxT/K01MorglzKm0GtfQ8gz09BJnsdGThk0lVAqqoPAQVq6ywZ52BYg6mt6AxtEmykvsGLly+KDRtRqDlOCc+Y9kiuPjQT6sHQUtFNAGrfciRCGJ1sztlaZkxoaU41TDQDSj1KfFynXmQESM/5mpyCJpgkbpmI8bogqcJb3ANKgCa6qfVDdBpzoQM36UmSnXF1jhjE7e7RZtag79QlyXC4VrhTtIRu66BWCc0lD55LfiUhVHyIkK/w+Getdx0DW1rYEWAWNlalO/pCZhhGmlngc/IjNb+AbUED+Ml/Fp/BoVgGBpMDxVnvJdp1nWeF3/x3lMZkGo8lmFNTb6JTqs3b8NuXEoYcKBzqOXZSZ93M+QYJyiNhTBnuKRFURiDDVI8D7i0wpj/bsMgPXpQxPSbPAStoNdHUwaFXAubNKofzNCA18X7UGT+z+sxPqvtm+HhOES/BKYbw5DnkYSBSjIFsWtfQ147cAK5kWQCSiwhpPmA4TyrfQzQMkcMRO4X4MoaISXNBQ/SMy9AVYQNjeddQC2xPG0bLsVBrmLK6Y5KehVmFs9v5ALCXPU9lKzK6jrPoTR42kMl5FzLy74fW0DAKXSDz2XxOzHOu7gz9Su0V3ksDiC99WLfoBlVdnGYgGxhmZZkDPXU0DLeKR3huJZLJDM3j3ixpTvWJVkvAscoZ27XwmXllW9QeaU8xAcwHpdlY4WFGKHUE8YNBBHRbnn0bMcMaiMHgkIQcj/lajQmhpj6b1ShC0b1oYery2vlL6W/gIlprpQqwnujYWTJIQCYqDuTQYw2qXfjJ/HN1HLtdVhbHue0J4LsFf6MP/YaNZZbmqQjABh8zmzhEVm/RszL0HmQcXoz9s4K/NzYaKR2OB3eYB5imDI8WwAxf+Tfgz/WQO1E2EzZcXkSkXZ1np4CY97qw9zzZEk5AGLe/EjIcLQXMtSWV0v82IMxD+CqtcHp0p4CiCFbe2PNydvWQOg9CxnU79R4Ssx7InMHcJwoyl7sfpaNWhnS8leWObGHVlYzPEZEa3KoeznTEq+zV/JEHvItrX0vdInIW1g/aLxlHteJ017mmYNLu8dYT+uNbGll86GfjiTF8F6T0AdDduOWjQfB6qkTA8OPhpTtiSyEQGEgwv9mLjDGO8uAnjxgfcW3+pnPUzs+4nRsgG3Hl6XAfNXbFt3R5AYLbSTBBjBpXKNTjlKkGu7MQ2Zmoc6PkE+qr/e1tkRHx3EQJgjMTWt7mWAkDcqIx3Q5rHw7QjDthYDn/ftZiLuI9wqNcH1Tlrl7fmCmN5LJ1wy4ts9xS9HoWOmjuDHH49JzPRroJdvyOLJfCkPId42QcrcnG3XEsFQ9Ep2w4MYlxPhzcO1AT7aC1lxDTh46VpwgTPA6PMNlPFa8CjNddRY28pcdQeGSjaPqAIfOWzYqrjRoZb259UMu8dytogyZwatVv7MpCLrdUwShPNihFflYAaT4jXs6qLNUcw6a0m2cZ9C5r+0zA94iHPZoiB9j+dayGfaDKE03NykMDi+j4eM73AmJcWhvRoe6zKbF4kS2E+9PDI2R0tQNSvfMdDCkAVzPkByn0FWmlyzLWeaGnVkv3TK+cNrE3nSdCElMYAZ9YF11D9TQTlfM8sBgT+/oI8yD2CfoG/+iP2QzpulXvf22B1PSCxP84LuYIxsfm7L50D97Qbydx23/pip1R+gmWeZE7Yl9B4byRSgwpDWoKCHt8nWobnj519jYvq/jaRtR6wzVXNQlbSNNBqD1ah1B3iF3LJDStiSWi9e4U11dA7ya+2M57ja13f4EX7p1c2ZBmZuM9j3AdYhYu7kb56q+0SugwhZwkZCJ41PVdP1vZ+O1IrHlOSYPhxFwZy+H207bIQtc0Sq3ukwr3IkUskVpra+r4DScQm1oB7faMlQnggCu4+kcGonheHl9B7TlJGp0VBmtkqTmwBitGDy89W6i/bY/mv3NOsX5M66B5hAC6A80r/BRg0RCZtijyZMpPuBGJkxYW2+FCyxTYE7xXZ+u3yOOLPTgcZ2e1LUb2MzDxncVuAcDtFpxa7zNe8XvAsvWdqkrFTpAZz7FIeDTir0uXQZCDX4wPE3cQufUMMIOBBetxKO9stEpT54In4Rb8vplOtT9kMyx/BLBin2npEvtwJu4tkQ/bO7EI/ZZfV9lgslEkguu68gX15OtMYYpP27Pudk4f4p5Q3I0ywKW13a0QRv9GWS5XHaeCWtEYLRFm98pTUrZrv1ALmblCGVuOCaac7kPOKZ22tAv8EvV/gVovR5zslzD0N4yG7Kv0prvIXgwRonbVlCGLDJN5D1y6dR48ZDBoSouMyIc/xkbLNNZXvbCFbrUfDsH8jEybVjHRBhS3j8FB4eggR7KXcYZXkX/kvxGqf/mB/9p7aQII8AYwC1ux1gYWH7CNJOhiW8klwXoy9wlYuywteTfN6qOg0myurBU/SBVmdWJzE4I0vxCrYXWdaIz5P4BTiIVuObWlE703EsBvbxFiIT3gVes8R47Sck0OFWainf3ACfSBGyVAA2eBBPZg+1HdSWhmoJasiv0mIGX0TwDqpeTy6QBdjZjQMx+4gzOS3XKUGguDw1NEQ7CNKaoNRBGPQXMMnTJbTjEPt1R0D2W+B5kndvKxGGQwlkFUMIQqi/BoCSSEnxXgwdGDgsM/b05lfsa89qwFiMBMqkTtbiWQX6OGIt+SFWNfdyGQRJUa4lLWJOSdD+iZ/Tuj5I0CmcNaUwVAm7MwRvgSVhykqZ9gC/N7anPRatcLE3nN/q0ZDs3tCxCJ/sHIUHz0glfRvaYqhOa6lzjvSAIpXUdkg0ytg7gDpm0EQx4UlKuehKyIQchzrFdp3jPv4LHgNzFYDC21ho8JlOXnhNpUveLNA1lbv3hYHYAQw3sJI+SlRQINT5v9+OoSUfLIDqZ1i9SaYjRZYfiLCXTEjExKDzREntq5KHg1DQ0DheCC7b+TGmbiZhzKUAbSlROm+ZmMzokQufn4ZmBAVXFguAiy1dXWaPLTJMha+iD54EtUOuw2Y7P0kRxbxLCaEHMCxi7YC2sEbeOwKPOSextmKjS2g/+1GfMQwjbJXwFLpgo25atkc7hTOWBAT/VOMQhYZKhLQzdXNrYyiJVkOERBMfqqdsSMRodmgAJt5QQnCor739tpkMY/2FwKF/gXMZHghCBqY82l1yFLEuF85oRTUcJe46TXELgKkZ1GSaEAQpYxgQs9rQ5HdJkzMIKitweGruqlraeCoBxcuE2Xis3xhT7+o4jTMdwZUjCK53oaC0YRrcVuGgzht270SUWnShVOtCJeCKskNBl69Os6Nh7DiVgf7Y+AFX+Nc8PBCetoQ0/RHQBooygDQFGAR8XPLaznhHM+wLJ6PIy7QRmI2siwdrvqQBATJDhTzcQWFn0WlIj6kJmDsHVRw3mc68/SMlsZGV5BwIYyKqUkP5ggo/3onBA5RXoIqQDUbhvVrO9g/zdxdzkQTlfQiATrJl74O3XPZARQ5UIYeypp05EojyqXjReU53XjXmwXI9m/TI57Ne4yhWRHZtgNwRY6Dc+cJkMlrOSvSSbihbAAivyvDU5wdkV3g1p2NST0JDRmuw3NBHkWMg70lJs1VJFXRK/pCQ5wAoCYJ0XEglrNJuSL4SjSisGZ9BZeyto8JjrTKNzvTgKMhqrpqRhl5CoYCBFSzaQ70UIx3igzkH8onNHSFL2+kM/aZ0UWclAnFBZF9zE9THO0G+NMJmalG8cQOkWKj9Rg+OthIhybHw5DhwTc8Q4QqLmkoZoza5QJgMWkNMb4eAWC/dRIIOOFWoJGyXCrYYLaqYEwMxkKGJlEupUjVkweCQkRGkVa/bEusamRPz+qIcO7dYyv3UviS7htTaTGnzbCk8XSqz4DOemt6K0SeZXWIfbEd4SUw2s3OWknpVlwAWqBIW1UXbpCpDLe1RqePgExM9ltxFXdKdweJn8mG1jgJeSvjRhy4KHjCfALocuskHLHgA5ANhL4FvYCV3nEQxdXxPBpEMv2Zg2HqAbWOswwj+mxCTDgg5HycXJ1joZrnBVIqlQbEXKTWI8SE1MktSwo3XxDD8HDV0sIwKM4ZWUW6YPCHYW9rlMDKW5cCkrc8K5I/RrXi12AijN25etJgkdotByJRwyxES1Ix56T40i8iKpJRKHIb65lPV0ByZMCmbHqOEhs7JcVHjyzZngOsAfhglAnS9KwiGCDF2bPM2LUHLoKsU1CZtsoGf+BN7bME/iN1N2XO0DXMbanRpdpvshzQ0gHTVgmG8jle/cEaWhaJBDlamig50uVXNofkXko4Sj2HBB6WvsXdHf46DmnmMjbnI404w0H/ZBtCQ839bwISWi8lo1EIQZjdNYEDG/xWkvsVhiyfxH5vxEpAbQtlTLPJFaPpQYX6616V4WE65wRUT3Rj1DRmvJziw+AMzWFjE8e+1ZYFT8eZ0u9uDijoO9KM/xKILKGs4baeZOJ26jwhG+XG7pqHaKN3HEzgBCJ+cbNAelCajAnBx7xEP5mtHI24Mwcjd/By+YF0QLeLaKoIfn9ppfpkBeb3KV58PIGpJoBAZgqlY+efInY8WJEELFTpJm0vN1z1koxQmY+QjGMJgc+4r8Fk7GzRGq3kbx/ohPRjQxzpI3uuvwUDu/8DzdNFrXAOXD87ZrmPuut0chd5M/MIbY03a0THe21V2hDAyAEdGsqR4QmcWGHrwLblQF3vQxyjgZdP2bZKKzM6xZLNMr38TZ4y/QGy3NjagxDCZVxVNZwoYCHRjiRtrgBo9AmawEzdaoQv0RWApPT5G1KNNoHZgR4hPyZ36MuLQs0eXEizMtyOuNG7hRnOPvFr9K09HHyJw3ri/nZJKCa1NqzpdrCjobm4EwlovtQQT2lJ2dVgvU0YM6fpNg1k5qL6ePO7tuvzd7zl0qvAY+PUbsom3KgpNBJ1bZ3dB04f4JPB1CaenYnHul+8n1VNAOgDaRxLAX1u4Ja80Ml2dr5p6jSF9Pc3Q8YbugmS5iTxgHj9aVVAEj9n5rPQzH4/X3YTQUmn6qWAODHl6BC8vodStxjgZGcy2s4QHokVb3ANhYeoUzMobE7SZ55rSlsZfwsfQ9HydP5MelpeH7kWxcQbqCl/QcBuvta7BXoQcu86WFDxFsPQvRAAAIj0lEQVT/8BTh7m+fLgylWEH4RPwK8lB75K/tU0WAdg3uSDd4SLWDRNXep1nqk2EIFxPZivyoqUE01Lldw7IvVTc//E/MgyD7CP8oFQGFQvNElohp6iIY4NogBoaEn+s5Wx6Z23ADkQtnapDAFEkZDb7WmGmdwmtzgyKPJoiLAatlkRkuvjdWJi1+ZLgYE6f/ZKSAYxFnZzBSmFuHZpOG48Y5ajZRmrJBg+qM4m5dWSpLYu/h8B1/3r4DuOWIGaRUQ74Uq2rZ19cBEp2YWDpW5CDH335/u+HD6WWF5mDamOw/OcFpPgGkrcSTXRs/fcWHPFP9YgMY+/qixKz1FjFcKq2xoc00q9QTBBrdT+tnlV/rOsxMXoKLh+bzurEWeAGBXRdtDfwTrcgfJATd3jI6546tqIRKTNryA8ID2FlPVE6VFmS5Py1AYeHchAktIJUlVPYSumiUA4J+51LBmS6aagVctLQCob5wTcEdEE3XhurMtphwAGnAaTSehBlSO8gAVR11ZbomQFXzchqDjRWiJQ/iCciwZdlihgzRrEmNIFL3eGuOv9ObZUwiDMyUL3simKQxhSexwsBoJjNKhmT5KO+ihdSyHgq5Ytaa8y7iQ6r0Myual9+ebcjfBJC+JPgWT1P9W+WHygYr17e8lpy9adUlZEbJWGog5B/1NtRp7EJj2RGuxkQpl4sU75ioXRjRjRHvcwwSTKIkq24gQ4bQPUg53hVr1VeI5w+U6KLvSbvb7g8xuLmeol60fkdzpfexxhgbiXZYkLtkQSBuQCHje0na1umlzoSdbJNdQPG528xLlrA3bg2N2k0dRjMUuIEKLO85uAxAOSEUqH4SfrLlSit1zrZVcaWFEZ6Uvvh7zqjWvddmXvl9rzghqzjoyEyriVfARDS1p53uGIlZeQ8cURxBaeretLikhzMyffT2gLHHtN07QUUlDTqiqjuyzo8ksimvoI+Bni6j3DL2B1pRoQO+7eEyZ8FPaQxU6dRpyl97+KnRFCExo2shYcgJnCVHdARZGZ0HIZf0G+vqSTQR+Kr0lfkl6sv1PVHv1HAn3q1wDRoOWQH554HHFJWWMckd7nkR7Q2MVrK1OW7LYbMn3l7Jq/ZY5inI+QwXXjtqQBMLoaJLXs/GTW81Ol6W2UHf4K+pLA79kHWJVgvVxHZt7qcwzHStmmJqOvX4qU329WfEZmAZgsZ9fTqa8ksfN6EjQ7acwudKLlPZFnLEJL/wFvFJNWJIfsacQxOzGgi11XIlbGxmykAsrFTo2/J8oazYmeiwkSwoclesmFeZM5QLFEIiWDHqDf0m0MLWCqOlX37ExgjiQPWdqbDRtUQnx0yIgSAmgVaJRZZ6nldhmGOJosrNSNJ/yRDbmHWasr9hfEDZkOJHiZaHM4IAdE1MEMjtyEoshGrQw0hhh0GZDYCk+HBSFoMljC+hFk8uZGWc24Nijq6BkGJ8wQReOZEu8+G9A4ZVeUKQg/mjTXjQGxvHOk4I9OAhhR32FXA1UWYCDQyO008IQWXcuv+ok0KsEDHyzJMtD3EH0pb36rM45VJ1iYAi4phZgIOncxv2eGbK52yEq5gAj2WBG/wTfKiw26ECnfJnAl/gl/w+vuf9jwWpIgJnek4aa99R3PCBJssc7C1c74E/NXjaFvZ4H2AJug7+yPSii1W4ZFj1x7e3GzrMch7NdYJebRY7hWJO8Csr8yT5+A86JAZcQn461SS5mw9toEvdZxi5rKMU11kuhEwM3lc+igoo8ENWzkxHvhZrhKbfNZ4h+IHEKKzjg0eY3/pGLBs+GS68X953wB80EfCilU8OSSGPWUYHTPF96FPZBRtdP/SPPy0OCCWF2JB+FpvlDmpqhKCBDZ844lIheyQ1/mGCx7a4rMKLCaEgzQaM3t51VI5/Yb0gDHZiIc2NDYAoV6y/aacuHoNP4tmp7+s96l0EyZ1LY7Ag0HdobdTHPRCNU1+cMLzE0RNH0NGNGIJwpl7QHBTSmWNuzKe77RMuVivk0iT7sFGnUGSvBGgFYzOe9IQRARJiYvcwVIHOJyxO4slrbccx08uo1y6zgRvVkBZ0jQYkuczIChMbL06sU+FS3XO5lW2GEWAwajPMNFoxAOWfBYrCOeNIT9UZgy3dgleDl6m0L/x0KVtbOT7oX9+Nv9v9ZnrOfMOyIidRYVRSupAfkzAN0zmHDYLegIeQTyy35uha8zUi1Ke8L5cfCT3vrYpIIRB01chFM775whsdk94K69Dmg+sXXqm+EcB4Bh649ExZN2R1SDNI7+gmqseFES1OeSrL/1hf0FOMpfNmWmFuMXUWmsvkIIygXgIh64N06nUjPELXPDNPkkPbWFGWKyzjMg/V57NMg86Xgw70oUweQROG5JRm2jHDMI8DYYOLpuyVcy8m+nkECPcbG881SZIpgdI994BkA4Mf/kfaKEm6BaYEllD28jWdwjibPhBkVog1vpkqp3wiTO+JR6IaGqH8tcQH7nL0LTARNZYDDVFmcshfdqBrHx2r24zWonyJWHCGixN25+IlF+pCORrrndHNk7XndRgLI34UHHXSmKxoejjqANBlfwsXxXg2Qvq00R3V5B3wPEWqxjjhrhqPod8Y/Q0yu/tvDzksPe7ynjqc5fFCOYhSdRy1BtrSHqbfL2fCT41kpVeDicVVHe9WaaGZ85mvV69uFmxoloR1sVBE6V4YPMEjwXMo72vpX/9mY5SkiN02K/Ca2UhUa3Vwg3i6e3CMskwe4GZYXJ6VprFGTjl5PjeO4ucDr2YqsrxbjQh70MI0vcqD/lB2mQ/DEl5FJ6cofYg7Zh6MnrNC4oZJug6RInZMFbPNWtqGDD4VIMAbxh5w/6S6Y8pL0k3UQshMV6KsPZbfP3MBx9MEy/n9gHdFtvqSrGVwY5iNRzIzrUmJcFxGfLw7BNb8/wFwMH0xMf0yyQAAAABJRU5ErkJggg==;" vertex="1" parent="1">
          <mxGeometry x="610" y="469.04" width="96.06" height="60.96" as="geometry" />
        </mxCell>
        <mxCell id="8LFO8qr75mRFccLILeyE-8" value="View Your Public NFT on TestNet:&lt;br&gt;https://testnets.opensea.io/" style="rounded=1;whiteSpace=wrap;html=1;" vertex="1" parent="1">
          <mxGeometry x="90" y="305.48" width="190" height="69.04" as="geometry" />
        </mxCell>
      </root>
    </mxGraphModel>
  </diagram>
</mxfile>
